<?xml version="1.0" encoding="UTF-8"?>
<svg width="302px" height="63px" viewBox="0 0 302 63" version="1.1" xmlns="http://www.w3.org/2000/svg" xmlns:xlink="http://www.w3.org/1999/xlink">
    <!-- Generator: Sketch 48.1 (47250) - http://www.bohemiancoding.com/sketch -->
    <title>Logo White</title>
    <desc>Created with Sketch.</desc>
    <defs></defs>
    <g id="Mat.Auxiliar" stroke="none" stroke-width="1" fill="none" fill-rule="evenodd" transform="translate(-679.000000, -303.000000)">
        <g id="Logo-White" transform="translate(664.000000, 288.000000)">
            <path d="M110.018799,18.7990723 L115.978882,18.7990723 L115.978882,36.9517822 C117.318488,35.2034825 118.91918,33.8695725 120.781006,32.9500122 C122.642832,32.0304519 124.663563,31.5706787 126.843262,31.5706787 C131.3843,31.5706787 135.068162,33.1316372 137.894958,36.2536011 C140.721755,39.3755649 142.135132,43.9789735 142.135132,50.0639648 C142.135132,55.8310835 140.738783,60.6218071 137.946045,64.4362793 C135.153306,68.2507515 131.282129,70.157959 126.332397,70.157959 C123.562364,70.157959 121.223764,69.4881659 119.316528,68.1485596 C118.181269,67.3538779 116.966559,66.0824062 115.672363,64.3341064 L115.672363,69 L110.018799,69 L110.018799,18.7990723 Z M125.957764,64.7427979 C129.272722,64.7427979 131.753227,63.4259165 133.399353,60.7921143 C135.045479,58.158312 135.86853,54.6844698 135.86853,50.3704834 C135.86853,46.533306 135.045479,43.3546269 133.399353,40.8343506 C131.753227,38.3140743 129.329484,37.0539551 126.128052,37.0539551 C123.335313,37.0539551 120.888865,38.0870258 118.788635,40.1531982 C116.688405,42.2193707 115.638306,45.6250983 115.638306,50.3704834 C115.638306,53.7989673 116.069698,56.5803116 116.932495,58.7145996 C118.544564,62.7334185 121.552956,64.7427979 125.957764,64.7427979 Z M163.711719,65.0493164 C167.775948,65.0493164 170.562969,63.5110627 172.072864,60.4345093 C173.582759,57.3579558 174.337695,53.9351995 174.337695,50.1661377 C174.337695,46.7603589 173.792779,43.9903671 172.70293,41.8560791 C170.977335,38.4957107 168.003,36.8155518 163.779834,36.8155518 C160.033477,36.8155518 157.308895,38.2459574 155.606006,41.1068115 C153.903116,43.9676657 153.051685,47.418803 153.051685,51.4603271 C153.051685,55.3429149 153.903116,58.5783562 155.606006,61.166748 C157.308895,63.7551399 160.010773,65.0493164 163.711719,65.0493164 Z M163.950122,31.4685059 C168.650097,31.4685059 172.623446,33.0351406 175.870288,36.168457 C179.11713,39.3017735 180.740527,43.9108582 180.740527,49.9958496 C180.740527,55.8764942 179.310122,60.7353324 176.449268,64.5725098 C173.588413,68.4096872 169.149615,70.3282471 163.132739,70.3282471 C158.114892,70.3282471 154.130191,68.6310595 151.178516,65.2366333 C148.226841,61.8422071 146.751025,57.2842083 146.751025,51.5625 C146.751025,45.4320983 148.306308,40.5505553 151.416919,36.9177246 C154.52753,33.2848939 158.705223,31.4685059 163.950122,31.4685059 Z M189.204932,22.3410645 L195.403418,22.3410645 L195.403418,32.524292 L201.227271,32.524292 L201.227271,37.5307617 L195.403418,37.5307617 L195.403418,61.3370361 C195.403418,62.6085269 195.83481,63.4599588 196.697607,63.8913574 C197.174416,64.1411145 197.969086,64.2659912 199.081641,64.2659912 C199.376808,64.2659912 199.694676,64.260315 200.035254,64.2489624 C200.375832,64.2376098 200.773167,64.2092287 201.227271,64.1638184 L201.227271,69 C200.52341,69.2043467 199.791178,69.3519283 199.030554,69.442749 C198.26993,69.5335698 197.446879,69.5789795 196.561377,69.5789795 C193.700523,69.5789795 191.759258,68.846748 190.737524,67.3822632 C189.715791,65.9177783 189.204932,64.016247 189.204932,61.6776123 L189.204932,37.5307617 L184.266577,37.5307617 L184.266577,32.524292 L189.204932,32.524292 L189.204932,22.3410645 Z M207.307642,18.7990723 L213.438013,18.7990723 L213.438013,37.4626465 C214.891145,35.623526 216.196674,34.3293494 217.354639,33.5800781 C219.32999,32.2858822 221.793467,31.6387939 224.745142,31.6387939 C230.035451,31.6387939 233.622818,33.4892393 235.507349,37.1901855 C236.529082,39.2109476 237.039941,42.0149967 237.039941,45.602417 L237.039941,69 L230.739282,69 L230.739282,46.0111084 C230.739282,43.3318958 230.398709,41.3679262 229.717554,40.1191406 C228.604999,38.1210838 226.516153,37.1220703 223.450952,37.1220703 C220.907971,37.1220703 218.603428,37.9962071 216.537256,39.7445068 C214.471083,41.4928066 213.438013,44.7963624 213.438013,49.6552734 L213.438013,69 L207.307642,69 L207.307642,18.7990723 Z M252.179639,32.524292 L252.179639,56.7392578 C252.179639,58.6010835 252.474802,60.1223085 253.065137,61.3029785 C254.154986,63.4826769 256.18707,64.5725098 259.16145,64.5725098 C263.430026,64.5725098 266.336247,62.6653023 267.8802,58.8508301 C268.720292,56.8073628 269.140332,54.0033137 269.140332,50.4385986 L269.140332,32.524292 L275.270703,32.524292 L275.270703,69 L269.480908,69 L269.549023,63.6188965 C268.754342,65.0039132 267.766681,66.173213 266.586011,67.1268311 C264.247376,69.0340672 261.40927,69.9876709 258.071606,69.9876709 C252.872118,69.9876709 249.330161,68.2507498 247.44563,64.7768555 C246.423896,62.9150298 245.913037,60.4288486 245.913037,57.3182373 L245.913037,32.524292 L252.179639,32.524292 Z M284.314087,18.7990723 L290.27417,18.7990723 L290.27417,36.9517822 C291.613776,35.2034825 293.214468,33.8695725 295.076294,32.9500122 C296.93812,32.0304519 298.958851,31.5706787 301.13855,31.5706787 C305.679588,31.5706787 309.36345,33.1316372 312.190247,36.2536011 C315.017043,39.3755649 316.43042,43.9789735 316.43042,50.0639648 C316.43042,55.8310835 315.034072,60.6218071 312.241333,64.4362793 C309.448594,68.2507515 305.577417,70.157959 300.627686,70.157959 C297.857652,70.157959 295.519053,69.4881659 293.611816,68.1485596 C292.476557,67.3538779 291.261847,66.0824062 289.967651,64.3341064 L289.967651,69 L284.314087,69 L284.314087,18.7990723 Z M300.253052,64.7427979 C303.56801,64.7427979 306.048515,63.4259165 307.694641,60.7921143 C309.340768,58.158312 310.163818,54.6844698 310.163818,50.3704834 C310.163818,46.533306 309.340768,43.3546269 307.694641,40.8343506 C306.048515,38.3140743 303.624772,37.0539551 300.42334,37.0539551 C297.630601,37.0539551 295.184154,38.0870258 293.083923,40.1531982 C290.983693,42.2193707 289.933594,45.6250983 289.933594,50.3704834 C289.933594,53.7989673 290.364986,56.5803116 291.227783,58.7145996 C292.839852,62.7334185 295.848245,64.7427979 300.253052,64.7427979 Z" id="bothub" fill="#FFFFFF"></path>
            <g id="Group-Copy" stroke="#FFFFFF" stroke-linecap="round" stroke-linejoin="round" stroke-width="5">
                <path d="M47.2016363,78.8026646 C43.8718355,82.1324653 38.4726584,82.1324653 35.1428576,78.8026646 L15.0438659,58.7036729 C11.7132948,55.3738721 11.7132948,49.974695 15.0438659,46.6448942 L35.1428576,26.5459025 C38.4726584,23.2153314 43.8718355,23.2153314 47.2016363,26.5459025 L67.300628,46.6448942 C70.6304287,49.974695 70.6311992,55.3738721 67.300628,58.7036729 L47.2016363,78.8026646 Z" id="Stroke-1" transform="translate(41.172103, 52.673995) rotate(-45.000000) translate(-41.172103, -52.673995) "></path>
                <path d="M58.8590395,67.1452614 C55.5292387,70.4750621 50.1300616,70.4750621 46.8002608,67.1452614 L26.7012691,47.0462697 C23.370698,43.7164689 23.370698,38.3172918 26.7012691,34.987491 L46.8002608,14.8884993 C50.1300616,11.5579282 55.5292387,11.5579282 58.8590395,14.8884993 L78.9580312,34.987491 C82.2878319,38.3172918 82.2886024,43.7164689 78.9580312,47.0462697 L58.8590395,67.1452614 Z" id="Stroke-3" transform="translate(52.829506, 41.016591) rotate(-45.000000) translate(-52.829506, -41.016591) "></path>
            </g>
        </g>
    </g>
</svg>