<?xml version="1.0" encoding="UTF-8"?>
<svg width="160px" height="40px" viewBox="0 0 160 40" version="1.1" xmlns="http://www.w3.org/2000/svg" xmlns:xlink="http://www.w3.org/1999/xlink">
    <!-- Generator: Sketch 48.1 (47250) - http://www.bohemiancoding.com/sketch -->
    <title>logo-white</title>
    <desc>Created with Sketch.</desc>
    <defs></defs>
    <g id="Bot-description" stroke="none" stroke-width="1" fill="none" fill-rule="evenodd" transform="translate(-26.000000, -18.000000)">
        <g id="logo-white" transform="translate(15.000000, 6.000000)" fill="#FFFFFF">
            <g id="Group_16" transform="translate(31.819805, 32.344466) rotate(-45.000000) translate(-31.819805, -32.344466) translate(6.819805, 12.344466)" fill-rule="nonzero">
                <path d="M32.393,34.977 C30.9091235,36.4603181 28.5038765,36.4603181 27.02,34.977 L14.351,22.307 C12.8676819,20.8231235 12.8676819,18.4178765 14.351,16.934 L27.021,4.264 C28.5048765,2.78068192 30.9101235,2.78068192 32.394,4.264 L45.064,16.934 C46.5473181,18.4178765 46.5473181,20.8231235 45.064,22.307 L32.393,34.977 Z M34.622,37.206 L47.292,24.536 C50.006402,21.8214884 50.006402,17.4205116 47.292,14.706 L34.622,2.036 C33.3185728,0.732250271 31.5505525,-0.000215816705 29.707,-0.000215816705 C27.8634475,-0.000215816705 26.0954272,0.732250271 24.792,2.036 L12.122,14.706 C10.8182503,16.0094272 10.0857842,17.7774475 10.0857842,19.621 C10.0857842,21.4645525 10.8182503,23.2325728 12.122,24.536 L24.792,37.206 C27.5065116,39.920402 31.9074884,39.920402 34.622,37.206 Z" id="Path_8"></path>
                <path d="M22.307,34.977 C20.8231235,36.4603181 18.4178765,36.4603181 16.934,34.977 L4.265,22.307 C2.78168192,20.8231235 2.78168192,18.4178765 4.265,16.934 L16.935,4.264 C18.4188765,2.78068192 20.8241235,2.78068192 22.308,4.264 L34.978,16.934 C36.4613181,18.4178765 36.4613181,20.8231235 34.978,22.307 L22.307,34.977 Z M24.536,37.206 L37.206,24.536 C39.920402,21.8214884 39.920402,17.4205116 37.206,14.706 L24.536,2.036 C23.2325728,0.732250271 21.4645525,-0.000215816705 19.621,-0.000215816705 C17.7774475,-0.000215816705 16.0094272,0.732250271 14.706,2.036 L2.036,14.706 C0.732250271,16.0094272 -0.000215816705,17.7774475 -0.000215816705,19.621 C-0.000215816705,21.4645525 0.732250271,23.2325728 2.036,24.536 L14.706,37.206 C17.4205116,39.920402 21.8214884,39.920402 24.536,37.206 Z" id="Path_14"></path>
            </g>
            <g id="bothub" transform="translate(58.047000, 4.187000)" font-family=".SFNSDisplay, .SF NS Display" font-size="36" font-weight="normal">
                <text>
                    <tspan x="0" y="35">bothub</tspan>
                </text>
            </g>
        </g>
    </g>
</svg>