<?xml version="1.0" encoding="iso-8859-1"?>
<!-- Generator: Adobe Illustrator 24.1.1, SVG Export Plug-In . SVG Version: 6.00 Build 0)  -->
<svg version="1.1" id="Layer_1" xmlns="http://www.w3.org/2000/svg" xmlns:xlink="http://www.w3.org/1999/xlink" x="0px" y="0px"
	 viewBox="0 0 1353.65 284.121" style="enable-background:new 0 0 1353.65 284.121;" xml:space="preserve">
<g>
	<g>
		<g>
			<g>
				<path style="fill:#FFFFFF;" d="M321.718,141.668c-0.025,0.515-0.049,1.055-0.074,1.571c-0.221-0.074-0.417-0.147-0.613-0.221
					c0.025-0.442,0.049-0.884,0.074-1.325C321.3,141.668,321.497,141.668,321.718,141.668z"/>
			</g>
		</g>
		<g>
			<g>
				<path style="fill:#FFFFFF;" d="M344.368,52.171h-0.172c-5.865,0.098-10.527,4.933-10.429,10.797
					c0.049,3.288,1.595,6.184,3.975,8.074c-4.712,22.11-9.423,51.092-12.834,73.668c-0.147-0.074-0.27-0.123-0.393-0.196
					c-0.417-0.221-0.834-0.417-1.227-0.589c-0.589-0.27-1.129-0.491-1.644-0.687c-0.221-0.074-0.417-0.147-0.613-0.221
					c0.025-0.442,0.049-0.884,0.074-1.325C323.435,77.496,296.344,7.288,177.154,0C56.959,7.362,30.407,78.65,33.278,143.263
					c-0.957,0.368-2.037,0.834-3.19,1.423c-3.411-22.577-8.123-51.558-12.834-73.644c2.38-1.89,3.926-4.785,3.975-8.074
					c0.098-5.865-4.589-10.699-10.429-10.797c-5.816,0-10.699,4.589-10.798,10.429c-0.098,5.202,3.607,9.595,8.54,10.577
					c2.675,20.81,7.288,56.441,10.797,81.766c-3.902,6.65-5.963,16.687-2.552,31.779c5.472,24.319,15.19,36.638,25.595,41.619
					c2.209,1.055,4.442,1.767,6.699,2.209c1.497,0.294,3.018,0.442,4.515,0.491c3.092,7.116,5.988,12.54,8.196,15.754
					c19.804,28.687,44.049,37.325,44.049,37.325h142.6c0,0,24.27-8.638,44.073-37.325c2.209-3.215,5.104-8.638,8.196-15.754h0.491
					c3.607-0.074,7.288-0.835,10.896-2.454c10.577-4.81,20.54-17.153,26.11-41.865c3.411-15.067,1.325-25.104-2.552-31.754
					c3.485-25.325,8.123-60.981,10.797-81.791c2.111-0.393,4.025-1.448,5.546-3.018c1.963-2.037,3.018-4.712,2.969-7.558
					C354.871,56.81,350.135,52.171,344.368,52.171z M268,240.293l-1.791,0.196c-26.846,3.165-54.625,6.454-81.987,6.724
					c-1.202,0.025-2.405,0.025-3.607,0.025c-21.276,0-42.38-1.816-63.95-3.828c-7.706-0.712-15.583-1.522-23.362-2.356
					c-0.491-0.049-1.055-0.073-2.16-0.098c-0.982-0.025-3.117-0.074-4.54-0.221c-25.251-37.227-30.601-87.386-31.607-101.104
					c16.368-6.699,34.797-9.767,52.319-12.294c17.129-2.503,35.435-4.294,55.926-5.497c5.914-0.368,12.074-0.54,18.307-0.54
					c28.589,0,59.46,3.607,91.778,10.748c7.951,1.742,17.129,4,25.988,7.583C298.282,153.324,292.982,203.14,268,240.293z"/>
			</g>
		</g>
	</g>
	<rect x="147.363" y="197.937" style="fill:#FFFFFF;" width="8.515" height="8.515"/>
	<rect x="198.43" y="197.937" style="fill:#FFFFFF;" width="8.515" height="8.515"/>
	<rect x="147.363" y="197.937" style="fill:#FFFFFF;" width="8.515" height="8.515"/>
	<rect x="198.43" y="197.937" style="fill:#FFFFFF;" width="8.515" height="8.515"/>
	<g>
		<g>
			<rect x="113.302" y="163.876" style="fill:#FFFFFF;" width="17.031" height="25.546"/>
			<rect x="147.363" y="197.937" style="fill:#FFFFFF;" width="8.515" height="8.515"/>
			<polygon style="fill:#FFFFFF;" points="198.43,206.453 198.43,214.943 189.915,214.943 189.915,223.458 164.369,223.458 
				164.369,214.943 155.878,214.943 155.878,206.453 			"/>
			<rect x="198.43" y="197.937" style="fill:#FFFFFF;" width="8.515" height="8.515"/>
		</g>
	</g>
</g>
<g>
	<path style="fill:#FFFFFF;" d="M586.554,177.165c0,45.95-32.706,71.628-65.411,71.628c-18.921,0-33.787-7.568-46.22-20.543v7.028
		c0,6.757-5.406,12.163-12.434,12.163c-6.757,0-12.164-5.406-12.164-12.163V59.857c0-7.027,5.406-12.433,12.164-12.433
		c7.027,0,12.434,5.406,12.434,12.433v66.222c12.434-12.974,27.299-20.542,46.22-20.542
		C553.848,105.537,586.554,131.215,586.554,177.165z M561.957,177.165c0-31.895-18.65-48.653-44.329-48.653
		c-17.569,0-32.165,8.649-42.706,20.272v56.762c10.542,11.622,25.137,20.271,42.706,20.271
		C543.307,225.817,561.957,209.06,561.957,177.165z"/>
	<path style="fill:#FFFFFF;" d="M750.895,177.165c0,42.706-27.57,71.628-69.195,71.628c-41.896,0-69.195-28.922-69.195-71.628
		c0-42.707,27.3-71.628,69.195-71.628C723.325,105.537,750.895,134.458,750.895,177.165z M726.299,176.895
		c0-35.679-24.057-48.923-44.599-48.923c-20.813,0-44.599,13.245-44.599,48.923c0,35.949,23.786,49.464,44.599,49.464
		C702.242,226.358,726.299,212.844,726.299,176.895z"/>
	<path style="fill:#FFFFFF;" d="M861.174,234.467c0,4.596-2.433,7.568-6.217,9.461c-6.486,2.973-13.784,4.865-22.434,4.865
		c-12.704,0-39.464-2.162-39.464-35.68v-83.791h-19.19c-2.974,0-5.136-2.163-5.136-5.136c0-1.622,0.812-3.243,2.433-4.595
		l36.76-35.949c0.812-0.811,2.433-2.433,4.596-2.433c2.973,0,5.136,2.433,5.136,5.406v21.624h30.543
		c5.946,0,10.541,4.595,10.541,10.542s-4.595,10.542-10.541,10.542h-30.543v81.628c0,15.948,10.812,16.218,17.568,16.218
		c8.649,0,11.623-2.433,16.218-2.433C856.309,224.736,861.174,228.791,861.174,234.467z"/>
	<path style="fill:#FFFFFF;" d="M1011.187,158.515v76.764c0,6.757-5.676,12.163-12.434,12.163s-12.163-5.406-12.163-12.163v-74.061
		c0-20.542-8.649-32.976-29.732-32.976c-19.461,0-33.517,12.434-44.328,25.948v81.088c0,6.757-5.677,12.163-12.434,12.163
		c-6.758,0-12.163-5.406-12.163-12.163V59.857c0-7.027,5.405-12.433,12.163-12.433c6.757,0,12.434,5.406,12.434,12.433v70.547
		c11.353-12.434,26.219-24.867,50.274-24.867C993.618,105.537,1011.187,129.593,1011.187,158.515z"/>
	<path style="fill:#FFFFFF;" d="M1051.463,195.814v-76.763c0-6.757,5.676-12.164,12.434-12.164c6.757,0,12.163,5.406,12.163,12.164
		v74.061c0,20.542,8.649,32.976,29.732,32.976c19.461,0,33.517-12.434,44.328-25.948v-81.088c0-6.757,5.676-12.164,12.434-12.164
		c6.757,0,12.163,5.406,12.163,12.164v115.956c0,7.027-5.406,12.434-12.163,12.434c-6.758,0-12.434-5.406-12.434-12.434v-11.082
		c-11.353,12.434-26.219,24.867-50.275,24.867C1069.031,248.793,1051.463,224.736,1051.463,195.814z"/>
	<path style="fill:#FFFFFF;" d="M1353.65,177.165c0,45.95-32.705,71.628-65.411,71.628c-18.92,0-33.786-7.568-46.22-20.543v7.028
		c0,6.757-5.406,12.163-12.434,12.163c-6.758,0-12.163-5.406-12.163-12.163V59.857c0-7.027,5.405-12.433,12.163-12.433
		c7.027,0,12.434,5.406,12.434,12.433v66.222c12.434-12.974,27.3-20.542,46.22-20.542
		C1320.945,105.537,1353.65,131.215,1353.65,177.165z M1329.053,177.165c0-31.895-18.65-48.653-44.328-48.653
		c-17.569,0-32.165,8.649-42.706,20.272v56.762c10.541,11.622,25.137,20.271,42.706,20.271
		C1310.403,225.817,1329.053,209.06,1329.053,177.165z"/>
</g>
<rect x="147.363" y="197.937" style="fill:#FFFFFF;" width="8.515" height="8.515"/>
<rect x="198.43" y="197.937" style="fill:#FFFFFF;" width="8.515" height="8.515"/>
<rect x="223.976" y="163.876" style="fill:#FFFFFF;" width="17.031" height="25.546"/>
<g>
</g>
<g>
</g>
<g>
</g>
<g>
</g>
<g>
</g>
<g>
</g>
<g>
</g>
<g>
</g>
<g>
</g>
<g>
</g>
<g>
</g>
<g>
</g>
<g>
</g>
<g>
</g>
<g>
</g>
</svg>
