<svg xmlns="http://www.w3.org/2000/svg" xmlns:xlink="http://www.w3.org/1999/xlink" viewBox="0 0 438.464 378.007">
  <defs>
    <style>.a{fill:#eaf0f4;}.b{fill:#0b1c2b;}.c,.l{fill:#0e263b;}.d{fill:#2a8e6c;}.e{fill:#45403f;}.f{fill:#ba674e;}.g{fill:#c33e71;}.h{fill:#173550;}.i{fill:#2c9d77;}.j{fill:#3ad4a1;}.k{fill:#37be91;}.l{opacity:0.66;}.m{opacity:0.101;fill:url(#a);}.n{fill:#399073;}.o{fill:#fff;}.p{fill:#d1d8dd;}.q{fill:#869196;}.r{fill:#4a2a79;}.s{fill:#a9b7be;}</style>
    <linearGradient id="a" x1="0.554" y1="-0.055" x2="0.519" y2="0.556" gradientUnits="objectBoundingBox">
      <stop offset="0" stop-color="#fff"/>
      <stop offset="1" stop-color="gray"/>
    </linearGradient>
  </defs>
  <g transform="translate(-22.305 -113.138)">
    <path class="a" d="M-1689.963,397.527c32.289-167.354-81.395-252.035-103.589-235.309s-18.776,115.828-124.963,78.749-202.382-10.379-204.148,93.176,71.806,146.912,155.964,180.119S-1722.252,564.881-1689.963,397.527Z" transform="translate(2145 -47)"/>
    <path class="b" d="M-1515.07,1013.132s53.936,2.96,59.779,4.183,5.885,9.828,4.743,13.157-15.659,38.856-23.033,52.924-7.27,19.524-7.27,19.524l-4.157-1.814h-1.317s11.055-44.348,11.079-55.1-43.943-21.162-43.943-21.162Z" transform="translate(1773.328 -628.72)"/>
    <path class="c" d="M-1225.146,814.088s4.973,2.165,6.172,8.891-4.1,35.614,5.762,40.273,17.345-36.527,17.345-36.527h3.712s4.762,38.222-16.339,54.1-31.629-21.921-31.629-21.921Z" transform="translate(1489.888 -512.163)"/>
    <circle class="d" cx="11.968" cy="11.968" r="11.968" transform="translate(252.533 299.188)"/>
    <path class="c" d="M-1417,1006.733s5.88,4.381,9.818,5.3a46.951,46.951,0,0,0,8.325,1.005c.707.07,2.012,2.066-2.455,2.617s-17.613.443-19.936.863-1.578-4.112-1.166-5.394c.288-.895.543-2.33,1-3.83l.17-.562Z" transform="translate(1742.229 -533.958)"/>
    <path class="b" d="M7.5.45S13.69,4.943,17.628,5.863a45.253,45.253,0,0,0,7.547,1.081c.707.07,2.012,2.066-2.455,2.617s-18,1.994-20.324,2.414S-.262,6.356.151,5.074,1.705,0,1.705,0Z" transform="matrix(0.978, 0.208, -0.208, 0.978, 285.343, 470.633)"/>
    <path class="c" d="M-1561.874,1016.264s-5.629,14.094,4.842,22.21,32.642,13.679,56.261,12.592,36.229-1.749,36.229-1.749,5.588,38.08,6.413,46.321,1.468,7.267,1.468,7.267,4.864-.308,3.9-1.208,0-6.793,0-6.793,4.682-33.518,4.488-47.942-5.218-18.333-5.218-18.333-69.156-12.378-76.152-14.495-23.6-4.227-23.6-4.227Z" transform="translate(1778.343 -628.354)"/>
    <path class="e" d="M10.845,36.291s-9.637.626-10.713-8.1S4.81,19.369,7.839,14.662,8.215.754,19.02.061,32.38,4.835,32.38,4.835s5.163-2.266,9.67-1.776,7.192,2.723,8.78,7.028-1.236,5.585-.79,8.063,10.318,5.173,8.98,13.037S49.6,41.038,46.147,41.229,41.169,45.292,37,45.649s-9.712,3.794-14.224,1.78S10.845,36.291,10.845,36.291Z" transform="translate(239.189 253.892) rotate(-22)"/>
    <path class="c" d="M-1516.472,902.437s-.578,4.753-2.192,6.826-7.5,4.027-7.5,4.027l19.407,4.881s.541-11.64,1.868-14.086,0-12.336,0-12.336l-10.933,7.041Z" transform="translate(1774.12 -614.947)"/>
    <path class="f" d="M20.584,6.172v5.575l-1.512,2.219,1.512,8.893H16.605L14.738,35.386,0,28.068,2.765,7.751,19.072,0Z" transform="matrix(0.985, 0.174, -0.174, 0.985, 269.292, 262.616)"/>
    <path class="c" d="M-1510.928,920.406l2.991,8.04s-.137,16.611-2.1,27.406-8.584,25.042-8.234,33.235a127.62,127.62,0,0,1,0,13.1s-4.2,6.432-11.641,3.667-13.559-5.571-23.424-2.147-10.112,5.31-10.112,5.31-4.961-21.924,0-40.463,15.526-46.327,28.172-52.331,11.49-4.652,11.49-4.652a19.807,19.807,0,0,0,6.829,6.332C-1512.264,920.6-1510.928,920.406-1510.928,920.406Z" transform="translate(1778.6 -617.182)"/>
    <path class="g" d="M-1593.561,915.345s1.2-18.228,14.339-17.012,10.74,61.47,10.947,84.945-4.814,36.512,9.517,42.865,48.143.958,57.943,2.875,13.578,10.527,11.363,15.531-65.06,6.755-78.823,0-20.2-19.724-19.916-40.477-1.242-50.048-3.3-59.223S-1593.561,915.345-1593.561,915.345Z" transform="translate(1781.766 -615.688)"/>
    <rect class="c" width="23.05" height="10.638" rx="5.319" transform="translate(223.278 427.735)"/>
    <rect class="c" width="12.411" height="31.029" transform="translate(228.597 435.714)"/>
    <path class="h" d="M-1548.736,1048.974s11.935-44.886,7.794-45.908-31.756,3.544-34.438,1.344,1.268-8.305,3.866-8.85,75.851-5.187,80.239-4.143,6.2,7.971,3.063,8.5-41.218-.268-42.716,4.488-6.031,42.454-2.785,46.144S-1548.736,1048.974-1548.736,1048.974Z" transform="translate(1779.805 -626.239)"/>
    <g transform="translate(236.399 217.529) rotate(20)">
      <path class="i" d="M1.556,0H3.429L5.178,38.33H0Z" transform="translate(26.217 5.862) rotate(-62)"/>
      <path class="j" d="M35.231,0C49.04,0,60.489,7.945,66.359,19.579c2.367,4.69,2.178,10.065,2.178,15.788a163.058,163.058,0,0,1-1.5,16.773S61.448,59.5,58.05,62.386c-6.1,5.182-36.632,3.309-42.945-2.294C7.875,53.675,0,43.028,0,32.5,0,12.968,15.7,0,35.231,0Z" transform="translate(19.015 0.471)"/>
      <path class="c" d="M4.057,24.382s-7.647.63-1.944,6.881S28.834,39.639,38,37.04s8.163-8.651,7.878-21.72C44.915,5.948,45.391.107,35.236.082-4.452-1.642,4.057,24.382,4.057,24.382Z" transform="translate(42.09 17.111)"/>
      <ellipse class="k" cx="2.989" cy="2.989" rx="2.989" ry="2.989" transform="matrix(0.788, -0.616, 0.616, 0.788, 0, 13.57)"/>
      <path class="l" d="M7.794,6.371C12.941,2.364,23.773-.418,32.468.052s10.4,1.574,11.383,2.236,9.7,9.986,7.162,22.675c-.284,1.421-.6,2.687-.958,3.89-2.649,8.869-6.751,9.17-8.825,9.773-2.336.679-7.67,2.272-24.6-.271S0,31.553,0,31.553,2.645,10.379,7.794,6.371Z" transform="translate(42.562 16.743)"/>
      <path class="m" d="M0,20.9H0a67.992,67.992,0,0,1,2.362-8.709C3.413,9.263,4.531,7.306,5.683,6.371A20.792,20.792,0,0,1,9.9,3.81a36.89,36.89,0,0,1,5.41-2.016A44.869,44.869,0,0,1,27.476,0c.639,0,1.271.017,1.88.052A43.56,43.56,0,0,1,37.592,1.1a7.389,7.389,0,0,1,2.686,1.19,19.6,19.6,0,0,1,3.675,4.868,28.374,28.374,0,0,1,2.282,5.052,25.727,25.727,0,0,1,1.3,6.426,15.421,15.421,0,0,0-4.406-1.879,32.236,32.236,0,0,0-8.364-.975,59.932,59.932,0,0,0-8.334.637c-5.472.776-10.237,1.746-14.441,2.6C7.007,20.033,3.072,20.834,0,20.9Z" transform="translate(44.886 15.606)"/>
      <ellipse class="i" cx="12.951" cy="15.94" rx="12.951" ry="15.94" transform="translate(30.503 18.403)"/>
      <path class="k" d="M1.7,0H3.738L5.645,41.794H0Z" transform="translate(2.227 16.282) rotate(-62)"/>
      <ellipse class="k" cx="4.151" cy="4.981" rx="4.151" ry="4.981" transform="translate(36.813 29.361)"/>
      <ellipse class="n" cx="1.66" cy="2.158" rx="1.66" ry="2.158" transform="translate(38.805 32.018)"/>
      <ellipse class="i" cx="2.741" cy="2.741" rx="2.741" ry="2.741" transform="matrix(0.788, -0.616, 0.616, 0.788, 24.174, 3.375)"/>
      <rect class="o" width="2.657" height="5.977" transform="translate(65.703 32.018)"/>
      <rect class="o" width="2.657" height="5.977" transform="translate(83.635 32.018)"/>
    </g>
    <path class="p" d="M-1173.839,878s-6.1-.32-7.181,2.024,75.523,6.093,106.832,24.792-41.038,87.6-26.608,80.784,54.669-38.912,70.388-105.575Z" transform="translate(1483.183 -520.299)"/>
    <path class="q" d="M-1106.564,833.024s20.576,31.6,13.415,34-21.727,4.7-21.727,4.7h28.145s5.515,1.02,5.329-6.729-26.8-38.964-26.8-38.964Z" transform="translate(1476.563 -512.632)"/>
    <path class="r" d="M-1245.37,856.683Z" transform="translate(1490.673 -517.711)"/>
    <path class="c" d="M-1190.565,828.488s-5.152-7.879-3.61-10.328,5.668-2.863,5.645-3.2a51.126,51.126,0,0,1,2.816-8.143c1.273-2.675,1.919-2.695,1.919-2.695h.82a71.814,71.814,0,0,0-2.022,13.05,46,46,0,0,1-1.933,11.314Z" transform="translate(1484.707 -511.919)"/>
    <circle class="s" cx="2.66" cy="2.66" r="2.66" transform="translate(348.279 352.38)"/>
    <rect class="s" width="34.575" height="3.546" rx="1.773" transform="matrix(0.995, -0.105, 0.105, 0.995, 318.928, 354.1)"/>
    <path class="h" d="M-1921.4,386.514s1.529,26.1,21.543,32.9,59.967,5.7,65.885,5.527,8.311,2.137,6.917,3.427-20.142,6.561-47.55,3.957-33.3-1.6-44.747-16.7-7.133-45.876-7.7-57.673-4.55-57.15-3.666-56.793,7.031,36.768,6.991,56.793S-1921.4,386.514-1921.4,386.514Z" transform="translate(2118.798 0.83)"/>
    <path class="k" d="M-1102.353,1079.53s-4.5-13.8,3.1-31.257,21.066-10.015,26.232-11.594,4.6-.619,5.871,0,5.826,6.04,9.334,7.336,3.6,1.926,3.6,1.926,5.316,3.033,6.566,12.965c1.053,8.363-3.449,16.7-8.69,25.341-.38.359-4.89-1.6-4.89-1.6s-17.554-4.729-27.336-12.921S-1102.353,1079.53-1102.353,1079.53Z" transform="translate(1321.922 -742.111)"/>
    <path class="c" d="M-1521.681,915.365s3.2,1.591,3.445,15.623.258,29.519,16.277,33.791,42.08-6.48,47.169-6.528a13.957,13.957,0,0,1,8.735,3.292l6.582,9.146h-2.187l-4.395-4.039s-4.8,3.241-6.93,2.9-5.237-7.177-5.237-7.177-32.785,23.211-52.1,19.923-28.808-32.646-28.542-44.275,2.611-17.316,6.415-20.063S-1521.681,915.365-1521.681,915.365Z" transform="translate(1775.56 -617.627)"/>
    <path class="k" d="M-1069,1037.191c.39-.492,4.153-7.154,4.153-7.154a65.674,65.674,0,0,0,14.534,7.154c7.478,2.383,5.576,12.854,5.576,12.854s-7.093-7.142-13.509-9.815A39.712,39.712,0,0,0-1069,1037.191Z" transform="translate(1316.214 -740.568)"/>
    <rect class="j" width="7.979" height="4.433" rx="2.216" transform="matrix(0.799, -0.602, 0.602, 0.799, 319.203, 344.948)"/>
    <rect class="j" width="7.979" height="4.433" rx="2.216" transform="matrix(0.799, -0.602, 0.602, 0.799, 292.607, 308.6)"/>
    <path class="c" d="M46.88,0s-5.2,22.94,1.982,31.51S82.216,46.35,78.151,47.565s-28.657-.255-53.207-8.156-31.97-12-17.811-11.549,25.6,6.2,27.229-5.609S46.88,0,46.88,0Z" transform="matrix(0.996, -0.087, 0.087, 0.996, 192.181, 443.387)"/>
    <path class="c" d="M-1727.285,533.34Z" transform="translate(2054.253 -60.224)"/>
    <rect class="s" width="99.292" height="4.433" rx="2.216" transform="translate(365.566 350.163) rotate(-90)"/>
    <circle class="j" cx="15.514" cy="15.514" r="15.514" transform="translate(229.483 292.095)"/>
    <path class="j" d="M11.082,0C17.2,0,22.163,7.588,22.163,16.949S17.2,33.9,11.082,33.9,0,26.31,0,16.949,4.961,0,11.082,0Z" transform="translate(218.486 290.899) rotate(-40)"/>
    <path class="s" d="M-1677.657,280.362s3.753,40.42,3.653,53.164-4.883,39.827-4.883,39.827Z" transform="translate(2047.656 -26.067)"/>
  </g>
</svg>
