<svg xmlns="http://www.w3.org/2000/svg" xmlns:xlink="http://www.w3.org/1999/xlink" viewBox="0 0 325.538 441.776">
  <defs>
    <linearGradient id="gradient" x1="1.343" y1="0.219" x2="0.04" y2="1.046"                   gradientUnits="objectBoundingBox">
      <stop offset="0" stop-color="#d87f7f"/>
      <stop offset="1" stop-color="#d06969"/>
    </linearGradient>
  </defs>
  <g transform="translate(0 0)">
    <path style="fill:#fabd33;" d="M-2481.064,300.406s7.058-19.316,27.486-11.724,43.443-16.081,50.21-20.183,21.73-2.424,23.5-5.849-10.587-16.916-18.716-16.425-28.278,35.716-46.969,36.475-24.257-1.9-29.023,3.1a127.351,127.351,0,0,0-10.127,12.767Z" transform="translate(2705.229 -155.29)"/>
    <path style="fill:#fabd33;" d="M-2493.68,289.737c.99-.027,3.505-4.7,21.949,8.452s40.132,11.786,48.368,8.173,13.823-4.919,20.381-4.239,9.767-1.7,8.543-5.442-11.143-7.428-17.286-6.944-12.16,10.9-25.358,10.164-40.538-3.221-40.538-3.221Z" transform="translate(2707.723 -159.274)"/>
    <path style="fill:#fabd33;" d="M-2493.721,285.245s-7.771-.026-10.93,2.344-1.071,7.651,1.93,9.861,12.439,2.773,21.546,0,7.8-4.325,7.8-4.325a18.688,18.688,0,0,0-7.8-5.535A79.8,79.8,0,0,0-2493.721,285.245Z" transform="translate(2706.663 -158.499)"/>
    <path style="fill:#2b2646;" d="M55.33,6C23.581,25.641,14.273,97.23,12,102.376c-1.033,8.471,1.929,8.707.9,14.13C7.673,144.028,0,207.871,0,207.871l8.3,4.2,25.244-99.647L73.413,59.432,88.736,21.225S87.079-13.64,55.33,6Z" transform="matrix(0.875, 0.485, -0.485, 0.875, 128.318, 195.257)"/>
    <path style="fill:#312b53;" d="M83.726,18.335S47.151,86.841,44.942,93.8,47.981,107.943,30,151.162,0,206.729,0,206.729l6.781,2.03s67.4-69.044,67.318-93.165,32.879-42.307,49.993-62.273S126.274,3,126.274,3L94.537,0Z" transform="matrix(0.875, 0.485, -0.485, 0.875, 113.63, 195.046)"/>
    <path style="fill:#b26d6d;" d="M-3912.715,168.837s-18.192,3.849-27.782,18.508-8.321,36.873-18.347,45.232a152.306,152.306,0,0,0-16.07,15.33l11.2,3.7,30.326-31.318Z" transform="translate(4119.221 -38.237)"/>
    <path style="fill:#41d3ac;" d="M-3946.1,209.146s3.127-4.847-2.319-8.8-5.325-8.371-5.149-10.066,3.419-1.516,9.374-7.8,14.742-10.667,18.143-12.1a19.537,19.537,0,0,1,6.2-1.53,63.124,63.124,0,0,0-15.559,20.242C-3941.838,202.169-3946.1,209.146-3946.1,209.146Z" transform="translate(4126.385 -38.231)"/>
    <path style="fill:#267272;" d="M-3893.687,198.992s6.235-2.211,9.6,2.381.489,8.428-2.088,8.675-5.887-1.107-8.22,3.107-8.315-11.783-8.315-11.783Z" transform="translate(4143.524 -28.267)"/>
    <path style="fill:#5e2a84;" d="M23.213,77.68S2.586,79.019.283,60.336,10.3,41.458,16.778,31.384,17.585,1.614,40.711.13s28.6,10.219,28.6,10.219,11.051-4.851,20.7-3.8S105.4,12.377,108.8,21.591s-2.645,11.955-1.691,17.259,22.086,11.073,19.222,27.905S106.168,87.841,98.775,88.25s-10.654,8.7-19.577,9.46-20.789,8.121-30.447,3.811S23.213,77.68,23.213,77.68Z" transform="matrix(0.848, -0.53, 0.53, 0.848, 143.614, 67.086)"/>
    <path style="fill:#d57676;" d="M-3926.358,161.464l-.574,11.858s-5.332,3.227-5.609,7.056,4.481,8.792,4.481,8.792a12.954,12.954,0,0,0,11.534,3.368c7.1-1.4,6.781-10.177,6.781-10.177l-.931-26.71Z" transform="translate(4133.48 -42.676)"/>
    <path style="fill:#3ad4a1;" d="M-3912.021,168.863s-8.608,2.868-17.641,18.789-10.864,26-17.9,43.318-29.277,29.039-29.277,29.039l79.806,38.227s12.161-33.459,13.057-56.435-1.151-56.13-1.151-56.13l-9.744-15.828s-5.832,14.423-15.178,12.338S-3912.021,168.863-3912.021,168.863Z" transform="translate(4118.573 -38.229)"/>
    <ellipse style="fill:#d87f7f;" cx="23.39" cy="30.741" rx="23.39" ry="30.741" transform="matrix(0.995, -0.105, 0.105, 0.995, 185.449, 66.592)"/>
    <ellipse cx="1.337" cy="2.005" rx="1.337" ry="2.005" transform="matrix(0.995, -0.105, 0.105, 0.995, 214.043, 99.57)"/>
    <ellipse cx="1.337" cy="2.005" rx="1.337" ry="2.005" transform="matrix(0.995, -0.105, 0.105, 0.995, 195.448, 101.805)"/>
    <path style="fill:url(#gradient);" d="M-3909.651,169.546s17.917,10.538,23.753,27.469,14.484,61.754,0,69.217-38.613,21.221-38.613,21.221l-8.316-4.52s26.89-20.839,32.955-27.147-4.615-35.448-4.615-35.448Z" transform="translate(4133.387 -37.999)"/>
    <path style="fill:#5e2a84;" d="M2.242,8.442s-.959,12.033,8.722,15.485,17.125-4.989,19.782,0S34.323,36.421,43.479,36.4s12.7-19.289-9.607-30.625S0,3.295,0,3.295Z" transform="matrix(0.995, -0.105, 0.105, 0.995, 190.767, 61.91)"/>
    <path style="fill:#3ad4a1;" d="M-3914.858,167.9s13.392,7.636,20.92,20.641a274.023,274.023,0,0,0,16.283,24.586s-4.835-6.377-11.318-3-9.437,10.182-14.635,11.888-6.751,0-6.751,0-10.163-30.048-8.28-40.472,3.995-11.175,3.995-11.175Z" transform="translate(4138.083 -38.552)"/>
    <path style="fill:#b8c2d0;" d="M3.931,40.744,0,21.124S90.406-3.376,92.16.395a31.44,31.44,0,0,1,2.168,5.649s-8.872,40.111-10.549,40.7S10.41,43.37,10.41,43.37A4.293,4.293,0,0,1,5,42.11c-2.167-2.944-.475.182-.475.182h0Z" transform="translate(132.087 198.89) rotate(31)"/>
    <rect style="fill:#fff;" width="18.712" height="2.673" rx="1" transform="matrix(0.995, -0.105, 0.105, 0.995, 184.395, 94.925)"/>
    <rect style="fill:#fff;" width="18.712" height="2.673" rx="1" transform="matrix(0.995, -0.105, 0.105, 0.995, 206.992, 92.55)"/>
    <rect style="fill:#fff;" width="6.683" height="2.673" rx="1" transform="matrix(0.995, -0.105, 0.105, 0.995, 201.815, 94.438)"/>
    <g style="fill:none; stroke:#fff;" transform="matrix(0.995, -0.105, 0.105, 0.995, 184.535, 96.255)">
      <path style="stroke:none;" d="M0,0H18.712a0,0,0,0,1,0,0V11.039a5,5,0,0,1-5,5H5a5,5,0,0,1-5-5V0A0,0,0,0,1,0,0Z"/>
      <path style="fill:none;" d="M1,.5H17.712a.5.5,0,0,1,.5.5V11.039a4.5,4.5,0,0,1-4.5,4.5H5a4.5,4.5,0,0,1-4.5-4.5V1A.5.5,0,0,1,1,.5Z"/>
    </g>
    <g style="fill:none; stroke:#fff;" transform="matrix(0.995, -0.105, 0.105, 0.995, 207.132, 93.88)">
      <path style="stroke:none;" d="M0,0H18.712a0,0,0,0,1,0,0V11.039a5,5,0,0,1-5,5H5a5,5,0,0,1-5-5V0A0,0,0,0,1,0,0Z"/>
      <path style="fill:none;" d="M1,.5H17.712a.5.5,0,0,1,.5.5V11.039a4.5,4.5,0,0,1-4.5,4.5H5a4.5,4.5,0,0,1-4.5-4.5V1A.5.5,0,0,1,1,.5Z"/>
    </g>
    <path style="fill:#a96767;" d="M-2637.887,249.275a7.933,7.933,0,0,0,4.107.857,11.765,11.765,0,0,0,5.229-1.494,13.618,13.618,0,0,0-3.669-.93c-1.417-.022-1.281,1.077-3.021.93s-2.381-.69-3.318-.5S-2637.887,249.275-2637.887,249.275Z" transform="translate(2840.475 -136.727)"/>
    <path style="fill:#ea4b94;" d="M-4175.226,467.241a48.421,48.421,0,0,1,7.137,15.438c2.736,9.774,1.589,6.559,1.589,6.559s-.115,3.448,0,4.767-4.481,6.179-6.626,6.731S-4175.226,467.241-4175.226,467.241Z" transform="translate(4192.383 -118.178)"/>
    <path style="fill:#d13f82;" d="M20.764,26.466s-.945-9.76-6.521-16.4S.87-2.167.052.83,8.382,22.549,11.52,26.466s5.3,4.273,6.875,3.831S20.764,26.466,20.764,26.466Z" transform="matrix(0.875, 0.485, -0.485, 0.875, 15.457, 347.954)"/>
    <path style="fill:#ea4b94;" d="M12.8,6.785S.5,22.826.006,27.828,28.971,9.154,28.688,6.785,23.309,0,23.309,0Z" transform="matrix(-0.07, 0.998, -0.998, -0.07, 36.692, 359.896)"/>
    <path style="fill:#d13f82;" d="M.03.387s-1.3-2.442,13.061,4.948S33.137,15.966,31.948,17.042,20.232,12.815,13.091,9.089,1.591,2.75.913,2.366.03.387.03.387Z" transform="matrix(0.875, 0.485, -0.485, 0.875, 8.331, 357.684)"/>
    <path style="fill:#c36b6b;" d="M17.521.658S16.136,7.3,12.378,8.525s-3.59-.76-6.306,0S2.573,10.4.952,10.114-.217,13.7,2.289,14.365s5.375-2.594,10.089-.745,3.239,3.32,5.989,4a9.627,9.627,0,0,0,4.862,0s5.04,1.612,7.575,1.063,4.02-4.323,4.02-4.323-3.7-7.571-4.02-7.819-5.712-4.028-5.712-4.028L22.016.062,21.938,0l-.756.249A34.658,34.658,0,0,0,17.39.825" transform="translate(180.506 230.481) rotate(9)"/>
    <path style="fill:#d87f7f;" d="M3.341,0A3.341,3.341,0,0,1,6.683,3.341L5.762,14.034c0,1.845-.544,2.709-2.389,2.709S.725,15.88.725,14.034L0,3.341A3.341,3.341,0,0,1,3.341,0Z" transform="translate(197.409 228.135) rotate(9)"/>
    <path style="fill:#d87f7f;" d="M3.341,0A3.341,3.341,0,0,1,6.683,3.341L5.762,14.034c0,1.845-.544,2.709-2.389,2.709S.725,15.88.725,14.034L0,3.341A3.341,3.341,0,0,1,3.341,0Z" transform="translate(205.096 232.922) rotate(20)"/>
    <path style="fill:#d87f7f;" d="M2.11,0s4.6.235,5.084,3.964-4.86,10.662-5.084,11.4-2.9,1.353-1.271-3.72S3.3,6.205.839,3.964,2.11,0,2.11,0Z" transform="translate(206.953 240.143) rotate(9)"/>
    <path style="fill:#d87f7f;" d="M2.262,0S6.774,2.8,5.174,6.693,5.2,14.21,3.808,13.8A4.153,4.153,0,0,1,.634,8.95,9.783,9.783,0,0,0,0,3.621Z" transform="translate(211.037 247.245) rotate(9)"/>
    <path style="fill:#7a899f;" d="M-4024.669,395.356l18.072-16.773-39.083-14.228Z" transform="translate(4203.33 -126.871)"/>
    <path style="fill:#cdd9ea;" d="M3.944,18.2h0l3.3-.861L82.715,0a5.487,5.487,0,0,1,5.109,3.512c1.754,3.771,34.145,42.845,34.145,42.845s.389,4.8-1.289,5.387S42.491,68.716,42.491,68.716a4.293,4.293,0,0,1-5.41-1.26C34.915,64.512.847,26.158.847,26.158A8.494,8.494,0,0,1,0,21.861C.055,19.037,3.944,18.2,3.944,18.2Z" transform="translate(102.88 175.658) rotate(31)"/>
    <g transform="translate(124.185 228.387)">
      <g transform="translate(3.225 0) rotate(13)">
        <g transform="translate(16.191 7.147)">
          <g transform="translate(0 0)">
            <path style="fill:#fff;" d="M.035,0A.434.434,0,0,1,.03.081C.02.076.01.076,0,.071A.288.288,0,0,1,.005.005.064.064,0,0,1,.035,0Z"/>
          </g>
        </g>
        <g transform="translate(0 0)">
          <path style="fill:#fff;" d="M17.372,2.633h-.01a.532.532,0,0,0-.525.545.521.521,0,0,0,.2.409C16.8,4.7,16.565,6.164,16.393,7.3c-.005-.005-.015-.005-.02-.01l-.061-.03c-.03-.015-.055-.025-.081-.035-.01-.005-.02-.005-.03-.01a.288.288,0,0,1,.005-.066C16.313,3.909,14.946.368,8.938,0,2.875.373,1.533,3.965,1.68,7.228c-.05.02-.1.04-.161.071C1.347,6.159,1.11,4.7.873,3.581A.535.535,0,0,0,.55,2.628a.551.551,0,0,0-.55.53.537.537,0,0,0,.429.535C.565,4.741.8,6.537.974,7.818a2.159,2.159,0,0,0-.131,1.6,2.828,2.828,0,0,0,1.291,2.1,1.207,1.207,0,0,0,.338.111,1.736,1.736,0,0,0,.227.025,5.466,5.466,0,0,0,.414.8,5.1,5.1,0,0,0,2.219,1.881h7.193a5.1,5.1,0,0,0,2.224-1.881,4.972,4.972,0,0,0,.414-.8h.025a1.362,1.362,0,0,0,.55-.126,2.8,2.8,0,0,0,1.316-2.113,2.159,2.159,0,0,0-.131-1.6c.177-1.276.409-3.077.545-4.126a.5.5,0,0,0,.277-.151.533.533,0,0,0,.151-.383A.52.52,0,0,0,17.372,2.633Zm-3.854,9.488-.091.01a37.479,37.479,0,0,1-4.136.338H9.11c-1.074,0-2.139-.091-3.228-.192-.388-.035-.787-.076-1.18-.121-.025,0-.055-.005-.111-.005s-.156-.005-.227-.01a11.418,11.418,0,0,1-1.589-5.1,11.223,11.223,0,0,1,2.638-.62c.863-.126,1.786-.217,2.82-.277.3-.02.61-.025.923-.025a21.715,21.715,0,0,1,4.63.54,7.855,7.855,0,0,1,1.311.383A11.373,11.373,0,0,1,13.518,12.121Z"/>
        </g>
      </g>
      <rect style="fill:#fff;" width="0.857" height="1.286" transform="translate(6.934 9.341) rotate(13)"/>
      <path style="fill:#fff;" d="M2.144,0V.424H1.715V.857H.429V.424H0V0Z" transform="translate(8.544 11.918) rotate(13)"/>
      <rect style="fill:#fff;" width="0.857" height="1.286" transform="translate(12.374 10.597) rotate(13)"/>
    </g>
    <path style="fill:#facc33;" d="M-2501.275,286.083s-3.3.993-1.7,6.1,11.17,7.027,16.615,3.527,12.247-4.213,14.829-3.154,2.286,4.392,2.286,4.392l1.628,1.323v.95l1.583,1.318v1.639s-9.986-2.49-16.03,3.8-15.509,12.506-24.792,9.207c-6.35-2.256-4.6-11.261-3.493-17.232.422-2.267.756-4.15.074-4.317a2.414,2.414,0,0,0-2.916,1.094s1.6-5.026,2.916-5.161,3.419-2.462,3.419-2.462Z" transform="translate(2706.075 -158.428)"/>
    <path style="fill:#fabd33;" d="M-2507.19,292.623s-1.631,11.565,3.279,14.542,13.153-.936,17.182-3.96a28.618,28.618,0,0,1,8-4.216s-11.464,4.691-15.133,5.406-8.272,1.123-10.046-1.19S-2507.19,292.623-2507.19,292.623Z" transform="translate(2706.56 -157.876)"/>
  </g>
</svg>
