<svg xmlns="http://www.w3.org/2000/svg" viewBox="0 0 169.141 329.563">
  <defs>
    <style>j{stroke:none;}.k{fill:none;}</style>
  </defs>
  <g transform="translate(-957.449 -2479.755)">
    <path style="fill:#fff" d="M-1493.966,1853.164c.621,1.172,3.412,18.824-1.246,30.708s-14.662,15.163-11.595,15.529,37.831-4.447,46.1-34.1S-1493.966,1853.164-1493.966,1853.164Z" transform="translate(2511.43 909.897)"/>
    <ellipse style="fill:#fff" cx="83.434" cy="34.022" rx="83.434" ry="34.022" transform="translate(957.449 2720.984) rotate(-2)"/>
    <ellipse style="fill:#37be91;" cx="12.961" cy="7.695" rx="12.961" ry="7.695" transform="matrix(0.946, 0.326, -0.326, 0.946, 1010.932, 2542.15)"/>
    <path style="fill:#0e263b" d="M4.034,0C6.262,0,8.068,5.78,8.068,12.909s.017,12.555-4.034,12.909S0,20.038,0,12.909,1.806,0,4.034,0Z" transform="translate(1080.926 2745.903) rotate(49)"/>
    <path style="fill:#0e263b" d="M4.034,0C6.262,0,8.068,5.78,8.068,12.909s.017,12.555-4.034,12.909S0,20.038,0,12.909,1.806,0,4.034,0Z" transform="translate(1016.933 2734.562) rotate(49)"/>
    <path style="fill:#d57575;" d="M-1598.615,1555.532v-11.72s-8.31-7.965-3.731-16.213a15.72,15.72,0,0,1,13.656-8.415,60.275,60.275,0,0,1,5.962,1.832v11.135s2.6.422,2.662,1.451-1.286,12.115-1.286,12.115l-9.3,2.262v9.327Z" transform="translate(2643.372 995.873)"/>
    <path style="fill:#0e263b" d="M-1459.321,1581.183s-4.3-.492-14.734,6.282-32.07,20.118-31.607,38.51,31.607,32.8,31.607,32.8l2.407-4.686s-27.776-19.9-16.09-33.412,20.621-15.627,20.621-15.627Z" transform="translate(2501.384 967.88)"/>
    <ellipse style="fill:#2c9d77;" cx="5.998" cy="10.282" rx="5.998" ry="10.282" transform="translate(991.634 2590.449)"/>
    <path style="fill:#3ad4a1;" d="M24.848,0A24.849,24.849,0,0,1,39.219,45.119c-3.708,2.76-8.828,0-14.372,0-5.5,0-10.588,2.787-15.138-.567A24.556,24.556,0,0,1,0,24.848,24.848,24.848,0,0,1,24.848,0Z" transform="translate(995.062 2575.027)"/>
    <g style="fill:#fff;" transform="translate(1034.475 2590.449)">
      <ellipse style="stroke:none;" cx="5.998" cy="10.282" rx="5.998" ry="10.282"/>
      <ellipse style="fill:none;" cx="5.998" cy="10.282" rx="5.498" ry="9.782"/>
    </g>
    <path style="fill:#0e263b" d="M-1588.705,1536.779s-15.971,12.1-21.794,16.722-7.3,7.346-7.3,7.346l12.1,3.61,2.554,9.74,2.2,47.7a51.5,51.5,0,0,0,21.087,4.614c12.059.036,18.337-4.614,18.337-4.614s-1.212-24.615-2.426-40.047-2.4-16.418-2.4-16.418.582-15.551-4.906-20.287S-1588.705,1536.779-1588.705,1536.779Z" transform="translate(2631.725 1010.436)"/>
    <path style="fill:#2c9d77;" d="M1.427,0c.788,0,0,.622,0,1.389l1.427,15a1.409,1.409,0,0,1-1.427,1.389A1.409,1.409,0,0,1,0,16.392v-15A1.409,1.409,0,0,1,1.427,0Z" transform="translate(992.207 2581.354)"/>
    <ellipse style="fill:#2c9d77;" cx="1.62" cy="1.62" rx="1.62" ry="1.62" transform="translate(991.397 2579.695)"/>
    <path style="fill:#0e263b" d="M-1429.789,1682.812s5.62,43.022,5.012,58.982,0,12.4,0,12.4-4.183,47.17-4.224,58.354h0l-5.686.694s-1.99-26.014-3.925-37.885-4.5-31.21-7.13-43.859-4.905-27.079-4.905-27.079h-3.712s-1.973,19.845-12.123,45.751-28.436,51.248-28.436,51.248l-3.421-.8s15.739-39.733,20.91-67.883,8.155-52.172,8.155-52.172Z" transform="translate(2499.992 949)"/>
    <ellipse style="fill:#3ad4a1;" cx="11.341" cy="11.341" rx="11.341" ry="11.341" transform="translate(1012.458 2548.914)"/>
    <path style="fill:#0e263b" d="M-1492.829,1606.89s8.377-7.375,10.5-8.51,6.479-.23,8.055,2.191,1.225,6.319,1.225,6.319-6.968,2.077-7.826,1.988S-1492.829,1606.89-1492.829,1606.89Z" transform="translate(2498.945 964.704)"/>
    <path style="fill:#37be91;" d="M-1464.5,1622.993s-1.158-13.511,6.731-13.624,16.07-2.483,20.311,0,15.415,11.728,15.415,11.728-5.981-11.654-7.628-22.389,3.8-15.1,3.8-15.1l-10.164-5.182v-3.843h-18.091l-2.253,6.529s-10.943,4.225-12.138,7.519-1.086,11.118,0,19.2A68.646,68.646,0,0,0-1464.5,1622.993Z" transform="translate(2493.223 967.8)"/>
    <path style="fill:#0e263b" d="M-1412.413,1596.652s-.532,26.157,9.362,45.053,18.88,26.462,18.88,26.462l-5.056,3.422s-25.8-21.214-34.495-43.607-5.322-32.811-5.322-32.811Z" transform="translate(2486.951 965.222)"/>
    <path style="fill:#5e2a84;" d="M50.493,41.926s10.074.723,11.2-9.361S56.8,22.376,53.636,16.939,53.242.871,41.947.07,27.98,5.586,27.98,5.586s-5.4-2.618-10.109-2.052-7.518,3.146-9.179,8.12,1.292,6.452.826,9.315S-1.269,26.945.13,36.03s9.847,11.38,13.458,11.6,5.2,4.693,9.561,5.106S33.3,57.12,38.02,54.794,50.493,41.926,50.493,41.926Z" transform="matrix(0.848, -0.53, 0.53, 0.848, 992.682, 2512.52)"/>
    <ellipse style="fill:#3ad4a1;" cx="11.341" cy="11.341" rx="11.341" ry="11.341" transform="translate(1052.96 2550.534)"/>
    <ellipse style="fill:#42e5af;" cx="12.961" cy="7.695" rx="12.961" ry="7.695" transform="matrix(0.899, 0.438, -0.438, 0.899, 1056.148, 2540.238)"/>
    <path style="fill:#0e263b" d="M-1375.021,1685.405s4.46,8.558,4.711,10.046,1.01,9.283,1.01,9.283h-1.01l-2.346-6.412h-5.807s-2.5-2.36-2.943-5.022a18.3,18.3,0,0,1,.536-6.323Z" transform="translate(2477.801 948.08)"/>
    <path style="fill:#0e263b" d="M-1373.5,1687.837l5.263,2.665-1.271,1.154s-3.069.619-3.452,0A16.731,16.731,0,0,1-1373.5,1687.837Z" transform="translate(2476.277 947.618)"/>
    <rect style="fill:#3ad4a1;" width="8.91" height="4.86" rx="2.43" transform="translate(1098.322 2638.018)"/>
    <path style="fill:#0e263b" d="M-1372.814,1700.268v4.052l-3.366,2.283-.77-.526,2.219-2.635-.952-2.656,1.258-1.279-1.258,1.279-1.266,2.656h-2.736l-1.337-4.747h2.328l5.881-.636Z" transform="translate(2478.516 945.677)"/>
  </g>
</svg>
