<svg width="1366" height="534" viewBox="0 0 1366 534" fill="none" xmlns="http://www.w3.org/2000/svg">
<path d="M629.525 408.202C476.983 422.23 417.186 428.33 306.136 422.84L305.001 422.784C230.765 419.115 192.887 417.243 120.644 396.003C75.4788 382.724 6.69267 358.962 -2 310V453.338V543H73.661H453.186H909.593H1289.12H1366V375.498L1289.12 369.399C1213.46 362.079 1060.92 348.66 909.593 362.079C757.051 375.498 782.068 394.173 629.525 408.202Z" fill="#F4F6F8"/>
<path d="M1186.22 327.458L1110.39 324.7C1108.77 325.333 1107.38 326.433 1106.39 327.858C1105.41 329.283 1104.87 330.969 1104.85 332.7C1104.39 341.196 1109.45 343.417 1109.45 343.417L1184.96 350.424L1186.22 327.458Z" fill="white"/>
<path d="M1184.96 351.071C1185.13 351.071 1185.29 351.012 1185.42 350.906C1185.55 350.781 1185.64 350.608 1185.65 350.423L1186.88 327.499C1186.89 327.409 1186.88 327.318 1186.84 327.233C1186.81 327.147 1186.77 327.069 1186.7 327.003C1186.58 326.866 1186.4 326.782 1186.22 326.768L1110.39 324.009H1110.15C1108.4 324.686 1106.89 325.866 1105.82 327.398C1104.74 328.93 1104.14 330.746 1104.1 332.616C1103.63 341.499 1108.88 343.913 1109.1 344.009C1109.17 344.022 1109.25 344.022 1109.32 344.009L1184.96 351.071ZM1185.47 328.134L1184.31 349.637L1109.58 342.74C1108.93 342.409 1105.11 340.092 1105.43 332.74C1105.44 331.162 1105.93 329.623 1106.82 328.317C1107.7 327.011 1108.96 325.997 1110.43 325.403L1185.47 328.134Z" fill="#4E5666"/>
<path d="M1125.62 344.203C1127.88 344.203 1130.15 344.203 1132.4 344.203C1139.74 344.191 1147.08 344.573 1154.38 345.347C1161.3 346.244 1169.89 347.927 1175.38 352.492C1177.92 354.942 1179.71 358.054 1180.56 361.472C1180.78 362.271 1182.14 370.754 1181.04 370.796C1184.41 370.658 1186.47 374.354 1187.48 377.54C1192.09 391.94 1191.45 405.733 1186.51 419.816C1185.31 423.237 1183.88 424.671 1180.39 424.864C1177.36 425.223 1174.37 425.879 1171.47 426.823C1163.35 428.837 1154.86 428.823 1146.56 428.795C1140.94 428.89 1135.31 428.659 1129.72 428.106C1119.35 426.864 1107.15 424.34 1099.28 416.933C1091.71 409.747 1094.49 399.595 1094.53 390.478C1094.53 377.996 1094.93 368.299 1101.9 357.237C1105.6 351.361 1110.72 346.727 1117.62 345.058C1120.25 344.483 1122.93 344.197 1125.62 344.203Z" fill="#4E5666"/>
<path d="M1149.2 429.568C1156.66 429.568 1164.29 429.388 1171.63 427.554L1174.1 426.892C1176.15 426.234 1178.27 425.809 1180.42 425.623C1184.57 425.388 1185.96 423.416 1187.16 420.106C1192.31 405.43 1192.7 391.458 1188.14 377.347C1186.76 373.21 1184.64 370.658 1182.08 370.189C1182.44 367.596 1181.24 361.361 1181.22 361.306C1180.68 359.403 1179.08 354.699 1175.83 351.982C1170.14 347.251 1161.44 345.596 1154.47 344.672C1148.35 343.983 1142.18 343.629 1136.01 343.61L1132.38 343.527H1131.73C1129.7 343.527 1127.57 343.43 1125.57 343.527C1122.83 343.548 1120.1 343.862 1117.43 344.465C1110.95 346.037 1105.52 350.23 1101.28 356.961C1094.36 367.872 1093.86 377.347 1093.81 390.561C1093.81 392.437 1093.67 394.409 1093.55 396.313C1093.05 403.83 1092.54 411.595 1098.78 417.513C1107.08 425.388 1120.34 427.761 1129.58 428.864C1135.19 429.428 1140.84 429.663 1146.48 429.568H1149.2ZM1181.21 371.541C1184.46 371.541 1186.22 375.913 1186.83 377.816C1191.23 391.609 1190.98 405.264 1185.86 419.651C1184.68 423.002 1183.4 424.078 1180.32 424.244C1178.07 424.458 1175.85 424.92 1173.7 425.623C1172.91 425.844 1172.1 426.064 1171.27 426.271C1163.19 428.285 1154.67 428.257 1146.49 428.244C1140.9 428.325 1135.3 428.091 1129.73 427.54C1120.7 426.464 1107.76 424.161 1099.73 416.506C1093.96 410.989 1094.45 403.582 1094.92 396.382C1095.04 394.465 1095.18 392.478 1095.18 390.561C1095.25 377.582 1095.77 368.272 1102.46 357.665C1106.48 351.265 1111.63 347.265 1117.68 345.789C1120.26 345.201 1122.89 344.896 1125.54 344.879C1127.56 344.879 1129.69 344.879 1131.63 344.948H1132.38L1135.99 345.03C1142.1 345.044 1148.22 345.394 1154.29 346.079C1160.54 346.906 1169.52 348.52 1174.94 353.085C1177.9 355.541 1179.4 359.982 1179.9 361.72C1180.2 362.782 1181.06 369.072 1180.7 370.258C1180.59 370.321 1180.51 370.41 1180.45 370.516C1180.39 370.623 1180.35 370.743 1180.35 370.865C1180.35 370.957 1180.37 371.047 1180.41 371.131C1180.44 371.216 1180.5 371.291 1180.57 371.353C1180.63 371.416 1180.71 371.463 1180.8 371.493C1180.89 371.523 1180.98 371.534 1181.07 371.527L1181.21 371.541Z" fill="#4E5666"/>
<path d="M1169.49 326.562C1161.03 324.731 1152.44 323.583 1143.79 323.127C1138.41 322.851 1124.93 322.162 1120.27 325.031C1115.11 328.175 1119.33 339.1 1119.34 344.768C1119.34 352.796 1124.14 354.796 1131.46 356.961C1136.75 358.495 1142.29 359.029 1147.78 358.534C1152.22 358.12 1161.95 355.679 1163 350.479C1163.12 349.237 1163.01 347.983 1162.67 346.782C1161.89 342.92 1164.11 330.451 1169.49 326.562Z" fill="#4E5666"/>
<path d="M1143.82 359.389C1145.2 359.389 1146.49 359.389 1147.8 359.21C1151.54 358.879 1162.45 356.561 1163.64 350.617C1163.81 349.464 1163.73 348.289 1163.41 347.168L1163.32 346.658C1162.61 343.03 1164.8 331.003 1169.75 327.224C1169.88 327.178 1169.98 327.09 1170.04 326.975C1170.15 326.85 1170.21 326.691 1170.21 326.527C1170.21 326.363 1170.15 326.204 1170.04 326.079C1169.97 326.005 1169.88 325.95 1169.78 325.916C1169.68 325.883 1169.58 325.872 1169.48 325.886L1168.24 325.637C1160.23 323.898 1152.08 322.828 1143.89 322.437C1138.17 322.148 1124.82 321.458 1119.94 324.437C1115.88 326.92 1116.97 333.279 1117.94 338.892C1118.34 340.83 1118.58 342.794 1118.68 344.768C1118.68 353.237 1123.91 355.444 1131.28 357.623C1135.36 358.797 1139.58 359.391 1143.82 359.389ZM1167.95 326.975C1163.12 331.817 1161.23 343.058 1161.96 346.892L1162.07 347.43C1162.33 348.377 1162.41 349.365 1162.29 350.341C1161.34 355.03 1151.86 357.458 1147.68 357.83C1142.28 358.319 1136.84 357.8 1131.63 356.299C1124.39 354.148 1119.99 352.313 1119.99 344.754C1119.9 342.702 1119.65 340.659 1119.24 338.644C1118.36 333.458 1117.35 327.61 1120.63 325.596C1125.15 322.837 1138.62 323.541 1143.78 323.803C1151.89 324.193 1159.96 325.254 1167.9 326.975H1167.95Z" fill="#4E5666"/>
<path d="M1184.99 350.371C1180.73 350.142 1177.56 344.827 1177.9 338.498C1178.24 332.169 1181.97 327.224 1186.23 327.452C1190.48 327.681 1193.66 332.996 1193.32 339.325C1192.98 345.654 1189.25 350.599 1184.99 350.371Z" fill="white"/>
<path d="M1185.28 351.085C1186.46 351.028 1187.6 350.695 1188.63 350.112C1189.65 349.53 1190.52 348.715 1191.17 347.734C1192.92 345.29 1193.91 342.388 1194.01 339.389C1194.37 332.686 1190.9 326.975 1186.26 326.796C1185.02 326.779 1183.8 327.077 1182.71 327.661C1181.62 328.245 1180.7 329.096 1180.03 330.134C1178.31 332.592 1177.35 335.497 1177.27 338.492C1176.91 345.182 1180.38 350.837 1185.02 351.085H1185.28ZM1185.94 328.148H1186.19C1190.05 328.355 1192.94 333.361 1192.63 339.306C1192.54 342.035 1191.65 344.678 1190.07 346.906C1189.52 347.746 1188.78 348.438 1187.9 348.92C1187.02 349.402 1186.03 349.658 1185.03 349.665C1181.15 349.458 1178.26 344.465 1178.58 338.52C1178.67 335.791 1179.56 333.148 1181.14 330.92C1181.67 330.115 1182.38 329.444 1183.21 328.963C1184.04 328.481 1184.98 328.202 1185.94 328.148Z" fill="#4E5666"/>
<path d="M1171.66 380.989C1171.83 380.988 1171.99 380.931 1172.12 380.825C1172.25 380.719 1172.34 380.572 1172.37 380.409C1173.75 372.906 1177.9 371.789 1178.08 371.747C1178.27 371.699 1178.42 371.58 1178.52 371.417C1178.61 371.255 1178.64 371.061 1178.59 370.878C1178.57 370.789 1178.53 370.705 1178.48 370.631C1178.43 370.557 1178.36 370.494 1178.28 370.447C1178.2 370.399 1178.11 370.368 1178.02 370.354C1177.93 370.341 1177.84 370.345 1177.75 370.368C1177.53 370.368 1172.56 371.678 1170.96 380.147C1170.94 380.239 1170.94 380.333 1170.96 380.424C1170.98 380.516 1171.01 380.602 1171.07 380.679C1171.12 380.756 1171.19 380.822 1171.26 380.873C1171.34 380.924 1171.43 380.958 1171.52 380.975L1171.66 380.989Z" fill="white"/>
<path d="M1157.81 378.878C1157.95 378.877 1158.09 378.835 1158.2 378.756C1158.32 378.678 1158.41 378.566 1158.46 378.437C1158.46 378.313 1163.28 366.465 1152.68 358.658C1145.9 353.651 1132.51 353.14 1122.97 354.768C1117.11 355.775 1112.99 357.527 1111.63 359.485C1109.28 363.292 1107.89 367.607 1107.56 372.064C1107.56 372.252 1107.63 372.433 1107.75 372.572C1107.88 372.71 1108.05 372.795 1108.24 372.809C1108.34 372.817 1108.43 372.805 1108.52 372.775C1108.61 372.744 1108.69 372.696 1108.76 372.633C1108.83 372.569 1108.89 372.492 1108.93 372.406C1108.97 372.321 1108.99 372.228 1108.99 372.133C1109.32 367.941 1110.64 363.884 1112.82 360.285C1113.92 358.658 1117.9 357.085 1123.2 356.147C1132.47 354.561 1145.34 355.016 1151.83 359.775C1161.52 366.933 1157.19 377.706 1157.15 377.871C1157.08 378.045 1157.08 378.239 1157.15 378.412C1157.22 378.585 1157.36 378.722 1157.53 378.795C1157.62 378.844 1157.71 378.873 1157.81 378.878Z" fill="white"/>
<path d="M987.353 332.589C987.353 332.589 977.943 374.686 968.091 374.382C958.238 374.079 937.481 333.969 937.481 333.969L949.188 327.679L961.642 338.617L971.19 316.686L987.353 332.589Z" fill="white"/>
<path d="M968.201 375.071C972.588 375.071 977.251 367.926 982.039 353.816C985.596 343.416 987.976 332.851 988.004 332.74C988.027 332.625 988.022 332.505 987.988 332.392C987.954 332.279 987.893 332.176 987.81 332.092L971.633 316.189C971.55 316.113 971.451 316.058 971.343 316.027C971.235 315.996 971.121 315.99 971.011 316.01C970.901 316.03 970.798 316.078 970.711 316.147C970.624 316.217 970.556 316.307 970.512 316.41L961.338 337.472L949.617 327.168C949.511 327.073 949.379 327.013 949.238 326.996C949.097 326.978 948.954 327.005 948.828 327.072L937.121 333.361C937.042 333.403 936.971 333.461 936.914 333.53C936.857 333.599 936.814 333.679 936.788 333.765C936.763 333.851 936.754 333.942 936.764 334.031C936.774 334.12 936.801 334.207 936.845 334.285C937.689 335.94 957.906 374.754 968.049 375.071H968.201ZM986.592 332.809C983.935 344.575 975.715 373.692 968.201 373.692H968.118C960.507 373.444 944.4 345.706 938.408 334.258L949.091 328.52L961.172 339.127C961.252 339.201 961.35 339.254 961.457 339.281C961.563 339.307 961.675 339.306 961.781 339.278C961.887 339.254 961.986 339.205 962.07 339.135C962.154 339.066 962.221 338.978 962.265 338.878L971.398 317.885L986.592 332.809Z" fill="#4E5666"/>
<path d="M1070.28 316.176C1070.28 316.176 1092.92 361.693 1090.61 374.175C1088.3 386.658 1047.96 365.596 1047.96 365.596L1043.81 355.224L1055.06 347.375L1051.78 322.244L1070.28 316.176Z" fill="white"/>
<path d="M1084.04 378.795C1085.56 378.856 1087.08 378.573 1088.48 377.968C1089.21 377.629 1089.84 377.117 1090.32 376.478C1090.81 375.838 1091.12 375.09 1091.25 374.299C1093.59 361.747 1071.79 317.747 1070.87 315.872C1070.79 315.721 1070.66 315.603 1070.51 315.537C1070.36 315.471 1070.18 315.463 1070.02 315.513L1051.55 321.554C1051.4 321.605 1051.27 321.707 1051.18 321.843C1051.1 321.98 1051.07 322.141 1051.09 322.299L1054.32 347.016L1043.4 354.616C1043.27 354.704 1043.18 354.833 1043.13 354.98C1043.09 355.128 1043.09 355.286 1043.15 355.43L1047.3 365.816C1047.36 365.967 1047.47 366.089 1047.62 366.161C1048.74 366.754 1071.93 378.795 1084.04 378.795ZM1069.92 317.016C1072.46 322.161 1092.07 362.671 1089.92 374.05C1089.83 374.631 1089.6 375.18 1089.25 375.647C1088.89 376.115 1088.42 376.486 1087.89 376.726C1079.58 380.781 1051.33 366.519 1048.49 365.057L1044.68 355.402L1055.49 347.871C1055.59 347.799 1055.67 347.7 1055.72 347.586C1055.78 347.473 1055.8 347.347 1055.78 347.223L1052.57 322.658L1069.92 317.016Z" fill="#4E5666"/>
<path d="M1055.09 335.251L1077.88 320.92C1068.76 305.279 1063.57 290.962 1057.26 287.707C1049.08 282.065 1020.22 285.872 1002.87 286.741C997.845 286.018 992.723 286.886 988.225 289.224C970.111 298.437 962.569 327.32 962.569 327.32L982.191 336.63C982.191 336.63 981.181 342.148 974.235 372.147C974.235 372.147 1021.81 385.94 1060.43 399.733C1060.42 399.747 1055.08 340.451 1055.09 335.251Z" fill="#C4EAF5"/>
<path d="M1016.07 376.547C1016.25 376.547 1016.42 376.479 1016.55 376.355C1016.68 376.232 1016.75 376.063 1016.76 375.885L1019.13 298.437C1019.13 298.347 1019.11 298.256 1019.08 298.171C1019.05 298.086 1019 298.008 1018.94 297.942C1018.88 297.875 1018.81 297.821 1018.72 297.783C1018.64 297.745 1018.55 297.724 1018.46 297.72C1018.28 297.72 1018.11 297.789 1017.98 297.912C1017.85 298.036 1017.78 298.204 1017.77 298.382L1015.4 375.844C1015.4 375.934 1015.42 376.024 1015.45 376.109C1015.48 376.193 1015.53 376.27 1015.6 376.336C1015.66 376.401 1015.73 376.453 1015.82 376.49C1015.9 376.526 1015.99 376.546 1016.08 376.547H1016.07Z" fill="#4E5666"/>
<path d="M1051.37 250.714C1051.37 250.714 1055.69 241.693 1054.04 235.969C1052.39 230.245 1031 219.417 1023.43 220.217C1015.86 221.017 1005.07 239.859 1005.07 239.859C1005.07 239.859 1042.32 240.755 1051.37 250.714Z" fill="white"/>
<path d="M1051.37 251.431H1051.48C1051.59 251.414 1051.7 251.371 1051.8 251.304C1051.89 251.236 1051.97 251.148 1052.02 251.045C1052.2 250.658 1056.42 241.707 1054.72 235.79C1053.01 229.872 1031.36 218.603 1023.35 219.5C1015.33 220.397 1004.94 238.714 1004.5 239.5C1004.44 239.607 1004.41 239.728 1004.41 239.852C1004.41 239.975 1004.44 240.096 1004.5 240.203C1004.56 240.311 1004.65 240.401 1004.75 240.464C1004.86 240.527 1004.98 240.561 1005.11 240.562C1005.47 240.562 1042.1 241.583 1050.84 251.196C1050.91 251.269 1050.99 251.328 1051.08 251.368C1051.17 251.409 1051.27 251.43 1051.37 251.431ZM1024.34 220.879C1032.37 220.879 1051.87 230.99 1053.4 236.162C1054.66 240.521 1052.21 247.072 1051.19 249.472C1041.9 240.99 1012.82 239.417 1006.41 239.183C1008.75 235.279 1017.48 221.583 1023.57 220.921C1023.82 220.894 1024.08 220.881 1024.34 220.879Z" fill="#4E5666"/>
<path d="M1018.7 267.765C1001.41 258.555 991.473 243.458 996.518 234.045C1001.56 224.631 1019.68 224.466 1036.97 233.676C1054.27 242.886 1064.2 257.983 1059.16 267.396C1054.11 276.81 1036 276.975 1018.7 267.765Z" fill="#4E5666"/>
<path d="M1008.51 241.955C1008.82 241.458 1009.13 240.976 1009.48 240.493C1013.35 235.086 1023.64 236.865 1029.03 238.424C1034.15 239.696 1038.86 242.25 1042.71 245.845C1045.67 248.852 1048.42 253.734 1047.87 258.12C1047.31 262.507 1044.55 267.638 1042.33 271.334C1041.12 273.622 1039.35 275.571 1037.18 277.003C1034.89 278.143 1032.37 278.724 1029.81 278.7C1024.34 278.989 1018.65 278.465 1013.89 275.775C1009.13 273.086 1004.68 267.376 1004.3 261.596C1003.88 254.934 1004.94 247.789 1008.51 241.955Z" fill="white"/>
<path d="M1027.21 279.528C1028.06 279.528 1028.94 279.528 1029.85 279.528C1032.51 279.526 1035.14 278.898 1037.52 277.693C1039.79 276.195 1041.65 274.157 1042.93 271.762C1046.25 266.245 1048.14 261.748 1048.59 258.286C1049.2 253.417 1046.07 248.314 1043.22 245.418C1039.29 241.717 1034.47 239.094 1029.23 237.804C1025.6 236.769 1013.41 233.845 1008.9 240.149C1008.54 240.637 1008.21 241.144 1007.9 241.666C1003.75 248.562 1003.24 256.369 1003.6 261.762C1003.96 267.155 1008.04 273.404 1013.53 276.507C1017.75 278.691 1022.46 279.733 1027.21 279.528ZM1018.9 237.556C1022.28 237.638 1025.64 238.162 1028.88 239.114C1033.89 240.33 1038.49 242.826 1042.23 246.355C1045 249.224 1047.77 253.955 1047.2 258.038C1046.8 261.307 1044.96 265.652 1041.74 270.962C1040.58 273.148 1038.89 275.014 1036.84 276.397C1034.65 277.478 1032.25 278.04 1029.81 278.038C1023.33 278.397 1018.27 277.459 1014.28 275.279C1009.19 272.383 1005.4 266.797 1005.07 261.666C1004.73 256.535 1005.16 248.935 1009.22 242.356C1009.51 241.873 1009.83 241.404 1010.16 240.976C1011.9 238.328 1015.36 237.556 1018.9 237.556Z" fill="#4E5666"/>
<path d="M1011.31 278.41L1009.7 291.583C1009.7 291.583 1013.31 299.858 1021.96 298.286C1024.52 297.775 1026.93 296.703 1029.01 295.147C1031.1 293.592 1032.81 291.592 1034.03 289.293L1035.11 265.252C1035.11 265.252 1028.92 261.569 1031.45 247.941C1024.32 250.595 1016.59 251.286 1009.09 249.941C1009.09 249.941 1004.48 264.631 1005.19 271.293C1005.9 277.955 1011.31 278.41 1011.31 278.41Z" fill="white"/>
<path d="M1019.78 299.21C1020.56 299.207 1021.33 299.134 1022.1 298.989C1024.77 298.468 1027.29 297.353 1029.47 295.727C1031.65 294.1 1033.43 292.005 1034.68 289.596C1034.7 289.509 1034.7 289.42 1034.68 289.334L1035.74 265.279C1035.75 265.149 1035.72 265.02 1035.66 264.906C1035.6 264.792 1035.51 264.696 1035.4 264.631C1035.4 264.631 1029.7 260.962 1032.09 248.079C1032.12 247.951 1032.1 247.819 1032.06 247.697C1032.01 247.575 1031.93 247.469 1031.83 247.389C1031.73 247.307 1031.61 247.254 1031.48 247.237C1031.36 247.22 1031.23 247.239 1031.11 247.293C1024.11 249.865 1016.56 250.536 1009.22 249.238C1009.05 249.203 1008.87 249.236 1008.72 249.328C1008.57 249.42 1008.46 249.565 1008.41 249.734C1008.22 250.341 1003.77 264.644 1004.48 271.361C1005.09 277.003 1008.9 278.561 1010.52 278.975L1009 291.499C1008.96 291.616 1008.96 291.741 1009 291.858C1009.08 291.941 1012.32 299.21 1019.78 299.21ZM1033.32 289.113C1032.14 291.273 1030.5 293.151 1028.52 294.614C1026.54 296.076 1024.26 297.09 1021.84 297.582C1014.49 298.961 1010.99 292.575 1010.44 291.458L1011.98 278.492C1012.01 278.3 1011.95 278.107 1011.83 277.955C1011.71 277.808 1011.53 277.714 1011.33 277.692C1011.14 277.692 1006.52 277.168 1005.88 271.21C1005.27 265.527 1008.65 253.555 1009.56 250.755C1016.58 251.887 1023.77 251.3 1030.51 249.044C1028.77 260.3 1033.03 264.575 1034.35 265.596L1033.32 289.113Z" fill="#4E5666"/>
<path d="M1030.11 264.589C1030.46 263.431 1031.17 262.415 1032.15 261.693C1033.08 261.061 1034.12 260.594 1035.22 260.314C1035.8 260.093 1036.43 260.013 1037.05 260.079C1037.47 260.169 1037.87 260.337 1038.24 260.576C1039.14 261.068 1039.83 261.872 1040.19 262.838C1040.39 263.639 1040.39 264.477 1040.19 265.279C1040.04 266.162 1039.78 267.02 1039.4 267.831C1039.01 268.636 1038.46 269.356 1037.79 269.949C1037.11 270.541 1036.33 270.994 1035.48 271.282C1034.63 271.569 1033.73 271.686 1032.84 271.624C1031.94 271.561 1031.07 271.322 1030.26 270.92" fill="white"/>
<path d="M1033.31 272.382C1034.12 272.381 1034.93 272.246 1035.7 271.982C1036.64 271.664 1037.51 271.164 1038.26 270.511C1039 269.857 1039.61 269.064 1040.05 268.175C1040.44 267.295 1040.73 266.368 1040.89 265.417C1041.11 264.51 1041.11 263.565 1040.89 262.658C1040.48 261.533 1039.67 260.594 1038.62 260.01C1038.18 259.719 1037.69 259.518 1037.17 259.417C1036.45 259.335 1035.72 259.425 1035.04 259.679C1033.86 259.97 1032.75 260.465 1031.75 261.141C1030.65 261.95 1029.84 263.092 1029.45 264.396C1029.42 264.485 1029.41 264.578 1029.42 264.671C1029.43 264.763 1029.46 264.853 1029.5 264.935C1029.54 265.017 1029.6 265.09 1029.67 265.149C1029.75 265.208 1029.83 265.252 1029.92 265.279C1030.01 265.306 1030.1 265.316 1030.2 265.306C1030.29 265.296 1030.38 265.268 1030.46 265.223C1030.55 265.178 1030.62 265.117 1030.68 265.044C1030.74 264.971 1030.78 264.886 1030.8 264.796C1031.12 263.792 1031.74 262.912 1032.59 262.286C1033.47 261.719 1034.43 261.295 1035.44 261.031C1035.9 260.84 1036.4 260.751 1036.89 260.769C1037.23 260.838 1037.55 260.974 1037.83 261.169C1038.58 261.579 1039.17 262.238 1039.48 263.031C1039.65 263.719 1039.65 264.439 1039.48 265.127C1039.35 265.951 1039.11 266.754 1038.76 267.513C1038.41 268.231 1037.92 268.872 1037.31 269.4C1036.71 269.928 1036.01 270.331 1035.25 270.587C1034.49 270.844 1033.68 270.948 1032.88 270.894C1032.08 270.84 1031.3 270.628 1030.58 270.272C1030.5 270.23 1030.41 270.206 1030.32 270.199C1030.22 270.192 1030.13 270.204 1030.04 270.234C1029.95 270.263 1029.87 270.31 1029.8 270.371C1029.73 270.432 1029.67 270.506 1029.63 270.589C1029.59 270.673 1029.56 270.763 1029.55 270.856C1029.55 270.949 1029.56 271.042 1029.59 271.131C1029.62 271.219 1029.67 271.301 1029.73 271.371C1029.79 271.442 1029.86 271.499 1029.95 271.541C1030.99 272.08 1032.14 272.369 1033.31 272.382Z" fill="#4E5666"/>
<path d="M1010.81 284.962C1012.38 285.22 1013.99 285.139 1015.52 284.722C1017.06 284.306 1018.48 283.564 1019.71 282.548C1023.65 279.113 1023.43 277.031 1023.43 277.031C1023.43 277.031 1017.19 280.079 1011.64 278.7L1010.81 284.962Z" fill="#4E5666"/>
<path d="M1012.58 285.803C1015.36 285.83 1018.05 284.849 1020.16 283.044C1024.31 279.472 1024.13 277.155 1024.11 276.893C1024.1 276.784 1024.06 276.679 1024 276.587C1023.94 276.496 1023.86 276.421 1023.76 276.369C1023.66 276.318 1023.55 276.291 1023.44 276.291C1023.33 276.291 1023.22 276.318 1023.12 276.369C1023.12 276.369 1017.05 279.265 1011.8 277.955C1011.71 277.93 1011.61 277.925 1011.52 277.942C1011.42 277.959 1011.33 277.996 1011.25 278.051C1011.17 278.107 1011.1 278.179 1011.05 278.262C1011 278.345 1010.97 278.438 1010.96 278.534L1010.13 284.865C1010.11 285.022 1010.15 285.181 1010.24 285.314C1010.32 285.447 1010.45 285.547 1010.6 285.596C1011.25 285.729 1011.91 285.798 1012.58 285.803ZM1022.43 278.162C1021.66 279.662 1020.57 280.983 1019.25 282.038C1018.19 282.916 1016.97 283.576 1015.65 283.979C1014.34 284.381 1012.95 284.519 1011.58 284.382L1012.22 279.458C1015.68 279.926 1019.2 279.479 1022.43 278.162Z" fill="#4E5666"/>
<path d="M1018.16 257.858C1018.16 257.858 1013.13 264.134 1014.1 265.375C1015.07 266.617 1018.1 266.106 1018.1 266.106" fill="white"/>
<path d="M1016.72 266.907C1017.22 266.902 1017.72 266.865 1018.21 266.796C1018.4 266.767 1018.56 266.666 1018.67 266.516C1018.78 266.366 1018.82 266.179 1018.79 265.996C1018.76 265.813 1018.66 265.649 1018.51 265.541C1018.36 265.432 1018.17 265.388 1017.99 265.417C1017.12 265.555 1015.22 265.638 1014.64 264.948C1014.49 264.327 1016.37 261.182 1018.71 258.272C1018.77 258.201 1018.81 258.119 1018.83 258.031C1018.86 257.943 1018.86 257.852 1018.85 257.762C1018.84 257.671 1018.81 257.584 1018.77 257.505C1018.72 257.426 1018.66 257.356 1018.59 257.3C1018.52 257.244 1018.44 257.202 1018.35 257.178C1018.26 257.153 1018.17 257.146 1018.08 257.157C1017.99 257.168 1017.9 257.196 1017.82 257.241C1017.74 257.286 1017.67 257.345 1017.62 257.417C1015.17 260.465 1012.48 264.41 1013.55 265.789C1013.96 266.194 1014.46 266.503 1015.01 266.696C1015.56 266.889 1016.14 266.961 1016.72 266.907Z" fill="#4E5666"/>
<path d="M1015.25 270.81C1015.25 270.81 1020.08 272.838 1021.84 268.148L1015.25 270.81Z" fill="white"/>
<path d="M1017.06 269.494C1018.12 269.227 1019.24 269.317 1020.25 269.75C1021.25 270.183 1022.09 270.936 1022.62 271.89C1022.67 271.965 1022.71 272.049 1022.73 272.138C1022.74 272.227 1022.74 272.318 1022.72 272.406C1022.71 272.495 1022.67 272.579 1022.62 272.653C1022.57 272.727 1022.5 272.79 1022.42 272.839C1022.35 272.89 1022.26 272.925 1022.17 272.943C1022.08 272.961 1021.99 272.96 1021.9 272.942C1021.81 272.924 1021.72 272.888 1021.65 272.837C1021.57 272.785 1021.51 272.72 1021.46 272.643C1021.2 272.179 1020.84 271.774 1020.41 271.455C1019.99 271.136 1019.5 270.91 1018.98 270.792C1017.73 270.652 1016.47 270.956 1015.42 271.651C1015.35 271.704 1015.27 271.742 1015.18 271.763C1015.09 271.784 1015 271.788 1014.91 271.773C1014.83 271.759 1014.74 271.727 1014.66 271.679C1014.59 271.631 1014.52 271.569 1014.47 271.495C1014.42 271.422 1014.38 271.339 1014.35 271.25C1014.33 271.162 1014.33 271.07 1014.34 270.98C1014.36 270.891 1014.39 270.804 1014.44 270.727C1014.49 270.649 1014.55 270.582 1014.62 270.529C1015.37 270.042 1016.19 269.691 1017.06 269.494Z" fill="#4E5666"/>
<path d="M1023.69 259.773C1023.08 259.718 1022.65 258.978 1022.73 258.121C1022.8 257.264 1023.36 256.613 1023.97 256.668C1024.58 256.723 1025.01 257.462 1024.93 258.319C1024.85 259.177 1024.3 259.827 1023.69 259.773Z" fill="#4E5666"/>
<path d="M1012.82 258.805C1012.21 258.75 1011.78 258.011 1011.86 257.154C1011.93 256.296 1012.49 255.646 1013.1 255.7C1013.71 255.755 1014.14 256.494 1014.06 257.352C1013.98 258.209 1013.43 258.86 1012.82 258.805Z" fill="#4E5666"/>
<path d="M987.422 393.788C987.603 393.781 987.774 393.703 987.899 393.572C988.023 393.44 988.09 393.265 988.086 393.085C988.086 392.975 987.754 381.747 988.086 376.657C988.098 376.477 988.038 376.299 987.918 376.162C987.799 376.025 987.631 375.94 987.45 375.926C987.268 375.922 987.091 375.986 986.955 376.107C986.819 376.227 986.734 376.394 986.716 376.575C986.384 381.719 986.716 393.016 986.716 393.126C986.724 393.307 986.802 393.477 986.934 393.601C987.066 393.725 987.241 393.792 987.422 393.788Z" fill="white"/>
<path d="M979.922 347.83C980.079 347.834 980.231 347.784 980.355 347.689C980.479 347.593 980.565 347.458 980.6 347.306L990.19 305.996C990.21 305.907 990.213 305.815 990.198 305.725C990.182 305.636 990.149 305.55 990.1 305.473C990.051 305.396 989.988 305.329 989.913 305.277C989.838 305.225 989.753 305.188 989.664 305.168C989.486 305.131 989.301 305.162 989.146 305.258C988.992 305.353 988.88 305.503 988.834 305.679L979.244 346.989C979.224 347.078 979.221 347.169 979.237 347.259C979.252 347.349 979.285 347.435 979.334 347.512C979.383 347.589 979.447 347.655 979.521 347.708C979.596 347.76 979.681 347.797 979.77 347.816L979.922 347.83Z" fill="#4E5666"/>
<path d="M1055.67 345.03H1055.75C1055.94 345.01 1056.1 344.918 1056.22 344.776C1056.33 344.634 1056.38 344.453 1056.36 344.272L1051.27 299.389C1051.25 299.206 1051.16 299.039 1051.01 298.924C1050.87 298.809 1050.69 298.755 1050.5 298.776C1050.32 298.796 1050.15 298.888 1050.04 299.031C1049.92 299.175 1049.87 299.358 1049.89 299.541L1054.98 344.382C1054.99 344.557 1055.07 344.72 1055.2 344.84C1055.33 344.959 1055.5 345.027 1055.67 345.03Z" fill="#4E5666"/>
<path d="M1038.01 284.024C1038.01 284.024 1054.48 284.024 1058.95 287.472V292.272C1058.95 292.272 1043.06 287.293 1038.01 288.548V284.024Z" fill="#4E5666"/>
<path d="M1058.95 292.961C1059.1 292.963 1059.24 292.914 1059.35 292.823C1059.44 292.761 1059.51 292.678 1059.56 292.582C1059.61 292.486 1059.63 292.379 1059.63 292.272V287.472C1059.63 287.368 1059.6 287.267 1059.56 287.174C1059.51 287.081 1059.45 286.999 1059.37 286.934C1054.77 283.375 1038.69 283.334 1038.01 283.334C1037.83 283.334 1037.65 283.407 1037.52 283.536C1037.4 283.665 1037.32 283.841 1037.32 284.024V288.548C1037.32 288.653 1037.34 288.758 1037.39 288.853C1037.44 288.949 1037.5 289.033 1037.59 289.099C1037.67 289.16 1037.77 289.203 1037.87 289.224C1037.97 289.246 1038.08 289.246 1038.18 289.224C1042.98 288.01 1058.58 292.879 1058.74 292.934L1058.95 292.961ZM1058.26 287.83V291.348C1054.98 290.368 1043.78 287.21 1038.69 287.734V284.713C1041.76 284.768 1054.22 285.127 1058.26 287.83Z" fill="#4E5666"/>
<path d="M1005.52 284.741L1006.45 288.148C1006.45 288.148 990.854 289.32 984.724 293.306L983.506 289.017C983.506 289.017 995.67 283.224 1005.52 284.741Z" fill="#4E5666"/>
<path d="M984.724 293.996C984.856 293.994 984.985 293.956 985.098 293.886C991.006 290.038 1006.34 288.852 1006.51 288.838C1006.61 288.828 1006.7 288.797 1006.79 288.747C1006.88 288.698 1006.96 288.63 1007.02 288.548C1007.07 288.464 1007.11 288.369 1007.13 288.269C1007.15 288.169 1007.14 288.067 1007.11 287.969L1006.19 284.562C1006.15 284.433 1006.08 284.317 1005.98 284.227C1005.89 284.137 1005.76 284.076 1005.63 284.052C995.67 282.521 983.714 288.189 983.216 288.396C983.068 288.468 982.95 288.588 982.882 288.736C982.814 288.885 982.8 289.052 982.842 289.21L984.06 293.5C984.088 293.603 984.14 293.698 984.212 293.777C984.285 293.856 984.374 293.917 984.475 293.955C984.555 293.982 984.639 293.996 984.724 293.996ZM1005.56 287.541C1002.37 287.831 990.923 289.058 985.139 292.258L984.337 289.403C986.717 288.355 996.68 284.272 1004.98 285.348L1005.56 287.541Z" fill="#4E5666"/>
<path d="M814.35 436.768C815.056 436.768 815.734 436.768 816.468 436.768C820.91 436.561 826.154 434.864 827.247 430.588C827.746 431.154 828.271 431.692 828.797 432.23L964.936 320.299C965.514 319.824 965.878 319.139 965.95 318.395C966.021 317.652 965.793 316.91 965.316 316.334C964.839 315.758 964.152 315.394 963.406 315.323C962.66 315.252 961.916 315.479 961.338 315.955L814.35 436.768Z" fill="white"/>
<path d="M814.932 437.457H816.495C820.799 437.251 825.753 435.678 827.566 431.94L828.355 432.768C828.485 432.88 828.652 432.942 828.825 432.942C828.998 432.942 829.165 432.88 829.296 432.768L965.503 320.865C966.218 320.266 966.668 319.412 966.756 318.485C966.844 317.559 966.563 316.635 965.974 315.913C965.681 315.56 965.322 315.267 964.916 315.051C964.51 314.836 964.065 314.702 963.607 314.658C962.675 314.572 961.745 314.854 961.02 315.444L813.963 436.257C813.859 436.35 813.785 436.471 813.749 436.606C813.714 436.741 813.72 436.883 813.766 437.014C813.812 437.146 813.896 437.26 814.007 437.344C814.119 437.428 814.253 437.477 814.392 437.485L814.932 437.457ZM827.248 429.871H827.095C826.972 429.898 826.859 429.959 826.768 430.047C826.678 430.135 826.614 430.246 826.583 430.368C825.532 434.244 820.661 435.885 816.44 436.037H816.302L961.85 316.493C962.067 316.31 962.318 316.174 962.589 316.091C962.86 316.008 963.145 315.98 963.427 316.01C963.697 316.038 963.959 316.12 964.196 316.25C964.434 316.38 964.643 316.557 964.811 316.769C964.992 316.982 965.129 317.23 965.213 317.497C965.297 317.763 965.327 318.044 965.301 318.323C965.275 318.601 965.194 318.872 965.063 319.119C964.931 319.366 964.751 319.584 964.534 319.762L828.825 431.264C828.447 430.887 828.087 430.501 827.746 430.106C827.682 430.036 827.606 429.979 827.52 429.939C827.435 429.899 827.342 429.876 827.248 429.871Z" fill="#4E5666"/>
<path d="M935.986 326.148C936.851 325.844 937.776 325.749 938.685 325.872C939.323 326.024 939.927 326.29 940.47 326.658C941.841 327.506 943.039 328.606 943.999 329.899C943.208 330.157 942.494 330.607 941.923 331.21C942.861 332.266 943.396 333.617 943.434 335.027C943.472 336.437 943.011 337.815 942.13 338.92C940.971 340.111 939.55 341.018 937.979 341.568C936.813 342.138 935.551 342.484 934.257 342.589C933.021 342.582 931.81 342.246 930.749 341.616C929.688 340.985 928.816 340.083 928.223 339.003C924.446 332.492 929.967 327.899 935.986 326.148Z" fill="white"/>
<path d="M934.077 343.278H934.298C935.678 343.168 937.024 342.803 938.27 342.203C939.932 341.617 941.434 340.654 942.657 339.389C943.576 338.249 944.096 336.84 944.136 335.378C944.176 333.915 943.734 332.48 942.878 331.292C943.297 330.98 943.765 330.738 944.262 330.575C944.365 330.54 944.458 330.483 944.535 330.406C944.612 330.329 944.67 330.236 944.705 330.134C944.735 330.029 944.74 329.918 944.721 329.811C944.702 329.703 944.658 329.601 944.594 329.513C943.584 328.154 942.326 326.998 940.885 326.106C940.267 325.691 939.577 325.392 938.851 325.223C937.837 325.073 936.801 325.173 935.834 325.513C931.323 326.892 928.044 329.279 926.854 332.258C926.398 333.418 926.226 334.67 926.351 335.91C926.476 337.15 926.895 338.342 927.573 339.389C928.224 340.545 929.166 341.513 930.307 342.195C931.447 342.877 932.747 343.251 934.077 343.278ZM942.892 329.623C942.345 329.907 941.849 330.28 941.425 330.727C941.302 330.855 941.234 331.025 941.234 331.203C941.234 331.38 941.302 331.55 941.425 331.679C942.251 332.61 942.722 333.801 942.758 335.043C942.793 336.286 942.39 337.502 941.619 338.478C940.528 339.576 939.204 340.415 937.744 340.934C936.65 341.464 935.468 341.791 934.257 341.899C933.15 341.877 932.067 341.566 931.118 340.998C930.169 340.429 929.385 339.622 928.846 338.658C928.267 337.798 927.898 336.815 927.768 335.788C927.638 334.76 927.752 333.717 928.099 332.741C929.123 330.203 932.154 327.982 936.194 326.81C936.951 326.536 937.762 326.446 938.561 326.548C939.116 326.69 939.645 326.923 940.124 327.237C941.157 327.896 942.089 328.699 942.892 329.623Z" fill="#4E5666"/>
<path d="M1164.3 437.499L1192.21 439.444L1272.78 479.429L1224.14 505.209L1164.3 455.195V437.499Z" fill="white"/>
<path d="M1224.12 505.912C1224.24 505.913 1224.35 505.884 1224.45 505.829L1273.09 480.078C1273.21 480.019 1273.3 479.93 1273.37 479.82C1273.44 479.711 1273.47 479.585 1273.47 479.457C1273.47 479.33 1273.43 479.205 1273.36 479.098C1273.29 478.991 1273.2 478.905 1273.08 478.85L1192.52 438.851C1192.43 438.807 1192.34 438.783 1192.25 438.782L1164.34 436.837C1164.25 436.831 1164.16 436.845 1164.07 436.875C1163.98 436.906 1163.9 436.954 1163.83 437.016C1163.76 437.077 1163.7 437.154 1163.66 437.24C1163.62 437.325 1163.61 437.419 1163.61 437.513V455.25C1163.61 455.35 1163.63 455.448 1163.67 455.539C1163.71 455.629 1163.77 455.71 1163.84 455.775L1223.71 505.747C1223.82 505.845 1223.97 505.903 1224.12 505.912ZM1271.27 479.457L1224.22 504.395L1164.99 454.864V438.23L1192.03 440.078L1271.27 479.457Z" fill="#4E5666"/>
<path d="M875.598 309.417C875.598 309.417 969.17 360.451 1031.08 372.947C1119.13 390.74 1215.13 385.223 1215.13 385.223L1189.82 429.209C1148.78 436.786 1107.21 441.13 1065.5 442.202C1019.18 443.278 953.409 442.298 953.409 442.298C953.409 442.298 901.682 412.837 883.208 363.678C864.735 314.52 875.598 309.417 875.598 309.417Z" fill="white"/>
<path d="M1012.86 443.402C1030.39 443.402 1049.25 443.278 1065.59 442.892C1107.35 441.785 1148.95 437.436 1190.02 429.885C1190.12 429.864 1190.21 429.823 1190.29 429.763C1190.37 429.704 1190.43 429.627 1190.48 429.54L1215.8 385.568C1215.87 385.461 1215.9 385.34 1215.9 385.216C1215.9 385.093 1215.87 384.972 1215.8 384.865C1215.74 384.755 1215.65 384.665 1215.54 384.606C1215.42 384.547 1215.29 384.522 1215.17 384.534C1214.21 384.534 1118.19 389.844 1031.23 372.272C970.125 359.858 876.87 309.32 875.943 308.824C875.844 308.776 875.735 308.751 875.625 308.751C875.515 308.751 875.406 308.776 875.307 308.824C874.85 309.058 864.236 314.879 882.655 363.996C901.004 412.768 952.647 442.616 953.229 442.919C953.331 442.973 953.445 443.001 953.561 443.002C953.865 443.002 981.223 443.402 1012.86 443.402ZM1189.44 428.589C1148.54 436.059 1107.12 440.361 1065.55 441.457C1020.97 442.492 957.615 441.623 953.685 441.568C950.572 439.733 901.613 410.437 883.942 363.444C867.82 320.589 874.255 311.527 875.639 310.189C882.35 313.803 971.661 361.582 1030.93 373.568C1112.57 390.12 1202.27 386.478 1213.95 385.982L1189.44 428.589Z" fill="#4E5666"/>
<path d="M851.27 316.176C848.264 318.634 845.921 321.801 844.452 325.389C842.983 328.978 842.434 332.874 842.857 336.727C842.857 336.727 861.718 377.679 878.988 401.996C897.863 428.602 911.106 436.326 918.191 439.237C922.469 440.992 927.009 442.027 931.627 442.299C931.627 442.299 855.892 356.065 851.27 316.176Z" fill="white"/>
<path d="M931.628 442.988C931.759 442.988 931.888 442.952 932 442.884C932.112 442.816 932.204 442.718 932.264 442.602C932.318 442.478 932.336 442.341 932.317 442.207C932.297 442.073 932.241 441.947 932.153 441.844C931.392 440.988 856.501 355.32 851.962 316.093C851.95 315.972 851.906 315.856 851.832 315.759C851.759 315.661 851.66 315.586 851.547 315.541C851.438 315.493 851.318 315.474 851.199 315.487C851.08 315.499 850.966 315.541 850.869 315.61C847.781 318.155 845.371 321.42 843.852 325.115C842.334 328.811 841.754 332.823 842.165 336.796C842.173 336.873 842.197 336.948 842.234 337.017C842.414 337.431 861.303 378.299 878.42 402.396C892.535 422.285 905.834 434.892 917.928 439.871C922.282 441.668 926.909 442.721 931.614 442.988H931.628ZM850.758 317.472C853.221 334.189 867.364 360.12 892.632 394.561C909.238 417.209 925.677 436.437 929.995 441.457C926.026 441.042 922.137 440.071 918.44 438.575C906.595 433.692 893.532 421.251 879.527 401.568C862.922 378.12 844.6 338.851 843.549 336.52C843.197 333.012 843.665 329.471 844.916 326.174C846.167 322.876 848.167 319.912 850.758 317.513V317.472Z" fill="#4E5666"/>
<path d="M867.073 303.527L875.597 309.362C875.597 309.362 887.332 350.741 898.07 370.644C919.63 410.74 953.491 442.243 953.491 442.243L947.956 444.699C947.956 444.699 899.897 402.409 883.291 372.947C866.686 343.486 867.073 303.527 867.073 303.527Z" fill="white"/>
<path d="M947.956 445.443C948.048 445.462 948.142 445.462 948.233 445.443L953.768 442.988C953.874 442.945 953.966 442.875 954.036 442.785C954.106 442.696 954.152 442.59 954.17 442.478C954.189 442.365 954.181 442.25 954.144 442.141C954.108 442.033 954.046 441.935 953.962 441.857C953.63 441.54 919.934 409.954 898.679 370.423C888.107 350.754 876.372 309.734 876.262 309.293C876.222 309.134 876.123 308.996 875.985 308.906L867.475 303.072C867.364 303.012 867.241 302.98 867.115 302.98C866.989 302.98 866.865 303.012 866.755 303.072C866.645 303.132 866.553 303.219 866.487 303.326C866.422 303.432 866.385 303.554 866.381 303.679C866.381 304.079 866.16 344.092 882.696 373.375C899.233 402.658 947.015 444.947 947.486 445.374C947.631 445.448 947.796 445.472 947.956 445.443ZM952.274 442.092L948.122 443.954C943.833 440.133 899.593 400.354 883.942 372.603C869.273 346.617 867.931 312.024 867.821 304.906L874.989 309.844C875.971 313.265 887.221 352.01 897.448 371.016C917.042 407.457 947.14 437.168 952.274 442.092Z" fill="#4E5666"/>
<path d="M947.956 444.753C947.956 444.753 917.679 417.167 896.839 378.161C878.711 344.244 867.073 303.582 867.073 303.582L842.857 306.037C842.857 306.037 857.636 356.782 882.683 392.381C907.729 427.981 931.116 443.995 931.116 443.995L947.956 444.753Z" fill="white"/>
<path d="M947.957 445.443C948.095 445.441 948.231 445.398 948.344 445.319C948.458 445.239 948.546 445.127 948.595 444.998C948.644 444.868 948.653 444.727 948.621 444.593C948.588 444.458 948.516 444.336 948.413 444.243C948.109 443.981 917.97 416.257 897.448 377.843C879.569 344.382 867.862 303.803 867.738 303.361C867.695 303.204 867.598 303.068 867.464 302.977C867.329 302.886 867.166 302.846 867.004 302.865L842.788 305.32C842.686 305.326 842.588 305.357 842.501 305.41C842.414 305.463 842.341 305.536 842.289 305.623C842.23 305.703 842.19 305.796 842.173 305.894C842.156 305.993 842.163 306.094 842.193 306.189C842.345 306.699 857.29 357.457 882.115 392.74C906.941 428.022 930.548 444.353 930.784 444.519C930.891 444.59 931.015 444.633 931.143 444.643L947.915 445.402L947.957 445.443ZM866.575 304.327C868.042 309.334 879.417 347.085 896.23 378.492C914.386 412.491 940.027 438.091 946.13 443.981L931.406 443.305C929.303 441.829 906.844 425.54 883.236 391.981C860.251 359.306 845.763 313.237 843.756 306.644L866.575 304.327Z" fill="#4E5666"/>
<path d="M1142.74 396.63C1164.08 396.754 1185.41 395.805 1206.66 393.788C1206.84 393.768 1207.01 393.676 1207.12 393.534C1207.23 393.392 1207.29 393.211 1207.27 393.03C1207.26 392.939 1207.23 392.85 1207.19 392.769C1207.15 392.689 1207.09 392.618 1207.02 392.561C1206.95 392.504 1206.87 392.462 1206.78 392.438C1206.69 392.415 1206.6 392.409 1206.51 392.423C1206.05 392.423 1159.59 397.595 1097.7 393.926C1040.6 390.561 958.307 378.754 890.543 341.996C890.463 341.939 890.373 341.901 890.277 341.882C890.181 341.863 890.083 341.864 889.988 341.886C889.893 341.907 889.804 341.949 889.726 342.007C889.648 342.066 889.583 342.14 889.536 342.225C889.489 342.31 889.461 342.404 889.453 342.501C889.445 342.598 889.457 342.695 889.489 342.787C889.522 342.878 889.573 342.962 889.64 343.033C889.707 343.103 889.788 343.159 889.878 343.196C957.878 380.147 1040.39 391.926 1097.64 395.306C1113.93 396.271 1129.15 396.63 1142.74 396.63Z" fill="#D0D3D9"/>
<path d="M1112.82 411.692C1140.69 411.785 1168.55 410.432 1196.28 407.637C1196.37 407.626 1196.46 407.597 1196.54 407.553C1196.62 407.508 1196.69 407.448 1196.74 407.376C1196.8 407.305 1196.84 407.222 1196.87 407.135C1196.89 407.047 1196.9 406.955 1196.89 406.864C1196.88 406.774 1196.85 406.686 1196.8 406.607C1196.76 406.527 1196.7 406.457 1196.63 406.401C1196.56 406.345 1196.47 406.303 1196.38 406.278C1196.3 406.254 1196.2 406.247 1196.11 406.257C1162.98 409.558 1129.68 410.862 1096.4 410.161C1044.38 409.154 969.917 402.671 910.539 377.485C910.456 377.449 910.367 377.429 910.277 377.428C910.187 377.426 910.097 377.443 910.013 377.476C909.929 377.51 909.853 377.559 909.789 377.622C909.725 377.686 909.674 377.761 909.639 377.844C909.602 377.927 909.583 378.017 909.581 378.108C909.579 378.199 909.595 378.289 909.629 378.374C909.662 378.458 909.712 378.535 909.776 378.601C909.839 378.666 909.915 378.718 909.999 378.754C969.585 404.023 1044.23 410.478 1096.38 411.54C1102.01 411.651 1107.47 411.692 1112.82 411.692Z" fill="#D0D3D9"/>
<path d="M1071.49 428.285C1111.24 428.367 1150.94 425.471 1190.26 419.623C1190.35 419.608 1190.44 419.575 1190.51 419.527C1190.59 419.478 1190.66 419.415 1190.71 419.341C1190.76 419.266 1190.8 419.182 1190.82 419.093C1190.84 419.005 1190.84 418.913 1190.83 418.823C1190.81 418.734 1190.78 418.648 1190.74 418.571C1190.69 418.494 1190.63 418.427 1190.55 418.374C1190.48 418.322 1190.4 418.284 1190.31 418.264C1190.22 418.244 1190.13 418.242 1190.04 418.257C1188.65 418.492 1051.81 441.264 933.689 411.982C933.601 411.959 933.509 411.954 933.419 411.966C933.329 411.979 933.242 412.009 933.164 412.055C933.085 412.101 933.017 412.162 932.962 412.235C932.908 412.308 932.868 412.39 932.845 412.478C932.823 412.567 932.818 412.659 932.831 412.75C932.845 412.841 932.876 412.928 932.924 413.006C932.972 413.084 933.035 413.152 933.109 413.206C933.183 413.26 933.268 413.299 933.357 413.32C979.673 424.782 1028.8 428.285 1071.49 428.285Z" fill="#D0D3D9"/>
<path d="M854.107 353.789C854.211 353.789 854.314 353.766 854.407 353.721C854.501 353.675 854.583 353.609 854.647 353.527L857.76 349.651C857.817 349.58 857.86 349.499 857.886 349.412C857.912 349.325 857.92 349.234 857.91 349.143C857.901 349.053 857.873 348.965 857.83 348.886C857.786 348.806 857.727 348.736 857.656 348.678C857.586 348.621 857.504 348.579 857.417 348.553C857.329 348.527 857.238 348.519 857.147 348.529C857.057 348.538 856.969 348.566 856.889 348.609C856.809 348.653 856.738 348.711 856.681 348.782L853.567 352.672C853.454 352.814 853.402 352.996 853.423 353.177C853.444 353.358 853.535 353.523 853.678 353.637C853.8 353.733 853.951 353.787 854.107 353.789Z" fill="#D0D3D9"/>
<path d="M871.114 387.057C871.213 387.056 871.311 387.035 871.401 386.995C871.492 386.954 871.573 386.896 871.64 386.823L874.407 383.719C874.472 383.656 874.523 383.581 874.558 383.498C874.593 383.416 874.611 383.327 874.611 383.237C874.611 383.147 874.593 383.058 874.558 382.975C874.523 382.892 874.472 382.817 874.407 382.754C874.343 382.689 874.267 382.638 874.182 382.603C874.098 382.568 874.007 382.55 873.916 382.55C873.825 382.55 873.734 382.568 873.65 382.603C873.566 382.638 873.489 382.689 873.425 382.754L870.657 385.871C870.593 385.934 870.542 386.009 870.507 386.092C870.472 386.175 870.454 386.264 870.454 386.354C870.454 386.444 870.472 386.533 870.507 386.616C870.542 386.699 870.593 386.774 870.657 386.837C870.714 386.903 870.784 386.956 870.863 386.994C870.941 387.032 871.027 387.054 871.114 387.057Z" fill="#D0D3D9"/>
<path d="M892.812 414.45C893.739 414.461 894.666 414.387 895.58 414.23C895.669 414.211 895.753 414.176 895.828 414.125C895.904 414.075 895.968 414.01 896.018 413.934C896.069 413.859 896.103 413.774 896.121 413.685C896.138 413.596 896.137 413.505 896.119 413.416C896.104 413.327 896.072 413.242 896.023 413.166C895.974 413.09 895.91 413.024 895.834 412.974C895.759 412.924 895.675 412.889 895.585 412.873C895.496 412.856 895.405 412.858 895.317 412.878C893.675 413.132 892.004 413.132 890.363 412.878C890.272 412.863 890.179 412.867 890.089 412.888C890 412.909 889.915 412.948 889.841 413.002C889.766 413.056 889.703 413.124 889.655 413.202C889.607 413.28 889.574 413.367 889.56 413.457C889.545 413.548 889.549 413.64 889.57 413.729C889.592 413.819 889.63 413.903 889.684 413.977C889.738 414.051 889.806 414.114 889.885 414.162C889.963 414.21 890.05 414.243 890.141 414.257C891.025 414.394 891.918 414.459 892.812 414.45Z" fill="#D0D3D9"/>
<path d="M1215.2 385.223H1222.17L1196.43 428.961L1189.89 429.209L1215.2 385.223Z" fill="white"/>
<path d="M1189.89 429.898L1196.43 429.65C1196.55 429.646 1196.66 429.612 1196.76 429.552C1196.86 429.491 1196.94 429.406 1197 429.305L1222.74 385.567C1222.8 385.463 1222.83 385.344 1222.83 385.223C1222.83 385.102 1222.8 384.983 1222.74 384.878C1222.68 384.774 1222.59 384.687 1222.49 384.626C1222.38 384.566 1222.26 384.534 1222.14 384.533H1215.22C1215.1 384.534 1214.98 384.566 1214.88 384.626C1214.78 384.687 1214.69 384.774 1214.63 384.878L1189.3 428.864C1189.24 428.967 1189.21 429.087 1189.21 429.209C1189.21 429.331 1189.24 429.45 1189.3 429.553C1189.36 429.656 1189.45 429.741 1189.55 429.801C1189.65 429.862 1189.77 429.895 1189.89 429.898ZM1196.03 428.284L1191.1 428.464L1215.6 385.912H1220.94L1196.03 428.284Z" fill="#4E5666"/>
<path d="M990.223 325.123L990.23 325.111C991.075 323.805 992.822 323.429 994.132 324.27L1210.17 463.044C1211.48 463.886 1211.86 465.627 1211.01 466.933L1211.01 466.945C1210.16 468.251 1208.41 468.628 1207.1 467.786L991.066 329.012C989.756 328.17 989.378 326.429 990.223 325.123Z" fill="white"/>
<path d="M1208.6 468.933C1208.85 468.932 1209.1 468.905 1209.34 468.85C1210.26 468.652 1211.06 468.102 1211.57 467.319C1211.82 466.93 1211.99 466.496 1212.07 466.042C1212.15 465.587 1212.14 465.121 1212.04 464.671C1211.95 464.219 1211.76 463.791 1211.5 463.412C1211.23 463.033 1210.9 462.71 1210.5 462.464L994.494 323.692C994.107 323.441 993.674 323.27 993.221 323.187C992.767 323.104 992.301 323.112 991.85 323.209C991.171 323.358 990.55 323.704 990.067 324.204C989.584 324.703 989.26 325.334 989.136 326.017C989.012 326.699 989.093 327.403 989.369 328.04C989.645 328.677 990.104 329.218 990.688 329.596L1206.7 468.367C1207.26 468.736 1207.92 468.932 1208.6 468.933ZM992.612 324.506C993.02 324.51 993.418 324.629 993.76 324.851L1209.76 463.622C1210 463.777 1210.21 463.979 1210.37 464.216C1210.53 464.453 1210.64 464.72 1210.7 465.002C1210.82 465.559 1210.71 466.139 1210.39 466.615C1210.24 466.85 1210.05 467.053 1209.82 467.212C1209.59 467.371 1209.33 467.483 1209.05 467.542C1208.78 467.6 1208.5 467.605 1208.22 467.555C1207.94 467.505 1207.68 467.401 1207.45 467.25L991.435 328.478C991.194 328.322 990.987 328.12 990.825 327.883C990.664 327.646 990.551 327.38 990.494 327.099C990.437 326.826 990.434 326.543 990.487 326.269C990.539 325.994 990.645 325.733 990.799 325.499C990.951 325.256 991.153 325.049 991.391 324.889C991.63 324.73 991.9 324.623 992.183 324.575C992.322 324.534 992.466 324.511 992.612 324.506Z" fill="#4E5666"/>
<path d="M1075 354.74C1075 354.74 1045.45 343.899 1040.12 342.326C1034.79 340.754 1022.81 339.568 1020.11 343.554C1017.41 347.54 1018.38 353.209 1020.11 354.588C1021.84 355.968 1031.18 362.767 1032.92 359.912C1034.31 357.206 1035.49 354.393 1036.42 351.499L1041.5 354.768L1069.3 372.629" fill="white"/>
<path d="M1069.3 373.264C1069.45 373.267 1069.6 373.221 1069.72 373.133C1069.84 373.044 1069.93 372.919 1069.98 372.776C1070.02 372.632 1070.02 372.478 1069.96 372.338C1069.91 372.197 1069.82 372.077 1069.69 371.995L1036.8 350.865C1036.7 350.82 1036.6 350.797 1036.49 350.797C1036.39 350.797 1036.28 350.82 1036.19 350.865C1036.09 350.899 1036 350.955 1035.92 351.029C1035.85 351.103 1035.79 351.193 1035.76 351.292C1034.84 354.138 1033.69 356.905 1032.33 359.568C1032.27 359.664 1032.19 359.745 1032.1 359.805C1032 359.865 1031.9 359.902 1031.79 359.913C1029.32 360.313 1022.76 355.899 1020.55 354.065C1019.08 352.851 1018.24 347.513 1020.69 343.94C1023.14 340.368 1034.64 341.375 1039.91 342.989C1045.18 344.603 1074.5 355.402 1074.77 355.402C1074.94 355.465 1075.13 355.456 1075.3 355.378C1075.46 355.301 1075.59 355.161 1075.65 354.989C1075.69 354.904 1075.7 354.813 1075.7 354.722C1075.7 354.631 1075.67 354.542 1075.63 354.459C1075.6 354.377 1075.54 354.303 1075.47 354.242C1075.4 354.182 1075.32 354.135 1075.24 354.106C1074.95 353.996 1045.61 343.237 1040.31 341.609C1035.68 340.23 1022.67 338.547 1019.55 343.113C1016.69 347.251 1017.59 353.333 1019.68 355.071C1019.76 355.071 1028.36 361.871 1032.04 361.209C1032.34 361.163 1032.64 361.05 1032.9 360.879C1033.16 360.707 1033.38 360.481 1033.54 360.216C1034.84 357.744 1035.93 355.17 1036.81 352.52L1068.94 373.209C1069.06 373.256 1069.18 373.275 1069.3 373.264Z" fill="#4E5666"/>
<path d="M969.018 456.809C977.32 456.809 987.468 454.749 999.461 450.63C1009.32 447.166 1018.9 442.966 1028.12 438.064C1031.01 439.554 1050.61 449.347 1064.1 448.423C1069.91 448.023 1087.14 440.478 1091.61 435.154C1106.76 443.046 1123.27 447.993 1140.28 449.733C1140.37 449.743 1140.46 449.734 1140.54 449.708C1140.63 449.682 1140.71 449.638 1140.78 449.58C1140.85 449.522 1140.91 449.451 1140.95 449.371C1140.99 449.291 1141.02 449.203 1141.02 449.113C1141.04 448.932 1140.99 448.75 1140.88 448.608C1140.76 448.466 1140.6 448.375 1140.42 448.354C1123.37 446.64 1106.82 441.671 1091.66 433.72C1091.51 433.643 1091.34 433.623 1091.18 433.664C1091.02 433.704 1090.87 433.803 1090.78 433.94C1087.48 438.602 1070.12 446.671 1063.93 447.099C1050.09 448.064 1028.63 436.851 1028.41 436.726C1028.31 436.675 1028.19 436.649 1028.08 436.649C1027.96 436.649 1027.85 436.675 1027.75 436.726C1018.49 441.666 1008.87 445.895 998.963 449.375C984.613 454.326 965.088 458.781 953.464 451.844C953.386 451.794 953.299 451.761 953.209 451.746C953.118 451.731 953.025 451.735 952.936 451.756C952.846 451.778 952.763 451.818 952.689 451.874C952.616 451.929 952.554 451.998 952.509 452.078C952.461 452.156 952.429 452.242 952.415 452.332C952.401 452.422 952.405 452.514 952.427 452.603C952.449 452.691 952.488 452.775 952.543 452.848C952.597 452.921 952.666 452.983 952.744 453.03C957.727 455.73 963.35 457.035 969.018 456.809Z" fill="#D0D3D9"/>
<path d="M890.833 446.602C890.924 446.618 891.017 446.617 891.107 446.597C891.198 446.577 891.283 446.54 891.359 446.488C891.435 446.435 891.499 446.368 891.549 446.291C891.599 446.214 891.633 446.127 891.65 446.037C891.666 445.946 891.664 445.853 891.645 445.763C891.625 445.673 891.588 445.588 891.535 445.513C891.482 445.437 891.415 445.372 891.338 445.323C891.26 445.273 891.173 445.239 891.082 445.223L873.605 438.464C872.182 437.626 870.533 437.25 868.887 437.388C867.24 437.527 865.678 438.173 864.416 439.237L863.752 439.65C848.752 448.726 834.692 437.126 829.296 431.719C828.77 431.195 828.258 430.657 827.773 430.106C827.689 430.013 827.583 429.944 827.464 429.906C827.345 429.867 827.218 429.86 827.095 429.885C826.972 429.912 826.859 429.973 826.768 430.061C826.678 430.148 826.614 430.259 826.583 430.381C825.532 434.257 820.661 435.899 816.44 436.05C815.748 436.05 815.056 436.05 814.364 436.05C805.777 435.916 797.487 432.892 790.84 427.471C790.698 427.377 790.527 427.339 790.359 427.363C790.19 427.387 790.037 427.472 789.928 427.601C789.818 427.731 789.76 427.896 789.765 428.065C789.77 428.235 789.837 428.396 789.954 428.519C796.811 434.197 805.423 437.344 814.337 437.43C815.056 437.43 815.72 437.43 816.495 437.43C820.799 437.223 825.753 435.65 827.566 431.913L828.355 432.74C840.186 444.671 853.374 447.637 864.527 440.878L865.205 440.464C866.287 439.521 867.642 438.948 869.074 438.829C870.506 438.71 871.939 439.051 873.162 439.802L890.639 446.602C890.703 446.614 890.769 446.614 890.833 446.602Z" fill="#D0D3D9"/>
<path d="M963.123 475.429C967.822 475.434 972.509 474.93 977.099 473.926C977.19 473.906 977.276 473.868 977.352 473.815C977.429 473.762 977.494 473.695 977.544 473.617C977.594 473.538 977.628 473.451 977.644 473.36C977.661 473.269 977.659 473.175 977.639 473.084C977.619 472.994 977.581 472.908 977.528 472.832C977.475 472.756 977.407 472.691 977.328 472.641C977.25 472.591 977.163 472.557 977.071 472.541C976.979 472.525 976.886 472.527 976.795 472.547C968.139 474.407 959.196 474.507 950.5 472.84C941.805 471.174 933.536 467.776 926.189 462.85C925.25 462.05 924.062 461.596 922.826 461.567C921.784 461.735 920.819 462.216 920.059 462.947L919.907 463.071C912.988 468.588 903.08 470.257 889.463 468.188C883 467.198 876.628 465.69 870.408 463.678C870.234 463.621 870.044 463.636 869.881 463.719C869.717 463.801 869.593 463.945 869.536 464.119C869.48 464.293 869.494 464.482 869.577 464.645C869.66 464.808 869.805 464.931 869.979 464.988C876.271 467.02 882.717 468.543 889.255 469.54C903.287 471.691 913.596 469.912 920.778 464.147L920.944 464.023C921.491 463.464 922.188 463.076 922.951 462.905C923.862 462.98 924.725 463.342 925.414 463.94C936.551 471.437 949.684 475.438 963.123 475.429Z" fill="#D0D3D9"/>
<path d="M1075.22 477.581C1079.78 477.58 1084.33 477.183 1088.81 476.395C1097.12 474.933 1102.87 472.147 1106.5 467.899C1118.94 474.919 1133.37 477.598 1147.51 475.512C1147.61 475.501 1147.69 475.471 1147.77 475.424C1147.85 475.378 1147.92 475.316 1147.97 475.243C1148.03 475.169 1148.07 475.086 1148.09 474.997C1148.11 474.908 1148.11 474.816 1148.1 474.726C1148.08 474.636 1148.05 474.55 1148 474.473C1147.96 474.395 1147.89 474.327 1147.82 474.273C1147.75 474.22 1147.67 474.181 1147.58 474.159C1147.49 474.137 1147.4 474.133 1147.31 474.147C1133.28 476.221 1118.95 473.494 1106.68 466.409C1106.54 466.327 1106.37 466.298 1106.2 466.328C1106.04 466.359 1105.9 466.446 1105.79 466.575C1102.42 470.809 1096.78 473.581 1088.58 475.03C1076.26 477.203 1063.59 476.346 1051.67 472.533C1051.59 472.503 1051.49 472.491 1051.4 472.497C1051.31 472.503 1051.22 472.527 1051.14 472.569C1051.06 472.61 1050.99 472.667 1050.93 472.737C1050.87 472.807 1050.83 472.887 1050.8 472.974C1050.74 473.148 1050.76 473.337 1050.84 473.5C1050.92 473.663 1051.07 473.787 1051.24 473.843C1058.99 476.323 1067.08 477.584 1075.22 477.581Z" fill="#D0D3D9"/>
<path d="M1017.33 479.967C1019.19 479.967 1021.04 479.783 1022.86 479.415C1023.04 479.375 1023.2 479.266 1023.3 479.112C1023.4 478.957 1023.44 478.769 1023.4 478.588C1023.36 478.411 1023.25 478.257 1023.1 478.159C1022.95 478.061 1022.76 478.026 1022.58 478.063C1018.25 478.886 1013.78 478.663 1009.55 477.413C1005.31 476.163 1001.44 473.922 998.258 470.877C998.195 470.811 998.12 470.759 998.037 470.723C997.954 470.687 997.864 470.668 997.773 470.668C997.682 470.668 997.593 470.687 997.509 470.723C997.426 470.759 997.351 470.811 997.289 470.877C997.224 470.941 997.173 471.018 997.137 471.102C997.102 471.186 997.084 471.276 997.084 471.367C997.084 471.458 997.102 471.548 997.137 471.632C997.173 471.716 997.224 471.793 997.289 471.857C1002.65 477.063 1009.84 479.974 1017.33 479.967Z" fill="#D0D3D9"/>
<path d="M1246.07 437.002C1246.99 437.003 1247.92 436.947 1248.84 436.836C1248.93 436.826 1249.02 436.798 1249.1 436.753C1249.18 436.709 1249.25 436.649 1249.3 436.577C1249.36 436.505 1249.4 436.423 1249.43 436.335C1249.45 436.247 1249.46 436.154 1249.45 436.064C1249.43 435.973 1249.41 435.886 1249.36 435.807C1249.32 435.728 1249.26 435.658 1249.18 435.603C1249.11 435.548 1249.03 435.507 1248.94 435.485C1248.85 435.462 1248.76 435.457 1248.67 435.471C1245.41 435.833 1242.1 435.492 1238.98 434.471C1235.86 433.45 1233 431.773 1230.58 429.553C1230.03 428.896 1229.26 428.448 1228.41 428.285C1227.52 428.28 1226.66 428.582 1225.98 429.14C1222.82 431.154 1219.28 432.512 1215.59 433.131C1211.89 433.749 1208.1 433.616 1204.46 432.74C1204.37 432.717 1204.28 432.712 1204.19 432.724C1204.1 432.737 1204.01 432.767 1203.93 432.813C1203.85 432.859 1203.79 432.921 1203.73 432.993C1203.68 433.066 1203.64 433.148 1203.61 433.236C1203.57 433.415 1203.6 433.604 1203.7 433.761C1203.79 433.918 1203.95 434.032 1204.13 434.078C1207.95 435.001 1211.92 435.143 1215.8 434.496C1219.68 433.849 1223.39 432.426 1226.71 430.312C1227.15 429.942 1227.7 429.711 1228.27 429.65C1228.81 429.804 1229.29 430.105 1229.66 430.519C1234.12 434.654 1239.98 436.968 1246.07 437.002Z" fill="#D0D3D9"/>
<path d="M923.006 491.857C926.269 491.866 929.521 491.486 932.693 490.726C932.872 490.68 933.026 490.566 933.121 490.409C933.217 490.252 933.247 490.063 933.205 489.884C933.184 489.797 933.146 489.715 933.092 489.642C933.039 489.57 932.972 489.509 932.895 489.462C932.817 489.416 932.731 489.386 932.642 489.373C932.553 489.36 932.462 489.365 932.375 489.388C927.03 490.641 921.487 490.812 916.074 489.891C910.662 488.969 905.49 486.973 900.866 484.022C900.749 483.946 900.612 483.906 900.473 483.909C900.333 483.911 900.198 483.955 900.084 484.036C899.97 484.116 899.884 484.229 899.835 484.36C899.787 484.49 899.78 484.632 899.814 484.767C899.856 484.903 899.864 485.047 899.838 485.186C899.811 485.326 899.751 485.456 899.662 485.567C898.815 486.363 897.698 486.811 896.534 486.822C887.707 487.411 878.84 486.883 870.145 485.25C870.056 485.232 869.964 485.232 869.875 485.251C869.786 485.269 869.701 485.305 869.627 485.356C869.552 485.408 869.488 485.474 869.439 485.55C869.39 485.627 869.358 485.712 869.343 485.802C869.323 485.89 869.321 485.981 869.337 486.07C869.354 486.158 869.389 486.243 869.439 486.318C869.49 486.393 869.555 486.457 869.631 486.505C869.708 486.554 869.793 486.587 869.882 486.602C878.691 488.257 887.674 488.795 896.617 488.202C897.396 488.187 898.164 488.019 898.876 487.706C899.589 487.394 900.232 486.943 900.769 486.381C900.894 486.199 901 486.005 901.087 485.802C907.705 489.769 915.284 491.862 923.006 491.857Z" fill="#D0D3D9"/>
<path d="M1222.17 496.96C1222.28 496.964 1222.38 496.94 1222.47 496.892L1262.45 477.512C1262.54 477.474 1262.61 477.419 1262.67 477.352C1262.73 477.284 1262.78 477.204 1262.81 477.118C1262.84 477.032 1262.85 476.94 1262.85 476.849C1262.84 476.758 1262.81 476.669 1262.77 476.588C1262.73 476.506 1262.68 476.432 1262.61 476.371C1262.55 476.31 1262.47 476.263 1262.38 476.233C1262.3 476.203 1262.21 476.191 1262.12 476.198C1262.03 476.204 1261.94 476.229 1261.86 476.271L1221.85 495.581C1221.77 495.621 1221.7 495.676 1221.64 495.744C1221.58 495.812 1221.53 495.892 1221.5 495.977C1221.47 496.063 1221.46 496.154 1221.46 496.245C1221.47 496.335 1221.49 496.424 1221.53 496.505C1221.58 496.639 1221.66 496.755 1221.78 496.836C1221.89 496.918 1222.03 496.962 1222.17 496.96Z" fill="#D0D3D9"/>
<path d="M1193.53 495.347C1194.51 495.347 1195.48 495.347 1196.46 495.347C1196.64 495.347 1196.82 495.274 1196.95 495.145C1197.08 495.015 1197.15 494.84 1197.15 494.657C1197.15 494.474 1197.08 494.299 1196.95 494.169C1196.82 494.04 1196.64 493.967 1196.46 493.967C1183.88 494.404 1171.37 491.901 1159.94 486.657C1158.9 486.08 1157.75 485.727 1156.56 485.623C1155.71 485.657 1154.87 485.815 1154.06 486.092C1143.16 489.315 1131.61 489.638 1120.54 487.03C1120.45 487.007 1120.36 487.002 1120.27 487.016C1120.18 487.029 1120.09 487.061 1120.01 487.108C1119.94 487.156 1119.87 487.218 1119.81 487.293C1119.76 487.367 1119.72 487.451 1119.7 487.54C1119.66 487.717 1119.69 487.902 1119.79 488.056C1119.88 488.21 1120.04 488.322 1120.21 488.368C1131.48 491.03 1143.25 490.712 1154.35 487.443C1155.05 487.195 1155.79 487.046 1156.54 487.002C1157.51 487.101 1158.45 487.392 1159.3 487.857C1170.04 492.784 1181.71 495.338 1193.53 495.347Z" fill="#D0D3D9"/>
<circle r="35.042" transform="matrix(-1 0 0 1 1226.96 127.958)" fill="#F4F6F8"/>
<circle r="35.042" transform="matrix(-1 0 0 1 1133.51 127.958)" fill="#F4F6F8"/>
<circle r="44.3866" transform="matrix(-1 0 0 1 1181.4 118.613)" fill="#F4F6F8"/>
<circle r="27.2037" transform="matrix(-1 0 0 1 975.485 65.7123)" fill="#F4F6F8"/>
<circle r="27.2037" transform="matrix(-1 0 0 1 902.942 65.7123)" fill="#F4F6F8"/>
<circle r="34.458" transform="matrix(-1 0 0 1 940.121 58.458)" fill="#F4F6F8"/>
</svg>
