<?xml version="1.0" encoding="utf-8"?>
<!-- Generator: Adobe Illustrator 22.1.0, SVG Export Plug-In . SVG Version: 6.00 Build 0)  -->
<svg version="1.1" id="Layer_1" xmlns="http://www.w3.org/2000/svg" xmlns:xlink="http://www.w3.org/1999/xlink" x="0px" y="0px"
	 viewBox="0 0 1376.1 317.1" style="enable-background:new 0 0 1376.1 317.1;" xml:space="preserve">
<style type="text/css">
	.st0{fill:#22AF5B;}
	.st1{fill:#2DC16C;}
	.st2{fill:#4AEB96;}
	.st3{clip-path:url(#SVGID_2_);}
	.st4{fill:#1C1C1C;stroke:#025624;stroke-width:0.25;stroke-miterlimit:10;}
	.st5{fill:#E5E5E5;stroke:#025624;stroke-width:0.25;stroke-miterlimit:10;}
</style>
<g>
	<g>
		<g>
			<g>
				<path class="st0" d="M355.7,73.9c0,0-15.1,118.6-17.1,126.1l-4.3-2.1C334.3,197.9,345.7,112.4,355.7,73.9z"/>
				<path class="st0" d="M341,205.2l-10.7-5.1l0.4-2.6c0.1-0.9,11.5-86.1,21.5-124.4l7.2,1.4c-1.5,12.2-15.2,119-17.2,126.6
					L341,205.2z"/>
			</g>
			<g>
				<path class="st1" d="M349.1,203.6c-5.6,24.7-15.5,37-26.1,41.8c-3.6,1.6-7.3,2.4-10.9,2.5c-2.8,0.1-5.5-0.3-8.1-0.9l25.2-87.8
					c0,0,1.3,0.2,3.4,1c0.5,0.2,1.1,0.4,1.6,0.7c0.4,0.2,0.8,0.4,1.2,0.6c1.2,0.6,2.5,1.4,3.8,2.3c1.4,1,2.9,2.3,4.2,3.8
					C349.1,173.9,353.3,184.9,349.1,203.6z"/>
			</g>
			<g>
				<circle class="st0" cx="355.2" cy="79.8" r="6.9"/>
				<path class="st0" d="M355.2,90.4c-5.8,0-10.5-4.6-10.6-10.4c-0.1-5.8,4.6-10.7,10.4-10.8c0.1,0,0.1,0,0.2,0
					c5.8,0,10.5,4.6,10.6,10.4c0,2.8-1,5.5-3,7.6c-2,2-4.6,3.2-7.4,3.2C355.4,90.4,355.3,90.4,355.2,90.4z M355.2,76.5
					C355.2,76.5,355.2,76.5,355.2,76.5c-1.8,0-3.3,1.5-3.2,3.3c0,1.8,1.5,3.2,3.2,3.2c0,0,0,0,0.1,0c0.9,0,1.7-0.4,2.3-1
					s0.9-1.4,0.9-2.3C358.5,77.9,357,76.5,355.2,76.5z"/>
			</g>
			<g>
				<path class="st0" d="M335.4,161.4c-1.1,16.9-5.3,57.4-12.4,84c-3.6,1.6-7.3,2.4-10.9,2.5c-2.8,0.1-5.5-0.3-8.1-0.9l25.2-87.8
					c0,0,1.5-0.6,3.4-0.6c0,0.5,0,1.1-0.1,1.6v0c0.5,0.2,1.1,0.4,1.6,0.7C334.6,161,335,161.2,335.4,161.4z"/>
			</g>
		</g>
		<g>
			<g>
				<path class="st0" d="M21.2,73.9c0,0,15.1,118.6,17.1,126.1l4.3-2.1C42.6,197.9,31.2,112.4,21.2,73.9z"/>
				<path class="st0" d="M35.9,205.2l-1.1-4.3c-2-7.5-15.6-114.4-17.2-126.6l7.2-1.4c10,38.3,21.4,123.6,21.5,124.4l0.4,2.6
					L35.9,205.2z"/>
			</g>
			<g>
				<path class="st1" d="M72.9,247c-0.1,0-0.2,0.1-0.3,0.1c-2.5,0.6-5.1,0.9-7.8,0.8c-1.6,0-3.1-0.2-4.7-0.5
					c-2.2-0.4-4.5-1.2-6.7-2.2c-10.4-5-20.1-17.3-25.6-41.6c-4.2-18.8,0-29.7,5.7-36.1c1.4-1.5,2.8-2.8,4.3-3.8
					c0.7-0.5,1.4-1,2.1-1.4c1.7-1,3.2-1.7,4.5-2.2c2-0.8,3.4-1,3.4-1L72.9,247z"/>
			</g>
			<g>
				<circle class="st0" cx="21.6" cy="79.8" r="6.9"/>
				<path class="st0" d="M21.6,90.4c-0.1,0-0.1,0-0.2,0c-5.8-0.1-10.5-4.9-10.4-10.8c0.1-5.8,5-10.4,10.8-10.4
					c5.8,0.1,10.5,4.9,10.4,10.8C32.2,85.7,27.4,90.4,21.6,90.4z M21.6,76.5c-1.8,0-3.2,1.4-3.2,3.2c0,1.8,1.4,3.3,3.2,3.3
					c0,0,0,0,0.1,0c1.8,0,3.2-1.4,3.2-3.2C24.9,78,23.5,76.5,21.6,76.5C21.7,76.5,21.7,76.5,21.6,76.5z"/>
			</g>
			<g>
				<path class="st0" d="M72.9,247c-0.1,0-0.2,0.1-0.3,0.1c-1.8,0.5-4.6,1.2-7.4,1.8c-0.1-0.3-0.3-0.6-0.4-0.9
					c-1.6,0-3.1-0.2-4.7-0.5c-2.2-0.4-4.5-1.2-6.7-2.2c-11.6-30.2-12-68.5-13.5-82.9c1.7-1,3.2-1.7,4.5-2.2c2-0.8,3.4-1,3.4-1
					L72.9,247z"/>
			</g>
		</g>
	</g>
	<path class="st2" d="M303.4,263.7c-19.8,28.7-44,37.3-44,37.3H116.8c0,0-24.3-8.6-44-37.3C53,235.1-20.4,29.8,188.1,17
		C396.6,29.8,323.2,235.1,303.4,263.7z"/>
	<path class="st1" d="M315.3,159.7c-2.4,28.2-9.1,56.8-21.6,82.3c-1.8,3.6-3.6,7.2-5.7,10.6c-1.5,2.6-3.6,7.8-6.3,9.4
		c-2,1.2-5.8,0.9-8.1,1.2c-3.7,0.5-7.4,0.9-11.1,1.3c-7.6,0.9-15.2,1.7-22.8,2.4c-14.8,1.4-29.7,2.4-44.5,2.6
		c-22.7,0.2-45.5-1.7-68.1-3.8c-7.8-0.7-15.6-1.5-23.4-2.4c-3.2-0.3-7.3,0.7-9.9-1.7c-2.8-2.8-4.9-7.6-6.9-11
		c-2.3-4-4.3-8.1-6.3-12.3c-3.7-8.1-6.8-16.4-9.4-24.9C67,199.3,64,185,62.1,170.5c-0.5-3.7-0.9-7.5-1.2-11.3
		c-0.3-3.7,1.9-7.2,5.4-8.5c16.3-6.3,34.1-9.2,51.3-11.7c18.7-2.7,37.5-4.4,56.3-5.5c36.7-2.2,75.7,2.4,111.5,10.3
		c8.2,1.8,16.3,3.9,24.2,6.8C313.3,152,315.6,155.7,315.3,159.7z"/>
	<g>
		<defs>
			<path id="SVGID_1_" d="M191.6,264.1c-21.3,0-42.4-1.8-63.9-3.8c-7.7-0.7-15.6-1.5-23.4-2.4c-0.5-0.1-1-0.1-2.2-0.1
				c-1,0-3.1-0.1-4.5-0.2C72.3,220.4,67,170.3,66,156.6c16.4-6.7,34.8-9.7,52.3-12.3c17.1-2.5,35.4-4.3,55.9-5.5
				c5.9-0.4,12.1-0.5,18.3-0.5c28.6,0,59.4,3.6,91.7,10.7c8,1.8,17.1,4,26,7.6c-1,13.7-6.3,63.5-31.3,100.6l-1.8,0.2
				c-26.8,3.2-54.6,6.4-82,6.7C194,264.1,192.8,264.1,191.6,264.1z"/>
		</defs>
		<clipPath id="SVGID_2_">
			<use xlink:href="#SVGID_1_"  style="overflow:visible;"/>
		</clipPath>
		<g class="st3">
			<rect x="98.7" y="138.3" class="st4" width="8.5" height="8.5"/>
			<rect x="107.3" y="138.3" class="st4" width="8.5" height="8.5"/>
			<rect x="115.8" y="138.3" class="st4" width="8.5" height="8.5"/>
			<rect x="124.3" y="138.3" class="st4" width="8.5" height="8.5"/>
			<rect x="132.8" y="138.3" class="st4" width="8.5" height="8.5"/>
			<rect x="141.3" y="138.3" class="st4" width="8.5" height="8.5"/>
			<rect x="149.8" y="138.3" class="st4" width="8.5" height="8.5"/>
			<rect x="158.3" y="138.3" class="st4" width="8.5" height="8.5"/>
			<rect x="166.8" y="138.3" class="st4" width="8.5" height="8.5"/>
			<rect x="175.3" y="138.3" class="st4" width="8.5" height="8.5"/>
			<rect x="183.8" y="138.3" class="st4" width="8.5" height="8.5"/>
			<rect x="64.7" y="146.8" class="st4" width="8.5" height="8.5"/>
			<rect x="73.2" y="146.8" class="st4" width="8.5" height="8.5"/>
			<rect x="81.7" y="146.8" class="st4" width="8.5" height="8.5"/>
			<rect x="90.2" y="146.8" class="st4" width="8.5" height="8.5"/>
			<rect x="98.7" y="146.8" class="st4" width="8.5" height="8.5"/>
			<rect x="107.3" y="146.8" class="st4" width="8.5" height="8.5"/>
			<rect x="115.8" y="146.8" class="st4" width="8.5" height="8.5"/>
			<rect x="124.3" y="146.8" class="st4" width="8.5" height="8.5"/>
			<rect x="132.8" y="146.8" class="st4" width="8.5" height="8.5"/>
			<rect x="141.3" y="146.8" class="st4" width="8.5" height="8.5"/>
			<rect x="149.8" y="146.8" class="st4" width="8.5" height="8.5"/>
			<rect x="158.3" y="146.8" class="st4" width="8.5" height="8.5"/>
			<rect x="166.8" y="146.8" class="st4" width="8.5" height="8.5"/>
			<rect x="175.3" y="146.8" class="st4" width="8.5" height="8.5"/>
			<rect x="183.8" y="146.8" class="st4" width="8.5" height="8.5"/>
			<rect x="64.7" y="155.3" class="st4" width="8.5" height="8.5"/>
			<rect x="73.2" y="155.3" class="st4" width="8.5" height="8.5"/>
			<rect x="81.7" y="155.3" class="st4" width="8.5" height="8.5"/>
			<rect x="90.2" y="155.3" class="st4" width="8.5" height="8.5"/>
			<rect x="98.7" y="155.3" class="st4" width="8.5" height="8.5"/>
			<rect x="107.3" y="155.3" class="st4" width="8.5" height="8.5"/>
			<rect x="115.8" y="155.3" class="st4" width="8.5" height="8.5"/>
			<rect x="124.3" y="155.3" class="st4" width="8.5" height="8.5"/>
			<rect x="132.8" y="155.3" class="st4" width="8.5" height="8.5"/>
			<rect x="141.3" y="155.3" class="st4" width="8.5" height="8.5"/>
			<rect x="149.8" y="155.3" class="st4" width="8.5" height="8.5"/>
			<rect x="158.3" y="155.3" class="st4" width="8.5" height="8.5"/>
			<rect x="166.8" y="155.3" class="st4" width="8.5" height="8.5"/>
			<rect x="175.3" y="155.3" class="st4" width="8.5" height="8.5"/>
			<rect x="183.8" y="155.3" class="st4" width="8.5" height="8.5"/>
			<rect x="64.7" y="163.8" class="st4" width="8.5" height="8.5"/>
			<rect x="73.2" y="163.8" class="st4" width="8.5" height="8.5"/>
			<rect x="81.7" y="163.8" class="st4" width="8.5" height="8.5"/>
			<rect x="90.2" y="163.8" class="st4" width="8.5" height="8.5"/>
			<rect x="98.7" y="163.8" class="st4" width="8.5" height="8.5"/>
			<rect x="107.3" y="163.8" class="st4" width="8.5" height="8.5"/>
			<rect x="115.8" y="163.8" class="st4" width="8.5" height="8.5"/>
			<rect x="124.3" y="163.8" class="st4" width="8.5" height="8.5"/>
			<rect x="132.8" y="163.8" class="st4" width="8.5" height="8.5"/>
			<rect x="141.3" y="163.8" class="st4" width="8.5" height="8.5"/>
			<rect x="149.8" y="163.8" class="st4" width="8.5" height="8.5"/>
			<rect x="158.3" y="163.8" class="st4" width="8.5" height="8.5"/>
			<rect x="166.8" y="163.8" class="st4" width="8.5" height="8.5"/>
			<rect x="175.3" y="163.8" class="st4" width="8.5" height="8.5"/>
			<rect x="183.8" y="163.8" class="st4" width="8.5" height="8.5"/>
			<rect x="64.7" y="172.3" class="st4" width="8.5" height="8.5"/>
			<rect x="73.2" y="172.3" class="st4" width="8.5" height="8.5"/>
			<rect x="81.7" y="172.3" class="st4" width="8.5" height="8.5"/>
			<rect x="90.2" y="172.3" class="st4" width="8.5" height="8.5"/>
			<rect x="98.7" y="172.3" class="st4" width="8.5" height="8.5"/>
			<rect x="107.3" y="172.3" class="st4" width="8.5" height="8.5"/>
			<rect x="115.8" y="172.3" class="st4" width="8.5" height="8.5"/>
			<rect x="124.3" y="172.3" class="st4" width="8.5" height="8.5"/>
			<rect x="132.8" y="172.3" class="st4" width="8.5" height="8.5"/>
			<rect x="141.3" y="172.3" class="st4" width="8.5" height="8.5"/>
			<rect x="149.8" y="172.3" class="st4" width="8.5" height="8.5"/>
			<rect x="158.3" y="172.3" class="st4" width="8.5" height="8.5"/>
			<rect x="166.8" y="172.3" class="st4" width="8.5" height="8.5"/>
			<rect x="175.3" y="172.3" class="st4" width="8.5" height="8.5"/>
			<rect x="183.8" y="172.3" class="st4" width="8.5" height="8.5"/>
			<rect x="64.7" y="180.8" class="st4" width="8.5" height="8.5"/>
			<rect x="73.2" y="180.8" class="st4" width="8.5" height="8.5"/>
			<rect x="81.7" y="180.8" class="st4" width="8.5" height="8.5"/>
			<rect x="90.2" y="180.8" class="st4" width="8.5" height="8.5"/>
			<rect x="98.7" y="180.8" class="st4" width="8.5" height="8.5"/>
			<rect x="107.3" y="180.8" class="st4" width="8.5" height="8.5"/>
			<rect x="115.8" y="180.8" class="st4" width="8.5" height="8.5"/>
			<rect x="124.3" y="180.8" class="st5" width="8.5" height="8.5"/>
			<rect x="132.8" y="180.8" class="st5" width="8.5" height="8.5"/>
			<rect x="141.3" y="180.8" class="st4" width="8.5" height="8.5"/>
			<rect x="149.8" y="180.8" class="st4" width="8.5" height="8.5"/>
			<rect x="158.3" y="180.8" class="st4" width="8.5" height="8.5"/>
			<rect x="166.8" y="180.8" class="st4" width="8.5" height="8.5"/>
			<rect x="175.3" y="180.8" class="st4" width="8.5" height="8.5"/>
			<rect x="183.8" y="180.8" class="st4" width="8.5" height="8.5"/>
			<rect x="64.7" y="189.3" class="st4" width="8.5" height="8.5"/>
			<rect x="73.2" y="189.3" class="st4" width="8.5" height="8.5"/>
			<rect x="81.7" y="189.3" class="st4" width="8.5" height="8.5"/>
			<rect x="90.2" y="189.3" class="st4" width="8.5" height="8.5"/>
			<rect x="98.7" y="189.3" class="st4" width="8.5" height="8.5"/>
			<rect x="107.3" y="189.3" class="st4" width="8.5" height="8.5"/>
			<rect x="115.8" y="189.3" class="st4" width="8.5" height="8.5"/>
			<rect x="124.3" y="189.3" class="st5" width="8.5" height="8.5"/>
			<rect x="132.8" y="189.3" class="st5" width="8.5" height="8.5"/>
			<rect x="141.3" y="189.3" class="st4" width="8.5" height="8.5"/>
			<rect x="149.8" y="189.3" class="st4" width="8.5" height="8.5"/>
			<rect x="158.3" y="189.3" class="st4" width="8.5" height="8.5"/>
			<rect x="166.8" y="189.3" class="st4" width="8.5" height="8.5"/>
			<rect x="175.3" y="189.3" class="st4" width="8.5" height="8.5"/>
			<rect x="183.8" y="189.3" class="st4" width="8.5" height="8.5"/>
			<rect x="64.7" y="197.8" class="st4" width="8.5" height="8.5"/>
			<rect x="73.2" y="197.8" class="st4" width="8.5" height="8.5"/>
			<rect x="81.7" y="197.8" class="st4" width="8.5" height="8.5"/>
			<rect x="90.2" y="197.8" class="st4" width="8.5" height="8.5"/>
			<rect x="98.7" y="197.8" class="st4" width="8.5" height="8.5"/>
			<rect x="107.3" y="197.8" class="st4" width="8.5" height="8.5"/>
			<rect x="115.8" y="197.8" class="st4" width="8.5" height="8.5"/>
			<rect x="124.3" y="197.8" class="st5" width="8.5" height="8.5"/>
			<rect x="132.8" y="197.8" class="st5" width="8.5" height="8.5"/>
			<rect x="141.3" y="197.8" class="st4" width="8.5" height="8.5"/>
			<rect x="149.8" y="197.8" class="st4" width="8.5" height="8.5"/>
			<rect x="158.3" y="197.8" class="st4" width="8.5" height="8.5"/>
			<rect x="166.8" y="197.8" class="st4" width="8.5" height="8.5"/>
			<rect x="175.3" y="197.8" class="st4" width="8.5" height="8.5"/>
			<rect x="183.8" y="197.8" class="st4" width="8.5" height="8.5"/>
			<rect x="73.2" y="206.3" class="st4" width="8.5" height="8.5"/>
			<rect x="81.7" y="206.3" class="st4" width="8.5" height="8.5"/>
			<rect x="90.2" y="206.3" class="st4" width="8.5" height="8.5"/>
			<rect x="98.7" y="206.3" class="st4" width="8.5" height="8.5"/>
			<rect x="107.3" y="206.3" class="st4" width="8.5" height="8.5"/>
			<rect x="115.8" y="206.3" class="st4" width="8.5" height="8.5"/>
			<rect x="124.3" y="206.3" class="st4" width="8.5" height="8.5"/>
			<rect x="132.8" y="206.3" class="st4" width="8.5" height="8.5"/>
			<rect x="141.3" y="206.3" class="st4" width="8.5" height="8.5"/>
			<rect x="149.8" y="206.3" class="st4" width="8.5" height="8.5"/>
			<rect x="158.3" y="206.3" class="st4" width="8.5" height="8.5"/>
			<rect x="166.8" y="206.3" class="st4" width="8.5" height="8.5"/>
			<rect x="175.3" y="206.3" class="st4" width="8.5" height="8.5"/>
			<rect x="183.8" y="206.3" class="st4" width="8.5" height="8.5"/>
			<rect x="73.2" y="214.8" class="st4" width="8.5" height="8.5"/>
			<rect x="81.7" y="214.8" class="st4" width="8.5" height="8.5"/>
			<rect x="90.2" y="214.8" class="st4" width="8.5" height="8.5"/>
			<rect x="98.7" y="214.8" class="st4" width="8.5" height="8.5"/>
			<rect x="107.3" y="214.8" class="st4" width="8.5" height="8.5"/>
			<rect x="115.8" y="214.8" class="st4" width="8.5" height="8.5"/>
			<rect x="124.3" y="214.8" class="st4" width="8.5" height="8.5"/>
			<rect x="132.8" y="214.8" class="st4" width="8.5" height="8.5"/>
			<rect x="141.3" y="214.8" class="st4" width="8.5" height="8.5"/>
			<rect x="149.8" y="214.8" class="st4" width="8.5" height="8.5"/>
			<rect x="158.3" y="214.8" class="st5" width="8.5" height="8.5"/>
			<rect x="166.8" y="214.8" class="st4" width="8.5" height="8.5"/>
			<rect x="175.3" y="214.8" class="st4" width="8.5" height="8.5"/>
			<rect x="183.8" y="214.8" class="st4" width="8.5" height="8.5"/>
			<rect x="73.2" y="223.4" class="st4" width="8.5" height="8.5"/>
			<rect x="81.7" y="223.4" class="st4" width="8.5" height="8.5"/>
			<rect x="90.2" y="223.4" class="st4" width="8.5" height="8.5"/>
			<rect x="98.7" y="223.4" class="st4" width="8.5" height="8.5"/>
			<rect x="107.3" y="223.4" class="st4" width="8.5" height="8.5"/>
			<rect x="115.8" y="223.4" class="st4" width="8.5" height="8.5"/>
			<rect x="124.3" y="223.4" class="st4" width="8.5" height="8.5"/>
			<rect x="132.8" y="223.4" class="st4" width="8.5" height="8.5"/>
			<rect x="141.3" y="223.4" class="st4" width="8.5" height="8.5"/>
			<rect x="149.8" y="223.4" class="st4" width="8.5" height="8.5"/>
			<rect x="158.3" y="223.4" class="st4" width="8.5" height="8.5"/>
			<rect x="166.8" y="223.4" class="st5" width="8.5" height="8.5"/>
			<rect x="175.3" y="223.4" class="st5" width="8.5" height="8.5"/>
			<rect x="183.8" y="223.4" class="st5" width="8.5" height="8.5"/>
			<rect x="81.7" y="231.9" class="st4" width="8.5" height="8.5"/>
			<rect x="90.2" y="231.9" class="st4" width="8.5" height="8.5"/>
			<rect x="98.7" y="231.9" class="st4" width="8.5" height="8.5"/>
			<rect x="107.3" y="231.9" class="st4" width="8.5" height="8.5"/>
			<rect x="115.8" y="231.9" class="st4" width="8.5" height="8.5"/>
			<rect x="124.3" y="231.9" class="st4" width="8.5" height="8.5"/>
			<rect x="132.8" y="231.9" class="st4" width="8.5" height="8.5"/>
			<rect x="141.3" y="231.9" class="st4" width="8.5" height="8.5"/>
			<rect x="149.8" y="231.9" class="st4" width="8.5" height="8.5"/>
			<rect x="158.3" y="231.9" class="st4" width="8.5" height="8.5"/>
			<rect x="166.8" y="231.9" class="st4" width="8.5" height="8.5"/>
			<rect x="175.3" y="231.9" class="st5" width="8.5" height="8.5"/>
			<rect x="183.8" y="231.9" class="st5" width="8.5" height="8.5"/>
			<rect x="81.7" y="240.4" class="st4" width="8.5" height="8.5"/>
			<rect x="90.2" y="240.4" class="st4" width="8.5" height="8.5"/>
			<rect x="98.7" y="240.4" class="st4" width="8.5" height="8.5"/>
			<rect x="107.3" y="240.4" class="st4" width="8.5" height="8.5"/>
			<rect x="115.8" y="240.4" class="st4" width="8.5" height="8.5"/>
			<rect x="124.3" y="240.4" class="st4" width="8.5" height="8.5"/>
			<rect x="132.8" y="240.4" class="st4" width="8.5" height="8.5"/>
			<rect x="141.3" y="240.4" class="st4" width="8.5" height="8.5"/>
			<rect x="149.8" y="240.4" class="st4" width="8.5" height="8.5"/>
			<rect x="158.3" y="240.4" class="st4" width="8.5" height="8.5"/>
			<rect x="166.8" y="240.4" class="st4" width="8.5" height="8.5"/>
			<rect x="175.3" y="240.4" class="st4" width="8.5" height="8.5"/>
			<rect x="183.8" y="240.4" class="st4" width="8.5" height="8.5"/>
			<rect x="90.2" y="248.9" class="st4" width="8.5" height="8.5"/>
			<rect x="98.7" y="248.9" class="st4" width="8.5" height="8.5"/>
			<rect x="107.3" y="248.9" class="st4" width="8.5" height="8.5"/>
			<rect x="115.8" y="248.9" class="st4" width="8.5" height="8.5"/>
			<rect x="124.3" y="248.9" class="st4" width="8.5" height="8.5"/>
			<rect x="132.8" y="248.9" class="st4" width="8.5" height="8.5"/>
			<rect x="141.3" y="248.9" class="st4" width="8.5" height="8.5"/>
			<rect x="149.8" y="248.9" class="st4" width="8.5" height="8.5"/>
			<rect x="158.3" y="248.9" class="st4" width="8.5" height="8.5"/>
			<rect x="166.8" y="248.9" class="st4" width="8.5" height="8.5"/>
			<rect x="175.3" y="248.9" class="st4" width="8.5" height="8.5"/>
			<rect x="183.8" y="248.9" class="st4" width="8.5" height="8.5"/>
			<rect x="90.2" y="257.4" class="st4" width="8.5" height="8.5"/>
			<rect x="98.7" y="257.4" class="st4" width="8.5" height="8.5"/>
			<rect x="107.3" y="257.4" class="st4" width="8.5" height="8.5"/>
			<rect x="115.8" y="257.4" class="st4" width="8.5" height="8.5"/>
			<rect x="124.3" y="257.4" class="st4" width="8.5" height="8.5"/>
			<rect x="132.8" y="257.4" class="st4" width="8.5" height="8.5"/>
			<rect x="141.3" y="257.4" class="st4" width="8.5" height="8.5"/>
			<rect x="149.8" y="257.4" class="st4" width="8.5" height="8.5"/>
			<rect x="158.3" y="257.4" class="st4" width="8.5" height="8.5"/>
			<rect x="166.8" y="257.4" class="st4" width="8.5" height="8.5"/>
			<rect x="175.3" y="257.4" class="st4" width="8.5" height="8.5"/>
			<rect x="183.8" y="257.4" class="st4" width="8.5" height="8.5"/>
			<rect x="192.4" y="138.3" class="st4" width="8.5" height="8.5"/>
			<rect x="200.9" y="138.3" class="st4" width="8.5" height="8.5"/>
			<rect x="209.4" y="138.3" class="st4" width="8.5" height="8.5"/>
			<rect x="217.9" y="138.3" class="st4" width="8.5" height="8.5"/>
			<rect x="226.4" y="138.3" class="st4" width="8.5" height="8.5"/>
			<rect x="234.9" y="138.3" class="st4" width="8.5" height="8.5"/>
			<rect x="243.4" y="138.3" class="st4" width="8.5" height="8.5"/>
			<rect x="251.9" y="138.3" class="st4" width="8.5" height="8.5"/>
			<rect x="260.4" y="138.3" class="st4" width="8.5" height="8.5"/>
			<rect x="268.9" y="138.3" class="st4" width="8.5" height="8.5"/>
			<rect x="192.4" y="146.8" class="st4" width="8.5" height="8.5"/>
			<rect x="200.9" y="146.8" class="st4" width="8.5" height="8.5"/>
			<rect x="209.4" y="146.8" class="st4" width="8.5" height="8.5"/>
			<rect x="217.9" y="146.8" class="st4" width="8.5" height="8.5"/>
			<rect x="226.4" y="146.8" class="st4" width="8.5" height="8.5"/>
			<rect x="234.9" y="146.8" class="st4" width="8.5" height="8.5"/>
			<rect x="243.4" y="146.8" class="st4" width="8.5" height="8.5"/>
			<rect x="251.9" y="146.8" class="st4" width="8.5" height="8.5"/>
			<rect x="260.4" y="146.8" class="st4" width="8.5" height="8.5"/>
			<rect x="268.9" y="146.8" class="st4" width="8.5" height="8.5"/>
			<rect x="277.4" y="146.8" class="st4" width="8.5" height="8.5"/>
			<rect x="286" y="146.8" class="st4" width="8.5" height="8.5"/>
			<rect x="294.5" y="146.8" class="st4" width="8.5" height="8.5"/>
			<rect x="303" y="146.8" class="st4" width="8.5" height="8.5"/>
			<rect x="192.4" y="155.3" class="st4" width="8.5" height="8.5"/>
			<rect x="200.9" y="155.3" class="st4" width="8.5" height="8.5"/>
			<rect x="209.4" y="155.3" class="st4" width="8.5" height="8.5"/>
			<rect x="217.9" y="155.3" class="st4" width="8.5" height="8.5"/>
			<rect x="226.4" y="155.3" class="st4" width="8.5" height="8.5"/>
			<rect x="234.9" y="155.3" class="st4" width="8.5" height="8.5"/>
			<rect x="243.4" y="155.3" class="st4" width="8.5" height="8.5"/>
			<rect x="251.9" y="155.3" class="st4" width="8.5" height="8.5"/>
			<rect x="260.4" y="155.3" class="st4" width="8.5" height="8.5"/>
			<rect x="268.9" y="155.3" class="st4" width="8.5" height="8.5"/>
			<rect x="277.4" y="155.3" class="st4" width="8.5" height="8.5"/>
			<rect x="286" y="155.3" class="st4" width="8.5" height="8.5"/>
			<rect x="294.5" y="155.3" class="st4" width="8.5" height="8.5"/>
			<rect x="303" y="155.3" class="st4" width="8.5" height="8.5"/>
			<rect x="192.4" y="163.8" class="st4" width="8.5" height="8.5"/>
			<rect x="200.9" y="163.8" class="st4" width="8.5" height="8.5"/>
			<rect x="209.4" y="163.8" class="st4" width="8.5" height="8.5"/>
			<rect x="217.9" y="163.8" class="st4" width="8.5" height="8.5"/>
			<rect x="226.4" y="163.8" class="st4" width="8.5" height="8.5"/>
			<rect x="234.9" y="163.8" class="st4" width="8.5" height="8.5"/>
			<rect x="243.4" y="163.8" class="st4" width="8.5" height="8.5"/>
			<rect x="251.9" y="163.8" class="st4" width="8.5" height="8.5"/>
			<rect x="260.4" y="163.8" class="st4" width="8.5" height="8.5"/>
			<rect x="268.9" y="163.8" class="st4" width="8.5" height="8.5"/>
			<rect x="277.4" y="163.8" class="st4" width="8.5" height="8.5"/>
			<rect x="286" y="163.8" class="st4" width="8.5" height="8.5"/>
			<rect x="294.5" y="163.8" class="st4" width="8.5" height="8.5"/>
			<rect x="303" y="163.8" class="st4" width="8.5" height="8.5"/>
			<rect x="192.4" y="172.3" class="st4" width="8.5" height="8.5"/>
			<rect x="200.9" y="172.3" class="st4" width="8.5" height="8.5"/>
			<rect x="209.4" y="172.3" class="st4" width="8.5" height="8.5"/>
			<rect x="217.9" y="172.3" class="st4" width="8.5" height="8.5"/>
			<rect x="226.4" y="172.3" class="st4" width="8.5" height="8.5"/>
			<rect x="234.9" y="172.3" class="st4" width="8.5" height="8.5"/>
			<rect x="243.4" y="172.3" class="st4" width="8.5" height="8.5"/>
			<rect x="251.9" y="172.3" class="st4" width="8.5" height="8.5"/>
			<rect x="260.4" y="172.3" class="st4" width="8.5" height="8.5"/>
			<rect x="268.9" y="172.3" class="st4" width="8.5" height="8.5"/>
			<rect x="277.4" y="172.3" class="st4" width="8.5" height="8.5"/>
			<rect x="286" y="172.3" class="st4" width="8.5" height="8.5"/>
			<rect x="294.5" y="172.3" class="st4" width="8.5" height="8.5"/>
			<rect x="303" y="172.3" class="st4" width="8.5" height="8.5"/>
			<rect x="192.4" y="180.8" class="st4" width="8.5" height="8.5"/>
			<rect x="200.9" y="180.8" class="st4" width="8.5" height="8.5"/>
			<rect x="209.4" y="180.8" class="st4" width="8.5" height="8.5"/>
			<rect x="217.9" y="180.8" class="st4" width="8.5" height="8.5"/>
			<rect x="226.4" y="180.8" class="st4" width="8.5" height="8.5"/>
			<rect x="234.9" y="180.8" class="st5" width="8.5" height="8.5"/>
			<rect x="243.4" y="180.8" class="st5" width="8.5" height="8.5"/>
			<rect x="251.9" y="180.8" class="st4" width="8.5" height="8.5"/>
			<rect x="260.4" y="180.8" class="st4" width="8.5" height="8.5"/>
			<rect x="268.9" y="180.8" class="st4" width="8.5" height="8.5"/>
			<rect x="277.4" y="180.8" class="st4" width="8.5" height="8.5"/>
			<rect x="286" y="180.8" class="st4" width="8.5" height="8.5"/>
			<rect x="294.5" y="180.8" class="st4" width="8.5" height="8.5"/>
			<rect x="303" y="180.8" class="st4" width="8.5" height="8.5"/>
			<rect x="192.4" y="189.3" class="st4" width="8.5" height="8.5"/>
			<rect x="200.9" y="189.3" class="st4" width="8.5" height="8.5"/>
			<rect x="209.4" y="189.3" class="st4" width="8.5" height="8.5"/>
			<rect x="217.9" y="189.3" class="st4" width="8.5" height="8.5"/>
			<rect x="226.4" y="189.3" class="st4" width="8.5" height="8.5"/>
			<rect x="234.9" y="189.3" class="st5" width="8.5" height="8.5"/>
			<rect x="243.4" y="189.3" class="st5" width="8.5" height="8.5"/>
			<rect x="251.9" y="189.3" class="st4" width="8.5" height="8.5"/>
			<rect x="260.4" y="189.3" class="st4" width="8.5" height="8.5"/>
			<rect x="268.9" y="189.3" class="st4" width="8.5" height="8.5"/>
			<rect x="277.4" y="189.3" class="st4" width="8.5" height="8.5"/>
			<rect x="286" y="189.3" class="st4" width="8.5" height="8.5"/>
			<rect x="294.5" y="189.3" class="st4" width="8.5" height="8.5"/>
			<rect x="303" y="189.3" class="st4" width="8.5" height="8.5"/>
			<rect x="192.4" y="197.8" class="st4" width="8.5" height="8.5"/>
			<rect x="200.9" y="197.8" class="st4" width="8.5" height="8.5"/>
			<rect x="209.4" y="197.8" class="st4" width="8.5" height="8.5"/>
			<rect x="217.9" y="197.8" class="st4" width="8.5" height="8.5"/>
			<rect x="226.4" y="197.8" class="st4" width="8.5" height="8.5"/>
			<rect x="234.9" y="197.8" class="st5" width="8.5" height="8.5"/>
			<rect x="243.4" y="197.8" class="st5" width="8.5" height="8.5"/>
			<rect x="251.9" y="197.8" class="st4" width="8.5" height="8.5"/>
			<rect x="260.4" y="197.8" class="st4" width="8.5" height="8.5"/>
			<rect x="268.9" y="197.8" class="st4" width="8.5" height="8.5"/>
			<rect x="277.4" y="197.8" class="st4" width="8.5" height="8.5"/>
			<rect x="286" y="197.8" class="st4" width="8.5" height="8.5"/>
			<rect x="294.5" y="197.8" class="st4" width="8.5" height="8.5"/>
			<rect x="303" y="197.8" class="st4" width="8.5" height="8.5"/>
			<rect x="192.4" y="206.3" class="st4" width="8.5" height="8.5"/>
			<rect x="200.9" y="206.3" class="st4" width="8.5" height="8.5"/>
			<rect x="209.4" y="206.3" class="st4" width="8.5" height="8.5"/>
			<rect x="217.9" y="206.3" class="st4" width="8.5" height="8.5"/>
			<rect x="226.4" y="206.3" class="st4" width="8.5" height="8.5"/>
			<rect x="234.9" y="206.3" class="st4" width="8.5" height="8.5"/>
			<rect x="243.4" y="206.3" class="st4" width="8.5" height="8.5"/>
			<rect x="251.9" y="206.3" class="st4" width="8.5" height="8.5"/>
			<rect x="260.4" y="206.3" class="st4" width="8.5" height="8.5"/>
			<rect x="268.9" y="206.3" class="st4" width="8.5" height="8.5"/>
			<rect x="277.4" y="206.3" class="st4" width="8.5" height="8.5"/>
			<rect x="286" y="206.3" class="st4" width="8.5" height="8.5"/>
			<rect x="294.5" y="206.3" class="st4" width="8.5" height="8.5"/>
			<rect x="192.4" y="214.8" class="st4" width="8.5" height="8.5"/>
			<rect x="200.9" y="214.8" class="st4" width="8.5" height="8.5"/>
			<rect x="209.4" y="214.8" class="st5" width="8.5" height="8.5"/>
			<rect x="217.9" y="214.8" class="st4" width="8.5" height="8.5"/>
			<rect x="226.4" y="214.8" class="st4" width="8.5" height="8.5"/>
			<rect x="234.9" y="214.8" class="st4" width="8.5" height="8.5"/>
			<rect x="243.4" y="214.8" class="st4" width="8.5" height="8.5"/>
			<rect x="251.9" y="214.8" class="st4" width="8.5" height="8.5"/>
			<rect x="260.4" y="214.8" class="st4" width="8.5" height="8.5"/>
			<rect x="268.9" y="214.8" class="st4" width="8.5" height="8.5"/>
			<rect x="277.4" y="214.8" class="st4" width="8.5" height="8.5"/>
			<rect x="286" y="214.8" class="st4" width="8.5" height="8.5"/>
			<rect x="294.5" y="214.8" class="st4" width="8.5" height="8.5"/>
			<rect x="192.4" y="223.4" class="st5" width="8.5" height="8.5"/>
			<rect x="200.9" y="223.4" class="st5" width="8.5" height="8.5"/>
			<rect x="209.4" y="223.4" class="st4" width="8.5" height="8.5"/>
			<rect x="217.9" y="223.4" class="st4" width="8.5" height="8.5"/>
			<rect x="226.4" y="223.4" class="st4" width="8.5" height="8.5"/>
			<rect x="234.9" y="223.4" class="st4" width="8.5" height="8.5"/>
			<rect x="243.4" y="223.4" class="st4" width="8.5" height="8.5"/>
			<rect x="251.9" y="223.4" class="st4" width="8.5" height="8.5"/>
			<rect x="260.4" y="223.4" class="st4" width="8.5" height="8.5"/>
			<rect x="268.9" y="223.4" class="st4" width="8.5" height="8.5"/>
			<rect x="277.4" y="223.4" class="st4" width="8.5" height="8.5"/>
			<rect x="286" y="223.4" class="st4" width="8.5" height="8.5"/>
			<rect x="294.5" y="223.4" class="st4" width="8.5" height="8.5"/>
			<rect x="192.4" y="231.9" class="st5" width="8.5" height="8.5"/>
			<rect x="200.9" y="231.9" class="st4" width="8.5" height="8.5"/>
			<rect x="209.4" y="231.9" class="st4" width="8.5" height="8.5"/>
			<rect x="217.9" y="231.9" class="st4" width="8.5" height="8.5"/>
			<rect x="226.4" y="231.9" class="st4" width="8.5" height="8.5"/>
			<rect x="234.9" y="231.9" class="st4" width="8.5" height="8.5"/>
			<rect x="243.4" y="231.9" class="st4" width="8.5" height="8.5"/>
			<rect x="251.9" y="231.9" class="st4" width="8.5" height="8.5"/>
			<rect x="260.4" y="231.9" class="st4" width="8.5" height="8.5"/>
			<rect x="268.9" y="231.9" class="st4" width="8.5" height="8.5"/>
			<rect x="277.4" y="231.9" class="st4" width="8.5" height="8.5"/>
			<rect x="286" y="231.9" class="st4" width="8.5" height="8.5"/>
			<rect x="192.4" y="240.4" class="st4" width="8.5" height="8.5"/>
			<rect x="200.9" y="240.4" class="st4" width="8.5" height="8.5"/>
			<rect x="209.4" y="240.4" class="st4" width="8.5" height="8.5"/>
			<rect x="217.9" y="240.4" class="st4" width="8.5" height="8.5"/>
			<rect x="226.4" y="240.4" class="st4" width="8.5" height="8.5"/>
			<rect x="234.9" y="240.4" class="st4" width="8.5" height="8.5"/>
			<rect x="243.4" y="240.4" class="st4" width="8.5" height="8.5"/>
			<rect x="251.9" y="240.4" class="st4" width="8.5" height="8.5"/>
			<rect x="260.4" y="240.4" class="st4" width="8.5" height="8.5"/>
			<rect x="268.9" y="240.4" class="st4" width="8.5" height="8.5"/>
			<rect x="277.4" y="240.4" class="st4" width="8.5" height="8.5"/>
			<rect x="286" y="240.4" class="st4" width="8.5" height="8.5"/>
			<rect x="192.4" y="248.9" class="st4" width="8.5" height="8.5"/>
			<rect x="200.9" y="248.9" class="st4" width="8.5" height="8.5"/>
			<rect x="209.4" y="248.9" class="st4" width="8.5" height="8.5"/>
			<rect x="217.9" y="248.9" class="st4" width="8.5" height="8.5"/>
			<rect x="226.4" y="248.9" class="st4" width="8.5" height="8.5"/>
			<rect x="234.9" y="248.9" class="st4" width="8.5" height="8.5"/>
			<rect x="243.4" y="248.9" class="st4" width="8.5" height="8.5"/>
			<rect x="251.9" y="248.9" class="st4" width="8.5" height="8.5"/>
			<rect x="260.4" y="248.9" class="st4" width="8.5" height="8.5"/>
			<rect x="268.9" y="248.9" class="st4" width="8.5" height="8.5"/>
			<rect x="277.4" y="248.9" class="st4" width="8.5" height="8.5"/>
			<rect x="286" y="248.9" class="st4" width="8.5" height="8.5"/>
			<rect x="192.4" y="257.4" class="st4" width="8.5" height="8.5"/>
			<rect x="200.9" y="257.4" class="st4" width="8.5" height="8.5"/>
			<rect x="209.4" y="257.4" class="st4" width="8.5" height="8.5"/>
			<rect x="217.9" y="257.4" class="st4" width="8.5" height="8.5"/>
			<rect x="226.4" y="257.4" class="st4" width="8.5" height="8.5"/>
			<rect x="234.9" y="257.4" class="st4" width="8.5" height="8.5"/>
			<rect x="243.4" y="257.4" class="st4" width="8.5" height="8.5"/>
			<rect x="251.9" y="257.4" class="st4" width="8.5" height="8.5"/>
			<rect x="260.4" y="257.4" class="st4" width="8.5" height="8.5"/>
			<rect x="268.9" y="257.4" class="st4" width="8.5" height="8.5"/>
		</g>
	</g>
</g>
<g>
	<path class="st1" d="M597.3,194.1c0,45.9-32.7,71.6-65.4,71.6c-18.9,0-33.8-7.6-46.2-20.5v7c0,6.8-5.4,12.2-12.4,12.2
		c-6.8,0-12.2-5.4-12.2-12.2V76.8c0-7,5.4-12.4,12.2-12.4c7,0,12.4,5.4,12.4,12.4V143c12.4-13,27.3-20.5,46.2-20.5
		C564.6,122.5,597.3,148.2,597.3,194.1z M572.7,194.1c0-31.9-18.6-48.6-44.3-48.6c-17.6,0-32.2,8.6-42.7,20.3v56.7
		c10.5,11.6,25.1,20.3,42.7,20.3C554.1,242.7,572.7,226,572.7,194.1z"/>
	<path class="st1" d="M761.6,194.1c0,42.7-27.6,71.6-69.2,71.6c-41.9,0-69.2-28.9-69.2-71.6c0-42.7,27.3-71.6,69.2-71.6
		C734,122.5,761.6,151.4,761.6,194.1z M737,193.8c0-35.7-24-48.9-44.6-48.9c-20.8,0-44.6,13.2-44.6,48.9c0,35.9,23.8,49.4,44.6,49.4
		C713,243.3,737,229.8,737,193.8z"/>
	<path class="st1" d="M871.8,251.4c0,4.6-2.4,7.6-6.2,9.5c-6.5,3-13.8,4.9-22.4,4.9c-12.7,0-39.4-2.2-39.4-35.7v-83.8h-19.2
		c-3,0-5.1-2.2-5.1-5.1c0-1.6,0.8-3.2,2.4-4.6l36.7-35.9c0.8-0.8,2.4-2.4,4.6-2.4c3,0,5.1,2.4,5.1,5.4v21.6h30.5
		c5.9,0,10.5,4.6,10.5,10.5s-4.6,10.5-10.5,10.5h-30.5v81.6c0,15.9,10.8,16.2,17.6,16.2c8.6,0,11.6-2.4,16.2-2.4
		C866.9,241.6,871.8,245.7,871.8,251.4z"/>
	<path class="st1" d="M1021.8,175.4v76.7c0,6.8-5.7,12.2-12.4,12.2s-12.2-5.4-12.2-12.2v-74c0-20.5-8.6-33-29.7-33
		c-19.5,0-33.5,12.4-44.3,25.9v81.1c0,6.8-5.7,12.2-12.4,12.2c-6.8,0-12.2-5.4-12.2-12.2V76.8c0-7,5.4-12.4,12.2-12.4
		c6.8,0,12.4,5.4,12.4,12.4v70.5c11.3-12.4,26.2-24.9,50.3-24.9C1004.2,122.5,1021.8,146.5,1021.8,175.4z"/>
	<path class="st1" d="M1062,212.7V136c0-6.8,5.7-12.2,12.4-12.2c6.8,0,12.2,5.4,12.2,12.2v74c0,20.5,8.6,33,29.7,33
		c19.5,0,33.5-12.4,44.3-25.9V136c0-6.8,5.7-12.2,12.4-12.2s12.2,5.4,12.2,12.2v115.9c0,7-5.4,12.4-12.2,12.4s-12.4-5.4-12.4-12.4
		v-11.1c-11.3,12.4-26.2,24.9-50.3,24.9C1079.6,265.7,1062,241.6,1062,212.7z"/>
	<path class="st1" d="M1364.1,194.1c0,45.9-32.7,71.6-65.4,71.6c-18.9,0-33.8-7.6-46.2-20.5v7c0,6.8-5.4,12.2-12.4,12.2
		c-6.8,0-12.2-5.4-12.2-12.2V76.8c0-7,5.4-12.4,12.2-12.4c7,0,12.4,5.4,12.4,12.4V143c12.4-13,27.3-20.5,46.2-20.5
		C1331.4,122.5,1364.1,148.2,1364.1,194.1z M1339.5,194.1c0-31.9-18.6-48.6-44.3-48.6c-17.6,0-32.2,8.6-42.7,20.3v56.7
		c10.5,11.6,25.1,20.3,42.7,20.3C1320.8,242.7,1339.5,226,1339.5,194.1z"/>
</g>
</svg>
