<svg id="Layer_2" data-name="Layer 2" xmlns="http://www.w3.org/2000/svg" viewBox="0 0 1289.18 354.28"><defs><style>.cls-1{fill:#22af5b;}.cls-2{fill:#fff;}.cls-3{fill:#e5e5e5;stroke:#333;stroke-miterlimit:10;stroke-width:0.25px;}.cls-4{fill:#c6c6c6;}.cls-5{fill:#424242;}</style></defs><path class="cls-1" d="M365.81,72.32S352.72,175.14,351,181.64l-3.73-1.82S357.16,105.7,365.81,72.32Z"/><path class="cls-2" d="M353.08,186.15l-9.27-4.43.35-2.25c.08-.78,10-74.64,18.64-107.84L369,72.85C367.73,83.42,355.86,176,354.13,182.59Z"/><path class="cls-2" d="M360.1,184.75c-4.85,21.41-13.43,32.08-22.62,36.24a25.08,25.08,0,0,1-9.45,2.17,27.25,27.25,0,0,1-7-.78l21.85-76.12a16.81,16.81,0,0,1,2.94.87,9.71,9.71,0,0,1,1.4.61l1.05.52a27.52,27.52,0,0,1,3.3,2,21.13,21.13,0,0,1,3.64,3.3C360.1,159,363.74,168.55,360.1,184.75Z"/><circle class="cls-3" cx="365.39" cy="77.44" r="5.98"/><path class="cls-2" d="M365.39,86.63a9.16,9.16,0,0,1-9.19-9,9.26,9.26,0,0,1,9-9.36h.17a9.15,9.15,0,0,1,9.19,9A9.49,9.49,0,0,1,372,83.86a9.11,9.11,0,0,1-6.42,2.77Zm0-12h0a2.76,2.76,0,0,0-2.77,2.74v.12a2.8,2.8,0,0,0,2.77,2.78h.09a2.9,2.9,0,0,0,2-.87,2.74,2.74,0,0,0,.78-2,2.81,2.81,0,0,0-2.83-2.77Z"/><path class="cls-2" d="M348.23,148.18c-1,14.65-4.6,49.76-10.75,72.82a25.08,25.08,0,0,1-9.45,2.17,26.82,26.82,0,0,1-7-.78l21.85-76.12a8.92,8.92,0,0,1,2.94-.52,7.27,7.27,0,0,1-.08,1.4h0a10.22,10.22,0,0,1,1.4.61A4.53,4.53,0,0,1,348.23,148.18Z"/><path class="cls-1" d="M75.85,72.33S88.94,175.14,90.67,181.64l3.73-1.82S84.52,105.7,75.85,72.33Z"/><path class="cls-2" d="M88.59,186.15l-1-3.73c-1.75-6.5-13.53-99.17-14.91-109.75L79,71.46c8.67,33.2,18.54,107.15,18.64,107.84l.35,2.25Z"/><path class="cls-2" d="M120.67,222.39c-.09,0-.18.08-.26.08a24.45,24.45,0,0,1-6.76.7,21.49,21.49,0,0,1-4.08-.43,25.29,25.29,0,0,1-5.8-1.91c-9-4.33-17.43-15-22.2-36.06-3.64-16.3,0-25.74,5-31.29a21.77,21.77,0,0,1,3.73-3.31c.61-.43,1.22-.86,1.82-1.21a27.07,27.07,0,0,1,3.9-1.91,14.45,14.45,0,0,1,3-.86Z"/><circle class="cls-3" cx="76.2" cy="77.44" r="5.98"/><path class="cls-2" d="M76.2,86.63H76a9.2,9.2,0,0,1-9-9.36,9.31,9.31,0,0,1,9.36-9,9.19,9.19,0,0,1-.17,18.38Zm0-12a2.74,2.74,0,0,0-2.77,2.7v.07a2.8,2.8,0,0,0,2.73,2.87h.13a2.74,2.74,0,0,0,2.77-2.71v-.07a2.83,2.83,0,0,0-2.8-2.86Z"/><path class="cls-2" d="M120.67,222.38c-.09,0-.18.09-.26.09-1.56.43-4,1.05-6.42,1.56-.08-.26-.26-.52-.35-.78a21.38,21.38,0,0,1-4.07-.43,25.21,25.21,0,0,1-5.81-1.91C93.7,194.73,93.36,161.53,92.06,149a27,27,0,0,1,3.9-1.9,13.87,13.87,0,0,1,3-.87Z"/><path class="cls-2" d="M320.49,236.86c-17.17,24.88-38.13,32.34-38.13,32.34H158.72s-21.06-7.46-38.13-32.34S39.78,34.1,220.54,23C401.28,34.1,337.65,212.07,320.49,236.86Z"/><path class="cls-4" d="M330.8,146.7a201.85,201.85,0,0,1-18.72,71.37c-1.56,3.12-3.12,6.24-4.94,9.19-1.3,2.25-3.12,6.76-5.46,8.14a20.7,20.7,0,0,1-7,1c-3.21.44-6.42.78-9.63,1.13q-9.88,1.17-19.76,2.08c-12.83,1.21-25.75,2.08-38.58,2.25a585,585,0,0,1-59-3.29q-10.16-.92-20.29-2.08c-2.78-.26-6.33.6-8.59-1.48a48.76,48.76,0,0,1-6-9.53c-2-3.47-3.73-7-5.46-10.66a174.87,174.87,0,0,1-8.14-21.59,237.26,237.26,0,0,1-7.89-37.19c-.44-3.21-.78-6.5-1-9.79a7.25,7.25,0,0,1,4.68-7.37,205.57,205.57,0,0,1,44.47-10.15c16.21-2.34,32.51-3.81,48.81-4.76A358.61,358.61,0,0,1,304.87,133a158.62,158.62,0,0,1,21,5.89A7.75,7.75,0,0,1,330.8,146.7Z"/><path class="cls-5" d="M321,151.18a171.68,171.68,0,0,1-17.05,62.52c-1.42,2.73-2.84,5.46-4.5,8.05-1.18,2-2.84,5.92-5,7.14a20,20,0,0,1-6.39.92c-2.92.38-5.84.68-8.76,1q-9,1-18,1.83c-11.68,1.06-23.44,1.82-35.12,2q-26.92-.14-53.74-2.89-9.24-.8-18.47-1.82c-2.52-.23-5.76.53-7.81-1.29a43.18,43.18,0,0,1-5.45-8.36c-1.81-3-3.39-6.15-5-9.34A149.12,149.12,0,0,1,128.35,192a202.26,202.26,0,0,1-7.18-32.58c-.4-2.81-.71-5.7-1-8.58a6.35,6.35,0,0,1,4.26-6.46A193.43,193.43,0,0,1,165,135.47c14.76-2.05,29.6-3.34,44.43-4.17a339,339,0,0,1,88,7.82,149.72,149.72,0,0,1,19.11,5.17A6.78,6.78,0,0,1,321,151.18Z"/><rect class="cls-2" x="165" y="165" width="15" height="22"/><rect class="cls-2" x="261" y="165" width="15" height="22"/><rect class="cls-2" x="213.5" y="198.5" width="15" height="22" transform="translate(430.5 -11.5) rotate(90)"/><rect class="cls-2" x="202.75" y="202.25" width="7.5" height="7" transform="translate(412.25 -0.75) rotate(90)"/><rect class="cls-2" x="195.75" y="195.25" width="7.5" height="7" transform="translate(398.25 -0.75) rotate(90)"/><rect class="cls-2" x="238.75" y="195.25" width="7.5" height="7" transform="translate(441.25 -43.75) rotate(90)"/><rect class="cls-2" x="231.75" y="202.25" width="7.5" height="7" transform="translate(441.25 -29.75) rotate(90)"/><path class="cls-2" d="M575.27,176.53c0,39.79-28.34,62.07-56.7,62.07a53.52,53.52,0,0,1-40-17.79v6.07a10.67,10.67,0,0,1-21.34,0v-152a10.67,10.67,0,0,1,21.34,0v57.39a53.13,53.13,0,0,1,40.05-17.77C546.92,114.46,575.27,136.74,575.27,176.53Zm-21.34,0c0-27.66-16.13-42.14-38.41-42.14a49.63,49.63,0,0,0-37,17.6v49.16a49.93,49.93,0,0,0,37,17.6c22.27-.1,38.39-14.57,38.39-42.22Z"/><path class="cls-2" d="M717.71,176.53c0,37-23.93,62.07-60,62.07-36.32,0-60-25.06-60-62.07s23.66-62.07,60-62.07C693.77,114.46,717.71,139.51,717.71,176.53Zm-21.34-.26c0-31-20.81-42.39-38.67-42.39-18,0-38.66,11.44-38.66,42.39,0,31.13,20.64,42.82,38.66,42.82,17.87.09,38.67-11.62,38.67-42.83Z"/><path class="cls-2" d="M813.23,226.2a8.76,8.76,0,0,1-5.38,8.23,45.52,45.52,0,0,1-19.41,4.25c-11,0-34.16-1.91-34.16-31V135.1H737.64a4.28,4.28,0,0,1-4.43-4.13v-.29a5.37,5.37,0,0,1,2.08-4l31.82-31.14a5.92,5.92,0,0,1,4-2.08A4.45,4.45,0,0,1,775.53,98c0,.07,0,.14,0,.21v18.73H802a9.1,9.1,0,0,1,0,18.19H775.52v70.74c0,13.78,9.36,14,15.26,14,7.45,0,10.06-2.08,14-2.08A8.46,8.46,0,0,1,813.23,226.2Z"/><path class="cls-2" d="M943.26,160.31V226.8a10.71,10.71,0,0,1-10.75,10.58,10.56,10.56,0,0,1-10.57-10.56V162.66c0-17.77-7.46-28.61-25.75-28.61-16.9,0-29,10.75-38.4,22.45v70.31A10.72,10.72,0,0,1,847,237.39,10.51,10.51,0,0,1,836.46,227V74.84a10.55,10.55,0,0,1,10.35-10.75H847a10.69,10.69,0,0,1,10.75,10.64V136c9.79-10.75,22.71-21.59,43.6-21.59C928,114.46,943.26,135.26,943.26,160.31Z"/><path class="cls-2" d="M978.11,192.65V126.16a10.72,10.72,0,0,1,10.75-10.58A10.51,10.51,0,0,1,999.44,126v64.31c0,17.77,7.45,28.6,25.74,28.6,16.91,0,29-10.75,38.41-22.45V126.15a10.71,10.71,0,0,1,10.74-10.58,10.57,10.57,0,0,1,10.58,10.55v100.5a10.55,10.55,0,0,1-10.34,10.75h-.24a10.69,10.69,0,0,1-10.74-10.63V217c-9.8,10.75-22.72,21.59-43.61,21.59C993.37,238.59,978.11,217.7,978.11,192.65Z"/><path class="cls-2" d="M1240,176.53c0,39.79-28.33,62.07-56.69,62.07a53.52,53.52,0,0,1-40-17.79v6.07a10.67,10.67,0,0,1-21.34,0h0v-152a10.67,10.67,0,0,1,21.34,0v57.39a53.19,53.19,0,0,1,40-17.77C1211.65,114.46,1240,136.74,1240,176.53Zm-21.34,0c0-27.66-16.12-42.14-38.4-42.14a49.63,49.63,0,0,0-37,17.6v49.16a50,50,0,0,0,37,17.6c22.18-.1,38.39-14.57,38.39-42.22Z"/><path class="cls-2" d="M716.81,295v12.62a9.47,9.47,0,0,1-.94.26,5.19,5.19,0,0,1-1.29.15c-1.72,0-2.58-.72-2.58-2.17V274.67a2.06,2.06,0,0,1,.47-1.44,3.27,3.27,0,0,1,1.47-.79,21.25,21.25,0,0,1,4.13-.76c1.63-.16,3.2-.24,4.73-.24q7.44,0,10.88,3.14a10.93,10.93,0,0,1,3.43,8.48,11.3,11.3,0,0,1-3.52,8.72Q730.08,295,722.74,295Zm5.63-4q4.69,0,7.28-1.93t2.58-6q0-4-2.49-5.84t-7.13-1.85c-1.06,0-2.1.05-3.14.15s-2,.23-2.79.38V291Z"/><path class="cls-2" d="M777.25,289.93A23.24,23.24,0,0,1,776,298a16.1,16.1,0,0,1-3.58,5.81,15.13,15.13,0,0,1-5.4,3.52,19.56,19.56,0,0,1-13.49,0,15.13,15.13,0,0,1-5.4-3.52,16.1,16.1,0,0,1-3.58-5.81,23.24,23.24,0,0,1-1.29-8.07,22.51,22.51,0,0,1,1.32-8,16.61,16.61,0,0,1,3.61-5.81,14.86,14.86,0,0,1,5.39-3.55,19.25,19.25,0,0,1,13.38,0,14.82,14.82,0,0,1,5.4,3.55,16.61,16.61,0,0,1,3.61,5.81A22.51,22.51,0,0,1,777.25,289.93Zm-4.87,0q0-7.05-3.32-10.8a11.18,11.18,0,0,0-8.83-3.75,12.43,12.43,0,0,0-5,1,10.54,10.54,0,0,0-3.82,2.82,12.77,12.77,0,0,0-2.43,4.55,20.61,20.61,0,0,0-.85,6.22q0,7,3.28,10.8a12.27,12.27,0,0,0,17.66,0Q772.38,297,772.38,289.93Z"/><path class="cls-2" d="M801.54,281a6.1,6.1,0,0,1,1.15-.41,5.8,5.8,0,0,1,1.49-.18q2.48,0,3,1.53l2,6c.63,1.88,1.23,3.69,1.82,5.43s1.15,3.46,1.7,5.14,1.1,3.42,1.65,5.22h.23c.55-2.62,1.09-5.19,1.64-7.72s1.08-5.06,1.59-7.63,1-5.16,1.46-7.8.92-5.43,1.35-8.36a4.38,4.38,0,0,1,2-.41,2.77,2.77,0,0,1,1.76.5,1.77,1.77,0,0,1,.65,1.49,26.4,26.4,0,0,1-.33,3.41c-.21,1.52-.51,3.27-.88,5.25s-.8,4.11-1.29,6.39-1,4.54-1.55,6.75-1.1,4.34-1.65,6.37-1.07,3.77-1.58,5.22a7.44,7.44,0,0,1-1.35.56,6.33,6.33,0,0,1-1.88.26,5,5,0,0,1-2.17-.41,2.13,2.13,0,0,1-1.17-1.11c-.43-1-.92-2.3-1.47-3.85s-1.12-3.24-1.73-5.1-1.22-3.79-1.85-5.81-1.23-4-1.82-6c-.59,2-1.19,4-1.82,6.05s-1.24,4.08-1.85,6-1.2,3.73-1.79,5.37-1.11,3-1.58,4.11a5,5,0,0,1-1.29.53,7.11,7.11,0,0,1-1.88.23,4.52,4.52,0,0,1-2.17-.44,2.33,2.33,0,0,1-1.11-1.08,31.82,31.82,0,0,1-1.21-3.52q-.68-2.29-1.41-5.2c-.49-1.93-1-4-1.52-6.25s-1-4.45-1.53-6.66-.94-4.34-1.35-6.39-.75-3.9-1-5.55a4.13,4.13,0,0,1,1.11-.76,3.31,3.31,0,0,1,1.53-.35,2.32,2.32,0,0,1,2.46,2.17q.76,3.69,1.47,7.13c.47,2.29.95,4.61,1.44,7s1,4.82,1.55,7.37,1.15,5.3,1.82,8.27h.23q.82-2.64,1.59-5t1.58-5c.55-1.72,1.15-3.59,1.79-5.63S800.72,283.65,801.54,281Z"/><path class="cls-2" d="M833.52,307.06a2.57,2.57,0,0,1-.7-1.88V274.67a2.58,2.58,0,0,1,.7-1.88,2.54,2.54,0,0,1,1.88-.7h19.48a4.62,4.62,0,0,1,.36.79,3.51,3.51,0,0,1,.17,1.09,2.42,2.42,0,0,1-.47,1.58,1.63,1.63,0,0,1-1.35.59h-16v11.32h15.5a5.35,5.35,0,0,1,.35.8,3.4,3.4,0,0,1,.17,1.08,2.31,2.31,0,0,1-.47,1.56,1.66,1.66,0,0,1-1.35.55h-14.2v12.33h17.61a5.63,5.63,0,0,1,.35.76,3.07,3.07,0,0,1,.18,1.11,2.36,2.36,0,0,1-.47,1.56,1.69,1.69,0,0,1-1.35.56H835.4A2.55,2.55,0,0,1,833.52,307.06Z"/><path class="cls-2" d="M868.79,307.65c-.24.08-.55.17-.94.26a5.19,5.19,0,0,1-1.29.15c-1.72,0-2.58-.72-2.58-2.17V274.67a2,2,0,0,1,.47-1.44,3.28,3.28,0,0,1,1.46-.79,21.62,21.62,0,0,1,4.2-.76c1.66-.16,3.28-.24,4.84-.24q7.39,0,11,3t3.61,8.42a10.92,10.92,0,0,1-2.08,6.8,11.46,11.46,0,0,1-6.31,3.94l2.93,3.75,2.79,3.55c.88,1.12,1.67,2.13,2.35,3l1.61,2.12a2.66,2.66,0,0,1-1,1.58,2.77,2.77,0,0,1-3.26.12,6.17,6.17,0,0,1-1.35-1.47l-8.57-12h-7.86Zm6.69-17.37a11,11,0,0,0,6.81-1.88,6.57,6.57,0,0,0,2.46-5.57,6.37,6.37,0,0,0-2.58-5.55c-1.72-1.23-4.19-1.85-7.39-1.85-1.06,0-2.13.05-3.2.15s-2,.23-2.85.38v14.32Z"/><path class="cls-2" d="M899.24,307.06a2.57,2.57,0,0,1-.7-1.88V274.67a2.58,2.58,0,0,1,.7-1.88,2.54,2.54,0,0,1,1.88-.7H920.6a4.62,4.62,0,0,1,.36.79,3.51,3.51,0,0,1,.17,1.09,2.42,2.42,0,0,1-.47,1.58,1.63,1.63,0,0,1-1.35.59h-16v11.32h15.5a5.35,5.35,0,0,1,.35.8,3.4,3.4,0,0,1,.17,1.08,2.31,2.31,0,0,1-.47,1.56,1.66,1.66,0,0,1-1.35.55h-14.2v12.33H920.9a5.63,5.63,0,0,1,.35.76,3.07,3.07,0,0,1,.18,1.11,2.36,2.36,0,0,1-.47,1.56,1.69,1.69,0,0,1-1.35.56H901.12A2.55,2.55,0,0,1,899.24,307.06Z"/><path class="cls-2" d="M959.57,289.52a24,24,0,0,1-1.32,8.36,15.66,15.66,0,0,1-3.76,5.9,15.38,15.38,0,0,1-5.9,3.49,24.68,24.68,0,0,1-7.74,1.14q-1.87,0-4.23-.15a19,19,0,0,1-4.46-.79c-1.64-.5-2.46-1.41-2.46-2.7V274.61a2,2,0,0,1,.47-1.43,3.19,3.19,0,0,1,1.46-.8,18.22,18.22,0,0,1,4.11-.76c1.53-.12,3-.18,4.58-.18a25.49,25.49,0,0,1,7.83,1.15,16.72,16.72,0,0,1,6.08,3.4,15.48,15.48,0,0,1,3.93,5.64A20.32,20.32,0,0,1,959.57,289.52Zm-4.87,0a16.32,16.32,0,0,0-1.15-6.43,11.85,11.85,0,0,0-3.11-4.37,12.28,12.28,0,0,0-4.58-2.49,19.09,19.09,0,0,0-5.6-.8c-1.25,0-2.34,0-3.26.12a25,25,0,0,0-2.55.35v27.94a17.52,17.52,0,0,0,3,.46c1.08.08,2.18.12,3.32.12,4.61,0,8.09-1.25,10.41-3.75S954.7,294.45,954.7,289.52Z"/><path class="cls-2" d="M1004.75,281.07a9.38,9.38,0,0,1-1.2,4.66,7.9,7.9,0,0,1-4,3.32,9.36,9.36,0,0,1,5,3.49,9.17,9.17,0,0,1,1.65,5.37q0,5.34-3.85,7.92t-10.94,2.58c-1.64,0-3.24-.07-4.78-.2a24.11,24.11,0,0,1-4.43-.8c-1.64-.47-2.47-1.36-2.47-2.69V274.67a2.23,2.23,0,0,1,1.94-2.23,22.52,22.52,0,0,1,4.22-.79c1.49-.14,3.11-.21,4.87-.21q6.63,0,10.33,2.35A8,8,0,0,1,1004.75,281.07Zm-20.36,6.22h8a8.34,8.34,0,0,0,5.6-1.65,5.57,5.57,0,0,0,1.91-4.45q0-5.82-9.16-5.81c-1.37,0-2.55,0-3.55.14s-1.92.23-2.78.38Zm0,3.87v12.68a29.87,29.87,0,0,0,3.25.46c1.24.12,2.48.18,3.73.18q4.88,0,7.39-1.61a5.59,5.59,0,0,0,2.53-5.08A5.87,5.87,0,0,0,999,293q-2.26-1.79-6.66-1.79Z"/><path class="cls-2" d="M1039.14,273.73a7.86,7.86,0,0,1-.88,2.5q-.88,1.84-2.47,4.6c-1,1.84-2.32,3.93-3.78,6.28s-3.08,4.83-4.84,7.45v13.09a6.06,6.06,0,0,1-.91.26,5.38,5.38,0,0,1-1.27.15c-1.72,0-2.58-.72-2.58-2.17V294.56c-1.09-1.6-2.22-3.3-3.37-5.1s-2.3-3.62-3.44-5.46-2.2-3.64-3.22-5.4-1.92-3.42-2.7-5a3.32,3.32,0,0,1,.88-1.27,2.36,2.36,0,0,1,1.7-.61,2.41,2.41,0,0,1,1.73.58,7.57,7.57,0,0,1,1.26,1.76q.94,1.65,2.2,3.88c.84,1.49,1.71,3,2.59,4.52l2.55,4.43c.82,1.42,1.52,2.61,2.11,3.55h.24q3-5.11,5.42-9.51t4.73-8.8a2,2,0,0,1,.85-.32,5.39,5.39,0,0,1,1-.09C1038.39,271.74,1039.14,272.4,1039.14,273.73Z"/><path class="cls-2" d="M1134.49,291.51a22.62,22.62,0,0,1,8.55-1.34,51,51,0,0,0,5.89-.35c5.24-.59,8.73-2.33,10.68-5.32a11.43,11.43,0,0,0,.36-11.56,13.23,13.23,0,0,0-3.78-4.32,17.56,17.56,0,0,0-5.44-2.65,22.22,22.22,0,0,0-16.39,1.38,21.85,21.85,0,0,0-10.6,14,27.93,27.93,0,0,0,3.87,22.35c3.48,5,9.39,7.8,16.2,7.8a20.59,20.59,0,0,0,9.21-2,21.68,21.68,0,0,0,5.78-4.16,3.24,3.24,0,0,0,.64-.95,3.69,3.69,0,0,0,.43-1.69,3.64,3.64,0,0,0-3.63-3.64,3.55,3.55,0,0,0-2,.64,1.43,1.43,0,0,0-.24.19l-.14.12-.18.16-.07.06a15.23,15.23,0,0,1-2.59,2.2,16.06,16.06,0,0,1-3.31,1.68,11.71,11.71,0,0,1-8.2-.16,14.7,14.7,0,0,1-3.94-2.28,12.06,12.06,0,0,1-2.81-3.2,6.68,6.68,0,0,1-1-3.47C1131.74,293.41,1132.64,292.28,1134.49,291.51Zm9.77-8.5c-1.18,0-2.55.05-4.08.16a32.11,32.11,0,0,0-4.53.67,20.87,20.87,0,0,0-4.27,1.46c-.38.18-.76.37-1.11.58a18.5,18.5,0,0,0,.36-2c.08-.48.14-.9.19-1.09a15.05,15.05,0,0,1,1.42-3.49,14.42,14.42,0,0,1,5-5.31,15.08,15.08,0,0,1,7.62-2c3.3,0,6.56,1.08,8.35,3.82a4.48,4.48,0,0,1,.07,5c-1.23,1.53-3.65,1.91-5.36,2.05C1146.7,283,1145.47,283,1144.26,283Z"/><path class="cls-2" d="M1117.34,265.22a3.48,3.48,0,0,0-4.45,2.12l-10.54,29.8-9.58-29.6a4.25,4.25,0,0,0-.22-.5l0-.06a2.39,2.39,0,0,0-.13-.21,3.41,3.41,0,0,0-1.84-1.55,3.48,3.48,0,0,0-4.45,2.12l-10.54,29.8-9.65-29.71a3.48,3.48,0,0,0-4.39-2.24,3.4,3.4,0,0,0-2,1.74,3.49,3.49,0,0,0-.21,2.67l12.82,39.5a3.5,3.5,0,0,0,3.26,2.42h.06a3.49,3.49,0,0,0,3.28-2.33l10.55-29.83,9.63,29.74a3.5,3.5,0,0,0,3.26,2.42h.06a3.49,3.49,0,0,0,3.28-2.33l14-39.5a3.51,3.51,0,0,0-.14-2.68A3.46,3.46,0,0,0,1117.34,265.22Z"/><path class="cls-2" d="M1218.51,265a3.59,3.59,0,0,0-3.57,3.6v39.31a3.58,3.58,0,1,0,7.15,0V268.61A3.6,3.6,0,0,0,1218.51,265Z"/><path class="cls-2" d="M1187.25,265c-10.15.35-18.41,9.18-18.41,19.7v23.13a3.65,3.65,0,1,0,7.29,0V284.47c0-6.48,5-12,11.25-12.24a11.65,11.65,0,0,1,8.68,3.28,11.8,11.8,0,0,1,3.64,8.58v23.76a3.64,3.64,0,1,0,7.28,0V284.22a19.12,19.12,0,0,0-5.81-13.81A18.87,18.87,0,0,0,1187.25,265Z"/></svg>