<svg width="245" height="171" viewBox="0 0 245 171" fill="none" xmlns="http://www.w3.org/2000/svg">
<path d="M214.843 1.14648H5.14648C2.93735 1.14648 1.14648 2.93734 1.14648 5.14648V145.867C1.14648 148.076 2.93735 149.867 5.14649 149.867H214.843C217.052 149.867 218.843 148.076 218.843 145.867V5.14648C218.843 2.93735 217.052 1.14648 214.843 1.14648Z" fill="white"/>
<path d="M218.843 151.013H1.1465C0.842427 151.013 0.55081 150.892 0.3358 150.677C0.12079 150.462 0 150.17 0 149.866V1.14612C0 0.842149 0.12079 0.550628 0.3358 0.335689C0.55081 0.120751 0.842427 0 1.1465 0H218.843C219.147 0 219.439 0.120751 219.654 0.335689C219.869 0.550628 219.99 0.842149 219.99 1.14612V149.866C219.99 150.17 219.869 150.462 219.654 150.677C219.439 150.892 219.147 151.013 218.843 151.013ZM2.29299 148.72H217.697V2.29224H2.29299V148.72Z" fill="#9CACCC"/>
<path d="M214.843 1.14648H5.14648C2.93735 1.14648 1.14648 2.93735 1.14648 5.14648V16.6878C1.14648 18.8969 2.93735 20.6878 5.14649 20.6878H214.843C217.052 20.6878 218.843 18.8969 218.843 16.6878V5.14648C218.843 2.93735 217.052 1.14648 214.843 1.14648Z" fill="#F4F6F8"/>
<path d="M218.843 21.8212H1.1465C0.842427 21.8212 0.55081 21.7004 0.3358 21.4855C0.12079 21.2705 0 20.979 0 20.6751V1.19104C0 0.887071 0.12079 0.59555 0.3358 0.380611C0.55081 0.165672 0.842427 0.0449219 1.1465 0.0449219H218.843C219.147 0.0449219 219.439 0.165672 219.654 0.380611C219.869 0.59555 219.99 0.887071 219.99 1.19104V20.6751C219.99 20.979 219.869 21.2705 219.654 21.4855C219.439 21.7004 219.147 21.8212 218.843 21.8212ZM2.29299 19.5289H217.697V2.33716H2.29299V19.5289Z" fill="#9CACCC"/>
<path d="M18.9287 14.1418C20.7143 14.1418 22.1618 12.6948 22.1618 10.9098C22.1618 9.12477 20.7143 7.67773 18.9287 7.67773C17.1431 7.67773 15.6956 9.12477 15.6956 10.9098C15.6956 12.6948 17.1431 14.1418 18.9287 14.1418Z" fill="#F4F6F8"/>
<path d="M18.9286 15.2895C18.0634 15.285 17.2189 15.0243 16.5017 14.5405C15.7845 14.0567 15.2267 13.3713 14.8987 12.5709C14.5708 11.7705 14.4873 10.891 14.6589 10.0432C14.8304 9.19544 15.2494 8.41747 15.8628 7.80746C16.4762 7.19746 17.2566 6.78275 18.1055 6.61567C18.9544 6.44859 19.8338 6.53662 20.6328 6.86865C21.4317 7.20069 22.1144 7.76185 22.5946 8.48133C23.0748 9.20081 23.3311 10.0464 23.3311 10.9113C23.3311 11.4882 23.2171 12.0594 22.9956 12.5921C22.7741 13.1248 22.4494 13.6084 22.0403 14.0153C21.6312 14.4221 21.1456 14.7441 20.6116 14.9628C20.0776 15.1815 19.5057 15.2925 18.9286 15.2895V15.2895ZM18.9286 8.82538C18.5169 8.82991 18.1158 8.95607 17.7756 9.18801C17.4355 9.41995 17.1716 9.74728 17.0172 10.1288C16.8628 10.5103 16.8247 10.929 16.9078 11.3321C16.9909 11.7352 17.1914 12.1048 17.4841 12.3942C17.7769 12.6836 18.1487 12.88 18.5528 12.9587C18.9569 13.0373 19.3753 12.9947 19.7552 12.8362C20.1352 12.6776 20.4597 12.4103 20.688 12.0678C20.9163 11.7253 21.0381 11.3229 21.0381 10.9113C21.0366 10.6359 20.9809 10.3634 20.8741 10.1095C20.7672 9.85565 20.6114 9.62528 20.4155 9.43158C20.2196 9.23788 19.9875 9.08465 19.7324 8.98064C19.4772 8.87662 19.2041 8.82387 18.9286 8.82538V8.82538Z" fill="#9CACCC"/>
<path d="M31.1733 14.1418C32.9589 14.1418 34.4064 12.6948 34.4064 10.9098C34.4064 9.12477 32.9589 7.67773 31.1733 7.67773C29.3877 7.67773 27.9402 9.12477 27.9402 10.9098C27.9402 12.6948 29.3877 14.1418 31.1733 14.1418Z" fill="#9CACCC"/>
<path d="M31.1732 15.2895C30.307 15.2895 29.4602 15.0328 28.74 14.5517C28.0198 14.0706 27.4584 13.3868 27.127 12.5868C26.7955 11.7868 26.7087 10.9065 26.8777 10.0572C27.0467 9.20795 27.4638 8.42784 28.0763 7.81554C28.6888 7.20325 29.4692 6.78626 30.3188 6.61733C31.1683 6.4484 32.0489 6.5351 32.8492 6.86648C33.6495 7.19785 34.3335 7.759 34.8147 8.47899C35.296 9.19898 35.5528 10.0455 35.5528 10.9114C35.5498 12.0716 35.0874 13.1834 34.2667 14.0039C33.446 14.8243 32.3338 15.2865 31.1732 15.2895V15.2895ZM31.1732 8.82544C30.7605 8.82544 30.3571 8.94778 30.0139 9.17698C29.6708 9.40619 29.4033 9.73196 29.2454 10.1131C29.0875 10.4943 29.0462 10.9137 29.1267 11.3183C29.2072 11.723 29.4059 12.0946 29.6977 12.3864C29.9896 12.6781 30.3614 12.8767 30.7661 12.9572C31.1709 13.0377 31.5904 12.9964 31.9717 12.8385C32.353 12.6806 32.6789 12.4133 32.9082 12.0702C33.1374 11.7272 33.2598 11.3239 33.2598 10.9114C33.2568 10.3591 33.036 9.83026 32.6453 9.43972C32.2547 9.04918 31.7257 8.82845 31.1732 8.82544V8.82544Z" fill="#9CACCC"/>
<path d="M43.4177 14.1418C45.2033 14.1418 46.6508 12.6948 46.6508 10.9098C46.6508 9.12477 45.2033 7.67773 43.4177 7.67773C41.6321 7.67773 40.1846 9.12477 40.1846 10.9098C40.1846 12.6948 41.6321 14.1418 43.4177 14.1418Z" fill="#9CACCC"/>
<path d="M43.4178 15.2895C42.5516 15.2895 41.7049 15.0328 40.9846 14.5517C40.2644 14.0706 39.7031 13.3868 39.3716 12.5868C39.0401 11.7868 38.9534 10.9065 39.1224 10.0572C39.2914 9.20795 39.7085 8.42784 40.321 7.81554C40.9335 7.20325 41.7138 6.78626 42.5634 6.61733C43.413 6.4484 44.2936 6.5351 45.0938 6.86648C45.8941 7.19785 46.5781 7.759 47.0593 8.47899C47.5406 9.19898 47.7974 10.0455 47.7974 10.9114C47.7974 12.0725 47.336 13.1861 46.5147 14.0072C45.6933 14.8283 44.5794 15.2895 43.4178 15.2895V15.2895ZM43.4178 8.82544C43.0051 8.82544 42.6017 8.94778 42.2586 9.17698C41.9154 9.40619 41.648 9.73196 41.49 10.1131C41.3321 10.4943 41.2908 10.9137 41.3713 11.3183C41.4518 11.723 41.6505 12.0946 41.9423 12.3864C42.2342 12.6781 42.606 12.8767 43.0107 12.9572C43.4155 13.0377 43.835 12.9964 44.2163 12.8385C44.5976 12.6806 44.9235 12.4133 45.1528 12.0702C45.3821 11.7272 45.5044 11.3239 45.5044 10.9114C45.5044 10.3582 45.2846 9.82759 44.8933 9.4364C44.502 9.04521 43.9712 8.82544 43.4178 8.82544Z" fill="#9CACCC"/>
<path d="M101.683 34.8301H18.9287V42.3601H101.683V34.8301Z" fill="#F4F6F8"/>
<path d="M101.683 43.508H18.9286C18.6245 43.508 18.3329 43.3873 18.1179 43.1724C17.9029 42.9574 17.7821 42.6659 17.7821 42.3619V34.8434C17.7821 34.5394 17.9029 34.2479 18.1179 34.033C18.3329 33.818 18.6245 33.6973 18.9286 33.6973H101.683C101.987 33.6973 102.278 33.818 102.493 34.033C102.708 34.2479 102.829 34.5394 102.829 34.8434V42.3734C102.826 42.6754 102.704 42.964 102.489 43.1764C102.275 43.3889 101.985 43.5081 101.683 43.508ZM20.0751 41.2158H100.536V35.9895H20.0751V41.2158Z" fill="#F4F6F8"/>
<path d="M101.683 53.0312H18.9287V60.5613H101.683V53.0312Z" fill="#F4F6F8"/>
<path d="M101.683 61.707H18.9286C18.6245 61.707 18.3329 61.5863 18.1179 61.3713C17.9029 61.1564 17.7821 60.8649 17.7821 60.5609V53.0309C17.7821 52.7269 17.9029 52.4354 18.1179 52.2205C18.3329 52.0055 18.6245 51.8848 18.9286 51.8848H101.683C101.987 51.8848 102.278 52.0055 102.493 52.2205C102.708 52.4354 102.829 52.7269 102.829 53.0309V60.5609C102.829 60.8649 102.708 61.1564 102.493 61.3713C102.278 61.5863 101.987 61.707 101.683 61.707ZM20.0751 59.4148H100.536V54.177H20.0751V59.4148Z" fill="#F4F6F8"/>
<path d="M53.6332 71.2305H18.9287V78.7605H53.6332V71.2305Z" fill="#F4F6F8"/>
<path d="M53.633 79.9177H18.9286C18.6245 79.9177 18.3329 79.7969 18.1179 79.582C17.9029 79.367 17.7821 79.0755 17.7821 78.7716V71.2301C17.7821 70.9261 17.9029 70.6346 18.1179 70.4197C18.3329 70.2047 18.6245 70.084 18.9286 70.084H53.633C53.9371 70.084 54.2287 70.2047 54.4437 70.4197C54.6587 70.6346 54.7795 70.9261 54.7795 71.2301V78.7716C54.7795 79.0755 54.6587 79.367 54.4437 79.582C54.2287 79.7969 53.9371 79.9177 53.633 79.9177ZM20.0751 77.6254H52.4865V72.3762H20.0751V77.6254Z" fill="#F4F6F8"/>
<path d="M126.825 133.058C127.053 132.005 126.928 130.906 126.471 129.931C126.013 128.956 125.247 128.158 124.292 127.66C122.618 126.823 120.852 126.067 119.167 125.367C118.927 125.285 118.717 125.131 118.568 124.926C118.418 124.721 118.335 124.475 118.33 124.221C118.158 122.663 117.929 121.092 117.665 119.534C117.611 119.342 117.618 119.139 117.686 118.951C117.754 118.764 117.879 118.603 118.043 118.491C119.511 117.276 120.99 116.084 122.388 114.8C123.193 114.082 123.735 113.117 123.93 112.056C124.125 110.996 123.962 109.901 123.466 108.944C122.32 106.651 120.967 104.565 119.683 102.388C119.081 101.209 118.052 100.304 116.806 99.8571C115.56 99.41 114.19 99.4543 112.976 99.981C111.382 100.577 109.8 101.127 108.229 101.803C108.046 101.901 107.836 101.938 107.63 101.909C107.424 101.88 107.233 101.787 107.083 101.643C105.738 100.573 104.366 99.5416 102.967 98.5483C102.794 98.4495 102.655 98.2994 102.571 98.1188C102.487 97.9381 102.461 97.7358 102.497 97.5397C102.657 95.832 102.818 94.1014 102.944 92.4051C103.079 91.2075 102.788 90.0006 102.121 88.9965C101.454 87.9924 100.455 87.2554 99.2981 86.9152C96.7758 86.2046 94.242 85.5513 91.6968 84.9554C90.6162 84.7 89.4813 84.8142 88.4733 85.2796C87.4653 85.745 86.6424 86.5347 86.1363 87.5227C85.2535 89.2648 84.4853 91.0527 83.6942 92.8292C83.6304 93.0199 83.509 93.1862 83.3468 93.3052C83.1847 93.4242 82.9896 93.4901 82.7885 93.4939C81.1605 93.6888 79.5325 93.9409 77.9044 94.216C77.7232 94.2718 77.5289 94.2686 77.3496 94.2068C77.1703 94.145 77.0153 94.0278 76.907 93.8722C75.7605 92.4166 74.5452 90.9496 73.2841 89.5513C72.5677 88.7307 71.5981 88.1725 70.5287 87.9649C69.4592 87.7573 68.351 87.9122 67.3796 88.4052C64.9949 89.6774 62.6446 91.0298 60.363 92.4854C59.3059 93.1203 58.5187 94.1212 58.1509 95.298C57.7832 96.4748 57.8605 97.7456 58.3681 98.8692C58.9987 100.543 59.6637 102.204 60.2713 103.878C60.3075 104.008 60.316 104.145 60.2963 104.28C60.2765 104.414 60.229 104.542 60.1566 104.657C59.1363 106.09 58.0815 107.511 57.0153 108.909C56.9228 109.013 56.8098 109.096 56.6834 109.153C56.5571 109.21 56.4202 109.24 56.2815 109.242C54.5732 109.127 52.842 108.967 51.1452 108.806C49.9575 108.634 48.7468 108.883 47.7244 109.512C46.7019 110.14 45.9325 111.107 45.5503 112.244C44.7821 114.858 44.1057 117.505 43.4981 120.164C43.2782 121.206 43.4045 122.292 43.8576 123.255C44.3107 124.219 45.066 125.009 46.0089 125.505C47.786 126.422 49.6204 127.201 51.4433 128.015C51.6201 128.077 51.7738 128.192 51.8843 128.343C51.9948 128.495 52.0569 128.676 52.0624 128.863C52.2688 130.525 52.521 132.175 52.7961 133.826C52.8462 133.996 52.841 134.177 52.7813 134.344C52.7215 134.511 52.6103 134.655 52.4637 134.754C51.1108 135.9 49.7694 136.955 48.4509 138.101C47.4489 138.894 46.7769 140.03 46.5651 141.29C46.3533 142.55 46.6167 143.843 47.3044 144.92C48.4586 146.953 49.6471 148.966 50.87 150.96C51.4834 152.124 52.5181 153.009 53.7627 153.435C55.0072 153.861 56.3676 153.796 57.5656 153.253C59.1936 152.645 60.8216 152.026 62.4382 151.384C62.5888 151.312 62.758 151.289 62.9224 151.318C63.0868 151.347 63.2382 151.426 63.3554 151.545C64.6051 152.508 65.8547 153.482 67.1503 154.376C67.3407 154.494 67.4922 154.666 67.5859 154.87C67.6797 155.073 67.7116 155.3 67.6777 155.522C67.5057 157.207 67.3567 158.96 67.2191 160.588C67.0778 161.749 67.3432 162.924 67.9702 163.912C68.5972 164.901 69.5471 165.641 70.6586 166.009C73.2955 166.788 75.9668 167.476 78.684 168.083C79.7407 168.3 80.8393 168.166 81.8123 167.7C82.7853 167.235 83.5791 166.463 84.0726 165.505C84.921 163.808 85.6662 162.066 86.4344 160.324C86.5094 160.115 86.6436 159.932 86.8207 159.798C86.9978 159.663 87.2101 159.583 87.4318 159.568C89.0713 159.384 90.6993 159.155 92.3273 158.88C92.5016 158.838 92.6844 158.85 92.8521 158.913C93.0197 158.976 93.1644 159.089 93.2675 159.235C94.414 160.576 95.5032 161.894 96.6153 163.235C97.3906 164.185 98.4659 164.844 99.6649 165.103C100.771 165.375 101.94 165.215 102.932 164.656C105.099 163.51 107.22 162.192 109.364 160.943C110.584 160.337 111.519 159.28 111.971 157.996C112.423 156.712 112.356 155.302 111.783 154.066C111.199 152.473 110.637 150.892 109.96 149.31C109.883 149.15 109.856 148.97 109.882 148.794C109.909 148.618 109.988 148.454 110.11 148.324C111.141 147.018 112.146 145.684 113.125 144.324C113.23 144.153 113.385 144.017 113.57 143.935C113.754 143.853 113.958 143.829 114.157 143.866C115.865 144.049 117.596 144.198 119.293 144.336C120.489 144.483 121.699 144.204 122.709 143.548C123.72 142.891 124.467 141.9 124.819 140.748C125.553 138.242 126.222 135.679 126.825 133.058ZM80.656 143.992C77.1925 143.088 74.0746 141.179 71.6964 138.504C69.3183 135.83 67.7867 132.51 67.2952 128.966C66.8037 125.422 67.3743 121.811 68.935 118.591C70.4957 115.37 72.9763 112.685 76.0634 110.874C79.1505 109.062 82.7055 108.206 86.279 108.414C89.8525 108.622 93.2841 109.885 96.1401 112.042C98.9961 114.199 101.148 117.154 102.325 120.534C103.501 123.913 103.649 127.566 102.749 131.029C101.536 135.675 98.5279 139.65 94.3855 142.08C90.2431 144.511 85.3051 145.198 80.656 143.992V143.992Z" fill="#F4F6F8" stroke="#9CACCC" stroke-width="2.03" stroke-linecap="round" stroke-linejoin="round"/>
<path d="M242.897 107.7C242.843 106.254 242.314 104.867 241.391 103.752C240.469 102.638 239.205 101.858 237.795 101.534C235.33 101.007 232.831 100.605 230.343 100.216C230 100.192 229.674 100.062 229.409 99.8445C229.144 99.6267 228.953 99.3319 228.864 99.0009C228.118 97.0066 227.293 95.0582 226.433 93.1213C226.294 92.8914 226.231 92.6235 226.254 92.3558C226.277 92.0882 226.384 91.8346 226.559 91.6313C228.061 89.5683 229.597 87.5168 230.985 85.3621C231.797 84.1513 232.18 82.7038 232.074 81.25C231.968 79.7962 231.379 78.4196 230.4 77.3392C228.107 74.8407 225.676 72.4912 223.292 70.0958C222.115 68.7629 220.472 67.9303 218.701 67.7684C216.93 67.6064 215.164 68.1275 213.764 69.2247C211.884 70.516 210.027 71.834 208.192 73.1788C207.993 73.3598 207.741 73.4729 207.473 73.5017C207.205 73.5305 206.935 73.4737 206.702 73.3393C204.592 72.4071 202.46 71.5284 200.304 70.7032C200.046 70.6338 199.815 70.4867 199.642 70.2817C199.47 70.0767 199.365 69.8237 199.341 69.5571C198.997 67.2649 198.619 64.9726 198.195 62.6804C197.966 61.0784 197.18 59.6083 195.974 58.5287C194.768 57.449 193.22 56.8291 191.603 56.7779C188.087 56.6938 184.574 56.6938 181.066 56.7779C179.572 56.8046 178.131 57.3337 176.974 58.2798C175.818 59.2259 175.014 60.5339 174.692 61.9927C174.118 64.5371 173.729 67.1273 173.304 69.7061C173.281 69.9728 173.176 70.2257 173.003 70.4307C172.831 70.6357 172.6 70.7828 172.341 70.8522C170.289 71.666 168.248 72.537 166.231 73.4424C166.017 73.5838 165.761 73.6493 165.506 73.6285C165.25 73.6077 165.009 73.5019 164.82 73.3278C162.791 71.8264 160.762 70.325 158.664 68.9267C157.456 68.1152 156.013 67.7267 154.561 67.8221C153.109 67.9175 151.729 68.4914 150.638 69.4539C147.967 71.9066 145.364 74.451 142.899 77.11C141.736 78.2903 141.048 79.8571 140.965 81.5119C140.883 83.1667 141.412 84.7941 142.452 86.0841C143.817 88.0555 145.25 89.9809 146.603 91.9637C146.692 92.1227 146.748 92.298 146.768 92.4792C146.787 92.6604 146.77 92.8437 146.717 93.0181C145.869 95.2187 144.974 97.4192 144.046 99.5854C143.964 99.7511 143.848 99.8979 143.706 100.016C143.564 100.135 143.398 100.222 143.22 100.273C140.927 100.697 138.634 101.064 136.341 101.419C134.731 101.597 133.235 102.337 132.118 103.509C131 104.681 130.331 106.21 130.231 107.826C130.116 111.482 130.127 115.15 130.231 118.817C130.295 120.248 130.825 121.619 131.739 122.722C132.654 123.824 133.903 124.598 135.298 124.926C137.912 125.511 140.56 125.912 143.197 126.359C143.459 126.372 143.71 126.466 143.915 126.629C144.121 126.791 144.27 127.013 144.344 127.264C145.158 129.35 146.052 131.413 146.969 133.453C147.09 133.66 147.143 133.9 147.12 134.138C147.097 134.377 147.001 134.602 146.843 134.783C145.456 136.662 144.08 138.553 142.75 140.513C141.704 141.876 141.206 143.582 141.355 145.294C141.503 147.005 142.287 148.6 143.553 149.762C145.739 152.009 147.959 154.228 150.214 156.421C151.397 157.736 153.041 158.544 154.804 158.678C156.568 158.813 158.315 158.263 159.684 157.143C161.599 155.802 163.513 154.462 165.417 153.075C165.592 152.938 165.804 152.856 166.026 152.837C166.248 152.819 166.47 152.866 166.666 152.972C168.615 153.808 170.564 154.656 172.548 155.39C172.852 155.473 173.122 155.651 173.318 155.899C173.514 156.146 173.626 156.45 173.637 156.765C173.981 159.057 174.359 161.258 174.783 163.504C174.992 165.062 175.732 166.499 176.879 167.573C178.026 168.646 179.51 169.29 181.078 169.395C184.769 169.533 188.473 169.51 192.164 169.395C193.61 169.323 194.992 168.78 196.1 167.849C197.207 166.917 197.979 165.649 198.298 164.238C198.848 161.751 199.227 159.218 199.639 156.696C199.658 156.398 199.768 156.112 199.955 155.878C200.141 155.645 200.396 155.474 200.683 155.39C202.746 154.599 204.787 153.739 206.817 152.857C207.024 152.736 207.263 152.684 207.502 152.706C207.74 152.729 207.966 152.826 208.146 152.983C210.038 154.37 211.953 155.711 213.879 157.075C215.206 158.044 216.822 158.537 218.465 158.473C219.993 158.459 221.458 157.86 222.558 156.8C224.977 154.507 227.316 152.146 229.666 149.808C231.034 148.618 231.887 146.944 232.047 145.139C232.207 143.334 231.662 141.536 230.526 140.124C229.231 138.255 227.901 136.399 226.559 134.553C226.402 134.373 226.305 134.147 226.282 133.909C226.26 133.671 226.313 133.431 226.433 133.224C227.327 131.172 228.199 129.109 229.001 127.012C229.076 126.758 229.225 126.533 229.43 126.366C229.634 126.198 229.884 126.096 230.148 126.072C232.441 125.728 234.734 125.35 237.027 124.926C238.632 124.714 240.112 123.943 241.204 122.748C242.297 121.553 242.933 120.011 243 118.393C243 114.898 242.989 111.299 242.897 107.7ZM186.535 137.499C181.726 137.488 177.028 136.051 173.036 133.371C169.044 130.691 165.936 126.888 164.105 122.442C162.275 117.997 161.804 113.108 162.753 108.395C163.701 103.682 166.026 99.3564 169.434 95.9643C172.842 92.5722 177.179 90.2662 181.897 89.3381C186.616 88.4099 191.504 88.9012 195.943 90.7498C200.382 92.5984 204.174 95.7213 206.838 99.7237C209.502 103.726 210.919 108.428 210.91 113.236C210.885 119.678 208.305 125.847 203.735 130.39C199.165 134.932 192.979 137.477 186.535 137.465V137.499Z" fill="#F4F6F8" stroke="#9CACCC" stroke-width="2.03" stroke-linecap="round" stroke-linejoin="round"/>
<path d="M201.038 47.9206H116.771C116.467 47.9206 116.175 47.7998 115.96 47.5849C115.745 47.37 115.624 47.0784 115.624 46.7745V34.8434C115.624 34.5394 115.745 34.2479 115.96 34.033C116.175 33.818 116.467 33.6973 116.771 33.6973H201.038C201.342 33.6973 201.634 33.818 201.849 34.033C202.064 34.2479 202.185 34.5394 202.185 34.8434V46.7859C202.182 47.0879 202.06 47.3765 201.845 47.589C201.63 47.8014 201.34 47.9206 201.038 47.9206ZM117.94 45.6284H199.892V35.9895H117.917L117.94 45.6284Z" fill="#F4F6F8"/>
</svg>
