<svg width="30" height="30" viewBox="0 0 30 30" fill="none" xmlns="http://www.w3.org/2000/svg">
<g clip-path="url(#clip0)">
<path d="M27.993 10.0646C27.3613 8.54455 26.0798 6.90331 25.0763 6.38449C25.7919 7.77022 26.2886 9.2584 26.5487 10.7961L26.5514 10.8205C24.9075 6.72399 22.1209 5.06962 19.8438 1.47202C19.7287 1.29008 19.6135 1.10776 19.5013 0.915311C19.4372 0.805395 19.3858 0.706358 19.3412 0.615199C19.2467 0.432338 19.174 0.239084 19.1243 0.0393577C19.1244 0.0301413 19.1211 0.0212229 19.115 0.0143039C19.1089 0.00738485 19.1005 0.00294938 19.0913 0.00184363C19.0823 -0.000614543 19.0729 -0.000614543 19.0639 0.00184363C19.062 0.00184363 19.059 0.0052199 19.0568 0.00597018C19.0545 0.00672046 19.0497 0.0100967 19.0463 0.0115973L19.0519 0.00184363C15.3999 2.14015 14.1601 6.09788 14.0475 8.07862C12.5886 8.17865 11.1937 8.71609 10.0448 9.62083C9.92497 9.51933 9.79974 9.42441 9.66965 9.33647C9.3384 8.17688 9.32428 6.94966 9.62876 5.78276C8.28758 6.43243 7.09588 7.35345 6.12907 8.48752H6.12232C5.54611 7.75713 5.58662 5.34872 5.61963 4.84566C5.44917 4.91417 5.28645 5.00056 5.1342 5.10338C4.62552 5.46642 4.14999 5.87379 3.71317 6.32071C3.21539 6.82539 2.76075 7.37088 2.35403 7.95145V7.9537V7.95107C1.41938 9.27593 0.756383 10.7728 0.403302 12.3552L0.383794 12.4513C0.356409 12.5792 0.257747 13.2199 0.240866 13.3591C0.240866 13.37 0.238615 13.3801 0.237489 13.391C0.110222 14.0525 0.0313587 14.7224 0.00152588 15.3954V15.4704C0.00795142 19.1087 1.37814 22.6124 3.8416 25.2899C6.30506 27.9673 9.68278 29.6239 13.308 29.9327C16.9332 30.2415 20.5424 29.18 23.4232 26.9577C26.304 24.7354 28.247 21.5139 28.8686 17.9291C28.893 17.7415 28.9129 17.5558 28.9346 17.3664C29.2341 14.8911 28.9099 12.3803 27.9915 10.0624L27.993 10.0646ZM11.2355 21.4464C11.3034 21.479 11.3672 21.5143 11.4369 21.5454L11.4471 21.5518C11.3765 21.518 11.306 21.4829 11.2355 21.4464ZM26.5517 10.8247V10.8108L26.5544 10.8262L26.5517 10.8247Z" fill="url(#paint0_linear)"/>
<path d="M27.993 10.0649C27.3613 8.54483 26.0798 6.90359 25.0763 6.38477C25.7919 7.7705 26.2886 9.25868 26.5487 10.7964V10.8103L26.5513 10.8257C27.6722 14.0328 27.5101 17.549 26.0989 20.6394C24.4326 24.2148 20.4005 27.8796 14.0869 27.6995C7.26686 27.5063 1.25711 22.4438 0.135441 15.8151C-0.069011 14.7695 0.135441 14.2395 0.238229 13.3898C0.0980206 14.0498 0.0197765 14.7214 0.0045166 15.396V15.471C0.0109421 19.1094 1.38113 22.6131 3.84459 25.2905C6.30805 27.968 9.68577 29.6246 13.311 29.9334C16.9362 30.2421 20.5454 29.1806 23.4262 26.9583C26.307 24.7361 28.25 21.5145 28.8716 17.9297C28.896 17.7421 28.9159 17.5565 28.9376 17.367C29.2371 14.8918 28.9129 12.381 27.9945 10.063L27.993 10.0649Z" fill="url(#paint1_radial)"/>
<path d="M27.993 10.0649C27.3613 8.54483 26.0798 6.90359 25.0763 6.38477C25.7919 7.7705 26.2886 9.25868 26.5487 10.7964V10.8103L26.5513 10.8257C27.6722 14.0328 27.5101 17.549 26.0989 20.6394C24.4326 24.2148 20.4005 27.8796 14.0869 27.6995C7.26686 27.5063 1.25711 22.4438 0.135441 15.8151C-0.069011 14.7695 0.135441 14.2395 0.238229 13.3898C0.0980206 14.0498 0.0197765 14.7214 0.0045166 15.396V15.471C0.0109421 19.1094 1.38113 22.6131 3.84459 25.2905C6.30805 27.968 9.68577 29.6246 13.311 29.9334C16.9362 30.2421 20.5454 29.1806 23.4262 26.9583C26.307 24.7361 28.25 21.5145 28.8716 17.9297C28.896 17.7421 28.9159 17.5565 28.9376 17.367C29.2371 14.8918 28.9129 12.381 27.9945 10.063L27.993 10.0649Z" fill="url(#paint2_radial)"/>
<path d="M20.9253 11.7719C20.9568 11.794 20.9861 11.8162 21.0157 11.8383C20.6505 11.1907 20.1959 10.5978 19.6652 10.077C15.1448 5.55658 18.4809 0.278354 19.0432 0.00825309L19.0489 0C15.3969 2.1383 14.157 6.09604 14.0445 8.07678C14.2141 8.06515 14.3821 8.05089 14.5554 8.05089C15.8511 8.0534 17.123 8.39894 18.2419 9.05239C19.3607 9.70583 20.2866 10.6439 20.9253 11.7712V11.7719Z" fill="url(#paint3_radial)"/>
<path d="M14.5629 12.6757C14.5389 13.0373 13.2612 14.2846 12.8144 14.2846C8.68035 14.2846 8.00885 16.7857 8.00885 16.7857C8.19192 18.8917 9.65947 20.6271 11.4335 21.5425C11.5145 21.5845 11.5967 21.6224 11.6789 21.6595C11.8212 21.7226 11.9635 21.7808 12.1058 21.8343C12.7146 22.0498 13.3523 22.1728 13.9976 22.1994C21.2453 22.5392 22.6483 13.5336 17.4185 10.9189C18.6522 10.7584 19.9015 11.0617 20.9242 11.7701C20.2854 10.6428 19.3596 9.70474 18.2407 9.0513C17.1219 8.39785 15.85 8.05231 14.5543 8.0498C14.3817 8.0498 14.2129 8.06406 14.0434 8.07569C12.5844 8.17571 11.1895 8.71315 10.0406 9.61789C10.2623 9.80546 10.5125 10.0561 11.0396 10.5756C12.0262 11.5476 14.5566 12.5545 14.5622 12.6727L14.5629 12.6757Z" fill="url(#paint4_radial)"/>
<path d="M14.5629 12.6757C14.5389 13.0373 13.2612 14.2846 12.8144 14.2846C8.68035 14.2846 8.00885 16.7857 8.00885 16.7857C8.19192 18.8917 9.65947 20.6271 11.4335 21.5425C11.5145 21.5845 11.5967 21.6224 11.6789 21.6595C11.8212 21.7226 11.9635 21.7808 12.1058 21.8343C12.7146 22.0498 13.3523 22.1728 13.9976 22.1994C21.2453 22.5392 22.6483 13.5336 17.4185 10.9189C18.6522 10.7584 19.9015 11.0617 20.9242 11.7701C20.2854 10.6428 19.3596 9.70474 18.2407 9.0513C17.1219 8.39785 15.85 8.05231 14.5543 8.0498C14.3817 8.0498 14.2129 8.06406 14.0434 8.07569C12.5844 8.17571 11.1895 8.71315 10.0406 9.61789C10.2623 9.80546 10.5125 10.0561 11.0396 10.5756C12.0262 11.5476 14.5566 12.5545 14.5622 12.6727L14.5629 12.6757Z" fill="url(#paint5_radial)"/>
<path d="M9.36351 9.13869C9.48131 9.21372 9.57847 9.27899 9.66362 9.33789C9.33237 8.1783 9.31825 6.95108 9.62273 5.78418C8.28155 6.43385 7.08985 7.35487 6.12305 8.48894C6.19395 8.48707 8.30299 8.44918 9.36351 9.13869Z" fill="url(#paint6_radial)"/>
<path d="M0.13279 15.8158C1.25484 22.4445 7.26421 27.5089 14.0843 27.7003C20.3979 27.8788 24.4307 24.2137 26.0963 20.6401C27.5074 17.5497 27.6695 14.0335 26.5487 10.8264V10.8125C26.5487 10.8017 26.5464 10.7953 26.5487 10.7987L26.5513 10.8231C27.0671 14.1907 25.3542 17.4518 22.6761 19.6614L22.6679 19.6801C17.4497 23.9305 12.4565 22.2438 11.4474 21.5558C11.3769 21.5221 11.3064 21.4869 11.2358 21.4504C8.19381 19.9964 6.93672 17.2263 7.20682 14.8479C6.48471 14.8586 5.77501 14.6596 5.16371 14.2751C4.5524 13.8906 4.06573 13.337 3.76265 12.6815C4.56125 12.1923 5.47182 11.9157 6.40759 11.8782C7.34336 11.8406 8.27317 12.0433 9.10841 12.4669C10.83 13.2484 12.789 13.3254 14.5667 12.6815C14.5611 12.5633 12.0308 11.5561 11.0441 10.5845C10.5171 10.0649 10.2668 9.81468 10.0451 9.62673C9.92531 9.52524 9.80008 9.43031 9.66999 9.34237C9.58371 9.28348 9.48655 9.2197 9.36988 9.14317C8.30936 8.45366 6.20031 8.49155 6.13054 8.49343H6.12379C5.54757 7.76303 5.58809 5.35463 5.6211 4.85156C5.45063 4.92007 5.28791 5.00646 5.13567 5.10928C4.62699 5.47232 4.15145 5.87969 3.71463 6.32662C3.21507 6.82988 2.75855 7.37411 2.34987 7.9536V7.95585V7.95323C1.41522 9.27808 0.752221 10.7749 0.39914 12.3574C0.392013 12.387 -0.124556 14.6454 0.130164 15.8166L0.13279 15.8158Z" fill="url(#paint7_radial)"/>
<path d="M19.6649 10.0762C20.1956 10.5975 20.6503 11.1911 21.0154 11.8393C21.0953 11.8997 21.1699 11.9597 21.2333 12.0179C24.5297 15.0565 22.8025 19.3519 22.6739 19.6558C25.3516 17.4496 27.063 14.1862 26.5491 10.8174C24.9044 6.71715 22.1149 5.06278 19.8415 1.46518C19.7264 1.28324 19.6112 1.10092 19.499 0.908475C19.4349 0.798559 19.3835 0.699522 19.3389 0.608363C19.2444 0.425502 19.1717 0.232248 19.122 0.0325218C19.1221 0.0233054 19.1188 0.014387 19.1127 0.00746796C19.1066 0.000548911 19.0982 -0.00388655 19.089 -0.00499231C19.0801 -0.00745048 19.0706 -0.00745048 19.0616 -0.00499231C19.0598 -0.00499231 19.0568 -0.00161604 19.0545 -0.00086576C19.0523 -0.000115479 19.0474 0.00326079 19.044 0.00476135C18.4817 0.271486 15.1463 5.55309 19.6667 10.0698L19.6649 10.0762Z" fill="url(#paint8_radial)"/>
<path d="M21.2329 12.02C21.1696 11.9618 21.0949 11.9018 21.015 11.8414C20.9854 11.8193 20.9561 11.7971 20.9246 11.775C19.9019 11.0666 18.6526 10.7633 17.4189 10.9238C22.6484 13.5385 21.2453 22.5419 13.998 22.2043C13.3527 22.1778 12.715 22.0547 12.1062 21.8393C11.9638 21.786 11.8215 21.7277 11.6792 21.6645C11.5971 21.6269 11.5149 21.5894 11.4339 21.5474L11.444 21.5538C12.4547 22.2437 17.4463 23.9292 22.6645 19.6781L22.6727 19.6593C22.8029 19.3555 24.5301 15.0601 21.2322 12.0215L21.2329 12.02Z" fill="url(#paint9_radial)"/>
<path d="M8.00925 16.784C8.00925 16.784 8.68037 14.2829 12.8148 14.2829C13.2616 14.2829 14.5404 13.0356 14.5633 12.6739C12.7857 13.3178 10.8267 13.2408 9.10503 12.4594C8.26979 12.0357 7.33999 11.8331 6.40422 11.8706C5.46844 11.9082 4.55788 12.1847 3.75928 12.6739C4.06235 13.3295 4.54903 13.883 5.16033 14.2675C5.77164 14.6521 6.48134 14.851 7.20344 14.8404C6.93409 17.2177 8.19081 19.9873 11.2325 21.4429C11.3004 21.4755 11.3641 21.5108 11.4339 21.5419C9.65836 20.6247 8.19231 18.89 8.00925 16.7851V16.784Z" fill="url(#paint10_radial)"/>
<path d="M27.993 10.0646C27.3613 8.54455 26.0798 6.90331 25.0763 6.38449C25.7919 7.77022 26.2886 9.2584 26.5487 10.7961L26.5513 10.8205C24.9075 6.72399 22.1209 5.06962 19.8438 1.47202C19.7287 1.29008 19.6135 1.10776 19.5013 0.915311C19.4372 0.805395 19.3858 0.706358 19.3411 0.615199C19.2467 0.432338 19.1739 0.239084 19.1243 0.0393577C19.1244 0.0301413 19.121 0.0212229 19.115 0.0143039C19.1089 0.00738485 19.1004 0.00294938 19.0913 0.00184363C19.0823 -0.000614543 19.0729 -0.000614543 19.0639 0.00184363C19.062 0.00184363 19.059 0.0052199 19.0568 0.00597018C19.0545 0.00672046 19.0496 0.0100967 19.0463 0.0115973L19.0519 0.00184363C15.3999 2.14015 14.1601 6.09788 14.0475 8.07862C14.2171 8.06699 14.3851 8.05274 14.5585 8.05274C15.8541 8.05524 17.1261 8.40078 18.2449 9.05423C19.3637 9.70768 20.2896 10.6457 20.9284 11.773C19.9057 11.0646 18.6563 10.7613 17.4227 10.9218C22.6521 13.5365 21.2491 22.5399 14.0018 22.2023C13.3565 22.1758 12.7188 22.0527 12.1099 21.8373C11.9676 21.784 11.8253 21.7257 11.683 21.6625C11.6009 21.625 11.5187 21.5874 11.4377 21.5454L11.4478 21.5518C11.3773 21.518 11.3067 21.4829 11.2362 21.4464C11.3041 21.479 11.3679 21.5143 11.4377 21.5454C9.66213 20.6278 8.19608 18.8932 8.01301 16.7886C8.01301 16.7886 8.68414 14.2876 12.8186 14.2876C13.2654 14.2876 14.5442 13.0402 14.5671 12.6786C14.5615 12.5604 12.0311 11.5532 11.0445 10.5816C10.5175 10.062 10.2672 9.81177 10.0455 9.62383C9.9257 9.52234 9.80047 9.42741 9.67038 9.33947C9.33913 8.17988 9.32501 6.95266 9.62949 5.78576C8.28831 6.43543 7.09661 7.35645 6.12981 8.49053H6.12305C5.54684 7.76013 5.58735 5.35172 5.62036 4.84866C5.4499 4.91717 5.28718 5.00356 5.13493 5.10638C4.62625 5.46942 4.15072 5.87679 3.7139 6.32371C3.21612 6.82839 2.76149 7.37388 2.35477 7.95445V7.9567V7.95408C1.42011 9.27893 0.757115 10.7758 0.404034 12.3582L0.384527 12.4543C0.357141 12.5822 0.23447 13.2319 0.216839 13.3715C0.104634 14.0422 0.0329776 14.719 0.0022583 15.3984V15.4734C0.00868384 19.1117 1.37887 22.6154 3.84233 25.2929C6.30579 27.9703 9.68351 29.6269 13.3087 29.9357C16.9339 30.2445 20.5431 29.183 23.4239 26.9607C26.3047 24.7384 28.2477 21.5169 28.8693 17.9321C28.8937 17.7445 28.9136 17.5588 28.9354 17.3694C29.2348 14.8941 28.9106 12.3833 27.9923 10.0654L27.993 10.0646ZM26.5506 10.8115L26.5532 10.8269L26.5506 10.8115Z" fill="url(#paint11_linear)"/>
</g>
<defs>
<linearGradient id="paint0_linear" x1="26.0686" y1="4.64605" x2="1.93088" y2="27.9348" gradientUnits="userSpaceOnUse">
<stop offset="0.048" stop-color="#FFF44F"/>
<stop offset="0.111" stop-color="#FFE847"/>
<stop offset="0.225" stop-color="#FFC830"/>
<stop offset="0.368" stop-color="#FF980E"/>
<stop offset="0.401" stop-color="#FF8B16"/>
<stop offset="0.462" stop-color="#FF672A"/>
<stop offset="0.534" stop-color="#FF3647"/>
<stop offset="0.705" stop-color="#E31587"/>
</linearGradient>
<radialGradient id="paint1_radial" cx="0" cy="0" r="1" gradientUnits="userSpaceOnUse" gradientTransform="translate(25.1344 3.37614) scale(30.3114)">
<stop offset="0.129" stop-color="#FFBD4F"/>
<stop offset="0.186" stop-color="#FFAC31"/>
<stop offset="0.247" stop-color="#FF9D17"/>
<stop offset="0.283" stop-color="#FF980E"/>
<stop offset="0.403" stop-color="#FF563B"/>
<stop offset="0.467" stop-color="#FF3750"/>
<stop offset="0.71" stop-color="#F5156C"/>
<stop offset="0.782" stop-color="#EB0878"/>
<stop offset="0.86" stop-color="#E50080"/>
</radialGradient>
<radialGradient id="paint2_radial" cx="0" cy="0" r="1" gradientUnits="userSpaceOnUse" gradientTransform="translate(13.8802 15.7558) scale(30.3114)">
<stop offset="0.3" stop-color="#960E18"/>
<stop offset="0.351" stop-color="#B11927" stop-opacity="0.74"/>
<stop offset="0.435" stop-color="#DB293D" stop-opacity="0.343"/>
<stop offset="0.497" stop-color="#F5334B" stop-opacity="0.094"/>
<stop offset="0.53" stop-color="#FF3750" stop-opacity="0"/>
</radialGradient>
<radialGradient id="paint3_radial" cx="0" cy="0" r="1" gradientUnits="userSpaceOnUse" gradientTransform="translate(17.6316 -3.37627) scale(21.957)">
<stop offset="0.132" stop-color="#FFF44F"/>
<stop offset="0.252" stop-color="#FFDC3E"/>
<stop offset="0.506" stop-color="#FF9D12"/>
<stop offset="0.526" stop-color="#FF980E"/>
</radialGradient>
<radialGradient id="paint4_radial" cx="0" cy="0" r="1" gradientUnits="userSpaceOnUse" gradientTransform="translate(10.5039 23.6335) scale(14.4317)">
<stop offset="0.353" stop-color="#3A8EE6"/>
<stop offset="0.472" stop-color="#5C79F0"/>
<stop offset="0.669" stop-color="#9059FF"/>
<stop offset="1" stop-color="#C139E6"/>
</radialGradient>
<radialGradient id="paint5_radial" cx="0" cy="0" r="1" gradientUnits="userSpaceOnUse" gradientTransform="translate(15.3462 13.1536) rotate(-13.5916) scale(7.6529 8.95964)">
<stop offset="0.206" stop-color="#9059FF" stop-opacity="0"/>
<stop offset="0.278" stop-color="#8C4FF3" stop-opacity="0.064"/>
<stop offset="0.747" stop-color="#7716A8" stop-opacity="0.45"/>
<stop offset="0.975" stop-color="#6E008B" stop-opacity="0.6"/>
</radialGradient>
<radialGradient id="paint6_radial" cx="0" cy="0" r="1" gradientUnits="userSpaceOnUse" gradientTransform="translate(13.5051 2.2511) scale(10.3839)">
<stop stop-color="#FFE226"/>
<stop offset="0.121" stop-color="#FFDB27"/>
<stop offset="0.295" stop-color="#FFC82A"/>
<stop offset="0.502" stop-color="#FFA930"/>
<stop offset="0.732" stop-color="#FF7E37"/>
<stop offset="0.792" stop-color="#FF7139"/>
</radialGradient>
<radialGradient id="paint7_radial" cx="0" cy="0" r="1" gradientUnits="userSpaceOnUse" gradientTransform="translate(21.7582 -4.50182) scale(44.3041)">
<stop offset="0.113" stop-color="#FFF44F"/>
<stop offset="0.456" stop-color="#FF980E"/>
<stop offset="0.622" stop-color="#FF5634"/>
<stop offset="0.716" stop-color="#FF3647"/>
<stop offset="0.904" stop-color="#E31587"/>
</radialGradient>
<radialGradient id="paint8_radial" cx="0" cy="0" r="1" gradientUnits="userSpaceOnUse" gradientTransform="translate(18.0758 -2.04538) rotate(83.976) scale(32.4667 21.3076)">
<stop stop-color="#FFF44F"/>
<stop offset="0.06" stop-color="#FFE847"/>
<stop offset="0.168" stop-color="#FFC830"/>
<stop offset="0.304" stop-color="#FF980E"/>
<stop offset="0.356" stop-color="#FF8B16"/>
<stop offset="0.455" stop-color="#FF672A"/>
<stop offset="0.57" stop-color="#FF3647"/>
<stop offset="0.737" stop-color="#E31587"/>
</radialGradient>
<radialGradient id="paint9_radial" cx="0" cy="0" r="1" gradientUnits="userSpaceOnUse" gradientTransform="translate(13.5051 6.00271) scale(27.6554)">
<stop offset="0.137" stop-color="#FFF44F"/>
<stop offset="0.48" stop-color="#FF980E"/>
<stop offset="0.592" stop-color="#FF5634"/>
<stop offset="0.655" stop-color="#FF3647"/>
<stop offset="0.904" stop-color="#E31587"/>
</radialGradient>
<radialGradient id="paint10_radial" cx="0" cy="0" r="1" gradientUnits="userSpaceOnUse" gradientTransform="translate(20.6327 7.50301) scale(30.2701)">
<stop offset="0.094" stop-color="#FFF44F"/>
<stop offset="0.231" stop-color="#FFE141"/>
<stop offset="0.509" stop-color="#FFAF1E"/>
<stop offset="0.626" stop-color="#FF980E"/>
</radialGradient>
<linearGradient id="paint11_linear" x1="25.7759" y1="4.52226" x2="5.24072" y2="25.0612" gradientUnits="userSpaceOnUse">
<stop offset="0.167" stop-color="#FFF44F" stop-opacity="0.8"/>
<stop offset="0.266" stop-color="#FFF44F" stop-opacity="0.634"/>
<stop offset="0.489" stop-color="#FFF44F" stop-opacity="0.217"/>
<stop offset="0.6" stop-color="#FFF44F" stop-opacity="0"/>
</linearGradient>
<clipPath id="clip0">
<rect width="29.0434" height="30" fill="white"/>
</clipPath>
</defs>
</svg>
