<svg xmlns="http://www.w3.org/2000/svg" viewBox="0 0 394.451 344.635">
  <g transform="translate(0 0.454)">
    <g transform="translate(0 0)">
      <ellipse style="fill:#dceaea;" cx="2.622" cy="2.622" rx="2.622" ry="2.622" transform="translate(28.321 130.557)"/>
      <circle style="fill:#dceaea;" cx="2.098" cy="2.098" r="2.098" transform="translate(0 124.263)"/>
      <path style="fill:none;stroke:#dceaea;stroke-width:0.5px;" d="M-2735.5,225.7l26.411-57.088,50.266,23.945,119.187-6.984s61.98-17.135,59.819-16.961-131.52-36.739-131.52-36.739l79.428,99.782-41.75,36.075-59.456,75.809,33.133,97.832,64.937-44.716s40.193,57.461,38.5,57.461-54.173,20.933-54.629,19.182,5.726-39.826,5.726-39.826l52.507-33.26" transform="translate(2826.29 -131.869)"/>
      <path style="fill:none;stroke:#dceaea;stroke-width:0.5px;" d="M-2788.283,279.835l-4.649-38.459,59.015-19.259,31,33.369,28.311,32.29,103.975-24.114,135.71,46.641v57.315l-63.107-4.883-33.236,29.326" transform="translate(2823.481 -127.455)"/>
      <path style="fill:none;stroke:#dceaea;stroke-width:0.5px;" d="M-2490.208,362.48l63.115-51.328-101.157,18.615-35.684-66.143-164.27-42.3-27.755,105.065-53.806-52.976,29.636,7.41,59.018,18.76,52.973-12.27,137.894,42.458" transform="translate(2816.69 -127.494)"/>
      <circle style="fill:#dceaea;" cx="2.098" cy="2.098" r="2.098" transform="translate(343.054 34.751)"/>
      <circle style="fill:#3ad4a1;" cx="1.049" cy="1.049" r="1.049" transform="translate(328.37 320.056)"/>
      <circle style="fill:#dceaea;" cx="1.049" cy="1.049" r="1.049" transform="translate(286.413 52.583)"/>
      <circle style="fill:#dceaea;" cx="2.098" cy="2.098" r="2.098" transform="translate(273.826 339.985)"/>
      <circle style="fill:#dceaea;" cx="2.098" cy="2.098" r="2.098" transform="translate(278.022 299.078)"/>
      <circle style="fill:#dceaea;" cx="2.098" cy="2.098" r="2.098" transform="translate(292.707 96.637)"/>
      <circle style="fill:#dceaea;" cx="3.147" cy="3.147" r="3.147" transform="translate(330.467 264.463)"/>
      <ellipse style="fill:#dceaea;" cx="5.769" cy="5.769" rx="5.769" ry="5.769" transform="translate(160.544 54.681)"/>
      <circle style="fill:#dceaea;" cx="2.098" cy="2.098" r="2.098" transform="translate(87.483 217.382)"/>
      <circle style="fill:#dceaea;" cx="2.098" cy="2.098" r="2.098" transform="translate(114.391 34.751)"/>
      <ellipse style="fill:#dceaea;" cx="3.671" cy="3.671" rx="3.671" ry="3.671" transform="translate(222.429 305.371)"/>
      <ellipse style="fill:#dceaea;" cx="5.245" cy="5.245" rx="5.245" ry="5.245" transform="translate(286.413 258.17)"/>
      <circle style="fill:#dceaea;" cx="2.098" cy="2.098" r="2.098" transform="translate(324.174 232.996)"/>
      <circle style="fill:#dceaea;" cx="2.098" cy="2.098" r="2.098" transform="translate(94.462 170.061)"/>
      <ellipse style="fill:#dceaea;" cx="3.671" cy="3.671" rx="3.671" ry="3.671" transform="translate(387.109 180.55)"/>
      <circle style="fill:#dceaea;" cx="2.098" cy="2.098" r="2.098" transform="translate(118.587 126.007)"/>
      <circle style="fill:#dceaea;" cx="2.098" cy="2.098" r="2.098" transform="translate(286.413 200.48)"/>
      <circle style="fill:#dceaea;" cx="2.098" cy="2.098" r="2.098" transform="translate(387.109 238.241)"/>
      <circle style="fill:#dceaea;" cx="2.098" cy="2.098" r="2.098" transform="translate(250.75 134.398)"/>
      <circle style="fill:#dceaea;" cx="4.681" cy="4.681" r="4.681" transform="translate(54.868 192.825)"/>
      <ellipse style="fill:#dceaea;" cx="5.769" cy="5.769" rx="5.769" ry="5.769" transform="translate(85.022 88.246)"/>
      <ellipse style="fill:#dceaea;" cx="2.622" cy="2.622" rx="2.622" ry="2.622" transform="translate(146.908 157.474)"/>
    </g>
    <rect style="fill:#fff;" width="18.712" height="2.673" rx="1" transform="matrix(0.995, -0.105, 0.105, 0.995, 210.522, 110.849)"/>
  </g>
</svg>
