<svg width="19" height="18" viewBox="0 0 19 18" fill="none" xmlns="http://www.w3.org/2000/svg">
<path d="M18.3914 0.149012C18.3384 0.0951085 18.2704 0.0584617 18.1963 0.0438739C18.1222 0.0292861 18.0453 0.0374378 17.9759 0.0672608L0.725732 7.49158C0.66101 7.51967 0.605523 7.56544 0.565646 7.62364C0.525769 7.68184 0.50312 7.75011 0.5003 7.82061C0.49748 7.89111 0.514604 7.96097 0.549705 8.02217C0.584806 8.08337 0.63646 8.13343 0.698732 8.16659L5.70128 10.8149C5.73347 10.833 5.77032 10.8412 5.80717 10.8384C5.84402 10.8356 5.87921 10.8219 5.90828 10.7991L13.6259 4.57406C13.6618 4.54428 13.7076 4.52899 13.7542 4.53118C13.8009 4.53336 13.845 4.55287 13.878 4.58589C13.911 4.6189 13.9306 4.66305 13.9327 4.70968C13.9349 4.75632 13.9196 4.8021 13.8899 4.83806L7.6648 12.5556C7.64171 12.5842 7.62754 12.6189 7.62408 12.6554C7.62061 12.692 7.62799 12.7288 7.6453 12.7611L10.2936 17.7637C10.3255 17.8239 10.3732 17.8743 10.4316 17.9095C10.49 17.9446 10.5569 17.9632 10.6251 17.9632H10.6393C10.7098 17.9604 10.7781 17.9379 10.8363 17.8981C10.8946 17.8583 10.9404 17.8029 10.9686 17.7382L18.4687 0.563016C18.4987 0.494205 18.5074 0.417958 18.4936 0.344145C18.4799 0.270333 18.4443 0.202354 18.3914 0.149012Z" fill="#67738B"/>
</svg>
