<svg width="24" height="24" viewBox="0 0 24 24" fill="none" xmlns="http://www.w3.org/2000/svg">
<path d="M20.8914 3.14906C20.8384 3.09515 20.7704 3.05851 20.6963 3.04392C20.6222 3.02933 20.5453 3.03748 20.4759 3.06731L3.22573 10.4916C3.16101 10.5197 3.10552 10.5655 3.06565 10.6237C3.02577 10.6819 3.00312 10.7502 3.0003 10.8207C2.99748 10.8912 3.0146 10.961 3.04971 11.0222C3.08481 11.0834 3.13646 11.1335 3.19873 11.1666L8.20128 13.8149C8.23347 13.8331 8.27032 13.8413 8.30717 13.8385C8.34402 13.8356 8.37921 13.822 8.40828 13.7992L16.1259 7.5741C16.1618 7.54432 16.2076 7.52903 16.2542 7.53122C16.3009 7.53341 16.345 7.55292 16.378 7.58593C16.411 7.61895 16.4306 7.66309 16.4327 7.70973C16.4349 7.75637 16.4196 7.80214 16.3899 7.8381L10.1648 15.5557C10.1417 15.5842 10.1275 15.6189 10.1241 15.6555C10.1206 15.692 10.128 15.7288 10.1453 15.7612L12.7936 20.7637C12.8255 20.824 12.8732 20.8744 12.9316 20.9095C12.99 20.9447 13.0569 20.9633 13.1251 20.9632H13.1393C13.2098 20.9605 13.2781 20.9379 13.3363 20.8981C13.3946 20.8583 13.4404 20.8029 13.4686 20.7382L20.9687 3.56306C20.9987 3.49425 21.0074 3.418 20.9936 3.34419C20.9799 3.27038 20.9443 3.2024 20.8914 3.14906Z" fill="#4E5666"/>
</svg>
