<svg xmlns="http://www.w3.org/2000/svg" xmlns:xlink="http://www.w3.org/1999/xlink" viewBox="0 0 149.66 149.661">
  <defs>
    <clipPath id="talk">
      <circle style="stroke:#707070;" cx="74.83" cy="74.83" r="74.83" transform="translate(0 0)"/>
    </clipPath>
  </defs>
  <g transform="translate(-999 -889)">
    <g style="clip-path:url(#talk);" transform="translate(999 889)">
      <circle style="fill:#fff;" cx="79.71" cy="79.71" r="79.71" transform="translate(-3.253 -4.338)"/>
    </g>
    <g transform="translate(1032 921)">
      <path style="fill:#3dddc8;" d="M299.346,78.224a8.635,8.635,0,0,0-8.635-8.636H272V48h30.224a4.318,4.318,0,0,1,4.318,4.318V76.785a17.482,17.482,0,0,1-1.259,5.927,8.671,8.671,0,0,1-8.111,5.587h-2.143l2.837-4.728A10.391,10.391,0,0,0,299.346,78.224Zm0,0" transform="translate(-223.066 -39.364)"/>
      <path style="fill:#12a391;" d="M17.271,48.935c0-.233-5.757-2.879-5.724-6.464.036-3.755,3.709-6.489,7.472-6.489h25.6a4.318,4.318,0,0,0,4.318-4.318V4.318A4.318,4.318,0,0,0,44.617,0H4.318A4.318,4.318,0,0,0,0,4.318V35.981a20.566,20.566,0,0,0,.176,2.734,11.041,11.041,0,0,0,9.766,9.4Zm0,0" transform="translate(0)"/>
      <path style="fill:#91773f;" d="M79.664,275.123v-5.757a5.757,5.757,0,0,0-5.757-5.757,5.757,5.757,0,0,1-5.757-5.757V257.1a12.953,12.953,0,1,0-8.636,0v.753a5.757,5.757,0,0,1-5.757,5.757A5.757,5.757,0,0,0,48,269.366v5.757Zm0,0" transform="translate(-39.365 -190.207)"/>
      <path style="fill:#e8bd79;" d="M295.664,275.123v-5.757c0-3.179-2.578-7.2-5.757-7.2s-5.757-1.138-5.757-4.318V257.1a12.953,12.953,0,1,0-8.636,0v.753c0,3.179-2.578,4.318-5.757,4.318s-5.757,4.017-5.757,7.2v5.757Zm0,0" transform="translate(-216.505 -190.207)"/>
      <path style="fill:#212121;" d="M76.953,232A12.953,12.953,0,0,0,64,244.953h5.757l4.318-2.879,4.318,2.879H89.907A12.953,12.953,0,0,0,76.953,232Zm0,0" transform="translate(-52.486 -190.262)"/><path style="fill:#6b4a08;" d="M281.271,232H264a11.544,11.544,0,0,0,11.514,11.514h17.241A11.488,11.488,0,0,0,281.271,232Zm0,0" transform="translate(-216.505 -190.262)"/>
      <path style="fill:#2bbfac;" d="M272,48h1.439V69.589H272Zm0,0" transform="translate(-223.066 -39.364)"/>
      <path style="fill:#ffdd57;" d="M73.907,403.368a5.72,5.72,0,0,1-3.259-1.016l-6.816,3.895-6.816-3.895a5.72,5.72,0,0,1-3.259,1.016A5.757,5.757,0,0,0,48,409.125v5.757H79.664v-5.757A5.757,5.757,0,0,0,73.907,403.368Zm0,0" transform="translate(-39.365 -329.966)"/>
      <path style="fill:#209cee;" d="M289.907,399.029a10.307,10.307,0,0,1-2.148-.213l-7.927,4.531-7.927-4.531a10.3,10.3,0,0,1-2.148.213c-3.179,0-5.757,4.017-5.757,7.2v5.757h31.664v-5.757C295.664,403.046,293.086,399.029,289.907,399.029Zm0,0" transform="translate(-216.505 -327.066)"/>
    </g>
  </g>
</svg>
