<svg width="155" height="25" viewBox="0 0 155 25" fill="none" xmlns="http://www.w3.org/2000/svg">
<path d="M92.0982 9.65974H90.826V0.262315H92.0982V9.65974Z" fill="white"/>
<path d="M95.2258 3.98063C95.3701 3.81887 95.5231 3.67241 95.6849 3.54125C95.8466 3.41009 96.0171 3.29861 96.1964 3.2068C96.38 3.11062 96.5724 3.03848 96.7735 2.99039C96.9789 2.93792 97.1997 2.91169 97.4358 2.91169C97.7987 2.91169 98.1178 2.9729 98.3933 3.09531C98.6731 3.21336 98.9048 3.38386 99.0884 3.60683C99.2764 3.82542 99.4185 4.08992 99.5147 4.40033C99.6108 4.71074 99.6589 5.05393 99.6589 5.42992V9.65974H98.4851V5.42992C98.4851 4.92715 98.3692 4.53805 98.1375 4.26262C97.9102 3.98281 97.5626 3.84291 97.0948 3.84291C96.7494 3.84291 96.4259 3.92598 96.1242 4.09211C95.8269 4.25824 95.5515 4.4834 95.2979 4.76757V9.65974H94.1241V3.01662H94.8258C94.9919 3.01662 95.0946 3.0975 95.134 3.25926L95.2258 3.98063Z" fill="white"/>
<path d="M103.387 9.76467C102.863 9.76467 102.458 9.61821 102.174 9.32529C101.894 9.03237 101.755 8.61048 101.755 8.05962V3.99374H100.955C100.885 3.99374 100.826 3.97407 100.777 3.93472C100.729 3.891 100.705 3.82542 100.705 3.73798V3.27238L101.794 3.13466L102.063 1.08205C102.076 1.01647 102.104 0.964008 102.148 0.924661C102.196 0.880942 102.257 0.859081 102.332 0.859081H102.922V3.14778H104.843V3.99374H102.922V7.98093C102.922 8.26073 102.99 8.46839 103.125 8.60392C103.261 8.73945 103.436 8.80722 103.65 8.80722C103.772 8.80722 103.877 8.79192 103.965 8.76131C104.056 8.72634 104.135 8.68917 104.201 8.64983C104.266 8.61048 104.321 8.57551 104.365 8.5449C104.413 8.50993 104.454 8.49244 104.489 8.49244C104.55 8.49244 104.605 8.5296 104.653 8.60392L104.994 9.16134C104.793 9.34933 104.55 9.49798 104.266 9.60728C103.982 9.7122 103.689 9.76467 103.387 9.76467Z" fill="white"/>
<path d="M110.456 5.61354C110.456 5.34248 110.417 5.09546 110.338 4.8725C110.264 4.64516 110.153 4.45061 110.004 4.28885C109.86 4.12271 109.683 3.99593 109.473 3.90849C109.263 3.81668 109.025 3.77077 108.758 3.77077C108.198 3.77077 107.755 3.93472 107.427 4.26262C107.103 4.58614 106.902 5.03644 106.823 5.61354H110.456ZM111.401 8.72852C111.257 8.9034 111.084 9.05642 110.883 9.18757C110.682 9.31436 110.465 9.41929 110.233 9.50235C110.006 9.58542 109.77 9.64662 109.525 9.68597C109.28 9.72969 109.038 9.75155 108.797 9.75155C108.338 9.75155 107.914 9.67504 107.525 9.52203C107.14 9.36464 106.806 9.1373 106.522 8.84001C106.242 8.53834 106.023 8.16673 105.866 7.72517C105.709 7.28361 105.63 6.77646 105.63 6.20374C105.63 5.74032 105.7 5.3075 105.84 4.90529C105.984 4.50307 106.189 4.1555 106.456 3.86259C106.723 3.5653 107.049 3.33358 107.433 3.16745C107.818 2.99695 108.251 2.91169 108.732 2.91169C109.13 2.91169 109.497 2.97946 109.833 3.11499C110.174 3.24615 110.467 3.43851 110.712 3.69208C110.961 3.94128 111.156 4.25169 111.296 4.6233C111.436 4.99054 111.506 5.41024 111.506 5.88241C111.506 6.06603 111.486 6.18844 111.447 6.24965C111.407 6.31086 111.333 6.34146 111.224 6.34146H106.784C106.797 6.76116 106.854 7.12622 106.955 7.43662C107.059 7.74703 107.204 8.00716 107.387 8.21701C107.571 8.42249 107.79 8.57769 108.043 8.68262C108.297 8.78317 108.581 8.83345 108.896 8.83345C109.189 8.83345 109.44 8.80066 109.65 8.73508C109.864 8.66513 110.048 8.59081 110.201 8.51211C110.354 8.43342 110.481 8.36128 110.581 8.2957C110.686 8.22575 110.776 8.19078 110.85 8.19078C110.946 8.19078 111.02 8.22794 111.073 8.30226L111.401 8.72852Z" fill="white"/>
<path d="M114.146 0V9.65974H112.979V0H114.146Z" fill="white"/>
<path d="M117.272 3.01662V9.65974H116.105V3.01662H117.272ZM117.521 0.931217C117.521 1.04489 117.497 1.152 117.449 1.25255C117.405 1.34873 117.344 1.43617 117.265 1.51487C117.191 1.58919 117.102 1.64821 116.997 1.69193C116.896 1.73565 116.789 1.75751 116.675 1.75751C116.562 1.75751 116.454 1.73565 116.354 1.69193C116.258 1.64821 116.172 1.58919 116.098 1.51487C116.024 1.43617 115.965 1.34873 115.921 1.25255C115.877 1.152 115.856 1.04489 115.856 0.931217C115.856 0.817547 115.877 0.710437 115.921 0.609883C115.965 0.504957 116.024 0.415332 116.098 0.341009C116.172 0.262316 116.258 0.201108 116.354 0.157388C116.454 0.113669 116.562 0.0918098 116.675 0.0918098C116.789 0.0918098 116.896 0.113669 116.997 0.157388C117.102 0.201108 117.191 0.262316 117.265 0.341009C117.344 0.415332 117.405 0.504957 117.449 0.609883C117.497 0.710437 117.521 0.817547 117.521 0.931217Z" fill="white"/>
<path d="M121.505 6.4136C121.741 6.4136 121.949 6.38081 122.128 6.31523C122.307 6.24965 122.458 6.15784 122.58 6.0398C122.703 5.92176 122.795 5.78185 122.856 5.62009C122.917 5.45396 122.948 5.27253 122.948 5.07579C122.948 4.6692 122.823 4.34568 122.574 4.10523C122.329 3.86477 121.973 3.74454 121.505 3.74454C121.033 3.74454 120.672 3.86477 120.423 4.10523C120.178 4.34568 120.056 4.6692 120.056 5.07579C120.056 5.27253 120.086 5.45396 120.147 5.62009C120.213 5.78185 120.307 5.92176 120.429 6.0398C120.552 6.15784 120.703 6.24965 120.882 6.31523C121.061 6.38081 121.269 6.4136 121.505 6.4136ZM123.61 10.0204C123.61 9.85866 123.564 9.7275 123.472 9.62695C123.38 9.5264 123.256 9.4477 123.098 9.39087C122.945 9.33403 122.766 9.29469 122.561 9.27283C122.355 9.24659 122.137 9.22692 121.905 9.21381C121.678 9.20069 121.446 9.18757 121.21 9.17446C120.974 9.16134 120.746 9.13948 120.528 9.10888C120.283 9.22255 120.082 9.36682 119.924 9.5417C119.771 9.7122 119.695 9.91331 119.695 10.145C119.695 10.2937 119.732 10.4314 119.806 10.5582C119.885 10.6893 120.003 10.8008 120.161 10.8926C120.318 10.9888 120.515 11.0631 120.751 11.1156C120.991 11.1724 121.273 11.2008 121.597 11.2008C121.912 11.2008 122.194 11.1724 122.443 11.1156C122.692 11.0588 122.902 10.9779 123.072 10.8729C123.247 10.768 123.38 10.6434 123.472 10.4991C123.564 10.3549 123.61 10.1953 123.61 10.0204ZM124.797 3.27893V3.71175C124.797 3.85603 124.705 3.94784 124.522 3.98718L123.767 4.08555C123.916 4.3741 123.99 4.69325 123.99 5.043C123.99 5.36652 123.927 5.66163 123.8 5.92831C123.678 6.19063 123.507 6.41578 123.289 6.60377C123.07 6.79177 122.808 6.93604 122.502 7.03659C122.196 7.13715 121.863 7.18742 121.505 7.18742C121.195 7.18742 120.902 7.15026 120.626 7.07594C120.486 7.16338 120.379 7.25737 120.305 7.35793C120.231 7.45411 120.193 7.55248 120.193 7.65303C120.193 7.81042 120.257 7.93065 120.384 8.01372C120.515 8.09241 120.685 8.14924 120.895 8.18422C121.105 8.21919 121.343 8.24106 121.61 8.2498C121.881 8.25854 122.156 8.27384 122.436 8.2957C122.72 8.31319 122.996 8.34598 123.262 8.39407C123.533 8.44216 123.774 8.52086 123.984 8.63015C124.194 8.73945 124.362 8.89028 124.489 9.08265C124.62 9.27501 124.685 9.52421 124.685 9.83024C124.685 10.1144 124.613 10.3898 124.469 10.6565C124.329 10.9232 124.126 11.1593 123.859 11.3648C123.593 11.5746 123.265 11.7408 122.876 11.8632C122.491 11.99 122.056 12.0534 121.571 12.0534C121.085 12.0534 120.661 12.0053 120.298 11.9091C119.935 11.8129 119.634 11.6839 119.393 11.5222C119.153 11.3604 118.971 11.1724 118.849 10.9582C118.731 10.7483 118.672 10.5276 118.672 10.2959C118.672 9.96796 118.775 9.69034 118.98 9.463C119.186 9.23567 119.468 9.05423 119.826 8.9187C119.629 8.83126 119.472 8.71541 119.354 8.57113C119.24 8.42249 119.183 8.22357 119.183 7.97437C119.183 7.87819 119.201 7.77982 119.236 7.67926C119.271 7.57434 119.323 7.4716 119.393 7.37104C119.468 7.26612 119.557 7.16775 119.662 7.07594C119.767 6.98413 119.89 6.90325 120.029 6.8333C119.702 6.64968 119.446 6.40704 119.262 6.10538C119.079 5.79934 118.987 5.44522 118.987 5.043C118.987 4.71948 119.048 4.42656 119.17 4.16425C119.297 3.89756 119.472 3.67241 119.695 3.48879C119.918 3.30079 120.182 3.15652 120.488 3.05597C120.799 2.95541 121.138 2.90514 121.505 2.90514C121.793 2.90514 122.062 2.93792 122.312 3.0035C122.561 3.06471 122.788 3.15652 122.994 3.27893H124.797Z" fill="white"/>
<path d="M130.348 5.61354C130.348 5.34248 130.308 5.09546 130.23 4.8725C130.155 4.64516 130.044 4.45061 129.895 4.28885C129.751 4.12271 129.574 3.99593 129.364 3.90849C129.154 3.81668 128.916 3.77077 128.649 3.77077C128.09 3.77077 127.646 3.93472 127.318 4.26262C126.995 4.58614 126.793 5.03644 126.715 5.61354H130.348ZM131.292 8.72852C131.148 8.9034 130.975 9.05642 130.774 9.18757C130.573 9.31436 130.357 9.41929 130.125 9.50235C129.897 9.58542 129.661 9.64662 129.417 9.68597C129.172 9.72969 128.929 9.75155 128.689 9.75155C128.23 9.75155 127.806 9.67504 127.416 9.52203C127.032 9.36464 126.697 9.1373 126.413 8.84001C126.133 8.53834 125.915 8.16673 125.757 7.72517C125.6 7.28361 125.521 6.77646 125.521 6.20374C125.521 5.74032 125.591 5.3075 125.731 4.90529C125.875 4.50307 126.081 4.1555 126.347 3.86259C126.614 3.5653 126.94 3.33358 127.325 3.16745C127.709 2.99695 128.142 2.91169 128.623 2.91169C129.021 2.91169 129.388 2.97946 129.725 3.11499C130.066 3.24615 130.359 3.43851 130.604 3.69208C130.853 3.94128 131.047 4.25169 131.187 4.6233C131.327 4.99054 131.397 5.41024 131.397 5.88241C131.397 6.06603 131.377 6.18844 131.338 6.24965C131.299 6.31086 131.224 6.34146 131.115 6.34146H126.675C126.689 6.76116 126.745 7.12622 126.846 7.43662C126.951 7.74703 127.095 8.00716 127.279 8.21701C127.462 8.42249 127.681 8.57769 127.935 8.68262C128.188 8.78317 128.472 8.83345 128.787 8.83345C129.08 8.83345 129.331 8.80066 129.541 8.73508C129.755 8.66513 129.939 8.59081 130.092 8.51211C130.245 8.43342 130.372 8.36128 130.472 8.2957C130.577 8.22575 130.667 8.19078 130.741 8.19078C130.837 8.19078 130.912 8.22794 130.964 8.30226L131.292 8.72852ZM130.656 1.99359H129.876C129.828 1.99359 129.777 1.98485 129.725 1.96736C129.677 1.94987 129.629 1.91708 129.581 1.86899L128.774 1.00335C128.735 0.968379 128.7 0.926845 128.669 0.878754C128.647 0.900614 128.627 0.922473 128.61 0.944332C128.592 0.966192 128.575 0.985867 128.558 1.00335L127.744 1.86899C127.653 1.95206 127.554 1.99359 127.449 1.99359H126.643L128.105 0.262315H129.194L130.656 1.99359Z" fill="white"/>
<path d="M133.933 3.98063C134.077 3.81887 134.23 3.67241 134.392 3.54125C134.553 3.41009 134.724 3.29861 134.903 3.2068C135.087 3.11062 135.279 3.03848 135.48 2.99039C135.686 2.93792 135.907 2.91169 136.143 2.91169C136.505 2.91169 136.825 2.9729 137.1 3.09531C137.38 3.21336 137.612 3.38386 137.795 3.60683C137.983 3.82542 138.125 4.08992 138.221 4.40033C138.318 4.71074 138.366 5.05393 138.366 5.42992V9.65974H137.192V5.42992C137.192 4.92715 137.076 4.53805 136.844 4.26262C136.617 3.98281 136.269 3.84291 135.802 3.84291C135.456 3.84291 135.133 3.92598 134.831 4.09211C134.534 4.25824 134.258 4.4834 134.005 4.76757V9.65974H132.831V3.01662H133.533C133.699 3.01662 133.801 3.0975 133.841 3.25926L133.933 3.98063Z" fill="white"/>
<path d="M144.768 4.19704C144.733 4.24513 144.698 4.28229 144.663 4.30852C144.628 4.33475 144.58 4.34787 144.519 4.34787C144.453 4.34787 144.381 4.32164 144.302 4.26917C144.223 4.21234 144.125 4.15113 144.007 4.08555C143.893 4.01997 143.751 3.96095 143.581 3.90849C143.415 3.85166 143.209 3.82324 142.964 3.82324C142.636 3.82324 142.348 3.88226 142.099 4.0003C141.849 4.11397 141.64 4.2801 141.469 4.4987C141.303 4.71729 141.176 4.98179 141.089 5.2922C141.006 5.60261 140.964 5.95017 140.964 6.3349C140.964 6.73712 141.01 7.09561 141.102 7.41039C141.194 7.7208 141.323 7.98311 141.489 8.19733C141.659 8.40719 141.863 8.56895 142.099 8.68262C142.339 8.79192 142.608 8.84656 142.905 8.84656C143.189 8.84656 143.423 8.81378 143.607 8.7482C143.791 8.67825 143.941 8.60174 144.059 8.51867C144.182 8.4356 144.282 8.36128 144.361 8.2957C144.444 8.22575 144.525 8.19078 144.604 8.19078C144.7 8.19078 144.774 8.22794 144.827 8.30226L145.155 8.72852C145.01 8.90777 144.846 9.06079 144.663 9.18757C144.479 9.31436 144.28 9.42147 144.066 9.50891C143.856 9.59198 143.635 9.65318 143.404 9.69253C143.172 9.73188 142.936 9.75155 142.695 9.75155C142.28 9.75155 141.893 9.67504 141.535 9.52203C141.181 9.36901 140.872 9.14823 140.61 8.85968C140.348 8.56676 140.142 8.20826 139.994 7.78419C139.845 7.36011 139.771 6.87702 139.771 6.3349C139.771 5.84088 139.838 5.38401 139.974 4.96431C140.114 4.5446 140.315 4.18392 140.577 3.88226C140.844 3.57622 141.17 3.33796 141.554 3.16745C141.943 2.99695 142.389 2.91169 142.892 2.91169C143.36 2.91169 143.771 2.9882 144.125 3.14122C144.484 3.28986 144.801 3.5019 145.076 3.77733L144.768 4.19704Z" fill="white"/>
<path d="M147.641 3.01662V9.65974H146.473V3.01662H147.641ZM147.89 0.931217C147.89 1.04489 147.866 1.152 147.818 1.25255C147.774 1.34873 147.713 1.43617 147.634 1.51487C147.56 1.58919 147.47 1.64821 147.365 1.69193C147.265 1.73565 147.157 1.75751 147.044 1.75751C146.93 1.75751 146.823 1.73565 146.722 1.69193C146.626 1.64821 146.541 1.58919 146.467 1.51487C146.392 1.43617 146.333 1.34873 146.29 1.25255C146.246 1.152 146.224 1.04489 146.224 0.931217C146.224 0.817547 146.246 0.710437 146.29 0.609883C146.333 0.504957 146.392 0.415332 146.467 0.341009C146.541 0.262316 146.626 0.201108 146.722 0.157388C146.823 0.113669 146.93 0.0918098 147.044 0.0918098C147.157 0.0918098 147.265 0.113669 147.365 0.157388C147.47 0.201108 147.56 0.262316 147.634 0.341009C147.713 0.415332 147.774 0.504957 147.818 0.609883C147.866 0.710437 147.89 0.817547 147.89 0.931217Z" fill="white"/>
<path d="M153.159 6.66935C152.621 6.68684 152.162 6.73056 151.782 6.80051C151.406 6.86609 151.097 6.95353 150.857 7.06283C150.621 7.17212 150.448 7.30109 150.339 7.44974C150.234 7.59838 150.182 7.76452 150.182 7.94814C150.182 8.12301 150.21 8.27384 150.267 8.40063C150.324 8.52742 150.4 8.63234 150.496 8.71541C150.597 8.7941 150.713 8.85312 150.844 8.89247C150.979 8.92744 151.124 8.94493 151.277 8.94493C151.482 8.94493 151.67 8.92526 151.841 8.88591C152.011 8.84219 152.171 8.78099 152.319 8.70229C152.472 8.6236 152.617 8.5296 152.752 8.4203C152.892 8.31101 153.028 8.18641 153.159 8.0465V6.66935ZM149.388 3.95439C149.755 3.60027 150.151 3.33577 150.575 3.16089C150.999 2.98602 151.469 2.89858 151.985 2.89858C152.357 2.89858 152.687 2.95979 152.975 3.0822C153.264 3.20461 153.506 3.37512 153.703 3.59371C153.9 3.81231 154.049 4.07681 154.149 4.38721C154.25 4.69762 154.3 5.03863 154.3 5.41024V9.65974H153.782C153.668 9.65974 153.581 9.64225 153.52 9.60728C153.458 9.56793 153.41 9.49361 153.375 9.38431L153.244 8.75475C153.069 8.91652 152.899 9.06079 152.733 9.18757C152.566 9.30999 152.392 9.41491 152.208 9.50235C152.024 9.58542 151.828 9.64881 151.618 9.69253C151.412 9.74062 151.183 9.76467 150.929 9.76467C150.671 9.76467 150.429 9.72969 150.201 9.65974C149.974 9.58542 149.775 9.47612 149.604 9.33185C149.438 9.18757 149.305 9.00614 149.204 8.78754C149.108 8.56458 149.06 8.30226 149.06 8.0006C149.06 7.73828 149.132 7.4869 149.277 7.24644C149.421 7.00162 149.655 6.78521 149.978 6.59721C150.302 6.40922 150.724 6.25621 151.244 6.13816C151.764 6.01575 152.402 5.9458 153.159 5.92831V5.41024C153.159 4.89436 153.047 4.50526 152.824 4.24294C152.601 3.97626 152.276 3.84291 151.847 3.84291C151.559 3.84291 151.316 3.88007 151.119 3.95439C150.927 4.02435 150.759 4.10523 150.614 4.19704C150.474 4.28447 150.352 4.36535 150.247 4.43968C150.147 4.50963 150.046 4.5446 149.945 4.5446C149.867 4.5446 149.799 4.52493 149.742 4.48558C149.685 4.44186 149.637 4.3894 149.598 4.32819L149.388 3.95439Z" fill="white"/>
<path d="M95.8167 21.1604L94.3412 17.3372C94.2974 17.2235 94.2515 17.0923 94.2035 16.9437C94.1554 16.7907 94.1095 16.6289 94.0657 16.4584C93.9739 16.8125 93.8799 17.1076 93.7837 17.3437L92.3082 21.1604H95.8167ZM98.4661 24.6492H97.4824C97.3687 24.6492 97.2769 24.6208 97.207 24.5639C97.137 24.5071 97.0845 24.435 97.0496 24.3475L96.1708 22.0785H91.9541L91.0753 24.3475C91.0491 24.4262 90.9988 24.4962 90.9245 24.5574C90.8502 24.6186 90.7584 24.6492 90.6491 24.6492H89.6654L93.4231 15.2518H94.7084L98.4661 24.6492Z" fill="white"/>
<path d="M100.51 19.3373C100.719 18.8826 100.977 18.5285 101.283 18.2749C101.589 18.017 101.963 17.888 102.405 17.888C102.545 17.888 102.678 17.9033 102.805 17.9339C102.936 17.9645 103.052 18.0126 103.152 18.0782L103.067 18.9504C103.041 19.0597 102.975 19.1143 102.87 19.1143C102.809 19.1143 102.72 19.1012 102.602 19.075C102.483 19.0488 102.35 19.0356 102.201 19.0356C101.992 19.0356 101.804 19.0662 101.638 19.1275C101.476 19.1887 101.329 19.2805 101.198 19.4029C101.071 19.5209 100.955 19.6696 100.851 19.8488C100.75 20.0237 100.658 20.2248 100.575 20.4521V24.6492H99.4013V18.0061H100.07C100.197 18.0061 100.284 18.0301 100.332 18.0782C100.381 18.1263 100.413 18.2094 100.431 18.3274L100.51 19.3373Z" fill="white"/>
<path d="M110.343 24.6492H109.176V18.9832H105.753V22.9704C105.753 23.2502 105.82 23.4578 105.956 23.5934C106.092 23.7289 106.266 23.7967 106.481 23.7967C106.603 23.7967 106.708 23.7814 106.795 23.7508C106.887 23.7158 106.966 23.6786 107.031 23.6393C107.097 23.5999 107.152 23.5649 107.195 23.5343C107.244 23.4994 107.285 23.4819 107.32 23.4819C107.381 23.4819 107.436 23.519 107.484 23.5934L107.825 24.1508C107.624 24.3388 107.381 24.4874 107.097 24.5967C106.813 24.7016 106.52 24.7541 106.218 24.7541C105.694 24.7541 105.289 24.6076 105.005 24.3147C104.725 24.0218 104.585 23.5999 104.585 23.0491V18.9832H103.785C103.715 18.9832 103.656 18.9635 103.608 18.9242C103.56 18.8804 103.536 18.8149 103.536 18.7274V18.2618L104.625 18.1175L104.894 16.0715C104.907 16.0059 104.935 15.9534 104.979 15.9141C105.027 15.8704 105.088 15.8485 105.162 15.8485H105.753V18.1372H110.343V24.6492ZM110.632 15.8748C110.632 15.9884 110.608 16.0955 110.56 16.1961C110.516 16.2923 110.455 16.3775 110.376 16.4518C110.302 16.5262 110.214 16.5852 110.114 16.6289C110.013 16.6726 109.906 16.6945 109.792 16.6945C109.679 16.6945 109.572 16.6726 109.471 16.6289C109.375 16.5852 109.29 16.5262 109.215 16.4518C109.141 16.3775 109.082 16.2923 109.038 16.1961C108.994 16.0955 108.973 15.9884 108.973 15.8748C108.973 15.7611 108.994 15.654 109.038 15.5534C109.082 15.4485 109.141 15.3589 109.215 15.2845C109.29 15.2059 109.375 15.1446 109.471 15.1009C109.572 15.0572 109.679 15.0353 109.792 15.0353C109.906 15.0353 110.013 15.0572 110.114 15.1009C110.214 15.1446 110.302 15.2059 110.376 15.2845C110.455 15.3589 110.516 15.4485 110.56 15.5534C110.608 15.654 110.632 15.7611 110.632 15.8748Z" fill="white"/>
<path d="M112.707 24.6492V19.0029L111.972 18.9176C111.876 18.8957 111.8 18.863 111.743 18.8192C111.686 18.7711 111.658 18.7034 111.658 18.6159V18.1372H112.707V17.77C112.707 17.3634 112.77 16.9918 112.897 16.6551C113.024 16.3141 113.214 16.0212 113.467 15.7764C113.721 15.5316 114.036 15.3414 114.412 15.2059C114.792 15.0703 115.232 15.0026 115.73 15.0026C115.896 15.0026 116.067 15.0135 116.241 15.0353C116.416 15.0572 116.567 15.09 116.694 15.1337L116.648 15.7436C116.644 15.7873 116.626 15.8179 116.596 15.8354C116.569 15.8529 116.532 15.8638 116.484 15.8682C116.436 15.8726 116.375 15.8748 116.3 15.8748C116.231 15.8704 116.15 15.8682 116.058 15.8682C115.28 15.8682 114.716 16.03 114.366 16.3535C114.016 16.6726 113.841 17.1557 113.841 17.8028V18.1372H117.855V24.6492H116.681V18.9832H113.874V24.6492H112.707Z" fill="white"/>
<path d="M124.39 19.1865C124.355 19.2346 124.32 19.2717 124.285 19.298C124.25 19.3242 124.202 19.3373 124.141 19.3373C124.075 19.3373 124.003 19.3111 123.924 19.2586C123.846 19.2018 123.747 19.1406 123.629 19.075C123.515 19.0094 123.373 18.9504 123.203 18.8979C123.037 18.8411 122.831 18.8127 122.586 18.8127C122.259 18.8127 121.97 18.8717 121.721 18.9897C121.472 19.1034 121.262 19.2695 121.091 19.4881C120.925 19.7067 120.798 19.9712 120.711 20.2816C120.628 20.592 120.586 20.9396 120.586 21.3243C120.586 21.7266 120.632 22.0851 120.724 22.3998C120.816 22.7102 120.945 22.9726 121.111 23.1868C121.281 23.3966 121.485 23.5584 121.721 23.6721C121.961 23.7814 122.23 23.836 122.527 23.836C122.812 23.836 123.045 23.8032 123.229 23.7376C123.413 23.6677 123.564 23.5912 123.682 23.5081C123.804 23.425 123.905 23.3507 123.983 23.2851C124.066 23.2152 124.147 23.1802 124.226 23.1802C124.322 23.1802 124.396 23.2174 124.449 23.2917L124.777 23.718C124.632 23.8972 124.469 24.0502 124.285 24.177C124.101 24.3038 123.902 24.4109 123.688 24.4984C123.478 24.5814 123.258 24.6426 123.026 24.682C122.794 24.7213 122.558 24.741 122.318 24.741C121.902 24.741 121.515 24.6645 121.157 24.5115C120.803 24.3585 120.494 24.1377 120.232 23.8491C119.97 23.5562 119.764 23.1977 119.616 22.7736C119.467 22.3496 119.393 21.8665 119.393 21.3243C119.393 20.8303 119.461 20.3735 119.596 19.9537C119.736 19.534 119.937 19.1734 120.199 18.8717C120.466 18.5657 120.792 18.3274 121.176 18.1569C121.566 17.9864 122.012 17.9011 122.514 17.9011C122.982 17.9011 123.393 17.9776 123.747 18.1307C124.106 18.2793 124.423 18.4913 124.698 18.7668L124.39 19.1865Z" fill="white"/>
<path d="M127.263 18.0061V24.6492H126.095V18.0061H127.263ZM127.512 15.9207C127.512 16.0343 127.488 16.1414 127.44 16.242C127.396 16.3382 127.335 16.4256 127.256 16.5043C127.182 16.5786 127.092 16.6377 126.987 16.6814C126.887 16.7251 126.78 16.747 126.666 16.747C126.552 16.747 126.445 16.7251 126.345 16.6814C126.248 16.6377 126.163 16.5786 126.089 16.5043C126.015 16.4256 125.955 16.3382 125.912 16.242C125.868 16.1414 125.846 16.0343 125.846 15.9207C125.846 15.807 125.868 15.6999 125.912 15.5993C125.955 15.4944 126.015 15.4048 126.089 15.3305C126.163 15.2518 126.248 15.1905 126.345 15.1468C126.445 15.1031 126.552 15.0813 126.666 15.0813C126.78 15.0813 126.887 15.1031 126.987 15.1468C127.092 15.1905 127.182 15.2518 127.256 15.3305C127.335 15.4048 127.396 15.4944 127.44 15.5993C127.488 15.6999 127.512 15.807 127.512 15.9207Z" fill="white"/>
<path d="M132.781 21.6588C132.243 21.6763 131.784 21.72 131.404 21.79C131.028 21.8555 130.72 21.943 130.479 22.0523C130.243 22.1616 130.07 22.2905 129.961 22.4392C129.856 22.5878 129.804 22.754 129.804 22.9376C129.804 23.1125 129.832 23.2633 129.889 23.3901C129.946 23.5169 130.022 23.6218 130.118 23.7049C130.219 23.7835 130.335 23.8426 130.466 23.8819C130.602 23.9169 130.746 23.9344 130.899 23.9344C131.104 23.9344 131.292 23.9147 131.463 23.8754C131.633 23.8316 131.793 23.7704 131.942 23.6917C132.095 23.613 132.239 23.519 132.374 23.4097C132.514 23.3004 132.65 23.1758 132.781 23.0359V21.6588ZM129.01 18.9438C129.377 18.5897 129.773 18.3252 130.197 18.1503C130.621 17.9755 131.091 17.888 131.607 17.888C131.979 17.888 132.309 17.9492 132.597 18.0716C132.886 18.1941 133.128 18.3646 133.325 18.5832C133.522 18.8017 133.671 19.0662 133.771 19.3767C133.872 19.6871 133.922 20.0281 133.922 20.3997V24.6492H133.404C133.29 24.6492 133.203 24.6317 133.142 24.5967C133.08 24.5574 133.032 24.483 132.997 24.3738L132.866 23.7442C132.691 23.906 132.521 24.0502 132.355 24.177C132.189 24.2994 132.014 24.4044 131.83 24.4918C131.646 24.5749 131.45 24.6383 131.24 24.682C131.034 24.7301 130.805 24.7541 130.551 24.7541C130.293 24.7541 130.051 24.7191 129.823 24.6492C129.596 24.5749 129.397 24.4656 129.227 24.3213C129.06 24.177 128.927 23.9956 128.827 23.777C128.73 23.554 128.682 23.2917 128.682 22.99C128.682 22.7277 128.754 22.4763 128.899 22.2359C129.043 21.9911 129.277 21.7746 129.6 21.5867C129.924 21.3987 130.346 21.2456 130.866 21.1276C131.386 21.0052 132.025 20.9352 132.781 20.9178V20.3997C132.781 19.8838 132.669 19.4947 132.446 19.2324C132.224 18.9657 131.898 18.8324 131.469 18.8324C131.181 18.8324 130.938 18.8695 130.741 18.9438C130.549 19.0138 130.381 19.0947 130.236 19.1865C130.097 19.2739 129.974 19.3548 129.869 19.4291C129.769 19.4991 129.668 19.534 129.568 19.534C129.489 19.534 129.421 19.5144 129.364 19.475C129.307 19.4313 129.259 19.3788 129.22 19.3176L129.01 18.9438Z" fill="white"/>
<path d="M136.907 14.9894V24.6492H135.739V14.9894H136.907Z" fill="white"/>
<g clip-path="url(#clip0)">
<path d="M23.8852 6.10917C23.7512 6.02832 23.5986 5.98321 23.442 5.97818C23.2854 5.97316 23.1302 6.00839 22.9912 6.08048C22.954 6.09977 22.9182 6.12164 22.8841 6.14593L22.8787 6.15131C22.8008 6.20743 22.7279 6.27012 22.6608 6.33869C22.126 6.86856 21.2644 7.74541 20.7323 8.27708C20.6945 8.31578 20.6542 8.35201 20.6117 8.38556V8.38556L20.5973 8.39632C20.5576 8.37002 20.5205 8.33999 20.4866 8.30666C20.3659 8.18742 20.2471 8.06728 20.1264 7.94803C20.0292 7.85031 19.9329 7.75258 19.8347 7.65575L19.5106 7.33299C19.1748 6.99857 18.839 6.66325 18.4996 6.33242L18.487 6.32255C18.4017 6.21541 18.2932 6.12893 18.1695 6.0696C18.0459 6.01028 17.9103 5.97966 17.773 5.98006H17.7631C17.6209 5.98226 17.4811 6.01692 17.3544 6.08138C17.3172 6.10066 17.2814 6.12253 17.2472 6.14683L17.2409 6.1522C17.1635 6.20827 17.091 6.27064 17.024 6.33869C16.7773 6.58256 16.4613 6.90084 16.1408 7.2245L15.0604 8.30039C15.0268 8.33436 14.991 8.36611 14.9533 8.39542C14.9155 8.36908 14.8805 8.33904 14.8488 8.30577C14.7282 8.18652 14.6093 8.06638 14.4887 7.94714L14.197 7.65486L13.8729 7.33209C13.5371 6.99767 13.2012 6.66235 12.8609 6.33152C12.7059 6.16703 12.5054 6.05192 12.2847 6.00068C12.2676 6.00068 12.2496 6.00068 12.2325 5.99441C12.2009 5.98881 12.1691 5.98492 12.1371 5.98275C12.1344 5.9823 12.1317 5.9823 12.129 5.98275H12.1128C12.102 5.98275 12.0912 5.98275 12.0795 5.98275C12.0651 5.98183 12.0506 5.98183 12.0362 5.98275H12.0299H12.0074C11.9826 5.98525 11.958 5.98914 11.9336 5.99441C11.9165 5.99441 11.9003 6.00517 11.8832 6.00965C11.7164 6.06167 11.5651 6.15409 11.4429 6.27862C11.2755 6.44269 11.0828 6.63725 10.8802 6.83718C10.4691 7.252 10.0535 7.66561 9.63332 8.07804L9.34252 8.36673C9.33139 8.37697 9.31966 8.38655 9.3074 8.39542L9.2939 8.38556C9.2693 8.36863 9.24611 8.34974 9.22458 8.32908C9.18496 8.29321 9.14625 8.25376 9.10844 8.21521L8.48992 7.59748C8.06377 7.17071 7.63673 6.74544 7.20878 6.32166C6.9648 6.08138 6.70551 5.9693 6.44171 5.97737C6.42702 5.97645 6.41229 5.97645 6.3976 5.97737H6.3922H6.36969C6.34488 5.97987 6.32023 5.98377 6.29586 5.98903C6.27876 5.98903 6.26255 5.99979 6.24545 6.00427C6.07844 6.05646 5.92692 6.14885 5.80429 6.27324C5.63774 6.43731 5.44417 6.63187 5.2425 6.8318C4.82776 7.24423 4.41271 7.65665 3.99737 8.06907L3.41127 8.65274C3.357 8.70511 3.30674 8.76145 3.26092 8.82129L3.04124 9.04095C2.87064 9.19821 2.76635 9.41409 2.74944 9.64498C2.73253 9.87587 2.80427 10.1045 2.95016 10.2848C3.09605 10.465 3.30521 10.5834 3.53536 10.6159C3.76552 10.6485 3.99951 10.5929 4.19004 10.4602L4.19544 10.4548C4.27333 10.3987 4.34622 10.336 4.41331 10.2675C4.9517 9.74566 5.8115 8.86971 6.34448 8.33804C6.38262 8.29937 6.42289 8.26285 6.46512 8.22866L6.48223 8.22149C6.52214 8.2475 6.55925 8.27754 6.59297 8.31115C6.71361 8.42949 6.83245 8.54963 6.95309 8.66977C7.05033 8.7675 7.14666 8.86523 7.24479 8.96295L7.5689 9.28572C7.90472 9.62014 8.24054 9.95456 8.57995 10.2854L8.59256 10.2962C8.67826 10.4028 8.7871 10.4886 8.91091 10.5473C9.03472 10.606 9.17028 10.636 9.3074 10.6351H9.31731C9.45862 10.6332 9.59759 10.5988 9.72335 10.5346C9.76056 10.5154 9.79636 10.4935 9.83048 10.4692L9.83589 10.4638C9.91378 10.4077 9.98667 10.345 10.0538 10.2764C10.2995 10.0326 10.6156 9.71428 10.9361 9.39151L12.0164 8.31563C12.0501 8.28196 12.0858 8.25052 12.1236 8.22149C12.1611 8.24807 12.1961 8.27809 12.228 8.31115C12.3487 8.42949 12.4675 8.54963 12.5881 8.66977C12.6854 8.7675 12.7817 8.86523 12.8798 8.96295L13.2039 9.28572C13.5398 9.62014 13.8756 9.95456 14.215 10.2854C14.3705 10.45 14.5712 10.5654 14.7921 10.6171C14.8092 10.6171 14.8272 10.6171 14.8443 10.6234C14.8759 10.6288 14.9078 10.6324 14.9397 10.6342H14.9452H14.9623C14.9731 10.6342 14.9839 10.6342 14.9947 10.6342H15.0388H15.0451H15.0676C15.0924 10.6315 15.117 10.6276 15.1414 10.6225C15.1585 10.6225 15.1747 10.6117 15.1918 10.6073C15.3584 10.5547 15.5096 10.4624 15.6321 10.3383C15.7986 10.1742 15.9922 9.97966 16.193 9.78062C16.6089 9.3682 17.0246 8.95548 17.4399 8.54246L17.7307 8.25287C17.7433 8.24211 17.7559 8.23135 17.7649 8.22507C17.7699 8.22774 17.7747 8.23073 17.7793 8.23404V8.23404C17.8038 8.25088 17.8269 8.26946 17.8487 8.28963C17.8883 8.32639 17.927 8.36494 17.9648 8.40349L18.5833 9.02213C19.0095 9.44829 19.4365 9.87327 19.8645 10.297C20.1075 10.5373 20.3677 10.6503 20.6315 10.6422H20.6747H20.681H20.7035C20.7283 10.6397 20.753 10.6358 20.7774 10.6306C20.7945 10.6306 20.8107 10.6198 20.8278 10.6153C20.9945 10.563 21.1456 10.4706 21.268 10.3464C21.4355 10.1823 21.6282 9.98773 21.8289 9.78869C22.2449 9.37627 22.6605 8.96355 23.0759 8.55053L23.6629 7.95252C23.7169 7.89958 23.7671 7.84296 23.8132 7.78307L24.0329 7.5643C24.1375 7.46795 24.2182 7.34873 24.2686 7.21604C24.319 7.08334 24.3378 6.9408 24.3235 6.79964C24.3092 6.65848 24.2621 6.52255 24.1861 6.40258C24.11 6.2826 24.0071 6.18186 23.8852 6.10827V6.10917Z" fill="white"/>
<path d="M23.8852 18.3357C23.7512 18.4165 23.5986 18.4616 23.442 18.4666C23.2854 18.4717 23.1302 18.4364 22.9912 18.3644C22.954 18.3451 22.9182 18.3232 22.8841 18.2989L22.8787 18.2935C22.8008 18.2374 22.7279 18.1747 22.6608 18.1061C22.126 17.5763 21.2644 16.6994 20.7323 16.1678C20.6942 16.1291 20.6539 16.0926 20.6117 16.0584L20.5973 16.0476C20.5574 16.0736 20.5203 16.1037 20.4865 16.1373C20.3659 16.2565 20.2471 16.3767 20.1264 16.4959C20.0292 16.5936 19.9329 16.6923 19.8347 16.7891L19.5106 17.1118C19.1748 17.4463 18.839 17.7816 18.4996 18.1124L18.487 18.1223C18.4013 18.2289 18.2924 18.3148 18.1686 18.3735C18.0448 18.4322 17.9092 18.4621 17.7721 18.4612H17.7622C17.62 18.459 17.4801 18.4243 17.3535 18.3599C17.3163 18.3406 17.2805 18.3187 17.2463 18.2944L17.24 18.289C17.1626 18.2327 17.09 18.17 17.0231 18.1017C16.7764 17.8578 16.4604 17.5395 16.1398 17.2158L15.0595 16.14C15.0259 16.106 14.9901 16.0742 14.9523 16.0449C14.9146 16.0713 14.8796 16.1013 14.8479 16.1346C14.7273 16.2538 14.6084 16.374 14.4878 16.4932L14.1961 16.7864L13.872 17.1092C13.5362 17.4436 13.2003 17.7789 12.86 18.1097C12.7047 18.2739 12.5043 18.389 12.2838 18.4406C12.2667 18.4406 12.2487 18.4406 12.2316 18.4468C12.1992 18.4468 12.1677 18.4576 12.1362 18.4585H12.1281H12.1119C12.1011 18.4585 12.0903 18.4585 12.0785 18.4585H12.0353H12.029H12.0065C11.9817 18.456 11.9571 18.4521 11.9327 18.4468C11.9156 18.4468 11.8994 18.4361 11.8823 18.4316C11.7156 18.3792 11.5644 18.2869 11.442 18.1626C11.2746 17.9986 11.0819 17.804 10.8793 17.6041L9.6333 16.3668L9.3425 16.0772L9.30739 16.0494L9.29388 16.0584C9.26946 16.0752 9.2463 16.0938 9.22456 16.114C9.18495 16.1507 9.14623 16.1902 9.10842 16.2287L8.48991 16.8465C8.06406 17.2723 7.63821 17.6991 7.20876 18.1214C6.96478 18.3626 6.70549 18.4746 6.4417 18.4666C6.42639 18.4666 6.41199 18.4666 6.39758 18.4666H6.39218H6.36967C6.34487 18.4641 6.32022 18.4602 6.29585 18.4549C6.27874 18.4549 6.26254 18.4441 6.24543 18.4397C6.07857 18.3871 5.92713 18.2948 5.80428 18.1707C5.63772 18.0066 5.44415 17.8121 5.24249 17.6121L3.99736 16.3749L3.41125 15.7912C3.35699 15.7385 3.30674 15.6819 3.2609 15.6217L3.04393 15.394C2.87332 15.2368 2.76903 15.0209 2.75213 14.79C2.73522 14.5591 2.80696 14.3304 2.95285 14.1502C3.09874 13.97 3.30789 13.8516 3.53805 13.819C3.7682 13.7865 4.00219 13.8421 4.19272 13.9747L4.19812 13.9801C4.27601 14.0362 4.34891 14.0989 4.416 14.1675C4.95168 14.6983 5.81148 15.5733 6.34447 16.1113C6.3826 16.1499 6.42288 16.1865 6.46511 16.2207V16.2207L6.47951 16.2314C6.51943 16.2054 6.55654 16.1754 6.59025 16.1418C6.71089 16.0225 6.82973 15.9024 6.95038 15.7831C7.04761 15.6863 7.14394 15.5877 7.24208 15.4908L7.56619 15.1681C7.902 14.8337 8.23782 14.4983 8.57724 14.1675L8.58984 14.1576C8.67554 14.051 8.78439 13.9652 8.9082 13.9065C9.03201 13.8478 9.16757 13.8178 9.30469 13.8187H9.31459C9.45683 13.8209 9.59666 13.8556 9.72333 13.9201C9.76054 13.9393 9.79634 13.9612 9.83047 13.9855L9.83587 13.9909C9.91376 14.047 9.98665 14.1097 10.0537 14.1783C10.2995 14.4221 10.6155 14.7395 10.9361 15.0632L12.0164 16.1391C12.05 16.173 12.0858 16.2048 12.1236 16.2341C12.1611 16.2075 12.1961 16.1775 12.228 16.1444C12.3486 16.0252 12.4675 15.9051 12.5881 15.7858C12.6854 15.689 12.7817 15.5904 12.8798 15.4935L13.2039 15.1708C13.5398 14.8363 13.8756 14.501 14.215 14.1702C14.3708 14.0061 14.5714 13.8911 14.7921 13.8394C14.8092 13.8394 14.8272 13.8394 14.8443 13.8331C14.8759 13.8274 14.9077 13.8235 14.9397 13.8214H14.9451H14.9622H14.9947C15.01 13.8214 15.0253 13.8214 15.0388 13.8214H15.0451H15.0676C15.0924 13.8241 15.117 13.828 15.1414 13.8331C15.1585 13.8331 15.1747 13.8438 15.1918 13.8483C15.3584 13.9009 15.5095 13.9932 15.6321 14.1173C15.7986 14.2814 15.9922 14.4759 16.193 14.675C16.6089 15.0874 17.0246 15.5001 17.4399 15.9131L17.7307 16.2027L17.7649 16.2305L17.7793 16.2216C17.8037 16.2047 17.8269 16.1861 17.8486 16.166C17.8883 16.1292 17.927 16.0898 17.9648 16.0512L18.5833 15.4335C19.0091 15.0076 19.435 14.5808 19.8644 14.1585C20.1075 13.9174 20.3677 13.8053 20.6315 13.8134H20.6747H20.681H20.7035C20.7283 13.8159 20.753 13.8198 20.7774 13.825C20.7945 13.825 20.8107 13.8358 20.8278 13.8403C20.9944 13.8926 21.1456 13.985 21.268 14.1092C21.4355 14.2733 21.6281 14.4679 21.8289 14.6669C22.2449 15.0793 22.6605 15.492 23.0758 15.9051L23.6619 16.4887C23.716 16.5417 23.7662 16.5983 23.8123 16.6582L24.032 16.8769C24.1366 16.9733 24.2172 17.0925 24.2677 17.2252C24.3181 17.3579 24.3369 17.5004 24.3226 17.6416C24.3083 17.7828 24.2612 17.9187 24.1852 18.0387C24.1091 18.1586 24.0061 18.2594 23.8843 18.333L23.8852 18.3357Z" fill="white"/>
<path d="M6.46515 13.1391C6.97381 13.1391 7.38616 12.7285 7.38616 12.2219C7.38616 11.7154 6.97381 11.3047 6.46515 11.3047C5.95648 11.3047 5.54413 11.7154 5.54413 12.2219C5.54413 12.7285 5.95648 13.1391 6.46515 13.1391Z" fill="white"/>
<path d="M12.1263 13.1391C12.6349 13.1391 13.0473 12.7285 13.0473 12.2219C13.0473 11.7154 12.6349 11.3047 12.1263 11.3047C11.6176 11.3047 11.2053 11.7154 11.2053 12.2219C11.2053 12.7285 11.6176 13.1391 12.1263 13.1391Z" fill="white"/>
<path d="M17.7802 13.1391C18.2889 13.1391 18.7012 12.7285 18.7012 12.2219C18.7012 11.7154 18.2889 11.3047 17.7802 11.3047C17.2715 11.3047 16.8592 11.7154 16.8592 12.2219C16.8592 12.7285 17.2715 13.1391 17.7802 13.1391Z" fill="white"/>
<path d="M23.4342 13.1391C23.9429 13.1391 24.3552 12.7285 24.3552 12.2219C24.3552 11.7154 23.9429 11.3047 23.4342 11.3047C22.9255 11.3047 22.5132 11.7154 22.5132 12.2219C22.5132 12.7285 22.9255 13.1391 23.4342 13.1391Z" fill="white"/>
<path d="M48.2008 13.088C48.7725 12.8513 49.5513 12.7294 50.5038 12.7294C51.0348 12.7273 51.5653 12.6959 52.0929 12.6353C53.5045 12.4766 54.4454 12.0077 54.9739 11.207C55.2654 10.7451 55.4282 10.2141 55.4454 9.66877C55.4627 9.12342 55.3338 8.58332 55.072 8.10401C54.8223 7.64746 54.4746 7.25134 54.0537 6.94384C53.6072 6.62347 53.1078 6.38344 52.5781 6.23465C51.0782 5.79444 49.4675 5.92892 48.1666 6.60494C46.799 7.31233 45.7574 8.68319 45.309 10.3643C44.7778 12.3582 45.1866 14.7135 46.3516 16.3632C47.2915 17.6937 48.8823 18.4576 50.7181 18.4576C51.577 18.4694 52.4268 18.2819 53.2002 17.9098C53.7784 17.6262 54.3051 17.2486 54.7587 16.7927C54.8309 16.7192 54.8892 16.6332 54.9306 16.5389C55.011 16.3906 55.0512 16.2241 55.0475 16.0556C55.0437 15.8871 54.9961 15.7225 54.9092 15.5779C54.8223 15.4332 54.6992 15.3136 54.5519 15.2306C54.4047 15.1476 54.2383 15.1041 54.069 15.1044C53.8721 15.104 53.6798 15.1638 53.5181 15.2757C53.4955 15.2915 53.4742 15.3088 53.4541 15.3277L53.4154 15.36C53.399 15.3728 53.3834 15.3866 53.3686 15.4012L53.3497 15.4173C53.1401 15.6404 52.9053 15.8386 52.6501 16.0082C52.3718 16.1932 52.0726 16.3451 51.7588 16.4609C51.0412 16.711 50.257 16.6948 49.5504 16.4152C49.1652 16.2689 48.8058 16.0629 48.4853 15.8047C48.1848 15.5648 47.9289 15.2744 47.729 14.9466C47.5558 14.6666 47.4624 14.3449 47.4589 14.016C47.458 13.6009 47.7011 13.296 48.2008 13.088ZM50.8333 10.8081C50.5146 10.8081 50.1455 10.8224 49.7349 10.852C49.3238 10.8813 48.9154 10.9412 48.5132 11.0313C48.1168 11.1195 47.731 11.25 47.3626 11.4204C47.2603 11.4678 47.1605 11.5205 47.0637 11.5782C47.0943 11.459 47.124 11.2832 47.1609 11.0403C47.1798 10.9103 47.197 10.7982 47.2105 10.7489C47.2993 10.4223 47.4278 10.1076 47.5931 9.81197C47.9115 9.22945 48.3746 8.738 48.9382 8.38463C49.4711 8.05738 50.2355 7.84669 50.9936 7.84669C51.8813 7.84669 52.76 8.13718 53.2444 8.87237C53.4838 9.23637 53.573 9.8317 53.2642 10.2172C52.9337 10.6296 52.281 10.7292 51.8183 10.7686C51.4905 10.7937 51.1592 10.8081 50.8333 10.8081Z" fill="white"/>
<path d="M43.5751 6.0347C43.3401 5.95274 43.0821 5.96704 42.8577 6.07447C42.6333 6.18191 42.461 6.37367 42.3785 6.60761L39.539 14.6041L36.956 6.66051C36.9393 6.6138 36.9194 6.56827 36.8966 6.52423L36.8894 6.50989C36.8795 6.49106 36.8686 6.47313 36.856 6.4534C36.7467 6.25962 36.5709 6.1116 36.3609 6.0365C36.2444 5.99531 36.1208 5.97741 35.9974 5.98383C35.8739 5.99025 35.7529 6.02086 35.6414 6.07391C35.5298 6.12696 35.4299 6.20141 35.3472 6.29299C35.2646 6.38457 35.2009 6.49149 35.1599 6.60761L32.3212 14.6023L29.7202 6.63003C29.6428 6.39402 29.4745 6.19829 29.2522 6.08589C29.0299 5.97349 28.7719 5.95363 28.5349 6.03067C28.2979 6.10771 28.1014 6.27535 27.9885 6.49671C27.8756 6.71806 27.8557 6.975 27.9331 7.211L31.3876 17.8147C31.4473 18.001 31.5642 18.164 31.7218 18.2806C31.8795 18.3972 32.0699 18.4616 32.2663 18.4648H32.2816C32.4761 18.464 32.6656 18.4032 32.8241 18.2909C32.9826 18.1785 33.1022 18.02 33.1666 17.8372L36.0125 9.82989L38.6089 17.8094C38.6686 17.9955 38.7854 18.1584 38.9429 18.275C39.1003 18.3916 39.2906 18.4561 39.4868 18.4594H39.5021C39.6967 18.4585 39.8863 18.3978 40.0449 18.2854C40.2035 18.1731 40.3233 18.0146 40.388 17.8318L44.1495 7.23521C44.2329 7.00015 44.2192 6.74174 44.1115 6.51668C44.0038 6.29162 43.8109 6.11829 43.5751 6.0347V6.0347Z" fill="white"/>
<path d="M70.8464 5.98004C70.5901 5.98146 70.3448 6.08398 70.1642 6.26513C69.9837 6.44628 69.8826 6.69131 69.8831 6.94654V17.4956C69.8831 17.75 69.9845 17.994 70.1652 18.1739C70.3459 18.3538 70.5909 18.4549 70.8464 18.4549C71.1019 18.4549 71.3469 18.3538 71.5276 18.1739C71.7082 17.994 71.8097 17.75 71.8097 17.4956V6.94654C71.8102 6.69131 71.7091 6.44628 71.5285 6.26513C71.348 6.08398 71.1027 5.98146 70.8464 5.98004V5.98004Z" fill="white"/>
<path d="M62.4222 5.98003C59.6852 6.06968 57.4588 8.44291 57.4588 11.2698V17.4794C57.4548 17.6103 57.4772 17.7407 57.5248 17.8628C57.5723 17.9848 57.644 18.0962 57.7356 18.1902C57.8271 18.2842 57.9367 18.3589 58.0578 18.4099C58.1789 18.4609 58.3091 18.4872 58.4405 18.4872C58.572 18.4872 58.7022 18.4609 58.8233 18.4099C58.9444 18.3589 59.054 18.2842 59.1455 18.1902C59.2371 18.0962 59.3088 17.9848 59.3563 17.8628C59.4039 17.7407 59.4263 17.6103 59.4223 17.4794V11.2034C59.4223 9.46589 60.7827 7.99193 62.4546 7.91841C62.8845 7.89757 63.3142 7.96497 63.7168 8.11643C64.1195 8.26788 64.4866 8.50016 64.7954 8.79885C65.1073 9.09639 65.3552 9.45403 65.5239 9.85C65.6926 10.246 65.7786 10.672 65.7767 11.1021V17.4794C65.7767 17.7386 65.8801 17.9872 66.0641 18.1705C66.2482 18.3537 66.4978 18.4567 66.758 18.4567C67.0183 18.4567 67.2679 18.3537 67.4519 18.1705C67.636 17.9872 67.7394 17.7386 67.7394 17.4794V11.1353C67.7423 10.4443 67.605 9.75983 67.3358 9.12293C67.0667 8.48604 66.6711 7.90984 66.1728 7.42889C65.6798 6.94564 65.0927 6.56785 64.4478 6.3187C63.8028 6.06955 63.1135 5.9543 62.4222 5.98003V5.98003Z" fill="white"/>
</g>
<path fill-rule="evenodd" clip-rule="evenodd" d="M82.4095 23.7123L82.4095 1.22821L83.0652 1.22821L83.0652 23.7123L82.4095 23.7123Z" fill="white"/>
<defs>
<clipPath id="clip0">
<rect width="75.8839" height="21.5473" fill="white" transform="translate(0 1.22821)"/>
</clipPath>
</defs>
</svg>
