<svg width="85" height="24" viewBox="0 0 85 24" fill="none" xmlns="http://www.w3.org/2000/svg">
<path d="M26.5094 5.43654C26.3607 5.34648 26.1913 5.29624 26.0175 5.29064C25.8437 5.28504 25.6714 5.32428 25.5172 5.40458C25.4759 5.42606 25.4361 5.45042 25.3983 5.47748L25.3923 5.48347C25.3058 5.54598 25.2249 5.61581 25.1504 5.69218C24.5569 6.28237 23.6007 7.25903 23.0101 7.85122C22.9681 7.89432 22.9234 7.93468 22.8762 7.97205L22.8602 7.98403C22.8162 7.95473 22.775 7.92129 22.7373 7.88417C22.6034 7.75135 22.4715 7.61754 22.3376 7.48472C22.2297 7.37587 22.1228 7.26702 22.0139 7.15917L21.6542 6.79966C21.2815 6.42717 20.9087 6.05369 20.532 5.68519L20.5181 5.67421C20.4234 5.55487 20.303 5.45854 20.1657 5.39247C20.0285 5.32639 19.878 5.29229 19.7257 5.29273H19.7147C19.5568 5.29518 19.4016 5.33379 19.261 5.40558C19.2197 5.42706 19.18 5.45142 19.1421 5.47848L19.1351 5.48447C19.0492 5.54691 18.9687 5.61639 18.8943 5.69218C18.6205 5.96381 18.2698 6.31832 17.9141 6.67883L16.715 7.87718C16.6777 7.91502 16.638 7.95038 16.5961 7.98303C16.5542 7.95369 16.5154 7.92024 16.4802 7.88317C16.3463 7.75035 16.2144 7.61654 16.0805 7.48372L15.7568 7.15817L15.397 6.79866C15.0243 6.42618 14.6516 6.05269 14.2739 5.6842C14.1018 5.50098 13.8793 5.37277 13.6344 5.3157C13.6154 5.3157 13.5954 5.3157 13.5765 5.30871C13.5414 5.30248 13.506 5.29815 13.4705 5.29573C13.4676 5.29523 13.4645 5.29523 13.4615 5.29573H13.4436C13.4316 5.29573 13.4196 5.29573 13.4066 5.29573C13.3906 5.29471 13.3746 5.29471 13.3586 5.29573H13.3516H13.3266C13.2991 5.29852 13.2718 5.30285 13.2447 5.30871C13.2257 5.30871 13.2077 5.3207 13.1888 5.32569C13.0036 5.38363 12.8357 5.48657 12.7001 5.62528C12.5143 5.80803 12.3004 6.02473 12.0756 6.24742C11.6193 6.70945 11.158 7.17015 10.6917 7.62952L10.3689 7.95108C10.3566 7.96248 10.3436 7.97315 10.33 7.98303L10.315 7.97205C10.2877 7.95319 10.262 7.93215 10.238 7.90913C10.1941 7.86919 10.1511 7.82525 10.1091 7.78231L9.42268 7.09426C8.94972 6.61891 8.47575 6.14523 8.00079 5.67321C7.73 5.40558 7.44222 5.28075 7.14945 5.28974C7.13315 5.28872 7.11679 5.28872 7.10049 5.28974H7.09449H7.06951C7.04198 5.29252 7.01462 5.29686 6.98758 5.30272C6.96859 5.30272 6.9506 5.3147 6.93162 5.3197C6.74626 5.37783 6.57809 5.48073 6.442 5.61928C6.25714 5.80203 6.04231 6.01874 5.81848 6.24143C5.35818 6.7008 4.89753 7.16017 4.43656 7.61953L3.78607 8.26964C3.72584 8.32797 3.67006 8.39073 3.6192 8.45738L3.37538 8.70204C3.18604 8.8772 3.07029 9.11766 3.05153 9.37483C3.03276 9.632 3.11238 9.8867 3.2743 10.0875C3.43622 10.2882 3.66835 10.42 3.92379 10.4563C4.17923 10.4926 4.43893 10.4306 4.65039 10.2829L4.65639 10.2769C4.74283 10.2144 4.82374 10.1445 4.8982 10.0682C5.49574 9.48696 6.44999 8.51131 7.04153 7.91912C7.08386 7.87605 7.12856 7.83537 7.17543 7.79729L7.19441 7.7893C7.23872 7.81827 7.2799 7.85173 7.31732 7.88916C7.45122 8.02098 7.58311 8.1548 7.71701 8.28861C7.82492 8.39746 7.93184 8.50631 8.04076 8.61516L8.40048 8.97467C8.77319 9.34716 9.1459 9.71964 9.5226 10.0881L9.53659 10.1001C9.63171 10.2189 9.75251 10.3145 9.88992 10.3799C10.0273 10.4453 10.1778 10.4787 10.33 10.4776H10.341C10.4978 10.4755 10.652 10.4373 10.7916 10.3658C10.8329 10.3443 10.8726 10.3199 10.9105 10.2929L10.9165 10.2869C11.003 10.2244 11.0839 10.1545 11.1583 10.0782C11.4311 9.80653 11.7818 9.45201 12.1376 9.09251L13.3366 7.89416C13.374 7.85666 13.4137 7.82163 13.4555 7.7893C13.4972 7.81891 13.536 7.85234 13.5715 7.88916C13.7054 8.02098 13.8372 8.1548 13.9711 8.28861C14.0791 8.39746 14.186 8.50631 14.2949 8.61516L14.6546 8.97467C15.0273 9.34716 15.4 9.71964 15.7767 10.0881C15.9493 10.2715 16.1721 10.4 16.4172 10.4576C16.4362 10.4576 16.4562 10.4576 16.4752 10.4646C16.5102 10.4706 16.5456 10.4746 16.5811 10.4766H16.5871H16.6061C16.6181 10.4766 16.6301 10.4766 16.6421 10.4766H16.691H16.698H16.723C16.7505 10.4737 16.7779 10.4693 16.8049 10.4636C16.8239 10.4636 16.8419 10.4516 16.8609 10.4466C17.0458 10.3881 17.2135 10.2852 17.3495 10.1471C17.5344 9.96431 17.7492 9.74761 17.972 9.52591C18.4337 9.06654 18.895 8.60684 19.356 8.14681L19.6787 7.82425C19.6927 7.81227 19.7067 7.80028 19.7167 7.79329C19.7222 7.79626 19.7276 7.7996 19.7327 7.80328C19.7598 7.82204 19.7855 7.84274 19.8096 7.8652C19.8536 7.90614 19.8965 7.94908 19.9385 7.99202L20.625 8.68107C21.0979 9.15575 21.5719 9.6291 22.0469 10.1011C22.3167 10.3688 22.6054 10.4946 22.8982 10.4856H22.9462H22.9532H22.9781C23.0057 10.4828 23.033 10.4785 23.0601 10.4726C23.0791 10.4726 23.097 10.4606 23.116 10.4556C23.301 10.3973 23.4688 10.2944 23.6047 10.156C23.7905 9.9733 24.0043 9.75659 24.2272 9.5349C24.6888 9.07553 25.1501 8.61583 25.6111 8.1558L26.2626 7.48971C26.3225 7.43075 26.3783 7.36768 26.4295 7.30097L26.6733 7.05731C26.7893 6.94999 26.8789 6.8172 26.9349 6.6694C26.9908 6.5216 27.0117 6.36283 26.9958 6.2056C26.9799 6.04837 26.9277 5.89698 26.8433 5.76334C26.7589 5.62971 26.6446 5.5175 26.5094 5.43554V5.43654Z" fill="#00DED2"/>
<path d="M26.5094 19.0548C26.3607 19.1449 26.1913 19.1951 26.0175 19.2007C25.8437 19.2063 25.6714 19.1671 25.5172 19.0868C25.4759 19.0653 25.4361 19.0409 25.3983 19.0139L25.3923 19.0079C25.3058 18.9454 25.2249 18.8755 25.1504 18.7992C24.5569 18.209 23.6006 17.2323 23.0101 16.6401C22.9678 16.5971 22.9231 16.5564 22.8762 16.5183L22.8602 16.5063C22.8159 16.5353 22.7747 16.5687 22.7373 16.6062C22.6034 16.739 22.4715 16.8728 22.3376 17.0056C22.2297 17.1145 22.1228 17.2243 22.0139 17.3322L21.6542 17.6917C21.2815 18.0642 20.9087 18.4377 20.532 18.8061L20.518 18.8171C20.4229 18.9359 20.3021 19.0315 20.1647 19.0969C20.0273 19.1623 19.8769 19.1957 19.7247 19.1946H19.7137C19.5558 19.1922 19.4006 19.1536 19.26 19.0818C19.2187 19.0603 19.179 19.0359 19.1411 19.0089L19.1341 19.0029C19.0482 18.9401 18.9676 18.8703 18.8933 18.7942C18.6195 18.5225 18.2688 18.168 17.9131 17.8075L16.714 16.6092C16.6767 16.5713 16.637 16.536 16.5951 16.5033C16.5532 16.5327 16.5144 16.5661 16.4792 16.6032C16.3453 16.736 16.2134 16.8698 16.0795 17.0026L15.7557 17.3292L15.396 17.6887C15.0233 18.0612 14.6506 18.4347 14.2729 18.8032C14.1005 18.986 13.8781 19.1142 13.6334 19.1716C13.6144 19.1716 13.5944 19.1716 13.5754 19.1786C13.5395 19.1786 13.5045 19.1906 13.4695 19.1916H13.4605H13.4425C13.4306 19.1916 13.4186 19.1916 13.4056 19.1916H13.3576H13.3506H13.3256C13.2981 19.1888 13.2708 19.1845 13.2437 19.1786C13.2247 19.1786 13.2067 19.1667 13.1877 19.1617C13.0028 19.1033 12.835 19.0005 12.6991 18.8621C12.5133 18.6793 12.2994 18.4626 12.0746 18.2399L10.6917 16.8618L10.3689 16.5393L10.33 16.5083L10.315 16.5183C10.2879 16.5371 10.2622 16.5577 10.238 16.5802C10.1941 16.6212 10.1511 16.6651 10.1091 16.708L9.42268 17.3961C8.95004 17.8704 8.47741 18.3458 8.00078 18.8161C7.72999 19.0848 7.44222 19.2096 7.14944 19.2006C7.13246 19.2006 7.11647 19.2006 7.10048 19.2006H7.09449H7.06951C7.04197 19.1978 7.01462 19.1935 6.98757 19.1876C6.96858 19.1876 6.9506 19.1756 6.93161 19.1706C6.74642 19.1121 6.57834 19.0093 6.44199 18.8711C6.25714 18.6883 6.0423 18.4716 5.81848 18.2489L4.43655 16.8708L3.78606 16.2207C3.72584 16.162 3.67006 16.0989 3.61919 16.032L3.37838 15.7783C3.18903 15.6032 3.07328 15.3627 3.05452 15.1055C3.03575 14.8484 3.11538 14.5937 3.27729 14.3929C3.43921 14.1922 3.67135 14.0603 3.92679 14.024C4.18223 13.9878 4.44192 14.0498 4.65338 14.1975L4.65938 14.2035C4.74583 14.266 4.82673 14.3358 4.90119 14.4122C5.49573 15.0034 6.44999 15.978 7.04153 16.5772C7.08385 16.6203 7.12855 16.661 7.17542 16.699L7.19141 16.711C7.23571 16.6821 7.2769 16.6486 7.31431 16.6112C7.44821 16.4783 7.58011 16.3445 7.714 16.2117C7.82192 16.1039 7.92884 15.994 8.03775 15.8862L8.39747 15.5267C8.77018 15.1542 9.14289 14.7807 9.5196 14.4122L9.53359 14.4012C9.62871 14.2825 9.74951 14.1868 9.88692 14.1214C10.0243 14.0561 10.1748 14.0227 10.327 14.0237H10.338C10.4958 14.0262 10.651 14.0648 10.7916 14.1366C10.8329 14.1581 10.8726 14.1824 10.9105 14.2095L10.9165 14.2155C11.003 14.278 11.0839 14.3478 11.1583 14.4242C11.4311 14.6958 11.7818 15.0493 12.1376 15.4098L13.3366 16.6082C13.3739 16.646 13.4136 16.6814 13.4555 16.714C13.4972 16.6844 13.536 16.651 13.5715 16.6142C13.7053 16.4813 13.8372 16.3475 13.9711 16.2147C14.0791 16.1069 14.186 15.997 14.2949 15.8892L14.6546 15.5297C15.0273 15.1572 15.4 14.7837 15.7767 14.4152C15.9496 14.2325 16.1723 14.1044 16.4172 14.0467C16.4362 14.0467 16.4562 14.0467 16.4752 14.0397C16.5102 14.0334 16.5456 14.029 16.5811 14.0267H16.5871H16.6061H16.6421C16.659 14.0267 16.676 14.0267 16.691 14.0267H16.698H16.723C16.7505 14.0297 16.7779 14.034 16.8049 14.0397C16.8239 14.0397 16.8419 14.0517 16.8609 14.0567C17.0458 14.1152 17.2135 14.2181 17.3495 14.3563C17.5344 14.539 17.7492 14.7557 17.972 14.9774C18.4337 15.4368 18.895 15.8965 19.356 16.3565L19.6787 16.6791L19.7167 16.71L19.7327 16.7C19.7598 16.6813 19.7855 16.6606 19.8096 16.6381C19.8536 16.5972 19.8965 16.5532 19.9385 16.5103L20.625 15.8223C21.0976 15.3479 21.5702 14.8726 22.0469 14.4022C22.3166 14.1336 22.6054 14.0087 22.8982 14.0177H22.9462H22.9532H22.9781C23.0057 14.0205 23.033 14.0249 23.0601 14.0307C23.0791 14.0307 23.097 14.0427 23.116 14.0477C23.301 14.106 23.4688 14.2089 23.6046 14.3473C23.7905 14.53 24.0043 14.7467 24.2272 14.9684C24.6888 15.4278 25.1501 15.8875 25.6111 16.3475L26.2616 16.9976C26.3215 17.0566 26.3773 17.1197 26.4284 17.1864L26.6723 17.43C26.7883 17.5374 26.8779 17.6701 26.9338 17.8179C26.9898 17.9657 27.0107 18.1245 26.9948 18.2817C26.9789 18.439 26.9267 18.5904 26.8423 18.724C26.7579 18.8576 26.6436 18.9699 26.5084 19.0518L26.5094 19.0548Z" fill="#00DED2"/>
<path d="M7.1754 13.2668C7.73995 13.2668 8.19761 12.8094 8.19761 12.2452C8.19761 11.681 7.73995 11.2236 7.1754 11.2236C6.61085 11.2236 6.1532 11.681 6.1532 12.2452C6.1532 12.8094 6.61085 13.2668 7.1754 13.2668Z" fill="#00DED2"/>
<path d="M13.4585 13.2668C14.0231 13.2668 14.4807 12.8094 14.4807 12.2452C14.4807 11.681 14.0231 11.2236 13.4585 11.2236C12.894 11.2236 12.4363 11.681 12.4363 12.2452C12.4363 12.8094 12.894 13.2668 13.4585 13.2668Z" fill="#00DED2"/>
<path d="M19.7336 13.2668C20.2982 13.2668 20.7558 12.8094 20.7558 12.2452C20.7558 11.681 20.2982 11.2236 19.7336 11.2236C19.1691 11.2236 18.7114 11.681 18.7114 12.2452C18.7114 12.8094 19.1691 13.2668 19.7336 13.2668Z" fill="#00DED2"/>
<path d="M26.0088 13.2668C26.5733 13.2668 27.031 12.8094 27.031 12.2452C27.031 11.681 26.5733 11.2236 26.0088 11.2236C25.4442 11.2236 24.9866 11.681 24.9866 12.2452C24.9866 12.8094 25.4442 13.2668 26.0088 13.2668Z" fill="#00DED2"/>
<path d="M53.4964 13.2098C54.1309 12.9462 54.9952 12.8104 56.0524 12.8104C56.6418 12.808 57.2306 12.773 57.816 12.7055C59.3828 12.5288 60.427 12.0065 61.0136 11.1147C61.3371 10.6002 61.5178 10.0088 61.5369 9.40136C61.5561 8.79393 61.413 8.19236 61.1225 7.65848C60.8454 7.14997 60.4595 6.70876 59.9924 6.36626C59.4968 6.00941 58.9425 5.74207 58.3546 5.57634C56.6899 5.08602 54.9023 5.23581 53.4584 5.98877C51.9406 6.77669 50.7845 8.30359 50.2869 10.176C49.6974 12.397 50.151 15.0204 51.444 16.8578C52.4872 18.3398 54.2528 19.1906 56.2902 19.1906C57.2435 19.2038 58.1867 18.9949 59.0451 18.5805C59.6868 18.2646 60.2713 17.844 60.7747 17.3362C60.8549 17.2543 60.9196 17.1585 60.9656 17.0536C61.0547 16.8884 61.0994 16.7028 61.0952 16.5152C61.0911 16.3275 61.0382 16.1442 60.9418 15.9831C60.8454 15.822 60.7087 15.6887 60.5453 15.5963C60.3818 15.5038 60.1972 15.4554 60.0093 15.4558C59.7908 15.4553 59.5773 15.5219 59.3978 15.6465C59.3728 15.6641 59.3491 15.6834 59.3269 15.7044L59.2839 15.7404C59.2657 15.7547 59.2484 15.77 59.2319 15.7863L59.211 15.8043C58.9783 16.0527 58.7178 16.2735 58.4346 16.4624C58.1256 16.6684 57.7936 16.8377 57.4453 16.9667C56.6488 17.2452 55.7785 17.2271 54.9942 16.9158C54.5668 16.7528 54.1678 16.5233 53.8122 16.2357C53.4787 15.9686 53.1946 15.6451 52.9728 15.28C52.7805 14.9681 52.6769 14.6098 52.673 14.2434C52.672 13.7811 52.9418 13.4415 53.4964 13.2098ZM56.4181 10.6703C56.0644 10.6703 55.6547 10.6863 55.1991 10.7193C54.7427 10.7519 54.2895 10.8187 53.8431 10.919C53.4031 11.0172 52.975 11.1625 52.5661 11.3524C52.4526 11.4052 52.3418 11.4638 52.2344 11.5282C52.2684 11.3953 52.3013 11.1996 52.3423 10.929C52.3633 10.7842 52.3823 10.6594 52.3973 10.6044C52.4958 10.2406 52.6385 9.89017 52.8219 9.56086C53.1753 8.91203 53.6893 8.36465 54.3148 7.97105C54.9063 7.60655 55.7547 7.37187 56.596 7.37187C57.5812 7.37187 58.5565 7.69543 59.0941 8.5143C59.3598 8.91974 59.4588 9.58283 59.116 10.0122C58.7493 10.4716 58.0249 10.5825 57.5113 10.6264C57.1476 10.6544 56.7799 10.6703 56.4181 10.6703Z" fill="#00DED2"/>
<path d="M48.3624 5.35365C48.1016 5.26235 47.8152 5.27828 47.5662 5.39794C47.3172 5.5176 47.1259 5.7312 47.0344 5.99177L43.8829 14.8985L41.0161 6.05069C40.9976 5.99867 40.9755 5.94795 40.9501 5.8989L40.9422 5.88292C40.9312 5.86195 40.9192 5.84198 40.9052 5.82001C40.7839 5.60417 40.5887 5.43929 40.3556 5.35564C40.2263 5.30976 40.0892 5.28983 39.9522 5.29698C39.8152 5.30413 39.6809 5.33823 39.5571 5.39732C39.4332 5.45641 39.3223 5.53933 39.2306 5.64134C39.1389 5.74334 39.0682 5.86243 39.0226 5.99177L35.8721 14.8965L32.9853 6.01674C32.8995 5.75387 32.7126 5.53586 32.4659 5.41066C32.2192 5.28547 31.9329 5.26334 31.6699 5.34915C31.4068 5.43497 31.1887 5.62169 31.0634 5.86824C30.9382 6.11479 30.916 6.40098 31.0019 6.66385L34.8359 18.4746C34.9022 18.6821 35.0319 18.8636 35.2069 18.9935C35.3819 19.1234 35.5932 19.1951 35.8111 19.1986H35.8281C36.044 19.1978 36.2544 19.1301 36.4303 19.0049C36.6062 18.8798 36.7389 18.7032 36.8104 18.4996L39.9689 9.58083L42.8507 18.4686C42.9169 18.676 43.0465 18.8573 43.2213 18.9872C43.396 19.1171 43.6072 19.1889 43.8249 19.1926H43.8419C44.0579 19.1917 44.2684 19.124 44.4444 18.9989C44.6204 18.8737 44.7534 18.6972 44.8251 18.4936L48.9999 6.69081C49.0924 6.42899 49.0773 6.14117 48.9578 5.89049C48.8383 5.63981 48.6241 5.44674 48.3624 5.35365Z" fill="#00DED2"/>
<path d="M78.6298 5.29272C78.3454 5.29431 78.0731 5.40849 77.8728 5.61026C77.6724 5.81204 77.5601 6.08495 77.5607 6.36924V18.1191C77.5607 18.4025 77.6733 18.6743 77.8738 18.8747C78.0743 19.075 78.3463 19.1876 78.6298 19.1876C78.9134 19.1876 79.1853 19.075 79.3859 18.8747C79.5864 18.6743 79.699 18.4025 79.699 18.1191V6.36924C79.6995 6.08495 79.5873 5.81204 79.3869 5.61026C79.1865 5.40849 78.9143 5.29431 78.6298 5.29272Z" fill="#00DED2"/>
<path d="M69.2802 5.29272C66.2425 5.39258 63.7714 8.03594 63.7714 11.1846V18.1011C63.767 18.2469 63.7919 18.3921 63.8447 18.5281C63.8975 18.664 63.977 18.788 64.0786 18.8927C64.1803 18.9974 64.3019 19.0806 64.4363 19.1375C64.5707 19.1943 64.7151 19.2236 64.8611 19.2236C65.007 19.2236 65.1515 19.1943 65.2859 19.1375C65.4203 19.0806 65.5419 18.9974 65.6435 18.8927C65.7451 18.788 65.8247 18.664 65.8775 18.5281C65.9302 18.3921 65.9552 18.2469 65.9507 18.1011V11.1107C65.9507 9.17538 67.4606 7.53363 69.3161 7.45175C69.7933 7.42853 70.2701 7.5036 70.7171 7.6723C71.164 7.841 71.5714 8.09972 71.9141 8.4324C72.2603 8.76381 72.5354 9.16216 72.7226 9.60321C72.9099 10.0443 73.0053 10.5188 73.0032 10.9979V18.1011C73.0032 18.3898 73.118 18.6667 73.3223 18.8708C73.5265 19.0749 73.8035 19.1896 74.0924 19.1896C74.3813 19.1896 74.6583 19.0749 74.8626 18.8708C75.0668 18.6667 75.1816 18.3898 75.1816 18.1011V11.0348C75.1848 10.2652 75.0324 9.50277 74.7337 8.79338C74.4349 8.08398 73.9959 7.44219 73.4429 6.9065C72.8957 6.36825 72.2441 5.94745 71.5283 5.66994C70.8125 5.39243 70.0474 5.26406 69.2802 5.29272Z" fill="#00DED2"/>
</svg>
