<svg width="155" height="25" viewBox="0 0 155 25" fill="none" xmlns="http://www.w3.org/2000/svg">
<path d="M92.7982 9.65974H91.5259V0.262315H92.7982V9.65974Z" fill="#67738B"/>
<path d="M95.9258 3.98063C96.07 3.81887 96.223 3.67241 96.3848 3.54125C96.5466 3.41009 96.7171 3.29861 96.8963 3.2068C97.0799 3.11062 97.2723 3.03848 97.4734 2.99039C97.6789 2.93792 97.8997 2.91169 98.1358 2.91169C98.4986 2.91169 98.8178 2.9729 99.0932 3.09531C99.373 3.21336 99.6047 3.38386 99.7883 3.60683C99.9763 3.82542 100.118 4.08992 100.215 4.40033C100.311 4.71074 100.359 5.05393 100.359 5.42992V9.65974H99.185V5.42992C99.185 4.92715 99.0692 4.53805 98.8375 4.26262C98.6101 3.98281 98.2625 3.84291 97.7947 3.84291C97.4494 3.84291 97.1258 3.92598 96.8242 4.09211C96.5269 4.25824 96.2515 4.4834 95.9979 4.76757V9.65974H94.824V3.01662H95.5257C95.6919 3.01662 95.7946 3.0975 95.8339 3.25926L95.9258 3.98063Z" fill="#67738B"/>
<path d="M104.087 9.76467C103.563 9.76467 103.158 9.61821 102.874 9.32529C102.594 9.03237 102.455 8.61048 102.455 8.05962V3.99374H101.654C101.585 3.99374 101.525 3.97407 101.477 3.93472C101.429 3.891 101.405 3.82542 101.405 3.73798V3.27238L102.494 3.13466L102.763 1.08205C102.776 1.01647 102.804 0.964008 102.848 0.924661C102.896 0.880942 102.957 0.859081 103.032 0.859081H103.622V3.14778H105.543V3.99374H103.622V7.98093C103.622 8.26073 103.69 8.46839 103.825 8.60392C103.961 8.73945 104.136 8.80722 104.35 8.80722C104.472 8.80722 104.577 8.79192 104.665 8.76131C104.756 8.72634 104.835 8.68917 104.901 8.64983C104.966 8.61048 105.021 8.57551 105.065 8.5449C105.113 8.50993 105.154 8.49244 105.189 8.49244C105.25 8.49244 105.305 8.5296 105.353 8.60392L105.694 9.16134C105.493 9.34933 105.25 9.49798 104.966 9.60728C104.682 9.7122 104.389 9.76467 104.087 9.76467Z" fill="#67738B"/>
<path d="M111.156 5.61354C111.156 5.34248 111.117 5.09546 111.038 4.8725C110.964 4.64516 110.853 4.45061 110.704 4.28885C110.56 4.12271 110.383 3.99593 110.173 3.90849C109.963 3.81668 109.725 3.77077 109.458 3.77077C108.898 3.77077 108.455 3.93472 108.127 4.26262C107.803 4.58614 107.602 5.03644 107.523 5.61354H111.156ZM112.101 8.72852C111.956 8.9034 111.784 9.05642 111.583 9.18757C111.382 9.31436 111.165 9.41929 110.933 9.50235C110.706 9.58542 110.47 9.64662 110.225 9.68597C109.98 9.72969 109.738 9.75155 109.497 9.75155C109.038 9.75155 108.614 9.67504 108.225 9.52203C107.84 9.36464 107.506 9.1373 107.222 8.84001C106.942 8.53834 106.723 8.16673 106.566 7.72517C106.409 7.28361 106.33 6.77646 106.33 6.20374C106.33 5.74032 106.4 5.3075 106.54 4.90529C106.684 4.50307 106.889 4.1555 107.156 3.86259C107.423 3.5653 107.749 3.33358 108.133 3.16745C108.518 2.99695 108.951 2.91169 109.432 2.91169C109.83 2.91169 110.197 2.97946 110.533 3.11499C110.874 3.24615 111.167 3.43851 111.412 3.69208C111.661 3.94128 111.856 4.25169 111.996 4.6233C112.136 4.99054 112.206 5.41024 112.206 5.88241C112.206 6.06603 112.186 6.18844 112.147 6.24965C112.107 6.31086 112.033 6.34146 111.924 6.34146H107.484C107.497 6.76116 107.554 7.12622 107.655 7.43662C107.759 7.74703 107.904 8.00716 108.087 8.21701C108.271 8.42249 108.49 8.57769 108.743 8.68262C108.997 8.78317 109.281 8.83345 109.596 8.83345C109.889 8.83345 110.14 8.80066 110.35 8.73508C110.564 8.66513 110.748 8.59081 110.901 8.51211C111.054 8.43342 111.18 8.36128 111.281 8.2957C111.386 8.22575 111.476 8.19078 111.55 8.19078C111.646 8.19078 111.72 8.22794 111.773 8.30226L112.101 8.72852Z" fill="#67738B"/>
<path d="M114.846 0V9.65974H113.679V0H114.846Z" fill="#67738B"/>
<path d="M117.972 3.01662V9.65974H116.805V3.01662H117.972ZM118.221 0.931217C118.221 1.04489 118.197 1.152 118.149 1.25255C118.105 1.34873 118.044 1.43617 117.965 1.51487C117.891 1.58919 117.801 1.64821 117.697 1.69193C117.596 1.73565 117.489 1.75751 117.375 1.75751C117.262 1.75751 117.154 1.73565 117.054 1.69193C116.958 1.64821 116.872 1.58919 116.798 1.51487C116.724 1.43617 116.665 1.34873 116.621 1.25255C116.577 1.152 116.555 1.04489 116.555 0.931217C116.555 0.817547 116.577 0.710437 116.621 0.609883C116.665 0.504957 116.724 0.415332 116.798 0.341009C116.872 0.262316 116.958 0.201108 117.054 0.157388C117.154 0.113669 117.262 0.0918098 117.375 0.0918098C117.489 0.0918098 117.596 0.113669 117.697 0.157388C117.801 0.201108 117.891 0.262316 117.965 0.341009C118.044 0.415332 118.105 0.504957 118.149 0.609883C118.197 0.710437 118.221 0.817547 118.221 0.931217Z" fill="#67738B"/>
<path d="M122.205 6.4136C122.441 6.4136 122.649 6.38081 122.828 6.31523C123.007 6.24965 123.158 6.15784 123.28 6.0398C123.403 5.92176 123.495 5.78185 123.556 5.62009C123.617 5.45396 123.648 5.27253 123.648 5.07579C123.648 4.6692 123.523 4.34568 123.274 4.10523C123.029 3.86477 122.673 3.74454 122.205 3.74454C121.733 3.74454 121.372 3.86477 121.123 4.10523C120.878 4.34568 120.756 4.6692 120.756 5.07579C120.756 5.27253 120.786 5.45396 120.847 5.62009C120.913 5.78185 121.007 5.92176 121.129 6.0398C121.252 6.15784 121.403 6.24965 121.582 6.31523C121.761 6.38081 121.969 6.4136 122.205 6.4136ZM124.31 10.0204C124.31 9.85866 124.264 9.7275 124.172 9.62695C124.08 9.5264 123.956 9.4477 123.798 9.39087C123.645 9.33403 123.466 9.29469 123.261 9.27283C123.055 9.24659 122.837 9.22692 122.605 9.21381C122.378 9.20069 122.146 9.18757 121.91 9.17446C121.674 9.16134 121.446 9.13948 121.228 9.10888C120.983 9.22255 120.782 9.36682 120.624 9.5417C120.471 9.7122 120.395 9.91331 120.395 10.145C120.395 10.2937 120.432 10.4314 120.506 10.5582C120.585 10.6893 120.703 10.8008 120.861 10.8926C121.018 10.9888 121.215 11.0631 121.451 11.1156C121.691 11.1724 121.973 11.2008 122.297 11.2008C122.611 11.2008 122.893 11.1724 123.143 11.1156C123.392 11.0588 123.602 10.9779 123.772 10.8729C123.947 10.768 124.08 10.6434 124.172 10.4991C124.264 10.3549 124.31 10.1953 124.31 10.0204ZM125.497 3.27893V3.71175C125.497 3.85603 125.405 3.94784 125.221 3.98718L124.467 4.08555C124.616 4.3741 124.69 4.69325 124.69 5.043C124.69 5.36652 124.627 5.66163 124.5 5.92831C124.378 6.19063 124.207 6.41578 123.989 6.60377C123.77 6.79177 123.508 6.93604 123.202 7.03659C122.896 7.13715 122.563 7.18742 122.205 7.18742C121.894 7.18742 121.602 7.15026 121.326 7.07594C121.186 7.16338 121.079 7.25737 121.005 7.35793C120.93 7.45411 120.893 7.55248 120.893 7.65303C120.893 7.81042 120.957 7.93065 121.083 8.01372C121.215 8.09241 121.385 8.14924 121.595 8.18422C121.805 8.21919 122.043 8.24106 122.31 8.2498C122.581 8.25854 122.856 8.27384 123.136 8.2957C123.42 8.31319 123.696 8.34598 123.962 8.39407C124.233 8.44216 124.474 8.52086 124.684 8.63015C124.894 8.73945 125.062 8.89028 125.189 9.08265C125.32 9.27501 125.385 9.52421 125.385 9.83024C125.385 10.1144 125.313 10.3898 125.169 10.6565C125.029 10.9232 124.826 11.1593 124.559 11.3648C124.292 11.5746 123.965 11.7408 123.575 11.8632C123.191 11.99 122.756 12.0534 122.27 12.0534C121.785 12.0534 121.361 12.0053 120.998 11.9091C120.635 11.8129 120.334 11.6839 120.093 11.5222C119.853 11.3604 119.671 11.1724 119.549 10.9582C119.431 10.7483 119.372 10.5276 119.372 10.2959C119.372 9.96796 119.475 9.69034 119.68 9.463C119.886 9.23567 120.168 9.05423 120.526 8.9187C120.329 8.83126 120.172 8.71541 120.054 8.57113C119.94 8.42249 119.883 8.22357 119.883 7.97437C119.883 7.87819 119.901 7.77982 119.936 7.67926C119.971 7.57434 120.023 7.4716 120.093 7.37104C120.168 7.26612 120.257 7.16775 120.362 7.07594C120.467 6.98413 120.589 6.90325 120.729 6.8333C120.401 6.64968 120.146 6.40704 119.962 6.10538C119.778 5.79934 119.687 5.44522 119.687 5.043C119.687 4.71948 119.748 4.42656 119.87 4.16425C119.997 3.89756 120.172 3.67241 120.395 3.48879C120.618 3.30079 120.882 3.15652 121.188 3.05597C121.499 2.95541 121.838 2.90514 122.205 2.90514C122.493 2.90514 122.762 2.93792 123.011 3.0035C123.261 3.06471 123.488 3.15652 123.694 3.27893H125.497Z" fill="#67738B"/>
<path d="M131.048 5.61354C131.048 5.34248 131.008 5.09546 130.93 4.8725C130.855 4.64516 130.744 4.45061 130.595 4.28885C130.451 4.12271 130.274 3.99593 130.064 3.90849C129.854 3.81668 129.616 3.77077 129.349 3.77077C128.79 3.77077 128.346 3.93472 128.018 4.26262C127.694 4.58614 127.493 5.03644 127.415 5.61354H131.048ZM131.992 8.72852C131.848 8.9034 131.675 9.05642 131.474 9.18757C131.273 9.31436 131.056 9.41929 130.825 9.50235C130.597 9.58542 130.361 9.64662 130.117 9.68597C129.872 9.72969 129.629 9.75155 129.389 9.75155C128.93 9.75155 128.505 9.67504 128.116 9.52203C127.732 9.36464 127.397 9.1373 127.113 8.84001C126.833 8.53834 126.615 8.16673 126.457 7.72517C126.3 7.28361 126.221 6.77646 126.221 6.20374C126.221 5.74032 126.291 5.3075 126.431 4.90529C126.575 4.50307 126.781 4.1555 127.047 3.86259C127.314 3.5653 127.64 3.33358 128.025 3.16745C128.409 2.99695 128.842 2.91169 129.323 2.91169C129.721 2.91169 130.088 2.97946 130.425 3.11499C130.766 3.24615 131.059 3.43851 131.304 3.69208C131.553 3.94128 131.747 4.25169 131.887 4.6233C132.027 4.99054 132.097 5.41024 132.097 5.88241C132.097 6.06603 132.077 6.18844 132.038 6.24965C131.999 6.31086 131.924 6.34146 131.815 6.34146H127.375C127.388 6.76116 127.445 7.12622 127.546 7.43662C127.651 7.74703 127.795 8.00716 127.979 8.21701C128.162 8.42249 128.381 8.57769 128.634 8.68262C128.888 8.78317 129.172 8.83345 129.487 8.83345C129.78 8.83345 130.031 8.80066 130.241 8.73508C130.455 8.66513 130.639 8.59081 130.792 8.51211C130.945 8.43342 131.072 8.36128 131.172 8.2957C131.277 8.22575 131.367 8.19078 131.441 8.19078C131.537 8.19078 131.612 8.22794 131.664 8.30226L131.992 8.72852ZM131.356 1.99359H130.576C130.527 1.99359 130.477 1.98485 130.425 1.96736C130.377 1.94987 130.329 1.91708 130.28 1.86899L129.474 1.00335C129.435 0.968379 129.4 0.926845 129.369 0.878754C129.347 0.900614 129.327 0.922473 129.31 0.944332C129.292 0.966192 129.275 0.985867 129.257 1.00335L128.444 1.86899C128.352 1.95206 128.254 1.99359 128.149 1.99359H127.343L128.805 0.262315H129.894L131.356 1.99359Z" fill="#67738B"/>
<path d="M134.633 3.98063C134.777 3.81887 134.93 3.67241 135.092 3.54125C135.253 3.41009 135.424 3.29861 135.603 3.2068C135.787 3.11062 135.979 3.03848 136.18 2.99039C136.386 2.93792 136.606 2.91169 136.843 2.91169C137.205 2.91169 137.525 2.9729 137.8 3.09531C138.08 3.21336 138.312 3.38386 138.495 3.60683C138.683 3.82542 138.825 4.08992 138.921 4.40033C139.018 4.71074 139.066 5.05393 139.066 5.42992V9.65974H137.892V5.42992C137.892 4.92715 137.776 4.53805 137.544 4.26262C137.317 3.98281 136.969 3.84291 136.502 3.84291C136.156 3.84291 135.833 3.92598 135.531 4.09211C135.234 4.25824 134.958 4.4834 134.705 4.76757V9.65974H133.531V3.01662H134.233C134.399 3.01662 134.501 3.0975 134.541 3.25926L134.633 3.98063Z" fill="#67738B"/>
<path d="M145.468 4.19704C145.433 4.24513 145.398 4.28229 145.363 4.30852C145.328 4.33475 145.28 4.34787 145.218 4.34787C145.153 4.34787 145.081 4.32164 145.002 4.26917C144.923 4.21234 144.825 4.15113 144.707 4.08555C144.593 4.01997 144.451 3.96095 144.281 3.90849C144.115 3.85166 143.909 3.82324 143.664 3.82324C143.336 3.82324 143.048 3.88226 142.799 4.0003C142.549 4.11397 142.34 4.2801 142.169 4.4987C142.003 4.71729 141.876 4.98179 141.789 5.2922C141.706 5.60261 141.664 5.95017 141.664 6.3349C141.664 6.73712 141.71 7.09561 141.802 7.41039C141.894 7.7208 142.023 7.98311 142.189 8.19733C142.359 8.40719 142.563 8.56895 142.799 8.68262C143.039 8.79192 143.308 8.84656 143.605 8.84656C143.889 8.84656 144.123 8.81378 144.307 8.7482C144.491 8.67825 144.641 8.60174 144.759 8.51867C144.882 8.4356 144.982 8.36128 145.061 8.2957C145.144 8.22575 145.225 8.19078 145.304 8.19078C145.4 8.19078 145.474 8.22794 145.527 8.30226L145.855 8.72852C145.71 8.90777 145.546 9.06079 145.363 9.18757C145.179 9.31436 144.98 9.42147 144.766 9.50891C144.556 9.59198 144.335 9.65318 144.104 9.69253C143.872 9.73188 143.636 9.75155 143.395 9.75155C142.98 9.75155 142.593 9.67504 142.235 9.52203C141.881 9.36901 141.572 9.14823 141.31 8.85968C141.048 8.56676 140.842 8.20826 140.694 7.78419C140.545 7.36011 140.471 6.87702 140.471 6.3349C140.471 5.84088 140.538 5.38401 140.674 4.96431C140.814 4.5446 141.015 4.18392 141.277 3.88226C141.544 3.57622 141.87 3.33796 142.254 3.16745C142.643 2.99695 143.089 2.91169 143.592 2.91169C144.06 2.91169 144.471 2.9882 144.825 3.14122C145.184 3.28986 145.5 3.5019 145.776 3.77733L145.468 4.19704Z" fill="#67738B"/>
<path d="M148.341 3.01662V9.65974H147.173V3.01662H148.341ZM148.59 0.931217C148.59 1.04489 148.566 1.152 148.518 1.25255C148.474 1.34873 148.413 1.43617 148.334 1.51487C148.26 1.58919 148.17 1.64821 148.065 1.69193C147.965 1.73565 147.857 1.75751 147.744 1.75751C147.63 1.75751 147.523 1.73565 147.422 1.69193C147.326 1.64821 147.241 1.58919 147.167 1.51487C147.092 1.43617 147.033 1.34873 146.99 1.25255C146.946 1.152 146.924 1.04489 146.924 0.931217C146.924 0.817547 146.946 0.710437 146.99 0.609883C147.033 0.504957 147.092 0.415332 147.167 0.341009C147.241 0.262316 147.326 0.201108 147.422 0.157388C147.523 0.113669 147.63 0.0918098 147.744 0.0918098C147.857 0.0918098 147.965 0.113669 148.065 0.157388C148.17 0.201108 148.26 0.262316 148.334 0.341009C148.413 0.415332 148.474 0.504957 148.518 0.609883C148.566 0.710437 148.59 0.817547 148.59 0.931217Z" fill="#67738B"/>
<path d="M153.859 6.66935C153.321 6.68684 152.862 6.73056 152.482 6.80051C152.106 6.86609 151.797 6.95353 151.557 7.06283C151.321 7.17212 151.148 7.30109 151.039 7.44974C150.934 7.59838 150.882 7.76452 150.882 7.94814C150.882 8.12301 150.91 8.27384 150.967 8.40063C151.024 8.52742 151.1 8.63234 151.196 8.71541C151.297 8.7941 151.413 8.85312 151.544 8.89247C151.679 8.92744 151.824 8.94493 151.977 8.94493C152.182 8.94493 152.37 8.92526 152.541 8.88591C152.711 8.84219 152.871 8.78099 153.019 8.70229C153.172 8.6236 153.317 8.5296 153.452 8.4203C153.592 8.31101 153.728 8.18641 153.859 8.0465V6.66935ZM150.088 3.95439C150.455 3.60027 150.851 3.33577 151.275 3.16089C151.699 2.98602 152.169 2.89858 152.685 2.89858C153.057 2.89858 153.387 2.95979 153.675 3.0822C153.964 3.20461 154.206 3.37512 154.403 3.59371C154.6 3.81231 154.748 4.07681 154.849 4.38721C154.95 4.69762 155 5.03863 155 5.41024V9.65974H154.482C154.368 9.65974 154.281 9.64225 154.219 9.60728C154.158 9.56793 154.11 9.49361 154.075 9.38431L153.944 8.75475C153.769 8.91652 153.599 9.06079 153.433 9.18757C153.266 9.30999 153.092 9.41491 152.908 9.50235C152.724 9.58542 152.528 9.64881 152.318 9.69253C152.112 9.74062 151.883 9.76467 151.629 9.76467C151.371 9.76467 151.129 9.72969 150.901 9.65974C150.674 9.58542 150.475 9.47612 150.304 9.33185C150.138 9.18757 150.005 9.00614 149.904 8.78754C149.808 8.56458 149.76 8.30226 149.76 8.0006C149.76 7.73828 149.832 7.4869 149.977 7.24644C150.121 7.00162 150.355 6.78521 150.678 6.59721C151.002 6.40922 151.424 6.25621 151.944 6.13816C152.464 6.01575 153.102 5.9458 153.859 5.92831V5.41024C153.859 4.89436 153.747 4.50526 153.524 4.24294C153.301 3.97626 152.976 3.84291 152.547 3.84291C152.259 3.84291 152.016 3.88007 151.819 3.95439C151.627 4.02435 151.459 4.10523 151.314 4.19704C151.174 4.28447 151.052 4.36535 150.947 4.43968C150.847 4.50963 150.746 4.5446 150.645 4.5446C150.567 4.5446 150.499 4.52493 150.442 4.48558C150.385 4.44186 150.337 4.3894 150.298 4.32819L150.088 3.95439Z" fill="#67738B"/>
<path d="M96.5166 21.1604L95.0411 17.3371C94.9974 17.2235 94.9515 17.0923 94.9034 16.9437C94.8553 16.7907 94.8094 16.6289 94.7657 16.4584C94.6739 16.8125 94.5799 17.1076 94.4837 17.3437L93.0082 21.1604H96.5166ZM99.166 24.6492H98.1823C98.0687 24.6492 97.9769 24.6208 97.9069 24.5639C97.837 24.5071 97.7845 24.4349 97.7495 24.3475L96.8708 22.0785H92.6541L91.7753 24.3475C91.7491 24.4262 91.6988 24.4962 91.6245 24.5574C91.5501 24.6186 91.4583 24.6492 91.349 24.6492H90.3654L94.123 15.2517H95.4084L99.166 24.6492Z" fill="#67738B"/>
<path d="M101.21 19.3373C101.419 18.8826 101.677 18.5285 101.983 18.2749C102.289 18.017 102.663 17.888 103.105 17.888C103.245 17.888 103.378 17.9033 103.505 17.9339C103.636 17.9645 103.752 18.0126 103.852 18.0782L103.767 18.9504C103.741 19.0597 103.675 19.1143 103.57 19.1143C103.509 19.1143 103.42 19.1012 103.301 19.075C103.183 19.0487 103.05 19.0356 102.901 19.0356C102.692 19.0356 102.504 19.0662 102.337 19.1274C102.176 19.1886 102.029 19.2805 101.898 19.4029C101.771 19.5209 101.655 19.6696 101.551 19.8488C101.45 20.0237 101.358 20.2248 101.275 20.4521V24.6492H100.101V18.006H100.77C100.897 18.006 100.984 18.0301 101.032 18.0782C101.081 18.1263 101.113 18.2093 101.131 18.3274L101.21 19.3373Z" fill="#67738B"/>
<path d="M111.043 24.6492H109.876V18.9832H106.453V22.9704C106.453 23.2502 106.52 23.4578 106.656 23.5933C106.791 23.7289 106.966 23.7966 107.181 23.7966C107.303 23.7966 107.408 23.7813 107.495 23.7507C107.587 23.7158 107.666 23.6786 107.731 23.6393C107.797 23.5999 107.852 23.5649 107.895 23.5343C107.943 23.4994 107.985 23.4819 108.02 23.4819C108.081 23.4819 108.136 23.519 108.184 23.5933L108.525 24.1508C108.324 24.3388 108.081 24.4874 107.797 24.5967C107.513 24.7016 107.22 24.7541 106.918 24.7541C106.394 24.7541 105.989 24.6076 105.705 24.3147C105.425 24.0218 105.285 23.5999 105.285 23.049V18.9832H104.485C104.415 18.9832 104.356 18.9635 104.308 18.9241C104.26 18.8804 104.236 18.8148 104.236 18.7274V18.2618L105.325 18.1175L105.594 16.0715C105.607 16.0059 105.635 15.9534 105.679 15.9141C105.727 15.8704 105.788 15.8485 105.862 15.8485H106.453V18.1372H111.043V24.6492ZM111.332 15.8747C111.332 15.9884 111.308 16.0955 111.26 16.1961C111.216 16.2923 111.155 16.3775 111.076 16.4518C111.002 16.5262 110.914 16.5852 110.814 16.6289C110.713 16.6726 110.606 16.6945 110.492 16.6945C110.379 16.6945 110.271 16.6726 110.171 16.6289C110.075 16.5852 109.99 16.5262 109.915 16.4518C109.841 16.3775 109.782 16.2923 109.738 16.1961C109.694 16.0955 109.673 15.9884 109.673 15.8747C109.673 15.7611 109.694 15.654 109.738 15.5534C109.782 15.4485 109.841 15.3589 109.915 15.2845C109.99 15.2058 110.075 15.1446 110.171 15.1009C110.271 15.0572 110.379 15.0353 110.492 15.0353C110.606 15.0353 110.713 15.0572 110.814 15.1009C110.914 15.1446 111.002 15.2058 111.076 15.2845C111.155 15.3589 111.216 15.4485 111.26 15.5534C111.308 15.654 111.332 15.7611 111.332 15.8747Z" fill="#67738B"/>
<path d="M113.407 24.6492V19.0028L112.672 18.9176C112.576 18.8957 112.5 18.8629 112.443 18.8192C112.386 18.7711 112.357 18.7034 112.357 18.6159V18.1372H113.407V17.77C113.407 17.3634 113.47 16.9918 113.597 16.6551C113.724 16.3141 113.914 16.0212 114.167 15.7764C114.421 15.5315 114.736 15.3414 115.112 15.2058C115.492 15.0703 115.932 15.0025 116.43 15.0025C116.596 15.0025 116.767 15.0135 116.941 15.0353C117.116 15.0572 117.267 15.09 117.394 15.1337L117.348 15.7436C117.344 15.7873 117.326 15.8179 117.296 15.8354C117.269 15.8529 117.232 15.8638 117.184 15.8682C117.136 15.8726 117.075 15.8747 117 15.8747C116.93 15.8704 116.85 15.8682 116.758 15.8682C115.98 15.8682 115.416 16.0299 115.066 16.3535C114.716 16.6726 114.541 17.1557 114.541 17.8028V18.1372H118.555V24.6492H117.381V18.9832H114.574V24.6492H113.407Z" fill="#67738B"/>
<path d="M125.09 19.1865C125.055 19.2346 125.02 19.2717 124.985 19.2979C124.95 19.3242 124.902 19.3373 124.841 19.3373C124.775 19.3373 124.703 19.3111 124.624 19.2586C124.545 19.2018 124.447 19.1406 124.329 19.075C124.215 19.0094 124.073 18.9504 123.903 18.8979C123.737 18.8411 123.531 18.8127 123.286 18.8127C122.958 18.8127 122.67 18.8717 122.421 18.9897C122.172 19.1034 121.962 19.2695 121.791 19.4881C121.625 19.7067 121.498 19.9712 121.411 20.2816C121.328 20.592 121.286 20.9396 121.286 21.3243C121.286 21.7265 121.332 22.085 121.424 22.3998C121.516 22.7102 121.645 22.9725 121.811 23.1868C121.981 23.3966 122.185 23.5584 122.421 23.672C122.661 23.7813 122.93 23.836 123.227 23.836C123.512 23.836 123.745 23.8032 123.929 23.7376C124.113 23.6677 124.263 23.5912 124.382 23.5081C124.504 23.425 124.605 23.3507 124.683 23.2851C124.766 23.2152 124.847 23.1802 124.926 23.1802C125.022 23.1802 125.096 23.2174 125.149 23.2917L125.477 23.718C125.332 23.8972 125.168 24.0502 124.985 24.177C124.801 24.3038 124.602 24.4109 124.388 24.4983C124.178 24.5814 123.957 24.6426 123.726 24.682C123.494 24.7213 123.258 24.741 123.017 24.741C122.602 24.741 122.215 24.6645 121.857 24.5115C121.503 24.3584 121.194 24.1377 120.932 23.8491C120.67 23.5562 120.464 23.1977 120.316 22.7736C120.167 22.3495 120.093 21.8664 120.093 21.3243C120.093 20.8303 120.16 20.3734 120.296 19.9537C120.436 19.534 120.637 19.1733 120.899 18.8717C121.166 18.5657 121.492 18.3274 121.876 18.1569C122.266 17.9864 122.711 17.9011 123.214 17.9011C123.682 17.9011 124.093 17.9776 124.447 18.1306C124.806 18.2793 125.123 18.4913 125.398 18.7668L125.09 19.1865Z" fill="#67738B"/>
<path d="M127.963 18.006V24.6492H126.795V18.006H127.963ZM128.212 15.9206C128.212 16.0343 128.188 16.1414 128.14 16.242C128.096 16.3382 128.035 16.4256 127.956 16.5043C127.882 16.5786 127.792 16.6376 127.687 16.6814C127.587 16.7251 127.48 16.7469 127.366 16.7469C127.252 16.7469 127.145 16.7251 127.045 16.6814C126.948 16.6376 126.863 16.5786 126.789 16.5043C126.714 16.4256 126.655 16.3382 126.612 16.242C126.568 16.1414 126.546 16.0343 126.546 15.9206C126.546 15.807 126.568 15.6999 126.612 15.5993C126.655 15.4944 126.714 15.4048 126.789 15.3304C126.863 15.2517 126.948 15.1905 127.045 15.1468C127.145 15.1031 127.252 15.0812 127.366 15.0812C127.48 15.0812 127.587 15.1031 127.687 15.1468C127.792 15.1905 127.882 15.2517 127.956 15.3304C128.035 15.4048 128.096 15.4944 128.14 15.5993C128.188 15.6999 128.212 15.807 128.212 15.9206Z" fill="#67738B"/>
<path d="M133.481 21.6588C132.943 21.6763 132.484 21.72 132.104 21.7899C131.728 21.8555 131.42 21.943 131.179 22.0523C130.943 22.1615 130.77 22.2905 130.661 22.4392C130.556 22.5878 130.504 22.7539 130.504 22.9376C130.504 23.1124 130.532 23.2633 130.589 23.3901C130.646 23.5168 130.722 23.6218 130.818 23.7048C130.919 23.7835 131.035 23.8425 131.166 23.8819C131.301 23.9169 131.446 23.9344 131.599 23.9344C131.804 23.9344 131.992 23.9147 132.163 23.8753C132.333 23.8316 132.493 23.7704 132.641 23.6917C132.794 23.613 132.939 23.519 133.074 23.4097C133.214 23.3004 133.35 23.1758 133.481 23.0359V21.6588ZM129.71 18.9438C130.077 18.5897 130.473 18.3252 130.897 18.1503C131.321 17.9754 131.791 17.888 132.307 17.888C132.679 17.888 133.009 17.9492 133.297 18.0716C133.586 18.194 133.828 18.3645 134.025 18.5831C134.222 18.8017 134.371 19.0662 134.471 19.3766C134.572 19.687 134.622 20.0281 134.622 20.3997V24.6492H134.104C133.99 24.6492 133.903 24.6317 133.842 24.5967C133.78 24.5574 133.732 24.483 133.697 24.3737L133.566 23.7442C133.391 23.9059 133.221 24.0502 133.055 24.177C132.888 24.2994 132.714 24.4043 132.53 24.4918C132.346 24.5748 132.15 24.6382 131.94 24.682C131.734 24.73 131.505 24.7541 131.251 24.7541C130.993 24.7541 130.751 24.7191 130.523 24.6492C130.296 24.5748 130.097 24.4655 129.927 24.3213C129.76 24.177 129.627 23.9956 129.526 23.777C129.43 23.554 129.382 23.2917 129.382 22.99C129.382 22.7277 129.454 22.4763 129.599 22.2359C129.743 21.991 129.977 21.7746 130.3 21.5866C130.624 21.3986 131.046 21.2456 131.566 21.1276C132.086 21.0052 132.725 20.9352 133.481 20.9177V20.3997C133.481 19.8838 133.369 19.4947 133.146 19.2324C132.923 18.9657 132.598 18.8323 132.169 18.8323C131.881 18.8323 131.638 18.8695 131.441 18.9438C131.249 19.0138 131.081 19.0947 130.936 19.1865C130.797 19.2739 130.674 19.3548 130.569 19.4291C130.469 19.4991 130.368 19.534 130.268 19.534C130.189 19.534 130.121 19.5144 130.064 19.475C130.007 19.4313 129.959 19.3788 129.92 19.3176L129.71 18.9438Z" fill="#67738B"/>
<path d="M137.607 14.9894V24.6492H136.439V14.9894H137.607Z" fill="#67738B"/>
<g clip-path="url(#clip0)">
<path d="M24.5852 6.10914C24.4512 6.02829 24.2985 5.98318 24.142 5.97815C23.9854 5.97313 23.8301 6.00836 23.6912 6.08045C23.654 6.09973 23.6182 6.12161 23.584 6.1459L23.5786 6.15128C23.5008 6.2074 23.4279 6.27009 23.3608 6.33866C22.826 6.86853 21.9644 7.74538 21.4323 8.27705C21.3945 8.31575 21.3542 8.35198 21.3117 8.38553V8.38553L21.2973 8.39629C21.2576 8.36999 21.2205 8.33996 21.1865 8.30663C21.0659 8.18739 20.947 8.06725 20.8264 7.948C20.7292 7.85028 20.6328 7.75255 20.5347 7.65572L20.2106 7.33296C19.8748 6.99854 19.5389 6.66322 19.1995 6.33238L19.1869 6.32252C19.1017 6.21538 18.9931 6.1289 18.8695 6.06957C18.7458 6.01025 18.6102 5.97963 18.473 5.98003H18.4631C18.3208 5.98223 18.181 6.01689 18.0543 6.08135C18.0171 6.10063 17.9813 6.1225 17.9472 6.14679L17.9409 6.15217C17.8635 6.20823 17.7909 6.27061 17.7239 6.33866C17.4772 6.58253 17.1612 6.90081 16.8407 7.22447L15.7603 8.30036C15.7268 8.33433 15.691 8.36608 15.6532 8.39539C15.6155 8.36905 15.5805 8.33901 15.5488 8.30574C15.4281 8.18649 15.3093 8.06635 15.1886 7.94711L14.8969 7.65483L14.5728 7.33206C14.237 6.99764 13.9012 6.66232 13.5609 6.33149C13.4058 6.167 13.2053 6.05189 12.9847 6.00065C12.9676 6.00065 12.9496 6.00065 12.9325 5.99438C12.9009 5.98878 12.869 5.98489 12.837 5.98272C12.8344 5.98227 12.8316 5.98227 12.8289 5.98272H12.8127C12.8019 5.98272 12.7911 5.98272 12.7794 5.98272C12.765 5.9818 12.7506 5.9818 12.7362 5.98272H12.7299H12.7074C12.6826 5.98522 12.6579 5.98911 12.6336 5.99438C12.6165 5.99438 12.6003 6.00514 12.5831 6.00962C12.4163 6.06164 12.265 6.15406 12.1429 6.27859C11.9754 6.44266 11.7828 6.63722 11.5802 6.83715C11.1691 7.25197 10.7534 7.66558 10.3333 8.07801L10.0425 8.3667C10.0313 8.37694 10.0196 8.38652 10.0074 8.39539L9.99385 8.38553C9.96925 8.3686 9.94606 8.34971 9.92453 8.32905C9.88491 8.29318 9.8462 8.25373 9.80839 8.21518L9.18987 7.59744C8.76373 7.17068 8.33668 6.7454 7.90873 6.32163C7.66475 6.08135 7.40546 5.96927 7.14167 5.97734C7.12698 5.97642 7.11224 5.97642 7.09755 5.97734H7.09215H7.06964C7.04483 5.97984 7.02018 5.98373 6.99582 5.989C6.97871 5.989 6.9625 5.99976 6.9454 6.00424C6.77839 6.05643 6.62687 6.14882 6.50425 6.27321C6.33769 6.43728 6.14412 6.63184 5.94245 6.83177C5.52771 7.2442 5.11267 7.65662 4.69732 8.06904L4.11122 8.65271C4.05695 8.70508 4.00669 8.76142 3.96087 8.82126L3.74119 9.04092C3.57059 9.19818 3.4663 9.41406 3.44939 9.64495C3.43249 9.87584 3.50423 10.1045 3.65011 10.2847C3.796 10.465 4.00516 10.5833 4.23532 10.6159C4.46547 10.6485 4.69946 10.5928 4.88999 10.4602L4.89539 10.4548C4.97328 10.3987 5.04617 10.336 5.11327 10.2674C5.65165 9.74563 6.51145 8.86968 7.04443 8.33801C7.08257 8.29934 7.12284 8.26282 7.16507 8.22863L7.18218 8.22146C7.2221 8.24746 7.25921 8.27751 7.29292 8.31111C7.41356 8.42946 7.5324 8.5496 7.65304 8.66974C7.75028 8.76747 7.84661 8.86519 7.94474 8.96292L8.26885 9.28569C8.60467 9.62011 8.94049 9.95453 9.2799 10.2854L9.29251 10.2961C9.37821 10.4027 9.48705 10.4886 9.61086 10.5473C9.73467 10.606 9.87023 10.636 10.0074 10.635H10.0173C10.1586 10.6332 10.2975 10.5988 10.4233 10.5346C10.4605 10.5153 10.4963 10.4935 10.5304 10.4692L10.5358 10.4638C10.6137 10.4077 10.6866 10.345 10.7537 10.2764C10.9995 10.0325 11.3155 9.71425 11.636 9.39148L12.7164 8.3156C12.75 8.28193 12.7858 8.25048 12.8235 8.22146C12.8611 8.24804 12.896 8.27806 12.928 8.31111C13.0486 8.42946 13.1674 8.5496 13.2881 8.66974C13.3853 8.76747 13.4817 8.86519 13.5798 8.96292L13.9039 9.28569C14.2397 9.62011 14.5755 9.95453 14.9149 10.2854C15.0705 10.45 15.2712 10.5653 15.4921 10.6171C15.5092 10.6171 15.5272 10.6171 15.5443 10.6234C15.5758 10.6288 15.6077 10.6324 15.6397 10.6341H15.6451H15.6622C15.673 10.6341 15.6838 10.6341 15.6946 10.6341H15.7387H15.745H15.7675C15.7923 10.6315 15.817 10.6276 15.8414 10.6225C15.8585 10.6225 15.8747 10.6117 15.8918 10.6072C16.0584 10.5547 16.2095 10.4623 16.332 10.3383C16.4986 10.1742 16.6922 9.97963 16.8929 9.78059C17.3089 9.36817 17.7245 8.95545 18.1399 8.54243L18.4307 8.25284C18.4433 8.24208 18.4559 8.23132 18.4649 8.22504C18.4699 8.22771 18.4747 8.2307 18.4793 8.23401V8.23401C18.5037 8.25085 18.5269 8.26943 18.5486 8.2896C18.5882 8.32636 18.6269 8.36491 18.6647 8.40346L19.2833 9.02209C19.7094 9.44826 20.1365 9.87324 20.5644 10.297C20.8075 10.5373 21.0677 10.6503 21.3315 10.6422H21.3747H21.381H21.4035C21.4283 10.6397 21.4529 10.6358 21.4773 10.6305C21.4944 10.6305 21.5106 10.6198 21.5277 10.6153C21.6944 10.5629 21.8456 10.4706 21.968 10.3463C22.1354 10.1823 22.3281 9.9877 22.5289 9.78866C22.9448 9.37624 23.3605 8.96352 23.7758 8.5505L24.3628 7.95249C24.4168 7.89955 24.4671 7.84293 24.5132 7.78303L24.7328 7.56427C24.8374 7.46792 24.9181 7.3487 24.9685 7.21601C25.019 7.08331 25.0378 6.94077 25.0234 6.79961C25.0091 6.65845 24.9621 6.52252 24.886 6.40255C24.81 6.28257 24.707 6.18183 24.5852 6.10824V6.10914Z" fill="#00DED2"/>
<path d="M24.5852 18.3357C24.4512 18.4165 24.2985 18.4616 24.1419 18.4666C23.9854 18.4717 23.8301 18.4364 23.6912 18.3644C23.654 18.3451 23.6182 18.3232 23.584 18.2989L23.5786 18.2935C23.5007 18.2374 23.4278 18.1747 23.3608 18.1061C22.826 17.5763 21.9644 16.6994 21.4323 16.1678C21.3942 16.1291 21.3539 16.0926 21.3116 16.0584L21.2972 16.0476C21.2573 16.0736 21.2202 16.1037 21.1865 16.1373C21.0659 16.2565 20.947 16.3767 20.8264 16.4959C20.7291 16.5936 20.6328 16.6923 20.5347 16.7891L20.2106 17.1118C19.8747 17.4463 19.5389 17.7816 19.1995 18.1124L19.1869 18.1223C19.1012 18.2289 18.9924 18.3148 18.8686 18.3735C18.7447 18.4322 18.6092 18.4621 18.4721 18.4612H18.4622C18.3199 18.459 18.1801 18.4243 18.0534 18.3599C18.0162 18.3406 17.9804 18.3187 17.9463 18.2944L17.94 18.289C17.8626 18.2327 17.79 18.17 17.723 18.1017C17.4763 17.8578 17.1603 17.5395 16.8398 17.2158L15.7594 16.14C15.7258 16.106 15.69 16.0742 15.6523 16.0449C15.6146 16.0713 15.5796 16.1013 15.5479 16.1346C15.4272 16.2538 15.3084 16.374 15.1877 16.4932L14.896 16.7864L14.5719 17.1092C14.2361 17.4436 13.9003 17.7789 13.56 18.1097C13.4047 18.2739 13.2043 18.389 12.9838 18.4406C12.9667 18.4406 12.9487 18.4406 12.9316 18.4468C12.8991 18.4468 12.8676 18.4576 12.8361 18.4585H12.828H12.8118C12.801 18.4585 12.7902 18.4585 12.7785 18.4585H12.7353H12.729H12.7065C12.6817 18.456 12.657 18.4521 12.6326 18.4468C12.6155 18.4468 12.5993 18.4361 12.5822 18.4316C12.4156 18.3792 12.2644 18.2869 12.142 18.1626C11.9745 17.9986 11.7819 17.804 11.5793 17.6041L10.3333 16.3668L10.0425 16.0772L10.0073 16.0494L9.99384 16.0584C9.96942 16.0752 9.94625 16.0938 9.92451 16.114C9.8849 16.1507 9.84618 16.1902 9.80837 16.2287L9.18986 16.8465C8.76401 17.2723 8.33816 17.6991 7.90872 18.1214C7.66473 18.3626 7.40544 18.4746 7.14165 18.4666C7.12635 18.4666 7.11194 18.4666 7.09754 18.4666H7.09213H7.06963C7.04482 18.4641 7.02017 18.4602 6.9958 18.4549C6.97869 18.4549 6.96249 18.4441 6.94538 18.4397C6.77853 18.3871 6.62708 18.2948 6.50423 18.1707C6.33767 18.0066 6.14411 17.8121 5.94244 17.6121L4.69731 16.3749L4.1112 15.7912C4.05694 15.7385 4.00669 15.6819 3.96085 15.6217L3.74388 15.394C3.57328 15.2368 3.46898 15.0209 3.45208 14.79C3.43517 14.5591 3.50691 14.3304 3.6528 14.1502C3.79869 13.97 4.00785 13.8516 4.238 13.819C4.46815 13.7865 4.70214 13.8421 4.89267 13.9747L4.89808 13.9801C4.97596 14.0362 5.04886 14.0989 5.11595 14.1675C5.65164 14.6983 6.51143 15.5733 7.04442 16.1113C7.08255 16.1499 7.12283 16.1865 7.16506 16.2207V16.2207L7.17946 16.2314C7.21938 16.2054 7.25649 16.1754 7.2902 16.1418C7.41084 16.0225 7.52968 15.9024 7.65033 15.7831C7.74756 15.6863 7.84389 15.5877 7.94203 15.4908L8.26614 15.1681C8.60196 14.8337 8.93777 14.4983 9.27719 14.1675L9.28979 14.1576C9.37549 14.051 9.48434 13.9652 9.60815 13.9065C9.73196 13.8478 9.86752 13.8178 10.0046 13.8187H10.0145C10.1568 13.8209 10.2966 13.8556 10.4233 13.9201C10.4605 13.9393 10.4963 13.9612 10.5304 13.9855L10.5358 13.9909C10.6137 14.047 10.6866 14.1097 10.7537 14.1783C10.9995 14.4221 11.3155 14.7395 11.636 15.0632L12.7164 16.1391C12.75 16.173 12.7858 16.2048 12.8235 16.2341C12.8611 16.2075 12.896 16.1775 12.9279 16.1444C13.0486 16.0252 13.1674 15.9051 13.2881 15.7858C13.3853 15.689 13.4816 15.5904 13.5798 15.4935L13.9039 15.1708C14.2397 14.8363 14.5755 14.501 14.9149 14.1702C15.0707 14.0061 15.2713 13.8911 15.492 13.8394C15.5091 13.8394 15.5271 13.8394 15.5443 13.8331C15.5758 13.8274 15.6077 13.8235 15.6397 13.8214H15.6451H15.6622H15.6946C15.7099 13.8214 15.7252 13.8214 15.7387 13.8214H15.745H15.7675C15.7923 13.8241 15.817 13.828 15.8414 13.8331C15.8585 13.8331 15.8747 13.8438 15.8918 13.8483C16.0584 13.9009 16.2095 13.9932 16.332 14.1173C16.4986 14.2814 16.6921 14.4759 16.8929 14.675C17.3089 15.0874 17.7245 15.5001 18.1398 15.9131L18.4306 16.2027L18.4649 16.2305L18.4793 16.2216C18.5037 16.2047 18.5269 16.1861 18.5486 16.166C18.5882 16.1292 18.6269 16.0898 18.6647 16.0512L19.2832 15.4335C19.7091 15.0076 20.1349 14.5808 20.5644 14.1585C20.8075 13.9174 21.0677 13.8053 21.3315 13.8134H21.3747H21.381H21.4035C21.4283 13.8159 21.4529 13.8198 21.4773 13.825C21.4944 13.825 21.5106 13.8358 21.5277 13.8403C21.6944 13.8926 21.8456 13.985 21.968 14.1092C22.1354 14.2733 22.3281 14.4679 22.5289 14.6669C22.9448 15.0793 23.3605 15.492 23.7758 15.9051L24.3619 16.4887C24.4159 16.5417 24.4661 16.5983 24.5122 16.6582L24.7319 16.8769C24.8365 16.9733 24.9172 17.0925 24.9676 17.2252C25.018 17.3579 25.0368 17.5004 25.0225 17.6416C25.0082 17.7828 24.9612 17.9187 24.8851 18.0387C24.8091 18.1586 24.7061 18.2594 24.5843 18.333L24.5852 18.3357Z" fill="#00DED2"/>
<path d="M7.1651 13.1391C7.67376 13.1391 8.08612 12.7285 8.08612 12.222C8.08612 11.7154 7.67376 11.3048 7.1651 11.3048C6.65643 11.3048 6.24408 11.7154 6.24408 12.222C6.24408 12.7285 6.65643 13.1391 7.1651 13.1391Z" fill="#00DED2"/>
<path d="M12.8262 13.1391C13.3349 13.1391 13.7472 12.7285 13.7472 12.222C13.7472 11.7154 13.3349 11.3048 12.8262 11.3048C12.3176 11.3048 11.9052 11.7154 11.9052 12.222C11.9052 12.7285 12.3176 13.1391 12.8262 13.1391Z" fill="#00DED2"/>
<path d="M18.4802 13.1391C18.9888 13.1391 19.4012 12.7285 19.4012 12.222C19.4012 11.7154 18.9888 11.3048 18.4802 11.3048C17.9715 11.3048 17.5591 11.7154 17.5591 12.222C17.5591 12.7285 17.9715 13.1391 18.4802 13.1391Z" fill="#00DED2"/>
<path d="M24.1342 13.1391C24.6428 13.1391 25.0552 12.7285 25.0552 12.222C25.0552 11.7154 24.6428 11.3048 24.1342 11.3048C23.6255 11.3048 23.2131 11.7154 23.2131 12.222C23.2131 12.7285 23.6255 13.1391 24.1342 13.1391Z" fill="#00DED2"/>
<path d="M48.9008 13.088C49.4725 12.8513 50.2512 12.7294 51.2038 12.7294C51.7348 12.7273 52.2653 12.6959 52.7928 12.6353C54.2045 12.4766 55.1453 12.0077 55.6738 11.207C55.9654 10.7451 56.1281 10.2141 56.1454 9.66877C56.1626 9.12342 56.0337 8.58332 55.7719 8.10401C55.5223 7.64746 55.1746 7.25134 54.7537 6.94384C54.3072 6.62347 53.8078 6.38344 53.2781 6.23465C51.7782 5.79444 50.1675 5.92892 48.8665 6.60494C47.499 7.31233 46.4573 8.68319 46.0089 10.3643C45.4778 12.3582 45.8865 14.7135 47.0515 16.3632C47.9914 17.6937 49.5823 18.4576 51.418 18.4576C52.2769 18.4694 53.1267 18.2819 53.9002 17.9098C54.4784 17.6262 55.005 17.2486 55.4586 16.7927C55.5309 16.7192 55.5892 16.6332 55.6306 16.5389C55.7109 16.3906 55.7512 16.2241 55.7474 16.0556C55.7436 15.8871 55.696 15.7225 55.6091 15.5779C55.5223 15.4332 55.3992 15.3136 55.2519 15.2306C55.1046 15.1476 54.9382 15.1041 54.769 15.1044C54.5721 15.104 54.3797 15.1638 54.218 15.2757C54.1955 15.2915 54.1741 15.3088 54.1541 15.3277L54.1154 15.36C54.099 15.3728 54.0834 15.3866 54.0686 15.4012L54.0496 15.4173C53.84 15.6404 53.6053 15.8386 53.3501 16.0082C53.0717 16.1932 52.7726 16.3451 52.4588 16.4609C51.7411 16.711 50.9569 16.6948 50.2503 16.4152C49.8652 16.2689 49.5057 16.0629 49.1853 15.8047C48.8848 15.5648 48.6288 15.2744 48.429 14.9466C48.2557 14.6666 48.1624 14.3449 48.1589 14.016C48.158 13.6009 48.4011 13.296 48.9008 13.088ZM51.5333 10.8081C51.2146 10.8081 50.8454 10.8224 50.4349 10.852C50.0237 10.8813 49.6153 10.9412 49.2132 11.0313C48.8167 11.1195 48.431 11.25 48.0626 11.4204C47.9602 11.4678 47.8605 11.5205 47.7637 11.5782C47.7943 11.459 47.824 11.2832 47.8609 11.0403C47.8798 10.9103 47.8969 10.7982 47.9104 10.7489C47.9992 10.4223 48.1277 10.1076 48.293 9.81197C48.6114 9.22945 49.0745 8.738 49.6381 8.38463C50.1711 8.05738 50.9355 7.84669 51.6935 7.84669C52.5812 7.84669 53.4599 8.13718 53.9443 8.87237C54.1838 9.23637 54.2729 9.8317 53.9641 10.2172C53.6337 10.6296 52.981 10.7292 52.5182 10.7686C52.1905 10.7937 51.8592 10.8081 51.5333 10.8081Z" fill="#00DED2"/>
<path d="M44.275 6.03472C44.0401 5.95275 43.782 5.96706 43.5577 6.07449C43.3333 6.18192 43.1609 6.37369 43.0785 6.60763L40.2389 14.6041L37.6559 6.66052C37.6392 6.61382 37.6194 6.56829 37.5965 6.52425L37.5893 6.5099C37.5794 6.49107 37.5686 6.47314 37.556 6.45342C37.4467 6.25964 37.2709 6.11161 37.0608 6.03651C36.9443 5.99532 36.8208 5.97742 36.6973 5.98384C36.5739 5.99026 36.4529 6.02087 36.3413 6.07393C36.2298 6.12698 36.1298 6.20143 36.0472 6.29301C35.9646 6.38459 35.9009 6.4915 35.8598 6.60763L33.0211 14.6023L30.4201 6.63004C30.3428 6.39404 30.1744 6.19831 29.9522 6.08591C29.7299 5.97351 29.4719 5.95364 29.2349 6.03068C28.9979 6.10773 28.8013 6.27537 28.6885 6.49672C28.5756 6.71808 28.5557 6.97502 28.633 7.21102L32.0875 17.8148C32.1472 18.0011 32.2641 18.164 32.4218 18.2806C32.5794 18.3972 32.7699 18.4616 32.9662 18.4648H32.9815C33.1761 18.464 33.3656 18.4033 33.5241 18.2909C33.6825 18.1785 33.8022 18.02 33.8665 17.8372L36.7124 9.8299L39.3089 17.8094C39.3686 17.9955 39.4854 18.1584 39.6428 18.275C39.8003 18.3916 39.9905 18.4561 40.1867 18.4594H40.202C40.3966 18.4585 40.5863 18.3978 40.7449 18.2854C40.9035 18.1731 41.0233 18.0146 41.0879 17.8318L44.8494 7.23523C44.9328 7.00016 44.9192 6.74176 44.8115 6.5167C44.7038 6.29164 44.5109 6.1183 44.275 6.03472V6.03472Z" fill="#00DED2"/>
<path d="M71.5463 5.98004C71.29 5.98146 71.0448 6.08398 70.8642 6.26513C70.6836 6.44628 70.5825 6.69131 70.583 6.94654V17.4956C70.583 17.75 70.6845 17.994 70.8652 18.1739C71.0458 18.3538 71.2908 18.4549 71.5463 18.4549C71.8018 18.4549 72.0469 18.3538 72.2275 18.1739C72.4082 17.994 72.5097 17.75 72.5097 17.4956V6.94654C72.5102 6.69131 72.409 6.44628 72.2285 6.26513C72.0479 6.08398 71.8026 5.98146 71.5463 5.98004V5.98004Z" fill="#00DED2"/>
<path d="M63.1221 5.98003C60.3852 6.06968 58.1587 8.44291 58.1587 11.2698V17.4794C58.1547 17.6103 58.1772 17.7407 58.2247 17.8628C58.2723 17.9848 58.344 18.0962 58.4355 18.1902C58.5271 18.2842 58.6367 18.3589 58.7578 18.4099C58.8789 18.4609 59.009 18.4872 59.1405 18.4872C59.272 18.4872 59.4021 18.4609 59.5232 18.4099C59.6443 18.3589 59.7539 18.2842 59.8455 18.1902C59.937 18.0962 60.0087 17.9848 60.0563 17.8628C60.1038 17.7407 60.1263 17.6103 60.1223 17.4794V11.2034C60.1223 9.46589 61.4826 7.99193 63.1545 7.91841C63.5845 7.89757 64.0141 7.96497 64.4168 8.11643C64.8195 8.26788 65.1866 8.50016 65.4953 8.79885C65.8072 9.09639 66.0551 9.45403 66.2238 9.85C66.3925 10.246 66.4785 10.672 66.4767 11.1021V17.4794C66.4767 17.7386 66.58 17.9872 66.7641 18.1705C66.9481 18.3537 67.1977 18.4567 67.458 18.4567C67.7183 18.4567 67.9679 18.3537 68.1519 18.1705C68.3359 17.9872 68.4393 17.7386 68.4393 17.4794V11.1353C68.4422 10.4443 68.305 9.75983 68.0358 9.12293C67.7666 8.48604 67.371 7.90984 66.8728 7.42889C66.3797 6.94564 65.7927 6.56785 65.1477 6.3187C64.5027 6.06955 63.8134 5.9543 63.1221 5.98003V5.98003Z" fill="#00DED2"/>
</g>
<path fill-rule="evenodd" clip-rule="evenodd" d="M83.1094 23.7123L83.1094 1.22821L83.7652 1.22821L83.7652 23.7123L83.1094 23.7123Z" fill="#67738B"/>
<defs>
<clipPath id="clip0">
<rect width="75.8839" height="21.5473" fill="white" transform="translate(0.699951 1.22821)"/>
</clipPath>
</defs>
</svg>
