<svg width="37" height="31" viewBox="0 0 37 31" fill="none" xmlns="http://www.w3.org/2000/svg">
<path d="M32.6037 7.52465C32.4208 7.41422 32.2124 7.3526 31.9987 7.34574C31.785 7.33887 31.573 7.38699 31.3834 7.48546C31.3326 7.5118 31.2837 7.54168 31.2371 7.57486L31.2298 7.5822C31.1234 7.65886 31.0239 7.74449 30.9324 7.83815C30.2024 8.5619 29.0263 9.75957 28.3 10.4858C28.2483 10.5386 28.1933 10.5881 28.1353 10.6339L28.1156 10.6486C28.0614 10.6127 28.0108 10.5717 27.9645 10.5262C27.7998 10.3633 27.6376 10.1992 27.4729 10.0363C27.3402 9.90285 27.2087 9.76936 27.0747 9.63711L26.6323 9.19624C26.1739 8.73946 25.7155 8.28146 25.2522 7.82958L25.235 7.81611C25.1186 7.66976 24.9705 7.55163 24.8017 7.4706C24.6329 7.38957 24.4478 7.34776 24.2605 7.3483H24.2469C24.0528 7.3513 23.8619 7.39865 23.689 7.48668C23.6382 7.51303 23.5893 7.5429 23.5428 7.57608L23.5342 7.58343C23.4285 7.66 23.3294 7.7452 23.238 7.83815C22.9013 8.17124 22.4699 8.60598 22.0324 9.04807L20.5577 10.5176C20.5118 10.564 20.463 10.6074 20.4114 10.6474C20.3599 10.6114 20.3122 10.5704 20.2689 10.525C20.1042 10.3621 19.942 10.198 19.7773 10.0351L19.3791 9.63588L18.9367 9.19502C18.4783 8.73824 18.0199 8.28023 17.5554 7.82835C17.3437 7.60368 17.07 7.44645 16.7689 7.37647C16.7455 7.37647 16.7209 7.37647 16.6976 7.3679C16.6545 7.36025 16.611 7.35494 16.5673 7.35198C16.5636 7.35136 16.5599 7.35136 16.5562 7.35198H16.5341C16.5194 7.35198 16.5046 7.35198 16.4887 7.35198C16.469 7.35072 16.4493 7.35072 16.4297 7.35198H16.4211H16.3903C16.3565 7.35539 16.3228 7.36071 16.2896 7.3679C16.2662 7.3679 16.2441 7.38259 16.2207 7.38872C15.993 7.45977 15.7865 7.586 15.6198 7.7561C15.3912 7.9802 15.1282 8.24595 14.8517 8.51903C14.2905 9.08562 13.7231 9.65058 13.1496 10.2139L12.7527 10.6082C12.7375 10.6222 12.7215 10.6353 12.7048 10.6474L12.6863 10.6339C12.6527 10.6108 12.6211 10.585 12.5917 10.5568C12.5376 10.5078 12.4848 10.4539 12.4332 10.4013L11.5889 9.55751C11.0072 8.97459 10.4243 8.39372 9.84011 7.81488C9.50706 7.48669 9.15313 7.33361 8.79305 7.34463C8.773 7.34338 8.75289 7.34338 8.73283 7.34463H8.72546H8.69474C8.66087 7.34805 8.62723 7.35336 8.59396 7.36055C8.57061 7.36055 8.54849 7.37525 8.52514 7.38137C8.29717 7.45266 8.09034 7.57884 7.92296 7.74875C7.69561 7.97286 7.43139 8.2386 7.15611 8.51169C6.58998 9.07501 6.02344 9.63833 5.45649 10.2017L4.65645 10.9989C4.58237 11.0704 4.51377 11.1474 4.45122 11.2291L4.15136 11.5291C3.91848 11.7439 3.77612 12.0388 3.75304 12.3542C3.72997 12.6695 3.82789 12.9819 4.02703 13.2281C4.22617 13.4742 4.51168 13.6359 4.82584 13.6804C5.14 13.7249 5.4594 13.6489 5.71948 13.4677L5.72685 13.4603C5.83317 13.3837 5.93267 13.2981 6.02426 13.2044C6.75916 12.4917 7.9328 11.2952 8.66033 10.569C8.71238 10.5162 8.76736 10.4663 8.825 10.4196L8.84835 10.4098C8.90284 10.4454 8.9535 10.4864 8.99951 10.5323C9.16419 10.6939 9.32641 10.858 9.49109 11.0221C9.62381 11.1556 9.75531 11.2891 9.88926 11.4226L10.3317 11.8635C10.7901 12.3202 11.2485 12.777 11.7118 13.2289L11.729 13.2436C11.846 13.3892 11.9945 13.5065 12.1635 13.5867C12.3325 13.6668 12.5176 13.7078 12.7048 13.7065H12.7183C12.9112 13.704 13.1009 13.657 13.2725 13.5693C13.3233 13.543 13.3722 13.5131 13.4188 13.4799L13.4261 13.4726C13.5325 13.3959 13.632 13.3103 13.7235 13.2166C14.059 12.8836 14.4904 12.4488 14.9279 12.008L16.4026 10.5384C16.4485 10.4924 16.4974 10.4495 16.5489 10.4098C16.6001 10.4461 16.6478 10.4871 16.6914 10.5323C16.8561 10.6939 17.0183 10.858 17.183 11.0221C17.3157 11.1556 17.4472 11.2891 17.5812 11.4226L18.0236 11.8635C18.482 12.3202 18.9404 12.777 19.4037 13.2289C19.616 13.4537 19.8899 13.6113 20.1914 13.682C20.2148 13.682 20.2394 13.682 20.2627 13.6906C20.3058 13.698 20.3493 13.7029 20.393 13.7053H20.4004H20.4237C20.4385 13.7053 20.4532 13.7053 20.468 13.7053H20.5282H20.5368H20.5675C20.6013 13.7017 20.635 13.6964 20.6683 13.6894C20.6916 13.6894 20.7137 13.6747 20.7371 13.6685C20.9645 13.5967 21.1708 13.4706 21.338 13.3011C21.5654 13.077 21.8296 12.8113 22.1037 12.5394C22.6714 11.9761 23.2388 11.4124 23.8058 10.8482L24.2027 10.4527C24.2199 10.438 24.2371 10.4233 24.2494 10.4147C24.2562 10.4184 24.2628 10.4225 24.2691 10.427C24.3024 10.45 24.334 10.4754 24.3637 10.5029C24.4178 10.5531 24.4706 10.6058 24.5222 10.6584L25.3665 11.5034C25.9482 12.0855 26.5311 12.666 27.1153 13.2448C27.4471 13.573 27.8023 13.7273 28.1623 13.7163H28.2213H28.2299H28.2607C28.2945 13.7129 28.3282 13.7076 28.3614 13.7004C28.3848 13.7004 28.4069 13.6857 28.4302 13.6796C28.6578 13.608 28.8641 13.4819 29.0312 13.3122C29.2598 13.0881 29.5228 12.8223 29.7968 12.5505C30.3646 11.9871 30.9319 11.4234 31.4989 10.8593L32.3002 10.0425C32.3739 9.97015 32.4425 9.89281 32.5054 9.811L32.8053 9.51219C32.948 9.38059 33.0581 9.21775 33.127 9.03651C33.1958 8.85526 33.2215 8.66056 33.2019 8.46775C33.1824 8.27494 33.1182 8.08928 33.0144 7.92541C32.9106 7.76154 32.77 7.62393 32.6037 7.52342V7.52465Z" fill="#00DED2"/>
<path d="M32.6037 24.2247C32.4208 24.3351 32.2124 24.3968 31.9987 24.4036C31.7849 24.4105 31.573 24.3624 31.3834 24.2639C31.3326 24.2376 31.2837 24.2077 31.2371 24.1745L31.2298 24.1672C31.1234 24.0905 31.0239 24.0049 30.9324 23.9112C30.2024 23.1875 29.0263 21.9898 28.3 21.2636C28.2479 21.2108 28.1929 21.1609 28.1353 21.1142L28.1156 21.0995C28.0611 21.135 28.0105 21.1761 27.9645 21.222C27.7998 21.3848 27.6376 21.5489 27.4729 21.7118C27.3402 21.8453 27.2087 21.98 27.0747 22.1123L26.6323 22.5531C26.1739 23.0099 25.7155 23.4679 25.2522 23.9198L25.235 23.9333C25.118 24.0789 24.9694 24.1962 24.8004 24.2763C24.6314 24.3565 24.4464 24.3975 24.2592 24.3962H24.2457C24.0516 24.3932 23.8607 24.3458 23.6878 24.2578C23.637 24.2314 23.5881 24.2016 23.5415 24.1684L23.5329 24.161C23.4272 24.0841 23.3282 23.9985 23.2367 23.9051C22.9 23.572 22.4687 23.1373 22.0312 22.6952L20.5564 21.2256C20.5106 21.1792 20.4617 21.1359 20.4102 21.0958C20.3587 21.1318 20.3109 21.1728 20.2676 21.2183C20.103 21.3812 19.9407 21.5453 19.7761 21.7081L19.3779 22.1086L18.9355 22.5494C18.4771 23.0062 18.0187 23.4642 17.5541 23.9161C17.3421 24.1404 17.0686 24.2975 16.7676 24.368C16.7443 24.368 16.7197 24.368 16.6963 24.3766C16.6521 24.3766 16.6091 24.3913 16.5661 24.3925H16.555H16.5329C16.5182 24.3925 16.5034 24.3925 16.4874 24.3925H16.4284H16.4198H16.3891C16.3553 24.3891 16.3216 24.3838 16.2883 24.3766C16.265 24.3766 16.2429 24.3619 16.2195 24.3557C15.992 24.2842 15.7856 24.1581 15.6186 23.9884C15.39 23.7643 15.127 23.4985 14.8505 23.2254L13.1496 21.5355L12.7527 21.1399L12.7048 21.102L12.6863 21.1142C12.653 21.1372 12.6214 21.1626 12.5917 21.1901C12.5376 21.2403 12.4848 21.2942 12.4332 21.3469L11.5889 22.1906C11.0076 22.7723 10.4263 23.3552 9.84011 23.932C9.50707 24.2615 9.15313 24.4145 8.79306 24.4035C8.77216 24.4035 8.7525 24.4035 8.73284 24.4035H8.72546H8.69474C8.66088 24.4001 8.62723 24.3948 8.59397 24.3876C8.57062 24.3876 8.5485 24.3729 8.52515 24.3668C8.29738 24.295 8.09066 24.1689 7.92297 23.9994C7.69562 23.7753 7.43139 23.5095 7.15611 23.2365L5.45649 21.5465L4.65645 20.7493C4.58239 20.6773 4.51379 20.5999 4.45122 20.5178L4.15505 20.2068C3.92217 19.992 3.77981 19.6971 3.75674 19.3817C3.73366 19.0664 3.83159 18.754 4.03073 18.5078C4.22987 18.2617 4.51537 18.1 4.82953 18.0555C5.1437 18.011 5.46309 18.087 5.72317 18.2682L5.73054 18.2755C5.83686 18.3522 5.93637 18.4378 6.02795 18.5315C6.75916 19.2565 7.9328 20.4517 8.66033 21.1865C8.71239 21.2393 8.76736 21.2892 8.82501 21.3359L8.84467 21.3505C8.89916 21.315 8.94981 21.274 8.99583 21.2281C9.16051 21.0652 9.32273 20.9011 9.4874 20.7382C9.62013 20.606 9.75163 20.4713 9.88558 20.339L10.328 19.8982C10.7864 19.4414 11.2448 18.9834 11.7081 18.5315L11.7253 18.518C11.8423 18.3724 11.9909 18.2551 12.1599 18.1749C12.3289 18.0948 12.5139 18.0538 12.7011 18.0551H12.7146C12.9087 18.0581 13.0996 18.1055 13.2725 18.1935C13.3233 18.2198 13.3722 18.2497 13.4188 18.2829L13.4261 18.2902C13.5325 18.3669 13.632 18.4525 13.7235 18.5462C14.059 18.8793 14.4904 19.3128 14.9279 19.7549L16.4026 21.2244C16.4485 21.2708 16.4973 21.3142 16.5489 21.3542C16.6001 21.3179 16.6478 21.2769 16.6914 21.2318C16.8561 21.0689 17.0183 20.9048 17.183 20.7419C17.3157 20.6097 17.4472 20.475 17.5812 20.3427L18.0236 19.9018C18.482 19.4451 18.9404 18.987 19.4037 18.5352C19.6163 18.3111 19.8902 18.154 20.1914 18.0833C20.2148 18.0833 20.2394 18.0833 20.2627 18.0747C20.3058 18.0669 20.3493 18.0616 20.393 18.0588H20.4004H20.4237H20.468C20.4888 18.0588 20.5097 18.0588 20.5282 18.0588H20.5368H20.5675C20.6013 18.0624 20.635 18.0677 20.6683 18.0747C20.6916 18.0747 20.7137 18.0894 20.7371 18.0955C20.9645 18.1673 21.1708 18.2934 21.338 18.4629C21.5654 18.687 21.8296 18.9528 22.1037 19.2246C22.6714 19.7879 23.2388 20.3517 23.8057 20.9158L24.2027 21.3114L24.2494 21.3493L24.2691 21.3371C24.3024 21.3141 24.334 21.2887 24.3637 21.2612C24.4178 21.2109 24.4706 21.1571 24.5222 21.1044L25.3665 20.2606C25.9478 19.679 26.5291 19.096 27.1153 18.5192C27.4471 18.1898 27.8023 18.0367 28.1623 18.0478H28.2213H28.2299H28.2606C28.2945 18.0512 28.3282 18.0565 28.3614 18.0637C28.3848 18.0637 28.4069 18.0784 28.4302 18.0845C28.6577 18.156 28.8641 18.2822 29.0312 18.4519C29.2598 18.676 29.5228 18.9417 29.7968 19.2136C30.3646 19.7769 30.9319 20.3407 31.4989 20.9048L32.2989 21.702C32.3727 21.7743 32.4412 21.8517 32.5042 21.9335L32.804 22.2323C32.9468 22.3639 33.0569 22.5267 33.1257 22.708C33.1946 22.8892 33.2202 23.0839 33.2007 23.2767C33.1812 23.4695 33.117 23.6552 33.0131 23.8191C32.9093 23.9829 32.7688 24.1205 32.6025 24.221L32.6037 24.2247Z" fill="#00DED2"/>
<path d="M8.82498 17.1268C9.51932 17.1268 10.0822 16.5659 10.0822 15.8741C10.0822 15.1822 9.51932 14.6213 8.82498 14.6213C8.13065 14.6213 7.56778 15.1822 7.56778 15.8741C7.56778 16.5659 8.13065 17.1268 8.82498 17.1268Z" fill="#00DED2"/>
<path d="M16.5526 17.1268C17.2469 17.1268 17.8098 16.5659 17.8098 15.8741C17.8098 15.1822 17.2469 14.6213 16.5526 14.6213C15.8582 14.6213 15.2953 15.1822 15.2953 15.8741C15.2953 16.5659 15.8582 17.1268 16.5526 17.1268Z" fill="#00DED2"/>
<path d="M24.2703 17.1268C24.9646 17.1268 25.5275 16.5659 25.5275 15.8741C25.5275 15.1822 24.9646 14.6213 24.2703 14.6213C23.5759 14.6213 23.0131 15.1822 23.0131 15.8741C23.0131 16.5659 23.5759 17.1268 24.2703 17.1268Z" fill="#00DED2"/>
<path d="M31.988 17.1268C32.6823 17.1268 33.2452 16.5659 33.2452 15.8741C33.2452 15.1822 32.6823 14.6213 31.988 14.6213C31.2937 14.6213 30.7308 15.1822 30.7308 15.8741C30.7308 16.5659 31.2937 17.1268 31.988 17.1268Z" fill="#00DED2"/>
</svg>
