<svg xmlns="http://www.w3.org/2000/svg" width="28.084" height="22.479" viewBox="0 0 28.084 22.479">
  <g id="Grupo_30524" data-name="Grupo 30524" transform="translate(0)">
    <g id="Grupo_30523" data-name="Grupo 30523" transform="translate(0 0)">
      <g id="Grupo_30263" data-name="Grupo 30263" transform="translate(0)">
        <g id="Grupo_30260" data-name="Grupo 30260" transform="translate(0)">
          <g id="Grupo_30257" data-name="Grupo 30257" transform="translate(25.399 11.208)">
            <g id="Grupo_30256" data-name="Grupo 30256">
              <path id="Caminho_27020" data-name="Caminho 27020" d="M321.084,141.668c0,.041,0,.083-.006.124l-.049-.017.006-.1A.393.393,0,0,1,321.084,141.668Z" transform="translate(-321.03 -141.668)" fill="#fff"/>
            </g>
          </g>
          <g id="Grupo_30259" data-name="Grupo 30259">
            <g id="Grupo_30258" data-name="Grupo 30258">
              <path id="Caminho_27021" data-name="Caminho 27021" d="M27.246,4.128h-.014a.84.84,0,0,0-.825.854.828.828,0,0,0,.315.639c-.373,1.749-.746,4.042-1.015,5.828l-.031-.016c-.033-.017-.066-.033-.1-.047-.047-.021-.089-.039-.13-.054l-.049-.017.006-.1C25.589,6.131,23.446.577,14.016,0,4.507.582,2.406,6.223,2.633,11.335a2.631,2.631,0,0,0-.252.113c-.27-1.786-.643-4.079-1.015-5.826a.828.828,0,0,0,.315-.639.841.841,0,0,0-.825-.854A.848.848,0,0,0,0,4.953a.84.84,0,0,0,.676.837c.212,1.646.577,4.466.854,6.469a3.377,3.377,0,0,0-.2,2.514c.433,1.924,1.2,2.9,2.025,3.293a2.206,2.206,0,0,0,.53.175,2.237,2.237,0,0,0,.357.039,7.785,7.785,0,0,0,4.133,4.2H19.656a7.782,7.782,0,0,0,4.135-4.2h.039a2.2,2.2,0,0,0,.862-.194c.837-.381,1.625-1.357,2.066-3.312a3.383,3.383,0,0,0-.2-2.512c.276-2,.643-4.825.854-6.471a.818.818,0,0,0,.439-.239.84.84,0,0,0-.6-1.423ZM21.2,19.011l-.142.016a60.988,60.988,0,0,1-6.487.532c-.1,0-.19,0-.285,0-1.683,0-3.353-.144-5.06-.3-.61-.056-1.233-.12-1.848-.186-.039,0-.083-.006-.171-.008s-.247-.006-.359-.017a17.8,17.8,0,0,1-2.5-8,17.676,17.676,0,0,1,4.139-.973c1.355-.2,2.8-.34,4.425-.435.468-.029.955-.043,1.448-.043a33.871,33.871,0,0,1,7.261.85,12.787,12.787,0,0,1,2.056.6A17.876,17.876,0,0,1,21.2,19.011Z" transform="translate(0)" fill="#fff"/>
            </g>
          </g>
        </g>
        <rect id="Retângulo_15847" data-name="Retângulo 15847" width="0.674" height="0.674" transform="translate(11.659 15.66)" fill="#fff"/>
        <rect id="Retângulo_15848" data-name="Retângulo 15848" width="0.674" height="0.674" transform="translate(15.699 15.66)" fill="#fff"/>
        <rect id="Retângulo_15849" data-name="Retângulo 15849" width="0.674" height="0.674" transform="translate(11.659 15.66)" fill="#fff"/>
        <rect id="Retângulo_15850" data-name="Retângulo 15850" width="0.674" height="0.674" transform="translate(15.699 15.66)" fill="#fff"/>
        <g id="Grupo_30262" data-name="Grupo 30262" transform="translate(8.964 12.965)">
          <g id="Grupo_30261" data-name="Grupo 30261">
            <rect id="Retângulo_15851" data-name="Retângulo 15851" width="1.347" height="2.021" fill="#fff"/>
            <rect id="Retângulo_15852" data-name="Retângulo 15852" width="0.674" height="0.674" transform="translate(2.695 2.695)" fill="#fff"/>
            <path id="Caminho_27022" data-name="Caminho 27022" d="M159.245,206.453v.672h-.674v.674H156.55v-.674h-.672v-.672Z" transform="translate(-152.51 -203.084)" fill="#fff"/>
            <rect id="Retângulo_15853" data-name="Retângulo 15853" width="0.674" height="0.674" transform="translate(6.735 2.695)" fill="#fff"/>
          </g>
        </g>
      </g>
      <rect id="Retângulo_15854" data-name="Retângulo 15854" width="0.674" height="0.674" transform="translate(11.659 15.66)" fill="#fff"/>
      <rect id="Retângulo_15855" data-name="Retângulo 15855" width="0.674" height="0.674" transform="translate(15.699 15.66)" fill="#fff"/>
      <rect id="Retângulo_15856" data-name="Retângulo 15856" width="1.347" height="2.021" transform="translate(17.72 12.965)" fill="#fff"/>
    </g>
  </g>
</svg>
