<svg xmlns="http://www.w3.org/2000/svg" viewBox="0 0 24 24">
  <g transform="translate(-318 -434)">
    <g transform="translate(-50 -36)">
      <g transform="translate(149 279)">
        <rect style="fill:none;" width="24" height="24" transform="translate(219 191)"/>
      </g>
    </g>
    <g transform="translate(318 434)">
      <g transform="translate(0 5.913)">
        <path d="M11.994,135.5v-9.136c-.259.024-.515.064-.776.076H3.759a.749.749,0,0,0-.749.749v.749H.765a.749.749,0,0,0-.749.749v4.492a.749.749,0,0,0,.749.749H3.01v.749a.749.749,0,0,0,.749.749h.454l3.009,8.022a1.489,1.489,0,0,0,1.1.931,1.466,1.466,0,0,0,1.352-.412l1.8-1.783a1.494,1.494,0,0,0,.275-1.732l-2.512-5.026h1.988C11.483,135.44,11.738,135.48,11.994,135.5Z" transform="translate(-0.016 -126.368)"/>
      </g>
      <g transform="translate(13.475)">
        <path d="M298.374.362a.529.529,0,0,0-.048-.07.739.739,0,0,0-.313-.24S298.006.045,298,.043s-.028,0-.043,0a.745.745,0,0,0-.21-.042.7.7,0,0,0-.145.03.827.827,0,0,0-.084.016.743.743,0,0,0-.328.213c-.006.006-.015.007-.021.013A15.754,15.754,0,0,1,288.016,5.7v9.569a15.752,15.752,0,0,1,9.154,5.423c.006.007.016.01.024.019a.725.725,0,0,0,.186.144c.022.013.04.033.063.043a.771.771,0,0,0,.305.066.782.782,0,0,0,.253-.043s.007-.007.012-.009a.728.728,0,0,0,.313-.24c.018-.024.031-.045.048-.07a.725.725,0,0,0,.123-.386V.749A.725.725,0,0,0,298.374.362Z" transform="translate(-288.016)"/>
      </g>
    </g>
  </g>
</svg>
