<svg xmlns="http://www.w3.org/2000/svg" viewBox="0 0 17.862 16.197">
  <g transform="translate(0 -22.643)">
    <path d="M17.505,34.825,11.247,23.986a2.663,2.663,0,0,0-4.625,0L.36,34.825A2.675,2.675,0,0,0,2.673,38.84h12.5A2.689,2.689,0,0,0,17.505,34.825Zm-8.574,1.61a1,1,0,1,1,0-1.993,1,1,0,0,1,0,1.993Zm.908-6.442c-.044.772-.092,1.541-.136,2.313-.022.25-.022.478-.022.724a.75.75,0,0,1-.75.724.734.734,0,0,1-.75-.7c-.066-1.2-.136-2.383-.2-3.585-.022-.316-.044-.636-.07-.952a1.083,1.083,0,0,1,.772-1.088,1,1,0,0,1,1.158.566,1.188,1.188,0,0,1,.092.5C9.909,29,9.861,29.5,9.839,29.994Z" transform="translate(0)"/>
  </g>
</svg>
