<?xml version="1.0" encoding="utf-8"?>
<!-- Generator: Adobe Illustrator 22.1.0, SVG Export Plug-In . SVG Version: 6.00 Build 0)  -->
<svg version="1.1" id="Layer_1" xmlns="http://www.w3.org/2000/svg" xmlns:xlink="http://www.w3.org/1999/xlink" x="0px" y="0px"
	 viewBox="0 0 16 15" style="enable-background:new 0 0 16 15;" xml:space="preserve">
<g>
	<g>
		<g>
			<path fill="#DA2032" d="M15.4,7.5c0,3.4-2.3,6.3-5.4,7.1c-0.6,0.2-1.3,0.3-2,0.3s-1.4-0.1-2-0.3c-3.1-0.9-5.4-3.7-5.4-7.1
				c0-3.4,2.3-6.3,5.4-7.1c0.6-0.2,1.3-0.3,2-0.3s1.4,0.1,2,0.3C13.1,1.2,15.4,4.1,15.4,7.5z"/>
		</g>
		<g>
			<path fill="#0066B3" d="M10,0.4v14.3c-0.6,0.2-1.3,0.3-2,0.3s-1.4-0.1-2-0.3V0.4c0.6-0.2,1.3-0.3,2-0.3S9.4,0.2,10,0.4z"/>
		</g>
		<g>
			<g>
				<circle fill="#FFD900" cx="3.6" cy="5.9" r="0.7"/>
			</g>
			<g>
				<circle fill="#DA2032" cx="3.6" cy="5.5" r="0.8"/>
			</g>
			<g>
				<circle fill="#FFD900" cx="3.6" cy="5.7" r="0.5"/>
			</g>
			<g>
				<path fill="#FFD900" d="M3.8,4.5c0,0.1,0,0.1,0,0.1s0,0.1-0.1,0.1c0,0-0.1,0-0.1-0.1C3.6,4.5,3.7,4.5,3.8,4.5
					C3.7,4.3,3.7,4.3,3.6,4.2c0-0.1-0.1-0.1-0.1-0.2c-0.1,0,0,0.2,0,0.2c0,0.1-0.1,0.1-0.1,0.2c0,0.1,0,0.1,0,0.2c0,0,0,0.1-0.1,0.1
					c0,0-0.1,0-0.1-0.1c0,0,0,0,0,0.1c0,0,0,0.1,0,0.1C3.3,4.9,3.4,5,3.6,5c0.2,0,0.3-0.1,0.3-0.2v0c0,0,0,0,0,0
					C3.9,4.6,3.8,4.6,3.8,4.5z M3.2,4.5c0,0,0,0,0,0.1c0,0,0,0,0,0C3.2,4.6,3.3,4.6,3.2,4.5z M2.9,9.4l0.7,0.4l0.6-0.4H2.9z
					 M2.9,6.7l0.7,0.4l0.6-0.4H2.9z M2.9,9v0.3h1.3V9H2.9z M2.9,7.2v0.3h0.6c0,0,0,0,0,0h0.7V7.2H2.9z M4.3,6.7v3.1H5V6.7H4.3z
					 M2.2,6.7v3.1h0.6V6.7H2.2z"/>
			</g>
			<g>
				<g>
					<circle fill="#FFD900" cx="3.6" cy="8.2" r="0.7"/>
					<path fill="#DA2032" d="M4,7.7c0,0-0.1-0.1-0.2-0.1h0c0,0,0,0,0,0c0,0,0,0,0,0c0,0-0.1,0-0.2,0c0,0,0,0,0,0h0c0,0,0,0,0,0h0
						c0,0,0,0,0,0C3.3,7.5,3.1,7.6,3,7.7C2.9,7.8,2.8,8,2.8,8.2s0.1,0.4,0.3,0.5c0,0,0.1,0.1,0.1,0.1c0,0,0.1,0,0.1,0c0,0,0,0,0,0
						c0,0,0,0,0,0h0c0,0,0,0,0.1,0c0,0,0,0,0,0c0,0,0,0,0,0c0,0,0.1,0,0.1,0c0.1,0,0.1,0,0.2,0c0.1,0,0.2,0,0.3-0.2
						c0.1,0,0.1-0.1,0.2-0.2c0-0.1,0-0.2,0-0.3C4.3,8,4.2,7.9,4,7.7z M3.6,8.8C3.6,8.8,3.5,8.8,3.6,8.8c-0.2,0-0.2,0-0.3-0.1
						c0,0-0.1,0-0.1-0.1c0,0,0,0,0,0c0,0,0,0,0,0c0,0,0,0,0,0C3.1,8.5,3,8.4,3,8.2c0-0.3,0.2-0.6,0.6-0.6h0c0.1,0,0.2,0,0.3,0.1h0
						c0,0,0,0,0,0c0,0,0.1,0,0.1,0.1c0,0,0,0,0,0C4.1,7.9,4.2,8,4.2,8.2C4.2,8.5,3.9,8.8,3.6,8.8z"/>
				</g>
				<g>
					<path fill="#FFD900" d="M3.6,7.5c0.2,0,0.3,0.2,0.3,0.3S3.7,8.2,3.6,8.2S3.2,8.4,3.2,8.6c0,0.2,0.2,0.3,0.3,0.3L3.6,7.5z"/>
					<path fill="#DA2032" d="M3.6,8.9c-0.2,0-0.4-0.2-0.4-0.4s0.2-0.4,0.4-0.4S3.9,8,3.9,7.8S3.8,7.5,3.6,7.5l0,0C3.8,7.5,4,7.7,4,7.9
						S3.8,8.3,3.6,8.3S3.3,8.4,3.3,8.6S3.4,8.9,3.6,8.9L3.6,8.9z"/>
				</g>
			</g>
			<g>
				<g>
					<circle fill="#DA2032" cx="3.6" cy="7.9" r="0.1"/>
				</g>
				<g>
					<circle fill="#DA2032" cx="3.6" cy="8.6" r="0.1"/>
				</g>
			</g>
		</g>
	</g>
</g>
</svg>
