<svg width="409" height="84" viewBox="0 0 409 84" fill="none" xmlns="http://www.w3.org/2000/svg">
<g clip-path="url(#clip0)">
<path d="M63.6835 28.2885C63.3262 28.073 62.9192 27.9527 62.5017 27.9393C62.0842 27.9259 61.6703 28.0198 61.2998 28.212C61.2006 28.2635 61.1052 28.3218 61.0142 28.3865L60.9998 28.4009C60.7921 28.5505 60.5978 28.7177 60.4189 28.9005C58.993 30.3133 56.6958 32.6511 55.2772 34.0687C55.1763 34.1718 55.0688 34.2685 54.9555 34.3579L54.9171 34.3866C54.8113 34.3165 54.7124 34.2364 54.6218 34.1476C54.3002 33.8296 53.9833 33.5093 53.6617 33.1914C53.4024 32.9308 53.1456 32.6702 52.8839 32.4121L52.0198 31.5515C51.1244 30.6599 50.229 29.7658 49.3241 28.8838L49.2905 28.8575C49.0632 28.5718 48.7738 28.3412 48.4441 28.183C48.1144 28.0249 47.7529 27.9432 47.3869 27.9443H47.3605C46.9813 27.9502 46.6085 28.0426 46.2707 28.2144C46.1715 28.2659 46.0761 28.3242 45.9851 28.3889L45.9683 28.4033C45.7619 28.5527 45.5684 28.7191 45.3898 28.9005C44.7321 29.5507 43.8895 30.3993 43.035 31.2623L40.1544 34.1308C40.0649 34.2214 39.9695 34.306 39.8688 34.3842C39.7682 34.314 39.6749 34.2339 39.5903 34.1452C39.2687 33.8272 38.9518 33.5069 38.6302 33.189L37.8524 32.4097L36.9883 31.5491C36.0929 30.6575 35.1975 29.7634 34.2902 28.8814C33.8767 28.4428 33.3422 28.1359 32.7539 27.9993C32.7083 27.9993 32.6603 27.9993 32.6147 27.9826C32.5305 27.9676 32.4455 27.9573 32.3602 27.9515C32.3531 27.9503 32.3458 27.9503 32.3386 27.9515H32.2954C32.2666 27.9515 32.2378 27.9515 32.2066 27.9515C32.1682 27.949 32.1297 27.949 32.0914 27.9515H32.0746H32.0146C31.9484 27.9581 31.8827 27.9685 31.8177 27.9826C31.7721 27.9826 31.7289 28.0112 31.6833 28.0232C31.2385 28.1619 30.8352 28.4083 30.5095 28.7403C30.063 29.1778 29.5493 29.6965 29.0092 30.2296C27.913 31.3356 26.8048 32.4384 25.6846 33.538L24.9093 34.3077C24.8796 34.335 24.8484 34.3606 24.8157 34.3842L24.7797 34.3579C24.7141 34.3128 24.6523 34.2624 24.5948 34.2073C24.4892 34.1117 24.386 34.0065 24.2852 33.9037L22.6361 32.2567C21.4999 31.1188 20.3613 29.985 19.2203 28.8551C18.5697 28.2144 17.8784 27.9156 17.1751 27.9371C17.1359 27.9347 17.0966 27.9347 17.0575 27.9371H17.0431H16.9831C16.9169 27.9438 16.8512 27.9542 16.7862 27.9682C16.7406 27.9682 16.6974 27.9969 16.6518 28.0089C16.2065 28.148 15.8025 28.3943 15.4756 28.726C15.0315 29.1634 14.5154 29.6822 13.9777 30.2152C12.8719 31.3149 11.7653 32.4145 10.6579 33.5141L9.09524 35.0703C8.95055 35.2099 8.81655 35.3601 8.69437 35.5197L8.10866 36.1053C7.6538 36.5246 7.37573 37.1002 7.33066 37.7158C7.28558 38.3314 7.47686 38.9411 7.86583 39.4216C8.2548 39.9022 8.81246 40.2178 9.42611 40.3046C10.0397 40.3915 10.6636 40.2431 11.1716 39.8894L11.186 39.8751C11.3937 39.7255 11.588 39.5583 11.7669 39.3755C13.2024 37.9842 15.4948 35.6488 16.9158 34.2312C17.0175 34.1281 17.1249 34.0307 17.2375 33.9396L17.2831 33.9205C17.3895 33.9898 17.4885 34.0699 17.5784 34.1595C17.9 34.475 18.2169 34.7954 18.5385 35.1157C18.7978 35.3762 19.0546 35.6368 19.3163 35.8974L20.1804 36.7579C21.0758 37.6496 21.9712 38.5412 22.8761 39.4233L22.9097 39.452C23.1382 39.7362 23.4284 39.9652 23.7585 40.1217C24.0886 40.2782 24.4501 40.3581 24.8157 40.3556H24.8421C25.2188 40.3506 25.5894 40.259 25.9247 40.0878C26.0239 40.0364 26.1193 39.9781 26.2103 39.9133L26.2247 39.899C26.4324 39.7494 26.6267 39.5822 26.8056 39.3994C27.4609 38.7492 28.3035 37.9006 29.1581 37.04L32.0386 34.1715C32.1282 34.0817 32.2236 33.9979 32.3242 33.9205C32.4243 33.9913 32.5175 34.0714 32.6027 34.1595C32.9243 34.475 33.2412 34.7954 33.5628 35.1157C33.8221 35.3762 34.0789 35.6368 34.3406 35.8974L35.2047 36.7579C36.1001 37.6496 36.9955 38.5412 37.9004 39.4233C38.315 39.8621 38.8502 40.1697 39.4391 40.3078C39.4847 40.3078 39.5327 40.3078 39.5783 40.3245C39.6625 40.3389 39.7475 40.3485 39.8328 40.3532H39.8472H39.8928C39.9216 40.3532 39.9504 40.3532 39.9792 40.3532H40.0968H40.1136H40.1736C40.2397 40.3461 40.3054 40.3358 40.3705 40.3221C40.4161 40.3221 40.4593 40.2934 40.5049 40.2815C40.949 40.1413 41.352 39.8951 41.6787 39.5643C42.1228 39.1269 42.6389 38.6081 43.1742 38.0775C44.2832 36.9779 45.3914 35.8774 46.4988 34.7762L47.2741 34.0041C47.3077 33.9754 47.3413 33.9468 47.3653 33.93C47.3787 33.9371 47.3915 33.9451 47.4037 33.9539C47.4689 33.9988 47.5306 34.0484 47.5886 34.1021C47.6942 34.2001 47.7974 34.3029 47.8982 34.4057L49.5473 36.0551C50.6835 37.1914 51.8221 38.3245 52.9631 39.4544C53.6113 40.095 54.305 40.3962 55.0083 40.3747H55.1235H55.1403H55.2003C55.2665 40.368 55.3322 40.3577 55.3972 40.3436C55.4428 40.3436 55.486 40.3149 55.5316 40.303C55.976 40.1634 56.3791 39.9171 56.7054 39.5858C57.1519 39.1484 57.6656 38.6297 58.2009 38.099C59.3099 36.9994 60.4181 35.899 61.5255 34.7978L63.0906 33.2033C63.2346 33.0622 63.3685 32.9112 63.4914 32.7515L64.0771 32.1683C64.356 31.9114 64.5711 31.5935 64.7056 31.2397C64.84 30.8859 64.8901 30.5059 64.852 30.1295C64.8138 29.7531 64.6884 29.3907 64.4856 29.0708C64.2829 28.751 64.0083 28.4823 63.6835 28.2861V28.2885Z" fill="#00DED2"/>
<path d="M63.6835 60.8873C63.3262 61.1028 62.9192 61.2231 62.5017 61.2365C62.0842 61.2499 61.6703 61.156 61.2998 60.9638C61.2006 60.9124 61.1052 60.854 61.0142 60.7893L60.9998 60.7749C60.7921 60.6253 60.5978 60.4582 60.4189 60.2753C58.993 58.8626 56.6958 56.5247 55.2772 55.1072C55.1755 55.0041 55.0681 54.9067 54.9555 54.8155L54.9171 54.7868C54.8107 54.8562 54.7117 54.9363 54.6218 55.0259C54.3002 55.3438 53.9833 55.6641 53.6617 55.9821C53.4024 56.2426 53.1456 56.5056 52.8839 56.7637L52.0198 57.6243C51.1244 58.516 50.229 59.41 49.3241 60.2921L49.2905 60.3184C49.062 60.6026 48.7718 60.8315 48.4417 60.988C48.1116 61.1445 47.7501 61.2245 47.3845 61.222H47.3581C46.9789 61.2161 46.6061 61.1237 46.2683 60.9518C46.1691 60.9004 46.0737 60.8421 45.9827 60.7773L45.9659 60.763C45.7594 60.6127 45.5659 60.4456 45.3874 60.2634C44.7297 59.6132 43.8871 58.7646 43.0326 57.9016L40.152 55.0331C40.0625 54.9425 39.967 54.8578 39.8664 54.7797C39.7658 54.8499 39.6725 54.93 39.5879 55.0187C39.2663 55.3366 38.9494 55.657 38.6278 55.9749L37.85 56.7566L36.9859 57.6171C36.0905 58.5088 35.1951 59.4028 34.2878 60.2849C33.8737 60.7227 33.3394 61.0294 32.7515 61.167C32.7059 61.167 32.6579 61.167 32.6123 61.1837C32.5259 61.1837 32.4418 61.2124 32.3578 61.2148H32.3362H32.293C32.2642 61.2148 32.2354 61.2148 32.2042 61.2148H32.089H32.0722H32.0122C31.946 61.2081 31.8803 61.1977 31.8153 61.1837C31.7697 61.1837 31.7265 61.155 31.6809 61.1431C31.2365 61.0035 30.8334 60.7572 30.5071 60.4259C30.0606 59.9885 29.5469 59.4697 29.0068 58.9367L25.6846 55.6378L24.9093 54.8657L24.8157 54.7916L24.7797 54.8155C24.7146 54.8604 24.6528 54.91 24.5948 54.9637C24.4892 55.0617 24.386 55.1669 24.2852 55.2697L22.6361 56.9167C21.5007 58.0522 20.3653 59.1901 19.2203 60.316C18.5697 60.959 17.8784 61.2578 17.1751 61.2363C17.1343 61.2363 17.0959 61.2363 17.0575 61.2363H17.0431H16.9831C16.9169 61.2296 16.8512 61.2193 16.7862 61.2052C16.7406 61.2052 16.6974 61.1765 16.6518 61.1646C16.2069 61.0245 15.8031 60.7783 15.4756 60.4474C15.0315 60.01 14.5154 59.4913 13.9777 58.9582L10.6579 55.6594L9.09524 54.1032C8.95056 53.9627 8.81657 53.8116 8.69437 53.6514L8.11586 53.0442C7.661 52.6249 7.38293 52.0493 7.33786 51.4337C7.29278 50.8181 7.48406 50.2084 7.87303 49.7279C8.262 49.2473 8.81966 48.9317 9.43331 48.8449C10.0469 48.7581 10.6708 48.9065 11.1788 49.2601L11.1932 49.2744C11.4009 49.4241 11.5952 49.5912 11.7741 49.774C13.2024 51.1892 15.4948 53.5223 16.9158 54.9566C17.0175 55.0597 17.1249 55.157 17.2375 55.2482L17.2759 55.2769C17.3823 55.2075 17.4813 55.1274 17.5712 55.0378C17.8928 54.7199 18.2097 54.3996 18.5313 54.0817C18.7906 53.8235 19.0474 53.5605 19.3091 53.3024L20.1732 52.4418C21.0686 51.5502 21.964 50.6561 22.8689 49.774L22.9025 49.7478C23.131 49.4635 23.4212 49.2346 23.7513 49.0781C24.0814 48.9216 24.4429 48.8416 24.8085 48.8442H24.8349C25.2141 48.85 25.5869 48.9424 25.9247 49.1143C26.0239 49.1657 26.1193 49.224 26.2103 49.2888L26.2247 49.3031C26.4324 49.4528 26.6267 49.6199 26.8056 49.8027C27.4609 50.4529 28.3035 51.2992 29.1581 52.1621L32.0386 55.0307C32.1281 55.1212 32.2236 55.2059 32.3242 55.2841C32.4243 55.2132 32.5175 55.1331 32.6027 55.045C32.9243 54.7271 33.2412 54.4068 33.5628 54.0888C33.8221 53.8307 34.0789 53.5677 34.3406 53.3095L35.2047 52.449C36.1001 51.5573 36.9955 50.6633 37.9004 49.7812C38.3158 49.3438 38.8507 49.0372 39.4391 48.8991C39.4847 48.8991 39.5327 48.8991 39.5783 48.8824C39.6625 48.8672 39.7474 48.8568 39.8328 48.8513H39.8472H39.8928H39.9792C40.02 48.8513 40.0608 48.8513 40.0968 48.8513H40.1136H40.1736C40.2397 48.8584 40.3054 48.8687 40.3705 48.8824C40.4161 48.8824 40.4593 48.9111 40.5049 48.923C40.949 49.0632 41.352 49.3094 41.6787 49.6402C42.1228 50.0776 42.6389 50.5964 43.1742 51.127C44.2832 52.2267 45.3914 53.3271 46.4988 54.4283L47.2741 55.2004L47.3653 55.2745L47.4037 55.2506C47.4688 55.2057 47.5306 55.1561 47.5886 55.1024C47.6942 55.0044 47.7974 54.8992 47.8982 54.7964L49.5473 53.1494C50.6827 52.0139 51.8181 50.876 52.9631 49.7501C53.6113 49.1071 54.305 48.8083 55.0083 48.8298H55.1235H55.1403H55.2003C55.2665 48.8365 55.3322 48.8469 55.3972 48.8609C55.4428 48.8609 55.486 48.8896 55.5316 48.9015C55.976 49.0411 56.3791 49.2874 56.7054 49.6187C57.1519 50.0561 57.6656 50.5748 58.2009 51.1055C59.3099 52.2051 60.4181 53.3055 61.5255 54.4068L63.0882 55.9629C63.2322 56.1041 63.3661 56.2551 63.489 56.4147L64.0747 56.998C64.3536 57.2549 64.5687 57.5728 64.7032 57.9266C64.8376 58.2804 64.8877 58.6604 64.8496 59.0368C64.8114 59.4131 64.686 59.7755 64.4832 60.0954C64.2804 60.4153 64.0059 60.6839 63.6811 60.8801L63.6835 60.8873Z" fill="#00DED2"/>
<path d="M17.2375 47.0321C18.5937 47.0321 19.6931 45.9373 19.6931 44.5867C19.6931 43.2361 18.5937 42.1412 17.2375 42.1412C15.8813 42.1412 14.7819 43.2361 14.7819 44.5867C14.7819 45.9373 15.8813 47.0321 17.2375 47.0321Z" fill="#00DED2"/>
<path d="M32.3314 47.0321C33.6876 47.0321 34.7871 45.9373 34.7871 44.5867C34.7871 43.2361 33.6876 42.1412 32.3314 42.1412C30.9752 42.1412 29.8758 43.2361 29.8758 44.5867C29.8758 45.9373 30.9752 47.0321 32.3314 47.0321Z" fill="#00DED2"/>
<path d="M47.4061 47.0321C48.7624 47.0321 49.8618 45.9373 49.8618 44.5867C49.8618 43.2361 48.7624 42.1412 47.4061 42.1412C46.0499 42.1412 44.9505 43.2361 44.9505 44.5867C44.9505 45.9373 46.0499 47.0321 47.4061 47.0321Z" fill="#00DED2"/>
<path d="M62.4809 47.0321C63.8371 47.0321 64.9365 45.9373 64.9365 44.5867C64.9365 43.2361 63.8371 42.1412 62.4809 42.1412C61.1246 42.1412 60.0252 43.2361 60.0252 44.5867C60.0252 45.9373 61.1246 47.0321 62.4809 47.0321Z" fill="#00DED2"/>
<path d="M128.514 46.8959C130.039 46.2648 132.115 45.9397 134.655 45.9397C136.07 45.934 137.485 45.8502 138.891 45.6887C142.655 45.2656 145.164 44.0154 146.573 41.8807C147.35 40.649 147.784 39.2334 147.83 37.7793C147.876 36.3253 147.532 34.8853 146.834 33.6073C146.169 32.3901 145.242 31.3339 144.12 30.514C142.929 29.6598 141.597 29.0199 140.185 28.6232C136.186 27.4495 131.892 27.808 128.423 29.6105C124.777 31.4965 122 35.1515 120.804 39.6337C119.388 44.95 120.478 51.2298 123.584 55.6282C126.09 59.1757 130.331 61.2123 135.226 61.2123C137.516 61.2439 139.782 60.7438 141.844 59.7518C143.385 58.9956 144.79 57.989 145.999 56.7733C146.192 56.5772 146.347 56.348 146.458 56.0968C146.672 55.7013 146.779 55.2572 146.769 54.808C146.759 54.3588 146.632 53.9199 146.4 53.5343C146.169 53.1487 145.841 52.8296 145.448 52.6084C145.055 52.3871 144.612 52.2712 144.16 52.272C143.635 52.2709 143.123 52.4303 142.691 52.7286C142.631 52.7707 142.574 52.817 142.521 52.8672L142.418 52.9533C142.374 52.9876 142.332 53.0243 142.293 53.0633L142.242 53.1063C141.683 53.7009 141.058 54.2295 140.377 54.6816C139.635 55.1748 138.838 55.58 138.001 55.8888C136.087 56.5555 133.997 56.5122 132.113 55.7669C131.086 55.3768 130.127 54.8274 129.273 54.139C128.472 53.4996 127.789 52.7253 127.257 51.8513C126.795 51.1047 126.546 50.2469 126.536 49.37C126.534 48.2632 127.182 47.4505 128.514 46.8959ZM135.533 40.8169C134.683 40.8169 133.699 40.8552 132.605 40.9341C131.508 41.0122 130.42 41.172 129.347 41.4122C128.29 41.6473 127.262 41.9952 126.28 42.4496C126.007 42.5759 125.741 42.7164 125.483 42.8703C125.564 42.5524 125.643 42.0839 125.742 41.4361C125.792 41.0894 125.838 40.7906 125.874 40.6592C126.111 39.7883 126.453 38.9494 126.894 38.1611C127.743 36.608 128.978 35.2977 130.48 34.3555C131.901 33.483 133.939 32.9212 135.96 32.9212C138.327 32.9212 140.67 33.6957 141.962 35.6559C142.6 36.6265 142.838 38.2137 142.014 39.2416C141.133 40.3412 139.393 40.6066 138.159 40.7118C137.286 40.7787 136.402 40.8169 135.533 40.8169Z" fill="#00DED2"/>
<path d="M116.181 28.0902C115.554 27.8716 114.867 27.9098 114.268 28.1962C113.67 28.4826 113.211 28.9939 112.991 29.6177L105.42 50.9382L98.533 29.7587C98.4884 29.6342 98.4355 29.5128 98.3745 29.3954L98.3553 29.3571C98.3289 29.3069 98.3001 29.2591 98.2665 29.2065C97.9751 28.6898 97.5063 28.2952 96.9463 28.0949C96.6356 27.9851 96.3063 27.9374 95.9771 27.9545C95.6479 27.9716 95.3254 28.0532 95.0279 28.1947C94.7305 28.3361 94.464 28.5346 94.2437 28.7788C94.0234 29.023 93.8536 29.308 93.7441 29.6177L86.1755 50.9334L79.2407 29.6774C79.0344 29.0482 78.5856 28.5263 77.9929 28.2266C77.4003 27.927 76.7124 27.874 76.0805 28.0794C75.4487 28.2848 74.9246 28.7318 74.6237 29.322C74.3227 29.9121 74.2696 30.5972 74.4758 31.2264L83.6863 59.4984C83.8455 59.9951 84.1572 60.4296 84.5776 60.7405C84.9979 61.0514 85.5056 61.2231 86.0291 61.2315H86.0699C86.5886 61.2295 87.0939 61.0675 87.5165 60.7679C87.939 60.4682 88.258 60.0456 88.4295 59.5582L96.0173 38.209L102.94 59.4841C103.099 59.9804 103.411 60.4146 103.83 60.7255C104.25 61.0364 104.757 61.2083 105.281 61.2171H105.321C105.84 61.2149 106.346 61.0529 106.769 60.7533C107.192 60.4538 107.511 60.0313 107.683 59.5438L117.712 31.291C117.935 30.6643 117.898 29.9753 117.611 29.3752C117.324 28.7752 116.81 28.313 116.181 28.0902Z" fill="#00DED2"/>
<path d="M188.892 27.9443C188.209 27.9481 187.555 28.2215 187.074 28.7044C186.592 29.1874 186.323 29.8407 186.324 30.5213V58.6474C186.324 59.3258 186.595 59.9763 187.076 60.456C187.558 60.9357 188.211 61.2052 188.892 61.2052C189.574 61.2052 190.227 60.9357 190.709 60.456C191.19 59.9763 191.461 59.3258 191.461 58.6474V30.5213C191.462 29.8407 191.193 29.1874 190.711 28.7044C190.23 28.2215 189.576 27.9481 188.892 27.9443Z" fill="#00DED2"/>
<path d="M166.432 27.9443C159.134 28.1834 153.198 34.5109 153.198 42.0481V58.6044C153.187 58.9533 153.247 59.3009 153.374 59.6264C153.501 59.9519 153.692 60.2487 153.936 60.4993C154.18 60.7499 154.472 60.9491 154.795 61.0852C155.118 61.2212 155.465 61.2913 155.816 61.2913C156.166 61.2913 156.513 61.2212 156.836 61.0852C157.159 60.9491 157.451 60.7499 157.695 60.4993C157.939 60.2487 158.131 59.9519 158.257 59.6264C158.384 59.3009 158.444 58.9533 158.433 58.6044V41.8712C158.433 37.2384 162.06 33.3085 166.518 33.1125C167.664 33.0569 168.81 33.2366 169.883 33.6405C170.957 34.0443 171.936 34.6636 172.759 35.4599C173.591 36.2533 174.252 37.2068 174.701 38.2626C175.151 39.3183 175.381 40.4542 175.376 41.601V58.6044C175.376 59.2954 175.651 59.9582 176.142 60.4468C176.633 60.9355 177.298 61.21 177.992 61.21C178.686 61.21 179.352 60.9355 179.842 60.4468C180.333 59.9582 180.609 59.2954 180.609 58.6044V41.6895C180.616 39.8471 180.25 38.0221 179.533 36.324C178.815 34.6259 177.76 33.0896 176.432 31.8073C175.117 30.5189 173.552 29.5116 171.832 28.8473C170.113 28.183 168.275 27.8757 166.432 27.9443Z" fill="#00DED2"/>
</g>
<path fill-rule="evenodd" clip-rule="evenodd" d="M219.722 75.2227L219.722 15.2749L221.471 15.2749L221.471 75.2227L219.722 75.2227Z" fill="#67738B"/>
<path d="M254.048 24.956L250.223 15.045C250.11 14.7503 249.991 14.4103 249.866 14.025C249.741 13.6283 249.622 13.209 249.509 12.767C249.271 13.685 249.027 14.45 248.778 15.062L244.953 24.956H254.048ZM260.916 34H258.366C258.071 34 257.833 33.9263 257.652 33.779C257.471 33.6317 257.335 33.4447 257.244 33.218L254.966 27.336H244.035L241.757 33.218C241.689 33.422 241.559 33.6033 241.366 33.762C241.173 33.9207 240.935 34 240.652 34H238.102L247.843 9.639H251.175L260.916 34ZM266.213 20.23C266.757 19.0513 267.426 18.1333 268.219 17.476C269.013 16.8073 269.982 16.473 271.126 16.473C271.489 16.473 271.835 16.5127 272.163 16.592C272.503 16.6713 272.804 16.796 273.064 16.966L272.843 19.227C272.775 19.5103 272.605 19.652 272.333 19.652C272.175 19.652 271.942 19.618 271.636 19.55C271.33 19.482 270.985 19.448 270.599 19.448C270.055 19.448 269.568 19.5273 269.137 19.686C268.718 19.8447 268.338 20.0827 267.998 20.4C267.67 20.706 267.369 21.0913 267.097 21.556C266.837 22.0093 266.599 22.5307 266.383 23.12V34H263.34V16.779H265.074C265.403 16.779 265.63 16.8413 265.754 16.966C265.879 17.0907 265.964 17.306 266.009 17.612L266.213 20.23ZM291.705 34H288.679V19.312H279.805V29.648C279.805 30.3733 279.981 30.9117 280.332 31.263C280.683 31.6143 281.137 31.79 281.692 31.79C282.009 31.79 282.281 31.7503 282.508 31.671C282.746 31.5803 282.95 31.484 283.12 31.382C283.29 31.28 283.432 31.1893 283.545 31.11C283.67 31.0193 283.777 30.974 283.868 30.974C284.027 30.974 284.168 31.0703 284.293 31.263L285.177 32.708C284.656 33.1953 284.027 33.5807 283.29 33.864C282.553 34.136 281.794 34.272 281.012 34.272C279.652 34.272 278.604 33.8923 277.867 33.133C277.142 32.3737 276.779 31.28 276.779 29.852V19.312H274.705C274.524 19.312 274.371 19.261 274.246 19.159C274.121 19.0457 274.059 18.8757 274.059 18.649V17.442L276.881 17.068L277.578 11.764C277.612 11.594 277.686 11.458 277.799 11.356C277.924 11.2427 278.082 11.186 278.275 11.186H279.805V17.119H291.705V34ZM292.453 11.254C292.453 11.5487 292.391 11.8263 292.266 12.087C292.153 12.3363 291.994 12.5573 291.79 12.75C291.597 12.9427 291.371 13.0957 291.11 13.209C290.849 13.3223 290.572 13.379 290.277 13.379C289.982 13.379 289.705 13.3223 289.444 13.209C289.195 13.0957 288.974 12.9427 288.781 12.75C288.588 12.5573 288.435 12.3363 288.322 12.087C288.209 11.8263 288.152 11.5487 288.152 11.254C288.152 10.9593 288.209 10.6817 288.322 10.421C288.435 10.149 288.588 9.91667 288.781 9.724C288.974 9.52 289.195 9.36133 289.444 9.248C289.705 9.13467 289.982 9.078 290.277 9.078C290.572 9.078 290.849 9.13467 291.11 9.248C291.371 9.36133 291.597 9.52 291.79 9.724C291.994 9.91667 292.153 10.149 292.266 10.421C292.391 10.6817 292.453 10.9593 292.453 11.254ZM297.832 34V19.363L295.928 19.142C295.679 19.0853 295.481 19.0003 295.333 18.887C295.186 18.7623 295.112 18.5867 295.112 18.36V17.119H297.832V16.167C297.832 15.113 297.997 14.1497 298.325 13.277C298.654 12.393 299.147 11.6337 299.804 10.999C300.462 10.3643 301.278 9.87133 302.252 9.52C303.238 9.16867 304.377 8.993 305.669 8.993C306.1 8.993 306.542 9.02133 306.995 9.078C307.449 9.13467 307.84 9.21967 308.168 9.333L308.049 10.914C308.038 11.0273 307.993 11.1067 307.913 11.152C307.845 11.1973 307.749 11.2257 307.624 11.237C307.5 11.2483 307.341 11.254 307.148 11.254C306.967 11.2427 306.757 11.237 306.519 11.237C304.502 11.237 303.04 11.6563 302.133 12.495C301.227 13.3223 300.773 14.5747 300.773 16.252V17.119H311.177V34H308.134V19.312H300.858V34H297.832ZM328.118 19.839C328.028 19.9637 327.937 20.06 327.846 20.128C327.756 20.196 327.631 20.23 327.472 20.23C327.302 20.23 327.115 20.162 326.911 20.026C326.707 19.8787 326.452 19.72 326.146 19.55C325.852 19.38 325.483 19.227 325.041 19.091C324.611 18.9437 324.078 18.87 323.443 18.87C322.593 18.87 321.845 19.023 321.199 19.329C320.553 19.6237 320.009 20.0543 319.567 20.621C319.137 21.1877 318.808 21.8733 318.581 22.678C318.366 23.4827 318.258 24.3837 318.258 25.381C318.258 26.4237 318.377 27.353 318.615 28.169C318.853 28.9737 319.188 29.6537 319.618 30.209C320.06 30.753 320.587 31.1723 321.199 31.467C321.823 31.7503 322.52 31.892 323.29 31.892C324.027 31.892 324.633 31.807 325.109 31.637C325.585 31.4557 325.976 31.2573 326.282 31.042C326.6 30.8267 326.86 30.634 327.064 30.464C327.28 30.2827 327.489 30.192 327.693 30.192C327.943 30.192 328.135 30.2883 328.271 30.481L329.121 31.586C328.747 32.0507 328.322 32.4473 327.846 32.776C327.37 33.1047 326.855 33.3823 326.299 33.609C325.755 33.8243 325.183 33.983 324.582 34.085C323.982 34.187 323.37 34.238 322.746 34.238C321.67 34.238 320.667 34.0397 319.737 33.643C318.819 33.2463 318.02 32.674 317.34 31.926C316.66 31.1667 316.128 30.2373 315.742 29.138C315.357 28.0387 315.164 26.7863 315.164 25.381C315.164 24.1003 315.34 22.916 315.691 21.828C316.054 20.74 316.575 19.805 317.255 19.023C317.947 18.2297 318.791 17.612 319.788 17.17C320.797 16.728 321.953 16.507 323.256 16.507C324.469 16.507 325.534 16.7053 326.452 17.102C327.382 17.4873 328.203 18.037 328.917 18.751L328.118 19.839ZM335.566 16.779V34H332.54V16.779H335.566ZM336.212 11.373C336.212 11.6677 336.149 11.9453 336.025 12.206C335.911 12.4553 335.753 12.682 335.549 12.886C335.356 13.0787 335.124 13.2317 334.852 13.345C334.591 13.4583 334.313 13.515 334.019 13.515C333.724 13.515 333.446 13.4583 333.186 13.345C332.936 13.2317 332.715 13.0787 332.523 12.886C332.33 12.682 332.177 12.4553 332.064 12.206C331.95 11.9453 331.894 11.6677 331.894 11.373C331.894 11.0783 331.95 10.8007 332.064 10.54C332.177 10.268 332.33 10.0357 332.523 9.843C332.715 9.639 332.936 9.48033 333.186 9.367C333.446 9.25366 333.724 9.197 334.019 9.197C334.313 9.197 334.591 9.25366 334.852 9.367C335.124 9.48033 335.356 9.639 335.549 9.843C335.753 10.0357 335.911 10.268 336.025 10.54C336.149 10.8007 336.212 11.0783 336.212 11.373ZM349.871 26.248C348.477 26.2933 347.287 26.4067 346.301 26.588C345.326 26.758 344.527 26.9847 343.904 27.268C343.292 27.5513 342.844 27.8857 342.561 28.271C342.289 28.6563 342.153 29.087 342.153 29.563C342.153 30.0163 342.226 30.4073 342.374 30.736C342.521 31.0647 342.719 31.3367 342.969 31.552C343.229 31.756 343.53 31.909 343.87 32.011C344.221 32.1017 344.595 32.147 344.992 32.147C345.524 32.147 346.012 32.096 346.454 31.994C346.896 31.8807 347.309 31.722 347.695 31.518C348.091 31.314 348.465 31.0703 348.817 30.787C349.179 30.5037 349.531 30.1807 349.871 29.818V26.248ZM340.096 19.21C341.048 18.292 342.073 17.6063 343.173 17.153C344.272 16.6997 345.49 16.473 346.828 16.473C347.791 16.473 348.647 16.6317 349.395 16.949C350.143 17.2663 350.772 17.7083 351.282 18.275C351.792 18.8417 352.177 19.5273 352.438 20.332C352.698 21.1367 352.829 22.0207 352.829 22.984V34H351.486C351.191 34 350.964 33.9547 350.806 33.864C350.647 33.762 350.522 33.5693 350.432 33.286L350.092 31.654C349.638 32.0733 349.196 32.4473 348.766 32.776C348.335 33.0933 347.882 33.3653 347.406 33.592C346.93 33.8073 346.42 33.9717 345.876 34.085C345.343 34.2097 344.748 34.272 344.091 34.272C343.422 34.272 342.793 34.1813 342.204 34C341.614 33.8073 341.099 33.524 340.657 33.15C340.226 32.776 339.88 32.3057 339.62 31.739C339.37 31.161 339.246 30.481 339.246 29.699C339.246 29.019 339.433 28.3673 339.807 27.744C340.181 27.1093 340.787 26.5483 341.626 26.061C342.464 25.5737 343.558 25.177 344.907 24.871C346.255 24.5537 347.91 24.3723 349.871 24.327V22.984C349.871 21.6467 349.582 20.638 349.004 19.958C348.426 19.2667 347.581 18.921 346.471 18.921C345.723 18.921 345.094 19.0173 344.584 19.21C344.085 19.3913 343.649 19.601 343.275 19.839C342.912 20.0657 342.595 20.2753 342.323 20.468C342.062 20.6493 341.801 20.74 341.541 20.74C341.337 20.74 341.161 20.689 341.014 20.587C340.866 20.4737 340.742 20.3377 340.64 20.179L340.096 19.21ZM360.566 8.959V34H357.54V8.959H360.566Z" fill="#67738B"/>
<path d="M244.409 77H241.111V52.639H244.409V77ZM252.517 62.278C252.891 61.8587 253.287 61.479 253.707 61.139C254.126 60.799 254.568 60.51 255.033 60.272C255.509 60.0227 256.007 59.8357 256.529 59.711C257.061 59.575 257.634 59.507 258.246 59.507C259.186 59.507 260.014 59.6657 260.728 59.983C261.453 60.289 262.054 60.731 262.53 61.309C263.017 61.8757 263.385 62.5613 263.635 63.366C263.884 64.1707 264.009 65.0603 264.009 66.035V77H260.966V66.035C260.966 64.7317 260.665 63.723 260.065 63.009C259.475 62.2837 258.574 61.921 257.362 61.921C256.466 61.921 255.628 62.1363 254.846 62.567C254.075 62.9977 253.361 63.5813 252.704 64.318V77H249.661V59.779H251.48C251.91 59.779 252.177 59.9887 252.279 60.408L252.517 62.278ZM273.674 77.272C272.314 77.272 271.266 76.8923 270.529 76.133C269.804 75.3737 269.441 74.28 269.441 72.852V62.312H267.367C267.186 62.312 267.033 62.261 266.908 62.159C266.784 62.0457 266.721 61.8757 266.721 61.649V60.442L269.543 60.085L270.24 54.764C270.274 54.594 270.348 54.458 270.461 54.356C270.586 54.2427 270.745 54.186 270.937 54.186H272.467V60.119H277.448V62.312H272.467V72.648C272.467 73.3733 272.643 73.9117 272.994 74.263C273.346 74.6143 273.799 74.79 274.354 74.79C274.672 74.79 274.944 74.7503 275.17 74.671C275.408 74.5803 275.612 74.484 275.782 74.382C275.952 74.28 276.094 74.1893 276.207 74.11C276.332 74.0193 276.44 73.974 276.53 73.974C276.689 73.974 276.831 74.0703 276.955 74.263L277.839 75.708C277.318 76.1953 276.689 76.5807 275.952 76.864C275.216 77.136 274.456 77.272 273.674 77.272ZM291.999 66.511C291.999 65.8083 291.897 65.168 291.693 64.59C291.501 64.0007 291.212 63.4963 290.826 63.077C290.452 62.6463 289.993 62.3177 289.449 62.091C288.905 61.853 288.288 61.734 287.596 61.734C286.146 61.734 284.995 62.159 284.145 63.009C283.307 63.8477 282.785 65.015 282.581 66.511H291.999ZM294.447 74.586C294.073 75.0393 293.626 75.436 293.104 75.776C292.583 76.1047 292.022 76.3767 291.421 76.592C290.832 76.8073 290.22 76.966 289.585 77.068C288.951 77.1813 288.322 77.238 287.698 77.238C286.508 77.238 285.409 77.0397 284.4 76.643C283.403 76.235 282.536 75.6457 281.799 74.875C281.074 74.093 280.507 73.1297 280.099 71.985C279.691 70.8403 279.487 69.5257 279.487 68.041C279.487 66.8397 279.669 65.7177 280.031 64.675C280.405 63.6323 280.938 62.7313 281.629 61.972C282.321 61.2013 283.165 60.6007 284.162 60.17C285.16 59.728 286.282 59.507 287.528 59.507C288.56 59.507 289.512 59.6827 290.384 60.034C291.268 60.374 292.028 60.8727 292.662 61.53C293.308 62.176 293.813 62.9807 294.175 63.944C294.538 64.896 294.719 65.984 294.719 67.208C294.719 67.684 294.668 68.0013 294.566 68.16C294.464 68.3187 294.272 68.398 293.988 68.398H282.479C282.513 69.486 282.661 70.4323 282.921 71.237C283.193 72.0417 283.567 72.716 284.043 73.26C284.519 73.7927 285.086 74.195 285.743 74.467C286.401 74.7277 287.137 74.858 287.953 74.858C288.713 74.858 289.364 74.773 289.908 74.603C290.464 74.4217 290.94 74.229 291.336 74.025C291.733 73.821 292.062 73.634 292.322 73.464C292.594 73.2827 292.827 73.192 293.019 73.192C293.269 73.192 293.461 73.2883 293.597 73.481L294.447 74.586ZM301.564 51.959V77H298.538V51.959H301.564ZM309.599 51.959V77H306.573V51.959H309.599ZM317.702 59.779V77H314.676V59.779H317.702ZM318.348 54.373C318.348 54.6677 318.286 54.9453 318.161 55.206C318.048 55.4553 317.889 55.682 317.685 55.886C317.493 56.0787 317.26 56.2317 316.988 56.345C316.728 56.4583 316.45 56.515 316.155 56.515C315.861 56.515 315.583 56.4583 315.322 56.345C315.073 56.2317 314.852 56.0787 314.659 55.886C314.467 55.682 314.314 55.4553 314.2 55.206C314.087 54.9453 314.03 54.6677 314.03 54.373C314.03 54.0783 314.087 53.8007 314.2 53.54C314.314 53.268 314.467 53.0357 314.659 52.843C314.852 52.639 315.073 52.4803 315.322 52.367C315.583 52.2537 315.861 52.197 316.155 52.197C316.45 52.197 316.728 52.2537 316.988 52.367C317.26 52.4803 317.493 52.639 317.685 52.843C317.889 53.0357 318.048 53.268 318.161 53.54C318.286 53.8007 318.348 54.0783 318.348 54.373ZM328.675 68.585C329.287 68.585 329.826 68.5 330.29 68.33C330.755 68.16 331.146 67.922 331.463 67.616C331.781 67.31 332.019 66.9473 332.177 66.528C332.336 66.0973 332.415 65.627 332.415 65.117C332.415 64.063 332.092 63.2243 331.446 62.601C330.812 61.9777 329.888 61.666 328.675 61.666C327.451 61.666 326.516 61.9777 325.87 62.601C325.236 63.2243 324.918 64.063 324.918 65.117C324.918 65.627 324.998 66.0973 325.156 66.528C325.326 66.9473 325.57 67.31 325.887 67.616C326.205 67.922 326.596 68.16 327.06 68.33C327.525 68.5 328.063 68.585 328.675 68.585ZM334.132 77.935C334.132 77.5157 334.013 77.1757 333.775 76.915C333.537 76.6543 333.214 76.4503 332.806 76.303C332.41 76.1557 331.945 76.0537 331.412 75.997C330.88 75.929 330.313 75.878 329.712 75.844C329.123 75.81 328.522 75.776 327.91 75.742C327.298 75.708 326.709 75.6513 326.142 75.572C325.508 75.8667 324.986 76.2407 324.578 76.694C324.182 77.136 323.983 77.6573 323.983 78.258C323.983 78.6433 324.08 79.0003 324.272 79.329C324.476 79.669 324.782 79.958 325.19 80.196C325.598 80.4453 326.108 80.638 326.72 80.774C327.344 80.9213 328.075 80.995 328.913 80.995C329.729 80.995 330.46 80.9213 331.106 80.774C331.752 80.6267 332.296 80.417 332.738 80.145C333.192 79.873 333.537 79.55 333.775 79.176C334.013 78.802 334.132 78.3883 334.132 77.935ZM337.209 60.459V61.581C337.209 61.955 336.971 62.193 336.495 62.295L334.54 62.55C334.926 63.298 335.118 64.1253 335.118 65.032C335.118 65.8707 334.954 66.6357 334.625 67.327C334.308 68.007 333.866 68.5907 333.299 69.078C332.733 69.5653 332.053 69.9393 331.259 70.2C330.466 70.4607 329.605 70.591 328.675 70.591C327.871 70.591 327.111 70.4947 326.397 70.302C326.035 70.5287 325.757 70.7723 325.564 71.033C325.372 71.2823 325.275 71.5373 325.275 71.798C325.275 72.206 325.44 72.5177 325.768 72.733C326.108 72.937 326.55 73.0843 327.094 73.175C327.638 73.2657 328.256 73.3223 328.947 73.345C329.65 73.3677 330.364 73.4073 331.089 73.464C331.826 73.5093 332.54 73.5943 333.231 73.719C333.934 73.8437 334.557 74.0477 335.101 74.331C335.645 74.6143 336.082 75.0053 336.41 75.504C336.75 76.0027 336.92 76.6487 336.92 77.442C336.92 78.1787 336.733 78.8927 336.359 79.584C335.997 80.2753 335.47 80.8873 334.778 81.42C334.087 81.964 333.237 82.3947 332.228 82.712C331.231 83.0407 330.103 83.205 328.845 83.205C327.587 83.205 326.488 83.0803 325.547 82.831C324.607 82.5817 323.825 82.2473 323.201 81.828C322.578 81.4087 322.108 80.9213 321.79 80.366C321.484 79.822 321.331 79.2497 321.331 78.649C321.331 77.799 321.598 77.0793 322.13 76.49C322.663 75.9007 323.394 75.4303 324.323 75.079C323.813 74.8523 323.405 74.552 323.099 74.178C322.805 73.7927 322.657 73.277 322.657 72.631C322.657 72.3817 322.703 72.1267 322.793 71.866C322.884 71.594 323.02 71.3277 323.201 71.067C323.394 70.795 323.626 70.54 323.898 70.302C324.17 70.064 324.488 69.8543 324.85 69.673C324 69.197 323.337 68.568 322.861 67.786C322.385 66.9927 322.147 66.0747 322.147 65.032C322.147 64.1933 322.306 63.434 322.623 62.754C322.952 62.0627 323.405 61.479 323.983 61.003C324.561 60.5157 325.247 60.1417 326.04 59.881C326.845 59.6203 327.723 59.49 328.675 59.49C329.423 59.49 330.12 59.575 330.766 59.745C331.412 59.9037 332.002 60.1417 332.534 60.459H337.209ZM351.599 66.511C351.599 65.8083 351.497 65.168 351.293 64.59C351.1 64.0007 350.811 63.4963 350.426 63.077C350.052 62.6463 349.593 62.3177 349.049 62.091C348.505 61.853 347.887 61.734 347.196 61.734C345.745 61.734 344.595 62.159 343.745 63.009C342.906 63.8477 342.385 65.015 342.181 66.511H351.599ZM354.047 74.586C353.673 75.0393 353.225 75.436 352.704 75.776C352.182 76.1047 351.621 76.3767 351.021 76.592C350.431 76.8073 349.819 76.966 349.185 77.068C348.55 77.1813 347.921 77.238 347.298 77.238C346.108 77.238 345.008 77.0397 344 76.643C343.002 76.235 342.135 75.6457 341.399 74.875C340.673 74.093 340.107 73.1297 339.699 71.985C339.291 70.8403 339.087 69.5257 339.087 68.041C339.087 66.8397 339.268 65.7177 339.631 64.675C340.005 63.6323 340.537 62.7313 341.229 61.972C341.92 61.2013 342.764 60.6007 343.762 60.17C344.759 59.728 345.881 59.507 347.128 59.507C348.159 59.507 349.111 59.6827 349.984 60.034C350.868 60.374 351.627 60.8727 352.262 61.53C352.908 62.176 353.412 62.9807 353.775 63.944C354.137 64.896 354.319 65.984 354.319 67.208C354.319 67.684 354.268 68.0013 354.166 68.16C354.064 68.3187 353.871 68.398 353.588 68.398H342.079C342.113 69.486 342.26 70.4323 342.521 71.237C342.793 72.0417 343.167 72.716 343.643 73.26C344.119 73.7927 344.685 74.195 345.343 74.467C346 74.7277 346.737 74.858 347.553 74.858C348.312 74.858 348.964 74.773 349.508 74.603C350.063 74.4217 350.539 74.229 350.936 74.025C351.332 73.821 351.661 73.634 351.922 73.464C352.194 73.2827 352.426 73.192 352.619 73.192C352.868 73.192 353.061 73.2883 353.197 73.481L354.047 74.586ZM360.892 62.278C361.266 61.8587 361.662 61.479 362.082 61.139C362.501 60.799 362.943 60.51 363.408 60.272C363.884 60.0227 364.382 59.8357 364.904 59.711C365.436 59.575 366.009 59.507 366.621 59.507C367.561 59.507 368.389 59.6657 369.103 59.983C369.828 60.289 370.429 60.731 370.905 61.309C371.392 61.8757 371.76 62.5613 372.01 63.366C372.259 64.1707 372.384 65.0603 372.384 66.035V77H369.341V66.035C369.341 64.7317 369.04 63.723 368.44 63.009C367.85 62.2837 366.949 61.921 365.737 61.921C364.841 61.921 364.003 62.1363 363.221 62.567C362.45 62.9977 361.736 63.5813 361.079 64.318V77H358.036V59.779H359.855C360.285 59.779 360.552 59.9887 360.654 60.408L360.892 62.278ZM388.98 62.839C388.889 62.9637 388.798 63.06 388.708 63.128C388.617 63.196 388.492 63.23 388.334 63.23C388.164 63.23 387.977 63.162 387.773 63.026C387.569 62.8787 387.314 62.72 387.008 62.55C386.713 62.38 386.345 62.227 385.903 62.091C385.472 61.9437 384.939 61.87 384.305 61.87C383.455 61.87 382.707 62.023 382.061 62.329C381.415 62.6237 380.871 63.0543 380.429 63.621C379.998 64.1877 379.669 64.8733 379.443 65.678C379.227 66.4827 379.12 67.3837 379.12 68.381C379.12 69.4237 379.239 70.353 379.477 71.169C379.715 71.9737 380.049 72.6537 380.48 73.209C380.922 73.753 381.449 74.1723 382.061 74.467C382.684 74.7503 383.381 74.892 384.152 74.892C384.888 74.892 385.495 74.807 385.971 74.637C386.447 74.4557 386.838 74.2573 387.144 74.042C387.461 73.8267 387.722 73.634 387.926 73.464C388.141 73.2827 388.351 73.192 388.555 73.192C388.804 73.192 388.997 73.2883 389.133 73.481L389.983 74.586C389.609 75.0507 389.184 75.4473 388.708 75.776C388.232 76.1047 387.716 76.3823 387.161 76.609C386.617 76.8243 386.044 76.983 385.444 77.085C384.843 77.187 384.231 77.238 383.608 77.238C382.531 77.238 381.528 77.0397 380.599 76.643C379.681 76.2463 378.882 75.674 378.202 74.926C377.522 74.1667 376.989 73.2373 376.604 72.138C376.218 71.0387 376.026 69.7863 376.026 68.381C376.026 67.1003 376.201 65.916 376.553 64.828C376.915 63.74 377.437 62.805 378.117 62.023C378.808 61.2297 379.652 60.612 380.65 60.17C381.658 59.728 382.814 59.507 384.118 59.507C385.33 59.507 386.396 59.7053 387.314 60.102C388.243 60.4873 389.065 61.037 389.779 61.751L388.98 62.839ZM404.458 66.511C404.458 65.8083 404.356 65.168 404.152 64.59C403.959 64.0007 403.67 63.4963 403.285 63.077C402.911 62.6463 402.452 62.3177 401.908 62.091C401.364 61.853 400.746 61.734 400.055 61.734C398.604 61.734 397.454 62.159 396.604 63.009C395.765 63.8477 395.244 65.015 395.04 66.511H404.458ZM406.906 74.586C406.532 75.0393 406.084 75.436 405.563 75.776C405.042 76.1047 404.481 76.3767 403.88 76.592C403.291 76.8073 402.679 76.966 402.044 77.068C401.409 77.1813 400.78 77.238 400.157 77.238C398.967 77.238 397.868 77.0397 396.859 76.643C395.862 76.235 394.995 75.6457 394.258 74.875C393.533 74.093 392.966 73.1297 392.558 71.985C392.15 70.8403 391.946 69.5257 391.946 68.041C391.946 66.8397 392.127 65.7177 392.49 64.675C392.864 63.6323 393.397 62.7313 394.088 61.972C394.779 61.2013 395.624 60.6007 396.621 60.17C397.618 59.728 398.74 59.507 399.987 59.507C401.018 59.507 401.97 59.6827 402.843 60.034C403.727 60.374 404.486 60.8727 405.121 61.53C405.767 62.176 406.271 62.9807 406.634 63.944C406.997 64.896 407.178 65.984 407.178 67.208C407.178 67.684 407.127 68.0013 407.025 68.16C406.923 68.3187 406.73 68.398 406.447 68.398H394.938C394.972 69.486 395.119 70.4323 395.38 71.237C395.652 72.0417 396.026 72.716 396.502 73.26C396.978 73.7927 397.545 74.195 398.202 74.467C398.859 74.7277 399.596 74.858 400.412 74.858C401.171 74.858 401.823 74.773 402.367 74.603C402.922 74.4217 403.398 74.229 403.795 74.025C404.192 73.821 404.52 73.634 404.781 73.464C405.053 73.2827 405.285 73.192 405.478 73.192C405.727 73.192 405.92 73.2883 406.056 73.481L406.906 74.586Z" fill="#67738B"/>
<defs>
<clipPath id="clip0">
<rect width="202.324" height="57.4499" fill="white" transform="translate(0 15.2749)"/>
</clipPath>
</defs>
</svg>
