<svg xmlns="http://www.w3.org/2000/svg" width="134" height="134" viewBox="0 0 134 134">
    <defs>
        <linearGradient id="a" x1="50%" x2="50%" y1="0%" y2="100%">
            <stop offset="0%" stop-color="#3E85C5"/>
            <stop offset="100%" stop-color="#EC549E"/>
        </linearGradient>
    </defs>
    <g fill="none" fill-rule="evenodd">
        <g>
            <rect width="133.951" height="133.951" fill="url(#a)" fill-rule="nonzero" rx="66.975"/>
            <rect width="132.951" height="132.951" x=".5" y=".5" stroke="#FFF" rx="66.475"/>
        </g>
        <g fill="#F8F8F8" fill-rule="nonzero">
            <path d="M94.057 76.596a6.451 6.451 0 0 1-6.45 6.45h-30.42a6.449 6.449 0 0 1-6.451-6.45V46.174a6.449 6.449 0 0 1 6.45-6.45h30.421a6.45 6.45 0 0 1 6.45 6.45v30.422zm5.352 0V46.174a11.8 11.8 0 0 0-11.802-11.801h-30.42a11.8 11.8 0 0 0-11.802 11.801v30.422a11.8 11.8 0 0 0 11.801 11.801h30.421A11.8 11.8 0 0 0 99.41 76.596z"/>
            <path d="M81.948 88.703a6.451 6.451 0 0 1-6.45 6.45h-30.42a6.449 6.449 0 0 1-6.451-6.45V58.28a6.449 6.449 0 0 1 6.45-6.45h30.421a6.45 6.45 0 0 1 6.45 6.45v30.422zm5.352 0V58.28A11.8 11.8 0 0 0 75.498 46.48h-30.42A11.8 11.8 0 0 0 33.275 58.28v30.422a11.8 11.8 0 0 0 11.801 11.801h30.421A11.8 11.8 0 0 0 87.3 88.703z"/>
        </g>
    </g>
</svg>
