<svg xmlns="http://www.w3.org/2000/svg" viewBox="0 0 24 24">
  <g transform="translate(-315 -431)">
    <g transform="translate(96 240)">
      <rect style="fill:none;" width="24" height="24" transform="translate(219 191)"/>
    </g>
    <g transform="translate(315 432)">
      <path style="fill:#212121;" d="M211,240h4.215v1.405H211Zm0,0" transform="translate(-201.118 -228.76)"/>
      <path style="fill:#212121;" d="M19.454,86.43H15.5v.7a.7.7,0,0,1-.7.7H9.18a.7.7,0,0,1-.7-.7v-.7H4.525a2.105,2.105,0,0,1-2-1.441L0,77.41V92.753A2.11,2.11,0,0,0,2.108,94.86H21.872a2.11,2.11,0,0,0,2.108-2.108V77.411l-2.526,7.579A2.1,2.1,0,0,1,19.454,86.43Zm0,0" transform="translate(0 -73.785)"/>
      <path style="fill:#212121;" d="M39.4,0H33.78a2.11,2.11,0,0,0-2.108,2.108v.7H25.809l2.65,7.95a.7.7,0,0,0,.667.48h3.952v-.7a.7.7,0,0,1,.7-.7H39.4a.7.7,0,0,1,.7.7v.7h3.952a.7.7,0,0,0,.667-.48l2.65-7.95H41.507v-.7A2.11,2.11,0,0,0,39.4,0ZM33.077,2.81v-.7a.7.7,0,0,1,.7-.7H39.4a.7.7,0,0,1,.7.7v.7Zm0,0" transform="translate(-24.6 0)"/>
    </g>
  </g>
</svg>
