<svg xmlns="http://www.w3.org/2000/svg" viewBox="0 0 24 24">
  <g transform="translate(-219 -232)">
    <rect style="fill:none;" width="24" height="24" transform="translate(219 232)"/>
      <path d="M22.212,9.4h-.8a9.6,9.6,0,0,0-.931-2.249l.573-.576a1.8,1.8,0,0,0,0-2.521L19.92,2.918a1.779,1.779,0,0,0-2.527,0l-.559.561A9.7,9.7,0,0,0,14.6,2.544V1.788A1.793,1.793,0,0,0,12.808,0H11.192A1.793,1.793,0,0,0,9.4,1.788v.8a9.6,9.6,0,0,0-2.249.93l-.571-.563a1.8,1.8,0,0,0-2.539,0L2.913,4.08a1.776,1.776,0,0,0,0,2.526l.566.563A9.7,9.7,0,0,0,2.544,9.4H1.788A1.793,1.793,0,0,0,0,11.192v1.617A1.793,1.793,0,0,0,1.788,14.6h.8a9.6,9.6,0,0,0,.93,2.249l-.563.571a1.807,1.807,0,0,0,0,2.539L4.08,21.087a1.776,1.776,0,0,0,2.526,0l.563-.566a9.7,9.7,0,0,0,2.235.935v.756A1.793,1.793,0,0,0,11.192,24h1.617A1.793,1.793,0,0,0,14.6,22.212v-.8a9.6,9.6,0,0,0,2.249-.93l.566.563a1.8,1.8,0,0,0,2.539,0l1.128-1.122a1.791,1.791,0,0,0,0-2.534l-.562-.559a9.7,9.7,0,0,0,.935-2.237h.761A1.793,1.793,0,0,0,24,12.808V11.192A1.793,1.793,0,0,0,22.212,9.4ZM12,15.2a3.2,3.2,0,1,1,3.2-3.2A3.2,3.2,0,0,1,12,15.2Z" transform="translate(219 232)"/>
  </g>
</svg>
