<svg xmlns="http://www.w3.org/2000/svg" viewBox="0 0 24 24">
  <g transform="translate(-339 -415)">
    <g transform="translate(120 224)">
      <rect style="fill:none;" width="24" height="24" transform="translate(219 191)"/>
    </g>
    <g transform="translate(339 417)">
      <path style="fill:#212121;" d="M211.163,159.165a.608.608,0,0,0-.792-.424,19.508,19.508,0,0,1-6.046.816c-.6,0-1.171-.023-1.728-.059a13.076,13.076,0,0,1-1.336,3.549c.029,0,.056-.006.085-.006.762,0,1.38-.064,1.38.45a1.6,1.6,0,0,1-1.38,1.409,1.67,1.67,0,0,1-1.087-.363,8.081,8.081,0,0,1-2.631,2.184c1.1,3.719,3.688,6.328,6.7,6.328,4.016,0,7.271-4.643,7.271-10.369A14.3,14.3,0,0,0,211.163,159.165Zm-3.94,10.857a.162.162,0,0,1-.262.087,4.779,4.779,0,0,0-5.27,0,.162.162,0,0,1-.262-.087,2.7,2.7,0,0,1-.076-.619,2.973,2.973,0,0,1,5.947,0A2.7,2.7,0,0,1,207.223,170.022Zm.082-5.121a1.6,1.6,0,0,1-1.38-1.409c0-.513.618-.45,1.38-.45s1.38.416,1.38.93S208.067,164.9,207.3,164.9Z" transform="translate(-187.609 -152.26)"/>
      <path style="fill:#212121;" d="M14.542,35.512A14.3,14.3,0,0,0,14.109,32a.609.609,0,0,0-.792-.424,19.508,19.508,0,0,1-6.046.816,19.508,19.508,0,0,1-6.046-.816.6.6,0,0,0-.2-.034A.609.609,0,0,0,.433,32,14.3,14.3,0,0,0,0,35.512c0,5.727,3.255,10.369,7.271,10.369S14.542,41.239,14.542,35.512ZM2.912,36.8c0-.513.618-.93,1.38-.93a1.6,1.6,0,0,1,1.38,1.409c0,.513-.618.45-1.38.45S2.912,37.314,2.912,36.8Zm4.359,7.12A2.973,2.973,0,0,1,4.3,40.947a2.7,2.7,0,0,1,.076-.619.162.162,0,0,1,.262-.087,4.2,4.2,0,0,0,2.635.792,4.2,4.2,0,0,0,2.635-.792.162.162,0,0,1,.262.087,2.7,2.7,0,0,1,.076.619A2.973,2.973,0,0,1,7.271,43.921Zm1.6-6.64a1.6,1.6,0,0,1,1.38-1.409c.762,0,1.38.416,1.38.93s-.618.93-1.38.93S8.871,37.794,8.871,37.28Z" transform="translate(0 -31.538)"/>
    </g>
  </g>
</svg>
