<svg xmlns="http://www.w3.org/2000/svg" viewBox="0 0 24 24">
  <g transform="translate(-345 -408)">
    <g transform="translate(126 217)">
      <rect style="fill:none;" width="24" height="24" transform="translate(219 191)"/>
    </g>
    <g transform="translate(345 408)">
      <path d="M69.368,0a9.144,9.144,0,0,0-9.134,9.134v8.431a2.108,2.108,0,1,0,4.216,0V10.539a2.11,2.11,0,0,0-2.108-2.108,2.085,2.085,0,0,0-.673.12,7.721,7.721,0,0,1,15.4-.006,2.07,2.07,0,0,0-.673-.114,2.11,2.11,0,0,0-2.108,2.108v7.026a2.11,2.11,0,0,0,2.108,2.108,2.083,2.083,0,0,0,.7-.129v.832a.7.7,0,0,1-.7.7H71.347a2.108,2.108,0,1,0,0,1.405h5.048A2.11,2.11,0,0,0,78.5,20.376V9.134A9.144,9.144,0,0,0,69.368,0Zm0,0" transform="translate(-57.424)"/>
      <path d="M481.883,213.6v8.172a2.1,2.1,0,0,0,1.405-1.978v-4.216A2.1,2.1,0,0,0,481.883,213.6Zm0,0" transform="translate(-459.399 -203.632)"/>
      <path d="M0,215.576v4.216a2.1,2.1,0,0,0,1.405,1.978V213.6A2.1,2.1,0,0,0,0,215.576Zm0,0" transform="translate(0 -203.632)"/>
    </g>
  </g>
</svg>
