<svg xmlns="http://www.w3.org/2000/svg" viewBox="0 0 24 24">
  <g transform="translate(-368 -470)">
    <g transform="translate(149 279)">
      <rect style="fill:none;" width="24" height="24" transform="translate(219 191)"/>
    </g>
    <g transform="translate(368 473)">
      <g transform="translate(0 0)">
        <path style="fill:#212121;" d="M35.689,35.049h0a.846.846,0,0,0-.6.249.855.855,0,0,0-.253.61V48.786a.862.862,0,0,0,.86.859c2,0,5.348.421,7.659,2.839V39.007a.823.823,0,0,0-.118-.435C41.337,35.518,37.693,35.054,35.689,35.049Z" transform="translate(-32.018 -35.049)"/>
        <path style="fill:#212121;" d="M165.27,48.785V35.907a.857.857,0,0,0-.854-.859h0c-2,0-5.648.469-7.544,3.523a.823.823,0,0,0-.118.435V52.483c2.31-2.418,5.66-2.835,7.659-2.839A.862.862,0,0,0,165.27,48.785Z" transform="translate(-144.084 -35.048)"/>
        <path style="fill:#212121;" d="M180.766,71.8h-.623V82.568a2.2,2.2,0,0,1-2.19,2.192,9.526,9.526,0,0,0-6.471,2.21,20.675,20.675,0,0,1,9.092.175.859.859,0,0,0,1.051-.837V72.66A.86.86,0,0,0,180.766,71.8Z" transform="translate(-157.625 -68.831)"/>
        <path style="fill:#212121;" d="M1.481,82.568V71.8H.859A.86.86,0,0,0,0,72.66V86.308a.859.859,0,0,0,1.051.837,20.673,20.673,0,0,1,9.092-.175A9.525,9.525,0,0,0,3.671,84.76,2.2,2.2,0,0,1,1.481,82.568Z" transform="translate(0 -68.831)"/>
      </g>
    </g>
  </g>
</svg>
