<?xml version="1.0" encoding="UTF-8"?>
<svg width="16px" height="16px" viewBox="0 0 16 16" version="1.1" xmlns="http://www.w3.org/2000/svg" xmlns:xlink="http://www.w3.org/1999/xlink">
    <!-- Generator: Sketch 51 (57462) - http://www.bohemiancoding.com/sketch -->
    <title>US@3x</title>
    <desc>Created with Sketch.</desc>
    <defs>
        <circle id="path-1" cx="8.38964844" cy="8" r="7.5"></circle>
        <rect id="path-3" x="0" y="0" width="21.5634766" height="15.4024833" rx="2"></rect>
        <linearGradient x1="50%" y1="0%" x2="50%" y2="100%" id="linearGradient-5">
            <stop stop-color="#FFFFFF" offset="0%"></stop>
            <stop stop-color="#F0F0F0" offset="100%"></stop>
        </linearGradient>
        <path d="M1.54024833,2.05366443 C1.25669644,2.05366443 1.02683222,1.82380021 1.02683222,1.54024833 C1.02683222,1.25669644 1.25669644,1.02683222 1.54024833,1.02683222 C1.82380021,1.02683222 2.05366443,1.25669644 2.05366443,1.54024833 C2.05366443,1.82380021 1.82380021,2.05366443 1.54024833,2.05366443 Z M3.59391276,2.05366443 C3.31036087,2.05366443 3.08049665,1.82380021 3.08049665,1.54024833 C3.08049665,1.25669644 3.31036087,1.02683222 3.59391276,1.02683222 C3.87746465,1.02683222 4.10732887,1.25669644 4.10732887,1.54024833 C4.10732887,1.82380021 3.87746465,2.05366443 3.59391276,2.05366443 Z M5.64757719,2.05366443 C5.36402531,2.05366443 5.13416109,1.82380021 5.13416109,1.54024833 C5.13416109,1.25669644 5.36402531,1.02683222 5.64757719,1.02683222 C5.93112908,1.02683222 6.1609933,1.25669644 6.1609933,1.54024833 C6.1609933,1.82380021 5.93112908,2.05366443 5.64757719,2.05366443 Z M7.70124163,2.05366443 C7.41768974,2.05366443 7.18782552,1.82380021 7.18782552,1.54024833 C7.18782552,1.25669644 7.41768974,1.02683222 7.70124163,1.02683222 C7.98479352,1.02683222 8.21465774,1.25669644 8.21465774,1.54024833 C8.21465774,1.82380021 7.98479352,2.05366443 7.70124163,2.05366443 Z M2.56708054,3.08049665 C2.28352866,3.08049665 2.05366443,2.85063243 2.05366443,2.56708054 C2.05366443,2.28352866 2.28352866,2.05366443 2.56708054,2.05366443 C2.85063243,2.05366443 3.08049665,2.28352866 3.08049665,2.56708054 C3.08049665,2.85063243 2.85063243,3.08049665 2.56708054,3.08049665 Z M4.62074498,3.08049665 C4.33719309,3.08049665 4.10732887,2.85063243 4.10732887,2.56708054 C4.10732887,2.28352866 4.33719309,2.05366443 4.62074498,2.05366443 C4.90429686,2.05366443 5.13416109,2.28352866 5.13416109,2.56708054 C5.13416109,2.85063243 4.90429686,3.08049665 4.62074498,3.08049665 Z M6.67440941,3.08049665 C6.39085753,3.08049665 6.1609933,2.85063243 6.1609933,2.56708054 C6.1609933,2.28352866 6.39085753,2.05366443 6.67440941,2.05366443 C6.9579613,2.05366443 7.18782552,2.28352866 7.18782552,2.56708054 C7.18782552,2.85063243 6.9579613,3.08049665 6.67440941,3.08049665 Z M7.70124163,4.10732887 C7.41768974,4.10732887 7.18782552,3.87746465 7.18782552,3.59391276 C7.18782552,3.31036087 7.41768974,3.08049665 7.70124163,3.08049665 C7.98479352,3.08049665 8.21465774,3.31036087 8.21465774,3.59391276 C8.21465774,3.87746465 7.98479352,4.10732887 7.70124163,4.10732887 Z M5.64757719,4.10732887 C5.36402531,4.10732887 5.13416109,3.87746465 5.13416109,3.59391276 C5.13416109,3.31036087 5.36402531,3.08049665 5.64757719,3.08049665 C5.93112908,3.08049665 6.1609933,3.31036087 6.1609933,3.59391276 C6.1609933,3.87746465 5.93112908,4.10732887 5.64757719,4.10732887 Z M3.59391276,4.10732887 C3.31036087,4.10732887 3.08049665,3.87746465 3.08049665,3.59391276 C3.08049665,3.31036087 3.31036087,3.08049665 3.59391276,3.08049665 C3.87746465,3.08049665 4.10732887,3.31036087 4.10732887,3.59391276 C4.10732887,3.87746465 3.87746465,4.10732887 3.59391276,4.10732887 Z M1.54024833,4.10732887 C1.25669644,4.10732887 1.02683222,3.87746465 1.02683222,3.59391276 C1.02683222,3.31036087 1.25669644,3.08049665 1.54024833,3.08049665 C1.82380021,3.08049665 2.05366443,3.31036087 2.05366443,3.59391276 C2.05366443,3.87746465 1.82380021,4.10732887 1.54024833,4.10732887 Z M2.56708054,5.13416109 C2.28352866,5.13416109 2.05366443,4.90429686 2.05366443,4.62074498 C2.05366443,4.33719309 2.28352866,4.10732887 2.56708054,4.10732887 C2.85063243,4.10732887 3.08049665,4.33719309 3.08049665,4.62074498 C3.08049665,4.90429686 2.85063243,5.13416109 2.56708054,5.13416109 Z M4.62074498,5.13416109 C4.33719309,5.13416109 4.10732887,4.90429686 4.10732887,4.62074498 C4.10732887,4.33719309 4.33719309,4.10732887 4.62074498,4.10732887 C4.90429686,4.10732887 5.13416109,4.33719309 5.13416109,4.62074498 C5.13416109,4.90429686 4.90429686,5.13416109 4.62074498,5.13416109 Z M6.67440941,5.13416109 C6.39085753,5.13416109 6.1609933,4.90429686 6.1609933,4.62074498 C6.1609933,4.33719309 6.39085753,4.10732887 6.67440941,4.10732887 C6.9579613,4.10732887 7.18782552,4.33719309 7.18782552,4.62074498 C7.18782552,4.90429686 6.9579613,5.13416109 6.67440941,5.13416109 Z M7.70124163,6.1609933 C7.41768974,6.1609933 7.18782552,5.93112908 7.18782552,5.64757719 C7.18782552,5.36402531 7.41768974,5.13416109 7.70124163,5.13416109 C7.98479352,5.13416109 8.21465774,5.36402531 8.21465774,5.64757719 C8.21465774,5.93112908 7.98479352,6.1609933 7.70124163,6.1609933 Z M5.64757719,6.1609933 C5.36402531,6.1609933 5.13416109,5.93112908 5.13416109,5.64757719 C5.13416109,5.36402531 5.36402531,5.13416109 5.64757719,5.13416109 C5.93112908,5.13416109 6.1609933,5.36402531 6.1609933,5.64757719 C6.1609933,5.93112908 5.93112908,6.1609933 5.64757719,6.1609933 Z M3.59391276,6.1609933 C3.31036087,6.1609933 3.08049665,5.93112908 3.08049665,5.64757719 C3.08049665,5.36402531 3.31036087,5.13416109 3.59391276,5.13416109 C3.87746465,5.13416109 4.10732887,5.36402531 4.10732887,5.64757719 C4.10732887,5.93112908 3.87746465,6.1609933 3.59391276,6.1609933 Z M1.54024833,6.1609933 C1.25669644,6.1609933 1.02683222,5.93112908 1.02683222,5.64757719 C1.02683222,5.36402531 1.25669644,5.13416109 1.54024833,5.13416109 C1.82380021,5.13416109 2.05366443,5.36402531 2.05366443,5.64757719 C2.05366443,5.93112908 1.82380021,6.1609933 1.54024833,6.1609933 Z" id="path-6"></path>
        <filter x="-7.0%" y="-9.7%" width="113.9%" height="139.0%" filterUnits="objectBoundingBox" id="filter-7">
            <feOffset dx="0" dy="1" in="SourceAlpha" result="shadowOffsetOuter1"></feOffset>
            <feColorMatrix values="0 0 0 0 0   0 0 0 0 0   0 0 0 0 0  0 0 0 0.06 0" type="matrix" in="shadowOffsetOuter1"></feColorMatrix>
        </filter>
    </defs>
    <g id="Page-1" stroke="none" stroke-width="1" fill="none" fill-rule="evenodd">
        <g id="iPhone-8" transform="translate(-151.000000, -19.000000)">
            <g id="US" transform="translate(150.237793, 19.379883)">
                <mask id="mask-2" fill="white">
                    <use xlink:href="#path-1"></use>
                </mask>
                <use id="Mask" fill="#D8D8D8" xlink:href="#path-1"></use>
                <g mask="url(#mask-2)">
                    <g transform="translate(-0.026123, 0.500000)">
                        <mask id="mask-4" fill="white">
                            <use xlink:href="#path-3"></use>
                        </mask>
                        <use id="Mask" stroke="none" fill="#FFFFFF" fill-rule="evenodd" xlink:href="#path-3"></use>
                        <path d="M0,0 L21.5634766,0 L21.5634766,1.02683222 L0,1.02683222 L0,0 Z M0,2.05366443 L21.5634766,2.05366443 L21.5634766,3.08049665 L0,3.08049665 L0,2.05366443 Z M0,4.10732887 L21.5634766,4.10732887 L21.5634766,5.13416109 L0,5.13416109 L0,4.10732887 Z M0,6.1609933 L21.5634766,6.1609933 L21.5634766,7.18782552 L0,7.18782552 L0,6.1609933 Z M0,8.21465774 L21.5634766,8.21465774 L21.5634766,9.24148996 L0,9.24148996 L0,8.21465774 Z M0,10.2683222 L21.5634766,10.2683222 L21.5634766,11.2951544 L0,11.2951544 L0,10.2683222 Z M0,12.3219866 L21.5634766,12.3219866 L21.5634766,13.3488188 L0,13.3488188 L0,12.3219866 Z M0,14.375651 L21.5634766,14.375651 L21.5634766,15.4024833 L0,15.4024833 L0,14.375651 Z" id="Rectangle-511" stroke="none" fill="#D02F44" fill-rule="evenodd" mask="url(#mask-4)"></path>
                        <rect id="Rectangle-511" stroke="none" fill="#46467F" fill-rule="evenodd" mask="url(#mask-4)" x="0" y="0" width="9.24148996" height="7.18782552"></rect>
                        <g id="Oval-43" stroke="none" fill="none" mask="url(#mask-4)">
                            <use fill="black" fill-opacity="1" filter="url(#filter-7)" xlink:href="#path-6"></use>
                            <use fill="url(#linearGradient-5)" fill-rule="evenodd" xlink:href="#path-6"></use>
                        </g>
                    </g>
                </g>
            </g>
        </g>
    </g>
</svg>