<svg xmlns="http://www.w3.org/2000/svg" viewBox="0 0 24 24">
  <g transform="translate(-438 -332)">
    <g transform="translate(219 141)">
      <rect style="fill:none;" width="24" height="24" transform="translate(219 191)"/>
    </g>
    <g transform="translate(438 332)">
      <g transform="translate(1.329)">
        <path d="M50.569,20.313,41.2,10.945,30.256,0H29.4l-.175.444a7.847,7.847,0,0,0-.57,3.465,4.893,4.893,0,0,0,1.371,3.126l8.544,8.544L39.7,14.451l7.9,8.833a2.1,2.1,0,0,0,2.971-2.971Z" transform="translate(-28.636)"/>
      </g>
      <g transform="translate(0 13.599)">
        <path d="M7.459,291.442.767,298.134A2.1,2.1,0,1,0,3.738,301.1l6.692-6.692Z" transform="translate(-0.153 -291.442)"/>
      </g>
      <g transform="translate(12.795 0.017)">
        <path d="M284.428,4.322l-3.8,3.8-.99-.99,3.8-3.8-.99-.99-3.8,3.8-.99-.99,3.8-3.8-.99-.99-4.951,4.951A3.5,3.5,0,0,0,274.5,7.577a2.017,2.017,0,0,1-.143.632l3.216,3.216a2.015,2.015,0,0,1,.632-.143,3.494,3.494,0,0,0,2.265-1.018l4.951-4.951Z" transform="translate(-274.354 -0.361)"/>
      </g>
    </g>
  </g>
</svg>
