<svg xmlns="http://www.w3.org/2000/svg" viewBox="0 0 24 24">
  <g transform="translate(-409 -470)">
    <g transform="translate(190 279)">
      <rect style="fill:none;" width="24" height="24" transform="translate(219 191)"/>
    </g>
    <g transform="translate(409 472)">
      <g transform="translate(0 0)">
        <path style="fill:212121;" d="M17.625,33A6.485,6.485,0,0,0,12,36.743,6.485,6.485,0,0,0,6.375,33,6.474,6.474,0,0,0,0,39.809a7.307,7.307,0,0,0,.576,2.847H5.94l1.212-2.424a.732.732,0,0,1,1.258,0L10.594,44.6l.777-1.555a.732.732,0,0,1,1.258,0l.777,1.555,2.184-4.367a.732.732,0,0,1,1.258,0l1.212,2.424h5.364A7.307,7.307,0,0,0,24,39.809,6.474,6.474,0,0,0,17.625,33Z" transform="translate(0 -33)"/>
      </g>
      <g transform="translate(1.314 9.119)">
        <path style="fill:212121;" d="M44.348,229.488a.7.7,0,0,1-.629-.389l-.777-1.555-2.184,4.367a.7.7,0,0,1-1.258,0l-.777-1.555-.777,1.555a.732.732,0,0,1-1.258,0L34.5,227.545l-.777,1.555a.7.7,0,0,1-.629.389H28.037c1.447,2.277,4.053,4.44,7.314,7.191.915.772,1.889,1.594,2.911,2.481a.7.7,0,0,0,.921,0c1.022-.886,2-1.708,2.911-2.481,3.26-2.752,5.866-4.914,7.314-7.191Z" transform="translate(-28.037 -227.545)"/>
      </g>
    </g>
  </g>
</svg>
