<svg xmlns="http://www.w3.org/2000/svg" viewBox="0 0 24 24">
  <path d="M11.77-.23a12,12,0,1,0,12,12A12.012,12.012,0,0,0,11.77-.23Zm.68,17.3a1.123,1.123,0,0,1-.767.3,1.161,1.161,0,0,1-.787-.292,1.021,1.021,0,0,1-.336-.815,1.055,1.055,0,0,1,.325-.784,1.1,1.1,0,0,1,.8-.317,1.085,1.085,0,0,1,1.1,1.1,1.037,1.037,0,0,1-.336.81Zm2.76-6.842a3.359,3.359,0,0,1-.606.815q-.351.344-1.26,1.157a5.191,5.191,0,0,0-.4.4,1.668,1.668,0,0,0-.225.318,1.568,1.568,0,0,0-.115.288q-.04.144-.122.506a.822.822,0,0,1-.879.767.9.9,0,0,1-.645-.248.989.989,0,0,1-.262-.746,2.754,2.754,0,0,1,.192-1.075,2.719,2.719,0,0,1,.51-.8,11.828,11.828,0,0,1,.857-.815q.473-.413.684-.623a2.117,2.117,0,0,0,.354-.469,1.132,1.132,0,0,0,.144-.562,1.306,1.306,0,0,0-.44-1,1.607,1.607,0,0,0-1.134-.407,1.576,1.576,0,0,0-1.2.41,3.235,3.235,0,0,0-.65,1.208q-.249.831-.952.831a.937.937,0,0,1-.7-.292.891.891,0,0,1-.282-.63,2.67,2.67,0,0,1,.451-1.422A3.474,3.474,0,0,1,9.844,6.649a4.14,4.14,0,0,1,2.017-.473,4.307,4.307,0,0,1,1.891.4,3.058,3.058,0,0,1,1.266,1.074,2.638,2.638,0,0,1,.445,1.479A2.3,2.3,0,0,1,15.209,10.226Z" transform="translate(0.23 0.23)"/>
</svg>
