<svg xmlns="http://www.w3.org/2000/svg" viewBox="0 0 15.974 15.973"><defs><style>.a{fill:#5d5d5d;}</style></defs><path class="a" d="M7.956,6.3a.624.624,0,1,1-.624.624A.624.624,0,0,1,7.956,6.3Zm2.184.624a.624.624,0,1,0,.624-.624A.624.624,0,0,0,10.14,6.926Zm-5.616,0A.624.624,0,1,0,5.148,6.3.624.624,0,0,0,4.524,6.926Zm10.9,5.852a1.872,1.872,0,0,1-2.647,2.648L9.353,12.008a.623.623,0,0,1-.156-.26L8.451,9.292a.624.624,0,0,1,.764-.783l2.518.7a.624.624,0,0,1,.274.16Zm-5.08-1.543,2.311,2.306.883-.883-2.3-2.293-1.267-.351Zm4.2,2.426-.12-.12-.882.882.12.12a.624.624,0,1,0,.883-.882Zm-6.209-.73c-.115,0-.232.008-.347.008a7.551,7.551,0,0,1-2.871-.555.625.625,0,0,0-.479,0L1.8,13.585l.957-2.268a.624.624,0,0,0-.109-.657,5.29,5.29,0,0,1-1.4-3.551c0-3.231,3.023-5.861,6.739-5.861s6.739,2.629,6.739,5.861A5.136,5.136,0,0,1,14.166,9.4a.624.624,0,0,0,1.119.553,6.373,6.373,0,0,0,.689-2.84C15.974,3.189,12.391,0,7.987,0S0,3.189,0,7.109a6.469,6.469,0,0,0,1.455,4.076L.049,14.515a.624.624,0,0,0,.817.818l4.022-1.7a8.815,8.815,0,0,0,3.1.552c.133,0,.268,0,.4-.009a.624.624,0,1,0-.055-1.247Zm0,0" transform="translate(0 0)"/></svg>