<?xml version="1.0" encoding="utf-8"?>
<!-- Generator: Adobe Illustrator 22.1.0, SVG Export Plug-In . SVG Version: 6.00 Build 0)  -->
<svg version="1.1" id="Layer_1" xmlns="http://www.w3.org/2000/svg" xmlns:xlink="http://www.w3.org/1999/xlink" x="0px" y="0px"
	 viewBox="0 0 354.8 284" style="enable-background:new 0 0 354.8 284;" xml:space="preserve">
<style type="text/css">
	.st0{fill:#22AF5B;}
	.st1{fill:#2DC16C;}
	.st2{fill:#4AEB96;}
	.st3{clip-path:url(#SVGID_2_);}
	.st4{fill:#1C1C1C;stroke:#025624;stroke-width:0.25;stroke-miterlimit:10;}
	.st5{fill:#E5E5E5;stroke:#025624;stroke-width:0.25;stroke-miterlimit:10;}
</style>
<g>
	<g>
		<g>
			<g>
				<path class="st0" d="M344.7,56.9c0,0-15.1,118.6-17.1,126.1l-4.3-2.1C323.3,180.9,334.7,95.4,344.7,56.9z"/>
				<path class="st0" d="M330,188.2l-10.7-5.1l0.4-2.6c0.1-0.9,11.5-86.1,21.5-124.4l7.2,1.4c-1.5,12.2-15.2,119-17.2,126.6
					L330,188.2z"/>
			</g>
			<g>
				<path class="st1" d="M338.1,186.6c-5.6,24.7-15.5,37-26.1,41.8c-3.6,1.6-7.3,2.4-10.9,2.5c-2.8,0.1-5.5-0.3-8.1-0.9l25.2-87.8
					c0,0,1.3,0.2,3.4,1c0.5,0.2,1.1,0.4,1.6,0.7c0.4,0.2,0.8,0.4,1.2,0.6c1.2,0.6,2.5,1.4,3.8,2.3c1.4,1,2.9,2.3,4.2,3.8
					C338.1,156.9,342.3,167.9,338.1,186.6z"/>
			</g>
			<g>
				<circle class="st0" cx="344.2" cy="62.8" r="6.9"/>
				<path class="st0" d="M344.2,73.4c-5.8,0-10.5-4.6-10.6-10.4s4.6-10.7,10.4-10.8c0.1,0,0.1,0,0.2,0c5.8,0,10.5,4.6,10.6,10.4
					c0,2.8-1,5.5-3,7.6c-2,2-4.6,3.2-7.4,3.2C344.4,73.4,344.3,73.4,344.2,73.4z M344.2,59.5L344.2,59.5c-1.8,0-3.3,1.5-3.2,3.3
					c0,1.8,1.5,3.2,3.2,3.2c0,0,0,0,0.1,0c0.9,0,1.7-0.4,2.3-1s0.9-1.4,0.9-2.3C347.5,60.9,346,59.5,344.2,59.5z"/>
			</g>
			<g>
				<path class="st0" d="M324.4,144.4c-1.1,16.9-5.3,57.4-12.4,84c-3.6,1.6-7.3,2.4-10.9,2.5c-2.8,0.1-5.5-0.3-8.1-0.9l25.2-87.8
					c0,0,1.5-0.6,3.4-0.6c0,0.5,0,1.1-0.1,1.6l0,0c0.5,0.2,1.1,0.4,1.6,0.7C323.6,144,324,144.2,324.4,144.4z"/>
			</g>
		</g>
		<g>
			<g>
				<path class="st0" d="M10.2,56.9c0,0,15.1,118.6,17.1,126.1l4.3-2.1C31.6,180.9,20.2,95.4,10.2,56.9z"/>
				<path class="st0" d="M24.9,188.2l-1.1-4.3c-2-7.5-15.6-114.4-17.2-126.6l7.2-1.4c10,38.3,21.4,123.6,21.5,124.4l0.4,2.6
					L24.9,188.2z"/>
			</g>
			<g>
				<path class="st1" d="M61.9,230c-0.1,0-0.2,0.1-0.3,0.1c-2.5,0.6-5.1,0.9-7.8,0.8c-1.6,0-3.1-0.2-4.7-0.5
					c-2.2-0.4-4.5-1.2-6.7-2.2c-10.4-5-20.1-17.3-25.6-41.6c-4.2-18.8,0-29.7,5.7-36.1c1.4-1.5,2.8-2.8,4.3-3.8
					c0.7-0.5,1.4-1,2.1-1.4c1.7-1,3.2-1.7,4.5-2.2c2-0.8,3.4-1,3.4-1L61.9,230z"/>
			</g>
			<g>
				<circle class="st0" cx="10.6" cy="62.8" r="6.9"/>
				<path class="st0" d="M10.6,73.4c-0.1,0-0.1,0-0.2,0C4.6,73.3-0.1,68.5,0,62.6c0.1-5.8,5-10.4,10.8-10.4
					c5.8,0.1,10.5,4.9,10.4,10.8C21.2,68.7,16.4,73.4,10.6,73.4z M10.6,59.5c-1.8,0-3.2,1.4-3.2,3.2c0,1.8,1.4,3.3,3.2,3.3
					c0,0,0,0,0.1,0c1.8,0,3.2-1.4,3.2-3.2C13.9,61,12.5,59.5,10.6,59.5C10.7,59.5,10.7,59.5,10.6,59.5z"/>
			</g>
			<g>
				<path class="st0" d="M61.9,230c-0.1,0-0.2,0.1-0.3,0.1c-1.8,0.5-4.6,1.2-7.4,1.8c-0.1-0.3-0.3-0.6-0.4-0.9
					c-1.6,0-3.1-0.2-4.7-0.5c-2.2-0.4-4.5-1.2-6.7-2.2c-11.6-30.2-12-68.5-13.5-82.9c1.7-1,3.2-1.7,4.5-2.2c2-0.8,3.4-1,3.4-1
					L61.9,230z"/>
			</g>
		</g>
	</g>
	<path class="st2" d="M292.4,246.7c-19.8,28.7-44,37.3-44,37.3H105.8c0,0-24.3-8.6-44-37.3C42,218.1-31.4,12.8,177.1,0
		C385.6,12.8,312.2,218.1,292.4,246.7z"/>
	<path class="st1" d="M304.3,142.7c-2.4,28.2-9.1,56.8-21.6,82.3c-1.8,3.6-3.6,7.2-5.7,10.6c-1.5,2.6-3.6,7.8-6.3,9.4
		c-2,1.2-5.8,0.9-8.1,1.2c-3.7,0.5-7.4,0.9-11.1,1.3c-7.6,0.9-15.2,1.7-22.8,2.4c-14.8,1.4-29.7,2.4-44.5,2.6
		c-22.7,0.2-45.5-1.7-68.1-3.8c-7.8-0.7-15.6-1.5-23.4-2.4c-3.2-0.3-7.3,0.7-9.9-1.7c-2.8-2.8-4.9-7.6-6.9-11
		c-2.3-4-4.3-8.1-6.3-12.3c-3.7-8.1-6.8-16.4-9.4-24.9C56,182.3,53,168,51.1,153.5c-0.5-3.7-0.9-7.5-1.2-11.3
		c-0.3-3.7,1.9-7.2,5.4-8.5c16.3-6.3,34.1-9.2,51.3-11.7c18.7-2.7,37.5-4.4,56.3-5.5c36.7-2.2,75.7,2.4,111.5,10.3
		c8.2,1.8,16.3,3.9,24.2,6.8C302.3,135,304.6,138.7,304.3,142.7z"/>
	<g>
		<g>
			<defs>
				<path id="SVGID_1_" d="M180.6,247.1c-21.3,0-42.4-1.8-63.9-3.8c-7.7-0.7-15.6-1.5-23.4-2.4c-0.5-0.1-1-0.1-2.2-0.1
					c-1,0-3.1-0.1-4.5-0.2C61.3,203.4,56,153.3,55,139.6c16.4-6.7,34.8-9.7,52.3-12.3c17.1-2.5,35.4-4.3,55.9-5.5
					c5.9-0.4,12.1-0.5,18.3-0.5c28.6,0,59.4,3.6,91.7,10.7c8,1.8,17.1,4,26,7.6c-1,13.7-6.3,63.5-31.3,100.6l-1.8,0.2
					c-26.8,3.2-54.6,6.4-82,6.7C183,247.1,181.8,247.1,180.6,247.1z"/>
			</defs>
			<clipPath id="SVGID_2_">
				<use xlink:href="#SVGID_1_"  style="overflow:visible;"/>
			</clipPath>
			<g class="st3">
				<rect x="87.7" y="121.3" class="st4" width="8.5" height="8.5"/>
				<rect x="96.3" y="121.3" class="st4" width="8.5" height="8.5"/>
				<rect x="104.8" y="121.3" class="st4" width="8.5" height="8.5"/>
				<rect x="113.3" y="121.3" class="st4" width="8.5" height="8.5"/>
				<rect x="121.8" y="121.3" class="st4" width="8.5" height="8.5"/>
				<rect x="130.3" y="121.3" class="st4" width="8.5" height="8.5"/>
				<rect x="138.8" y="121.3" class="st4" width="8.5" height="8.5"/>
				<rect x="147.3" y="121.3" class="st4" width="8.5" height="8.5"/>
				<rect x="155.8" y="121.3" class="st4" width="8.5" height="8.5"/>
				<rect x="164.3" y="121.3" class="st4" width="8.5" height="8.5"/>
				<rect x="172.8" y="121.3" class="st4" width="8.5" height="8.5"/>
				<rect x="53.7" y="129.8" class="st4" width="8.5" height="8.5"/>
				<rect x="62.2" y="129.8" class="st4" width="8.5" height="8.5"/>
				<rect x="70.7" y="129.8" class="st4" width="8.5" height="8.5"/>
				<rect x="79.2" y="129.8" class="st4" width="8.5" height="8.5"/>
				<rect x="87.7" y="129.8" class="st4" width="8.5" height="8.5"/>
				<rect x="96.3" y="129.8" class="st4" width="8.5" height="8.5"/>
				<rect x="104.8" y="129.8" class="st4" width="8.5" height="8.5"/>
				<rect x="113.3" y="129.8" class="st4" width="8.5" height="8.5"/>
				<rect x="121.8" y="129.8" class="st4" width="8.5" height="8.5"/>
				<rect x="130.3" y="129.8" class="st4" width="8.5" height="8.5"/>
				<rect x="138.8" y="129.8" class="st4" width="8.5" height="8.5"/>
				<rect x="147.3" y="129.8" class="st4" width="8.5" height="8.5"/>
				<rect x="155.8" y="129.8" class="st4" width="8.5" height="8.5"/>
				<rect x="164.3" y="129.8" class="st4" width="8.5" height="8.5"/>
				<rect x="172.8" y="129.8" class="st4" width="8.5" height="8.5"/>
				<rect x="53.7" y="138.3" class="st4" width="8.5" height="8.5"/>
				<rect x="62.2" y="138.3" class="st4" width="8.5" height="8.5"/>
				<rect x="70.7" y="138.3" class="st4" width="8.5" height="8.5"/>
				<rect x="79.2" y="138.3" class="st4" width="8.5" height="8.5"/>
				<rect x="87.7" y="138.3" class="st4" width="8.5" height="8.5"/>
				<rect x="96.3" y="138.3" class="st4" width="8.5" height="8.5"/>
				<rect x="104.8" y="138.3" class="st4" width="8.5" height="8.5"/>
				<rect x="113.3" y="138.3" class="st4" width="8.5" height="8.5"/>
				<rect x="121.8" y="138.3" class="st4" width="8.5" height="8.5"/>
				<rect x="130.3" y="138.3" class="st4" width="8.5" height="8.5"/>
				<rect x="138.8" y="138.3" class="st4" width="8.5" height="8.5"/>
				<rect x="147.3" y="138.3" class="st4" width="8.5" height="8.5"/>
				<rect x="155.8" y="138.3" class="st4" width="8.5" height="8.5"/>
				<rect x="164.3" y="138.3" class="st4" width="8.5" height="8.5"/>
				<rect x="172.8" y="138.3" class="st4" width="8.5" height="8.5"/>
				<rect x="53.7" y="146.8" class="st4" width="8.5" height="8.5"/>
				<rect x="62.2" y="146.8" class="st4" width="8.5" height="8.5"/>
				<rect x="70.7" y="146.8" class="st4" width="8.5" height="8.5"/>
				<rect x="79.2" y="146.8" class="st4" width="8.5" height="8.5"/>
				<rect x="87.7" y="146.8" class="st4" width="8.5" height="8.5"/>
				<rect x="96.3" y="146.8" class="st4" width="8.5" height="8.5"/>
				<rect x="104.8" y="146.8" class="st4" width="8.5" height="8.5"/>
				<rect x="113.3" y="146.8" class="st4" width="8.5" height="8.5"/>
				<rect x="121.8" y="146.8" class="st4" width="8.5" height="8.5"/>
				<rect x="130.3" y="146.8" class="st4" width="8.5" height="8.5"/>
				<rect x="138.8" y="146.8" class="st4" width="8.5" height="8.5"/>
				<rect x="147.3" y="146.8" class="st4" width="8.5" height="8.5"/>
				<rect x="155.8" y="146.8" class="st4" width="8.5" height="8.5"/>
				<rect x="164.3" y="146.8" class="st4" width="8.5" height="8.5"/>
				<rect x="172.8" y="146.8" class="st4" width="8.5" height="8.5"/>
				<rect x="53.7" y="155.3" class="st4" width="8.5" height="8.5"/>
				<rect x="62.2" y="155.3" class="st4" width="8.5" height="8.5"/>
				<rect x="70.7" y="155.3" class="st4" width="8.5" height="8.5"/>
				<rect x="79.2" y="155.3" class="st4" width="8.5" height="8.5"/>
				<rect x="87.7" y="155.3" class="st4" width="8.5" height="8.5"/>
				<rect x="96.3" y="155.3" class="st4" width="8.5" height="8.5"/>
				<rect x="104.8" y="155.3" class="st4" width="8.5" height="8.5"/>
				<rect x="113.3" y="155.3" class="st4" width="8.5" height="8.5"/>
				<rect x="121.8" y="155.3" class="st4" width="8.5" height="8.5"/>
				<rect x="130.3" y="155.3" class="st4" width="8.5" height="8.5"/>
				<rect x="138.8" y="155.3" class="st4" width="8.5" height="8.5"/>
				<rect x="147.3" y="155.3" class="st4" width="8.5" height="8.5"/>
				<rect x="155.8" y="155.3" class="st4" width="8.5" height="8.5"/>
				<rect x="164.3" y="155.3" class="st4" width="8.5" height="8.5"/>
				<rect x="172.8" y="155.3" class="st4" width="8.5" height="8.5"/>
				<rect x="53.7" y="163.8" class="st4" width="8.5" height="8.5"/>
				<rect x="62.2" y="163.8" class="st4" width="8.5" height="8.5"/>
				<rect x="70.7" y="163.8" class="st4" width="8.5" height="8.5"/>
				<rect x="79.2" y="163.8" class="st4" width="8.5" height="8.5"/>
				<rect x="87.7" y="163.8" class="st4" width="8.5" height="8.5"/>
				<rect x="96.3" y="163.8" class="st4" width="8.5" height="8.5"/>
				<rect x="104.8" y="163.8" class="st4" width="8.5" height="8.5"/>
				<rect x="113.3" y="163.8" class="st5" width="8.5" height="8.5"/>
				<rect x="121.8" y="163.8" class="st5" width="8.5" height="8.5"/>
				<rect x="130.3" y="163.8" class="st4" width="8.5" height="8.5"/>
				<rect x="138.8" y="163.8" class="st4" width="8.5" height="8.5"/>
				<rect x="147.3" y="163.8" class="st4" width="8.5" height="8.5"/>
				<rect x="155.8" y="163.8" class="st4" width="8.5" height="8.5"/>
				<rect x="164.3" y="163.8" class="st4" width="8.5" height="8.5"/>
				<rect x="172.8" y="163.8" class="st4" width="8.5" height="8.5"/>
				<rect x="53.7" y="172.3" class="st4" width="8.5" height="8.5"/>
				<rect x="62.2" y="172.3" class="st4" width="8.5" height="8.5"/>
				<rect x="70.7" y="172.3" class="st4" width="8.5" height="8.5"/>
				<rect x="79.2" y="172.3" class="st4" width="8.5" height="8.5"/>
				<rect x="87.7" y="172.3" class="st4" width="8.5" height="8.5"/>
				<rect x="96.3" y="172.3" class="st4" width="8.5" height="8.5"/>
				<rect x="104.8" y="172.3" class="st4" width="8.5" height="8.5"/>
				<rect x="113.3" y="172.3" class="st5" width="8.5" height="8.5"/>
				<rect x="121.8" y="172.3" class="st5" width="8.5" height="8.5"/>
				<rect x="130.3" y="172.3" class="st4" width="8.5" height="8.5"/>
				<rect x="138.8" y="172.3" class="st4" width="8.5" height="8.5"/>
				<rect x="147.3" y="172.3" class="st4" width="8.5" height="8.5"/>
				<rect x="155.8" y="172.3" class="st4" width="8.5" height="8.5"/>
				<rect x="164.3" y="172.3" class="st4" width="8.5" height="8.5"/>
				<rect x="172.8" y="172.3" class="st4" width="8.5" height="8.5"/>
				<rect x="53.7" y="180.8" class="st4" width="8.5" height="8.5"/>
				<rect x="62.2" y="180.8" class="st4" width="8.5" height="8.5"/>
				<rect x="70.7" y="180.8" class="st4" width="8.5" height="8.5"/>
				<rect x="79.2" y="180.8" class="st4" width="8.5" height="8.5"/>
				<rect x="87.7" y="180.8" class="st4" width="8.5" height="8.5"/>
				<rect x="96.3" y="180.8" class="st4" width="8.5" height="8.5"/>
				<rect x="104.8" y="180.8" class="st4" width="8.5" height="8.5"/>
				<rect x="113.3" y="180.8" class="st5" width="8.5" height="8.5"/>
				<rect x="121.8" y="180.8" class="st5" width="8.5" height="8.5"/>
				<rect x="130.3" y="180.8" class="st4" width="8.5" height="8.5"/>
				<rect x="138.8" y="180.8" class="st4" width="8.5" height="8.5"/>
				<rect x="147.3" y="180.8" class="st4" width="8.5" height="8.5"/>
				<rect x="155.8" y="180.8" class="st4" width="8.5" height="8.5"/>
				<rect x="164.3" y="180.8" class="st4" width="8.5" height="8.5"/>
				<rect x="172.8" y="180.8" class="st4" width="8.5" height="8.5"/>
				<rect x="62.2" y="189.3" class="st4" width="8.5" height="8.5"/>
				<rect x="70.7" y="189.3" class="st4" width="8.5" height="8.5"/>
				<rect x="79.2" y="189.3" class="st4" width="8.5" height="8.5"/>
				<rect x="87.7" y="189.3" class="st4" width="8.5" height="8.5"/>
				<rect x="96.3" y="189.3" class="st4" width="8.5" height="8.5"/>
				<rect x="104.8" y="189.3" class="st4" width="8.5" height="8.5"/>
				<rect x="113.3" y="189.3" class="st4" width="8.5" height="8.5"/>
				<rect x="121.8" y="189.3" class="st4" width="8.5" height="8.5"/>
				<rect x="130.3" y="189.3" class="st4" width="8.5" height="8.5"/>
				<rect x="138.8" y="189.3" class="st4" width="8.5" height="8.5"/>
				<rect x="147.3" y="189.3" class="st4" width="8.5" height="8.5"/>
				<rect x="155.8" y="189.3" class="st4" width="8.5" height="8.5"/>
				<rect x="164.3" y="189.3" class="st4" width="8.5" height="8.5"/>
				<rect x="172.8" y="189.3" class="st4" width="8.5" height="8.5"/>
				<rect x="62.2" y="197.8" class="st4" width="8.5" height="8.5"/>
				<rect x="70.7" y="197.8" class="st4" width="8.5" height="8.5"/>
				<rect x="79.2" y="197.8" class="st4" width="8.5" height="8.5"/>
				<rect x="87.7" y="197.8" class="st4" width="8.5" height="8.5"/>
				<rect x="96.3" y="197.8" class="st4" width="8.5" height="8.5"/>
				<rect x="104.8" y="197.8" class="st4" width="8.5" height="8.5"/>
				<rect x="113.3" y="197.8" class="st4" width="8.5" height="8.5"/>
				<rect x="121.8" y="197.8" class="st4" width="8.5" height="8.5"/>
				<rect x="130.3" y="197.8" class="st4" width="8.5" height="8.5"/>
				<rect x="138.8" y="197.8" class="st4" width="8.5" height="8.5"/>
				<rect x="147.3" y="197.8" class="st5" width="8.5" height="8.5"/>
				<rect x="155.8" y="197.8" class="st4" width="8.5" height="8.5"/>
				<rect x="164.3" y="197.8" class="st4" width="8.5" height="8.5"/>
				<rect x="172.8" y="197.8" class="st4" width="8.5" height="8.5"/>
				<rect x="62.2" y="206.4" class="st4" width="8.5" height="8.5"/>
				<rect x="70.7" y="206.4" class="st4" width="8.5" height="8.5"/>
				<rect x="79.2" y="206.4" class="st4" width="8.5" height="8.5"/>
				<rect x="87.7" y="206.4" class="st4" width="8.5" height="8.5"/>
				<rect x="96.3" y="206.4" class="st4" width="8.5" height="8.5"/>
				<rect x="104.8" y="206.4" class="st4" width="8.5" height="8.5"/>
				<rect x="113.3" y="206.4" class="st4" width="8.5" height="8.5"/>
				<rect x="121.8" y="206.4" class="st4" width="8.5" height="8.5"/>
				<rect x="130.3" y="206.4" class="st4" width="8.5" height="8.5"/>
				<rect x="138.8" y="206.4" class="st4" width="8.5" height="8.5"/>
				<rect x="147.3" y="206.4" class="st4" width="8.5" height="8.5"/>
				<rect x="155.8" y="206.4" class="st5" width="8.5" height="8.5"/>
				<rect x="164.3" y="206.4" class="st5" width="8.5" height="8.5"/>
				<rect x="172.8" y="206.4" class="st5" width="8.5" height="8.5"/>
				<rect x="70.7" y="214.9" class="st4" width="8.5" height="8.5"/>
				<rect x="79.2" y="214.9" class="st4" width="8.5" height="8.5"/>
				<rect x="87.7" y="214.9" class="st4" width="8.5" height="8.5"/>
				<rect x="96.3" y="214.9" class="st4" width="8.5" height="8.5"/>
				<rect x="104.8" y="214.9" class="st4" width="8.5" height="8.5"/>
				<rect x="113.3" y="214.9" class="st4" width="8.5" height="8.5"/>
				<rect x="121.8" y="214.9" class="st4" width="8.5" height="8.5"/>
				<rect x="130.3" y="214.9" class="st4" width="8.5" height="8.5"/>
				<rect x="138.8" y="214.9" class="st4" width="8.5" height="8.5"/>
				<rect x="147.3" y="214.9" class="st4" width="8.5" height="8.5"/>
				<rect x="155.8" y="214.9" class="st4" width="8.5" height="8.5"/>
				<rect x="164.3" y="214.9" class="st5" width="8.5" height="8.5"/>
				<rect x="172.8" y="214.9" class="st5" width="8.5" height="8.5"/>
				<rect x="70.7" y="223.4" class="st4" width="8.5" height="8.5"/>
				<rect x="79.2" y="223.4" class="st4" width="8.5" height="8.5"/>
				<rect x="87.7" y="223.4" class="st4" width="8.5" height="8.5"/>
				<rect x="96.3" y="223.4" class="st4" width="8.5" height="8.5"/>
				<rect x="104.8" y="223.4" class="st4" width="8.5" height="8.5"/>
				<rect x="113.3" y="223.4" class="st4" width="8.5" height="8.5"/>
				<rect x="121.8" y="223.4" class="st4" width="8.5" height="8.5"/>
				<rect x="130.3" y="223.4" class="st4" width="8.5" height="8.5"/>
				<rect x="138.8" y="223.4" class="st4" width="8.5" height="8.5"/>
				<rect x="147.3" y="223.4" class="st4" width="8.5" height="8.5"/>
				<rect x="155.8" y="223.4" class="st4" width="8.5" height="8.5"/>
				<rect x="164.3" y="223.4" class="st4" width="8.5" height="8.5"/>
				<rect x="172.8" y="223.4" class="st4" width="8.5" height="8.5"/>
				<rect x="79.2" y="231.9" class="st4" width="8.5" height="8.5"/>
				<rect x="87.7" y="231.9" class="st4" width="8.5" height="8.5"/>
				<rect x="96.3" y="231.9" class="st4" width="8.5" height="8.5"/>
				<rect x="104.8" y="231.9" class="st4" width="8.5" height="8.5"/>
				<rect x="113.3" y="231.9" class="st4" width="8.5" height="8.5"/>
				<rect x="121.8" y="231.9" class="st4" width="8.5" height="8.5"/>
				<rect x="130.3" y="231.9" class="st4" width="8.5" height="8.5"/>
				<rect x="138.8" y="231.9" class="st4" width="8.5" height="8.5"/>
				<rect x="147.3" y="231.9" class="st4" width="8.5" height="8.5"/>
				<rect x="155.8" y="231.9" class="st4" width="8.5" height="8.5"/>
				<rect x="164.3" y="231.9" class="st4" width="8.5" height="8.5"/>
				<rect x="172.8" y="231.9" class="st4" width="8.5" height="8.5"/>
				<rect x="79.2" y="240.4" class="st4" width="8.5" height="8.5"/>
				<rect x="87.7" y="240.4" class="st4" width="8.5" height="8.5"/>
				<rect x="96.3" y="240.4" class="st4" width="8.5" height="8.5"/>
				<rect x="104.8" y="240.4" class="st4" width="8.5" height="8.5"/>
				<rect x="113.3" y="240.4" class="st4" width="8.5" height="8.5"/>
				<rect x="121.8" y="240.4" class="st4" width="8.5" height="8.5"/>
				<rect x="130.3" y="240.4" class="st4" width="8.5" height="8.5"/>
				<rect x="138.8" y="240.4" class="st4" width="8.5" height="8.5"/>
				<rect x="147.3" y="240.4" class="st4" width="8.5" height="8.5"/>
				<rect x="155.8" y="240.4" class="st4" width="8.5" height="8.5"/>
				<rect x="164.3" y="240.4" class="st4" width="8.5" height="8.5"/>
				<rect x="172.8" y="240.4" class="st4" width="8.5" height="8.5"/>
				<rect x="181.4" y="121.3" class="st4" width="8.5" height="8.5"/>
				<rect x="189.9" y="121.3" class="st4" width="8.5" height="8.5"/>
				<rect x="198.4" y="121.3" class="st4" width="8.5" height="8.5"/>
				<rect x="206.9" y="121.3" class="st4" width="8.5" height="8.5"/>
				<rect x="215.4" y="121.3" class="st4" width="8.5" height="8.5"/>
				<rect x="223.9" y="121.3" class="st4" width="8.5" height="8.5"/>
				<rect x="232.4" y="121.3" class="st4" width="8.5" height="8.5"/>
				<rect x="240.9" y="121.3" class="st4" width="8.5" height="8.5"/>
				<rect x="249.4" y="121.3" class="st4" width="8.5" height="8.5"/>
				<rect x="257.9" y="121.3" class="st4" width="8.5" height="8.5"/>
				<rect x="181.4" y="129.8" class="st4" width="8.5" height="8.5"/>
				<rect x="189.9" y="129.8" class="st4" width="8.5" height="8.5"/>
				<rect x="198.4" y="129.8" class="st4" width="8.5" height="8.5"/>
				<rect x="206.9" y="129.8" class="st4" width="8.5" height="8.5"/>
				<rect x="215.4" y="129.8" class="st4" width="8.5" height="8.5"/>
				<rect x="223.9" y="129.8" class="st4" width="8.5" height="8.5"/>
				<rect x="232.4" y="129.8" class="st4" width="8.5" height="8.5"/>
				<rect x="240.9" y="129.8" class="st4" width="8.5" height="8.5"/>
				<rect x="249.4" y="129.8" class="st4" width="8.5" height="8.5"/>
				<rect x="257.9" y="129.8" class="st4" width="8.5" height="8.5"/>
				<rect x="266.4" y="129.8" class="st4" width="8.5" height="8.5"/>
				<rect x="275" y="129.8" class="st4" width="8.5" height="8.5"/>
				<rect x="283.5" y="129.8" class="st4" width="8.5" height="8.5"/>
				<rect x="292" y="129.8" class="st4" width="8.5" height="8.5"/>
				<rect x="181.4" y="138.3" class="st4" width="8.5" height="8.5"/>
				<rect x="189.9" y="138.3" class="st4" width="8.5" height="8.5"/>
				<rect x="198.4" y="138.3" class="st4" width="8.5" height="8.5"/>
				<rect x="206.9" y="138.3" class="st4" width="8.5" height="8.5"/>
				<rect x="215.4" y="138.3" class="st4" width="8.5" height="8.5"/>
				<rect x="223.9" y="138.3" class="st4" width="8.5" height="8.5"/>
				<rect x="232.4" y="138.3" class="st4" width="8.5" height="8.5"/>
				<rect x="240.9" y="138.3" class="st4" width="8.5" height="8.5"/>
				<rect x="249.4" y="138.3" class="st4" width="8.5" height="8.5"/>
				<rect x="257.9" y="138.3" class="st4" width="8.5" height="8.5"/>
				<rect x="266.4" y="138.3" class="st4" width="8.5" height="8.5"/>
				<rect x="275" y="138.3" class="st4" width="8.5" height="8.5"/>
				<rect x="283.5" y="138.3" class="st4" width="8.5" height="8.5"/>
				<rect x="292" y="138.3" class="st4" width="8.5" height="8.5"/>
				<rect x="181.4" y="146.8" class="st4" width="8.5" height="8.5"/>
				<rect x="189.9" y="146.8" class="st4" width="8.5" height="8.5"/>
				<rect x="198.4" y="146.8" class="st4" width="8.5" height="8.5"/>
				<rect x="206.9" y="146.8" class="st4" width="8.5" height="8.5"/>
				<rect x="215.4" y="146.8" class="st4" width="8.5" height="8.5"/>
				<rect x="223.9" y="146.8" class="st4" width="8.5" height="8.5"/>
				<rect x="232.4" y="146.8" class="st4" width="8.5" height="8.5"/>
				<rect x="240.9" y="146.8" class="st4" width="8.5" height="8.5"/>
				<rect x="249.4" y="146.8" class="st4" width="8.5" height="8.5"/>
				<rect x="257.9" y="146.8" class="st4" width="8.5" height="8.5"/>
				<rect x="266.4" y="146.8" class="st4" width="8.5" height="8.5"/>
				<rect x="275" y="146.8" class="st4" width="8.5" height="8.5"/>
				<rect x="283.5" y="146.8" class="st4" width="8.5" height="8.5"/>
				<rect x="292" y="146.8" class="st4" width="8.5" height="8.5"/>
				<rect x="181.4" y="155.3" class="st4" width="8.5" height="8.5"/>
				<rect x="189.9" y="155.3" class="st4" width="8.5" height="8.5"/>
				<rect x="198.4" y="155.3" class="st4" width="8.5" height="8.5"/>
				<rect x="206.9" y="155.3" class="st4" width="8.5" height="8.5"/>
				<rect x="215.4" y="155.3" class="st4" width="8.5" height="8.5"/>
				<rect x="223.9" y="155.3" class="st4" width="8.5" height="8.5"/>
				<rect x="232.4" y="155.3" class="st4" width="8.5" height="8.5"/>
				<rect x="240.9" y="155.3" class="st4" width="8.5" height="8.5"/>
				<rect x="249.4" y="155.3" class="st4" width="8.5" height="8.5"/>
				<rect x="257.9" y="155.3" class="st4" width="8.5" height="8.5"/>
				<rect x="266.4" y="155.3" class="st4" width="8.5" height="8.5"/>
				<rect x="275" y="155.3" class="st4" width="8.5" height="8.5"/>
				<rect x="283.5" y="155.3" class="st4" width="8.5" height="8.5"/>
				<rect x="292" y="155.3" class="st4" width="8.5" height="8.5"/>
				<rect x="181.4" y="163.8" class="st4" width="8.5" height="8.5"/>
				<rect x="189.9" y="163.8" class="st4" width="8.5" height="8.5"/>
				<rect x="198.4" y="163.8" class="st4" width="8.5" height="8.5"/>
				<rect x="206.9" y="163.8" class="st4" width="8.5" height="8.5"/>
				<rect x="215.4" y="163.8" class="st4" width="8.5" height="8.5"/>
				<rect x="223.9" y="163.8" class="st5" width="8.5" height="8.5"/>
				<rect x="232.4" y="163.8" class="st5" width="8.5" height="8.5"/>
				<rect x="240.9" y="163.8" class="st4" width="8.5" height="8.5"/>
				<rect x="249.4" y="163.8" class="st4" width="8.5" height="8.5"/>
				<rect x="257.9" y="163.8" class="st4" width="8.5" height="8.5"/>
				<rect x="266.4" y="163.8" class="st4" width="8.5" height="8.5"/>
				<rect x="275" y="163.8" class="st4" width="8.5" height="8.5"/>
				<rect x="283.5" y="163.8" class="st4" width="8.5" height="8.5"/>
				<rect x="292" y="163.8" class="st4" width="8.5" height="8.5"/>
				<rect x="181.4" y="172.3" class="st4" width="8.5" height="8.5"/>
				<rect x="189.9" y="172.3" class="st4" width="8.5" height="8.5"/>
				<rect x="198.4" y="172.3" class="st4" width="8.5" height="8.5"/>
				<rect x="206.9" y="172.3" class="st4" width="8.5" height="8.5"/>
				<rect x="215.4" y="172.3" class="st4" width="8.5" height="8.5"/>
				<rect x="223.9" y="172.3" class="st5" width="8.5" height="8.5"/>
				<rect x="232.4" y="172.3" class="st5" width="8.5" height="8.5"/>
				<rect x="240.9" y="172.3" class="st4" width="8.5" height="8.5"/>
				<rect x="249.4" y="172.3" class="st4" width="8.5" height="8.5"/>
				<rect x="257.9" y="172.3" class="st4" width="8.5" height="8.5"/>
				<rect x="266.4" y="172.3" class="st4" width="8.5" height="8.5"/>
				<rect x="275" y="172.3" class="st4" width="8.5" height="8.5"/>
				<rect x="283.5" y="172.3" class="st4" width="8.5" height="8.5"/>
				<rect x="292" y="172.3" class="st4" width="8.5" height="8.5"/>
				<rect x="181.4" y="180.8" class="st4" width="8.5" height="8.5"/>
				<rect x="189.9" y="180.8" class="st4" width="8.5" height="8.5"/>
				<rect x="198.4" y="180.8" class="st4" width="8.5" height="8.5"/>
				<rect x="206.9" y="180.8" class="st4" width="8.5" height="8.5"/>
				<rect x="215.4" y="180.8" class="st4" width="8.5" height="8.5"/>
				<rect x="223.9" y="180.8" class="st5" width="8.5" height="8.5"/>
				<rect x="232.4" y="180.8" class="st5" width="8.5" height="8.5"/>
				<rect x="240.9" y="180.8" class="st4" width="8.5" height="8.5"/>
				<rect x="249.4" y="180.8" class="st4" width="8.5" height="8.5"/>
				<rect x="257.9" y="180.8" class="st4" width="8.5" height="8.5"/>
				<rect x="266.4" y="180.8" class="st4" width="8.5" height="8.5"/>
				<rect x="275" y="180.8" class="st4" width="8.5" height="8.5"/>
				<rect x="283.5" y="180.8" class="st4" width="8.5" height="8.5"/>
				<rect x="292" y="180.8" class="st4" width="8.5" height="8.5"/>
				<rect x="181.4" y="189.3" class="st4" width="8.5" height="8.5"/>
				<rect x="189.9" y="189.3" class="st4" width="8.5" height="8.5"/>
				<rect x="198.4" y="189.3" class="st4" width="8.5" height="8.5"/>
				<rect x="206.9" y="189.3" class="st4" width="8.5" height="8.5"/>
				<rect x="215.4" y="189.3" class="st4" width="8.5" height="8.5"/>
				<rect x="223.9" y="189.3" class="st4" width="8.5" height="8.5"/>
				<rect x="232.4" y="189.3" class="st4" width="8.5" height="8.5"/>
				<rect x="240.9" y="189.3" class="st4" width="8.5" height="8.5"/>
				<rect x="249.4" y="189.3" class="st4" width="8.5" height="8.5"/>
				<rect x="257.9" y="189.3" class="st4" width="8.5" height="8.5"/>
				<rect x="266.4" y="189.3" class="st4" width="8.5" height="8.5"/>
				<rect x="275" y="189.3" class="st4" width="8.5" height="8.5"/>
				<rect x="283.5" y="189.3" class="st4" width="8.5" height="8.5"/>
				<rect x="181.4" y="197.8" class="st4" width="8.5" height="8.5"/>
				<rect x="189.9" y="197.8" class="st4" width="8.5" height="8.5"/>
				<rect x="198.4" y="197.8" class="st5" width="8.5" height="8.5"/>
				<rect x="206.9" y="197.8" class="st4" width="8.5" height="8.5"/>
				<rect x="215.4" y="197.8" class="st4" width="8.5" height="8.5"/>
				<rect x="223.9" y="197.8" class="st4" width="8.5" height="8.5"/>
				<rect x="232.4" y="197.8" class="st4" width="8.5" height="8.5"/>
				<rect x="240.9" y="197.8" class="st4" width="8.5" height="8.5"/>
				<rect x="249.4" y="197.8" class="st4" width="8.5" height="8.5"/>
				<rect x="257.9" y="197.8" class="st4" width="8.5" height="8.5"/>
				<rect x="266.4" y="197.8" class="st4" width="8.5" height="8.5"/>
				<rect x="275" y="197.8" class="st4" width="8.5" height="8.5"/>
				<rect x="283.5" y="197.8" class="st4" width="8.5" height="8.5"/>
				<rect x="181.4" y="206.4" class="st5" width="8.5" height="8.5"/>
				<rect x="189.9" y="206.4" class="st5" width="8.5" height="8.5"/>
				<rect x="198.4" y="206.4" class="st4" width="8.5" height="8.5"/>
				<rect x="206.9" y="206.4" class="st4" width="8.5" height="8.5"/>
				<rect x="215.4" y="206.4" class="st4" width="8.5" height="8.5"/>
				<rect x="223.9" y="206.4" class="st4" width="8.5" height="8.5"/>
				<rect x="232.4" y="206.4" class="st4" width="8.5" height="8.5"/>
				<rect x="240.9" y="206.4" class="st4" width="8.5" height="8.5"/>
				<rect x="249.4" y="206.4" class="st4" width="8.5" height="8.5"/>
				<rect x="257.9" y="206.4" class="st4" width="8.5" height="8.5"/>
				<rect x="266.4" y="206.4" class="st4" width="8.5" height="8.5"/>
				<rect x="275" y="206.4" class="st4" width="8.5" height="8.5"/>
				<rect x="283.5" y="206.4" class="st4" width="8.5" height="8.5"/>
				<rect x="181.4" y="214.9" class="st5" width="8.5" height="8.5"/>
				<rect x="189.9" y="214.9" class="st4" width="8.5" height="8.5"/>
				<rect x="198.4" y="214.9" class="st4" width="8.5" height="8.5"/>
				<rect x="206.9" y="214.9" class="st4" width="8.5" height="8.5"/>
				<rect x="215.4" y="214.9" class="st4" width="8.5" height="8.5"/>
				<rect x="223.9" y="214.9" class="st4" width="8.5" height="8.5"/>
				<rect x="232.4" y="214.9" class="st4" width="8.5" height="8.5"/>
				<rect x="240.9" y="214.9" class="st4" width="8.5" height="8.5"/>
				<rect x="249.4" y="214.9" class="st4" width="8.5" height="8.5"/>
				<rect x="257.9" y="214.9" class="st4" width="8.5" height="8.5"/>
				<rect x="266.4" y="214.9" class="st4" width="8.5" height="8.5"/>
				<rect x="275" y="214.9" class="st4" width="8.5" height="8.5"/>
				<rect x="181.4" y="223.4" class="st4" width="8.5" height="8.5"/>
				<rect x="189.9" y="223.4" class="st4" width="8.5" height="8.5"/>
				<rect x="198.4" y="223.4" class="st4" width="8.5" height="8.5"/>
				<rect x="206.9" y="223.4" class="st4" width="8.5" height="8.5"/>
				<rect x="215.4" y="223.4" class="st4" width="8.5" height="8.5"/>
				<rect x="223.9" y="223.4" class="st4" width="8.5" height="8.5"/>
				<rect x="232.4" y="223.4" class="st4" width="8.5" height="8.5"/>
				<rect x="240.9" y="223.4" class="st4" width="8.5" height="8.5"/>
				<rect x="249.4" y="223.4" class="st4" width="8.5" height="8.5"/>
				<rect x="257.9" y="223.4" class="st4" width="8.5" height="8.5"/>
				<rect x="266.4" y="223.4" class="st4" width="8.5" height="8.5"/>
				<rect x="275" y="223.4" class="st4" width="8.5" height="8.5"/>
				<rect x="181.4" y="231.9" class="st4" width="8.5" height="8.5"/>
				<rect x="189.9" y="231.9" class="st4" width="8.5" height="8.5"/>
				<rect x="198.4" y="231.9" class="st4" width="8.5" height="8.5"/>
				<rect x="206.9" y="231.9" class="st4" width="8.5" height="8.5"/>
				<rect x="215.4" y="231.9" class="st4" width="8.5" height="8.5"/>
				<rect x="223.9" y="231.9" class="st4" width="8.5" height="8.5"/>
				<rect x="232.4" y="231.9" class="st4" width="8.5" height="8.5"/>
				<rect x="240.9" y="231.9" class="st4" width="8.5" height="8.5"/>
				<rect x="249.4" y="231.9" class="st4" width="8.5" height="8.5"/>
				<rect x="257.9" y="231.9" class="st4" width="8.5" height="8.5"/>
				<rect x="266.4" y="231.9" class="st4" width="8.5" height="8.5"/>
				<rect x="275" y="231.9" class="st4" width="8.5" height="8.5"/>
				<rect x="181.4" y="240.4" class="st4" width="8.5" height="8.5"/>
				<rect x="189.9" y="240.4" class="st4" width="8.5" height="8.5"/>
				<rect x="198.4" y="240.4" class="st4" width="8.5" height="8.5"/>
				<rect x="206.9" y="240.4" class="st4" width="8.5" height="8.5"/>
				<rect x="215.4" y="240.4" class="st4" width="8.5" height="8.5"/>
				<rect x="223.9" y="240.4" class="st4" width="8.5" height="8.5"/>
				<rect x="232.4" y="240.4" class="st4" width="8.5" height="8.5"/>
				<rect x="240.9" y="240.4" class="st4" width="8.5" height="8.5"/>
				<rect x="249.4" y="240.4" class="st4" width="8.5" height="8.5"/>
				<rect x="257.9" y="240.4" class="st4" width="8.5" height="8.5"/>
			</g>
		</g>
	</g>
</g>
</svg>
